<svg xmlns="http://www.w3.org/2000/svg" viewBox="0 0 1070.47 756.59"><defs><style>.cls-1{fill:#030303;}</style></defs><title>Ativo 7</title><g id="Camada_2" data-name="Camada 2"><g id="Camada_1-2" data-name="Camada 1"><path class="cls-1" d="M715.27,548.64c-.94,0-1.7.82-2.82.31-10.85-4.94-22.7-7.58-33.27-14.43,4.74-.63,7.85,2.44,11.56,3.5l.37.18,7.35,2.94Z"/><path class="cls-1" d="M46.73,339.81c1.25.27.93-2.31,1.77-1.42,2.06,2.17,5.6,3,6.19,6.51l-1.95-.23c-.76-1.44-2.68-.47-3.53-1.71C48,342.19,46.78,341.47,46.73,339.81Z"/><path class="cls-1" d="M348.89,379c16.49-3.88,29.36-13.75,41.58-24.85,9.42-8.56,16.09-19.33,24.1-29,24.31-29.38,52.07-54.88,84.16-75.43,15.58-10,33.07-16.26,50.3-22.94,31.11-12.05,63.4-19.71,95.86-27.05,40.37-9.15,80.58-19,119.49-33.55,16.91-6.31,34.68-10.3,51.35-17.36,12.28-5.2,24.4-10.81,36.46-16.53a567,567,0,0,0,56.41-30.8c18.67-11.61,35.14-26.07,51.48-40.67,5.81-5.18,11.53-10.44,18-14.81,5.82-3.92,11.45-3.24,13,5,1.79,9.32.27,18.16-2.09,26.92a176.61,176.61,0,0,1-16.42,39.55c-3.84,7-9.73,12.06-14.85,17.86-1,1.12-2.19,2.08-3.06,3.28-1.53,2.12-1.78,4,1.6,4.33,1.31.11,2.37.84,3.79.84,4.92,0,7.74,3.68,6.91,8.77-2.27,13.86-9.13,25.65-16.84,37.05-1,1.47-3,3.12-2.34,4.65,2.45,6-2,9.43-4.58,13.47-5,7.66-9.55,15.59-17.86,20.56-2.14,1.27-3.52,4.27-4,7.59-.93,6.19-5,11.13-9.14,15.61-5.35,5.84-11.59,10.79-17.83,15.68-2.22,1.73-4.34,3.58-6.54,5.33-.51.4-1.36.63-1.07,1.41,2,5.51-2.73,8.43-5,12a147.28,147.28,0,0,1-28.82,34c-6.14,5.23-12,11.33-20.89,12.27-.65.07-3.91.36-1.8,3,.09.11-.39.91-.76,1.13-5.46,3.27-8.79,9.26-15.78,10.82a68,68,0,0,0-17.56,6.74c7,2.69,7.77,6.25,3.48,12.49-6.21,9-15.06,14.6-24.41,19.82C764,392.35,751.64,396,740,401.3c4.46,1.75,5,4.38,1.24,7.22a49,49,0,0,1-9.27,5.33c-11.08,4.93-20.12,13.33-31.24,18.13-19.28,8.33-38.84,15.91-59.11,21.46-3.74,1-7.75,1-12.39,1.62,1.14.84,1.59,1.41,2.13,1.51,1.1.2,2.68-1.34,3.18.87a3.4,3.4,0,0,1-1.48,3.91c-1.92,1.26-3.67,2.93-5.77,3.73-8.87,3.36-17.18,8-26.29,10.88a179,179,0,0,1-52.24,7.8,34.5,34.5,0,0,0-8.69.8l19.13,4.71c.25,2.52-2,.53-2,2.33a23.87,23.87,0,0,0,8.53,4.81c9.44,2.64,18,7.12,26.25,12.19C615.28,522.9,639,536.52,664,547.78A682.53,682.53,0,0,0,778.19,588c22.68,5.7,45.54,10.77,68.8,13.92,17,2.3,33.79,6.19,50.71,9.17,13.2,2.32,26.51,4,39.85,5.46,11.68,1.3,23.31,3,35,4.26,14.05,1.53,27.94,4,41.83,6.58,13,2.4,26.19,4.21,39.26,6.42,5.48.93,10.74,2.61,15.3,6,2.73,2,1.66,7.49-2,10a40.58,40.58,0,0,1-19.41,6.84c-7.83.7-15.48,3.34-24,1.69.5,3.09,2.07,5.5.2,8s-4.66,2-7.19,2.59c-17,3.83-34.3,3.27-51.52,3.93-1.66.06-3.31.23-5,.41a2.47,2.47,0,0,0-2.38,2.18c-.22,1.56,1.43.95,2,1.51,6.81,6.47,15.73,9.59,23.4,14.71a9.71,9.71,0,0,1,4.51,8.28c.07,3.29-3.42,3.32-5.9,4-9.64,2.8-19.56,3.21-29.48,4-21.37,1.63-42.77.49-64.8,1,7.37,3.69,13.52,8.3,21,10.37,3.82,1,5.5,4.65,6.82,8,1.24,3.15-1.13,5.06-3.59,6.24a49,49,0,0,1-17.41,5c-7.61.61-15.19,1.7-22.88,1.2-2.87-.19-4.51.38-2.25,4,3.75,6,.89,10.63-6.14,12.21-8.85,2-17-.81-25.27-2.74-32.06-7.49-63.15-18.14-94.28-28.69-22.37-7.58-44.68-15.26-66.67-24-20.75-8.25-41.27-16.9-61.41-26.49a126.82,126.82,0,0,1-15.53-8.69c-4.29-2.85-8.26-3.29-13-1.31-15.23,6.42-31.42,8.68-47.65,10.84-13.12,1.73-26.2,3.81-39.23,6.13s-26.26,3.39-39.42,4.66c-19.32,1.86-38.73,2.84-58.14,1.1-23.48-2.1-46.74-5.19-69.79-10.68a320.55,320.55,0,0,1-68.07-24.21,218.2,218.2,0,0,1-39.2-24.72,171,171,0,0,0-17-11.94c-4-2.46-8.57-.78-12.76.34-11.4,3-23.15,3.58-34.76,5.12-2.84.37-3.38-.84-2.4-3.67a2.92,2.92,0,0,0-.21-1.87c-.07-.19-.94-.31-1.26-.13-4.68,2.76-10.19,3.45-14.84,6.56-7.69,5.16-12.7,11.64-13.56,21-.29,3.07-3.59,4.11-7.79,3.08-18.13-4.48-26.1-26.47-21.73-39.94,1.89-5.81.53-7.59-5.48-6.74-11.78,1.67-23.45,4-33.82,10.35a24.56,24.56,0,0,0-8,7.37,20.77,20.77,0,0,1-3.44,3.3c-.83-1.92-3-2.43-4-4.65-2.41-5.67-1.16-11.13-.19-16.61,1.82-10.27,8-18.28,14.29-26.17,1.68-2.13,3-4.69,5.66-6,.87-.42,1.52-1.27.38-2.75-4.6-6-4.44-13.13-3.71-20,2-18.74,7.94-36,19.85-51,7.86-9.89,18.14-16.4,29.2-21.84,11.52-5.67,23.16-11,36-13.29,6.28-1.11,7-3.48,5.16-9.77-7-23.77-20-44.51-33-65.26C109.44,368.82,101,354.9,94.33,340a44.07,44.07,0,0,1-3.89-12.6c-.81-6.24-4.61-11.58-7.77-17C73.12,294,64.3,277.19,58.77,259c-7.06-23.23-16.3-45.8-21.52-69.6a516.85,516.85,0,0,1-8.75-51.62c-2.37-20.58-5.14-41.1-4.76-61.87.26-13.74,1.49-27.44,3.1-41.09a15.38,15.38,0,0,1,1.82-5.59c3.54-6.35,5.47-13.29,7.85-20.08,2.68-7.67,9.86-12.25,18.34-6.7,5.31,3.47,10.53,6.82,14.33,12,2.47,3.38,5.88,5.8,9.1,8.43,10.48,8.54,22,15.6,33.26,22.89,15.95,10.31,27,25,38.17,39.72,8,10.52,13.58,22.44,19.33,34.26.49,1,.26,2.88,2.46,2.88-.67-5.39,1.26-10.84-.54-16.22a1.76,1.76,0,0,1,.69-2.16c1.1-.86,1.81-.21,2.52.56a13.15,13.15,0,0,1,1,1.09c6.95,9,14.5,17.71,20.66,27.26,6.83,10.61,14,21.17,18.65,33,3.14,8,9.28,14,12.91,21.56,4,8.34,8,16.67,12.33,24.82a39.52,39.52,0,0,0,11.76,14c6.06,4.35,8.73,11.42,12.3,17.68,8.78,15.34,14.56,31.91,19.47,48.8,1.67,5.72,4.9,10,9.15,14.21,10.06,9.9,20.1,19.78,31,28.72,8.19,6.7,16.24,13.66,25.62,18.62,7.12,3.76,14.48,7.78,23.1,4.13,1.51-.64,2.39,1.15,3.38,1.81.8.53-.58,1.94-1.4,2.78-5.17,5.32-11.79,8.29-18.36,11.35-2.48,1.16-5.18,1.95-7.14,4-.63.09-1.57-.07-.88,1.09-4.53,1-9.16,1.89-12.51,5.43,5,0,9.34-1.47,12.39-5.52C348.24,379.79,348.79,379.74,348.89,379ZM152.48,389.43l-1,.72.57.64.37-1.38-1.78-.6c.09-.7-.26-1-.93-1.05-.27-1-.7-1.33-1.45-.36.82-1.16-.23-2.19-.2-3.29-.32.25-1.34-.44-1,.73l1-.78a4.11,4.11,0,0,0,.24,3.24c.51.12.86.94,1.52.36-.21.81-.38,1.56.92,1.06,0,.6,0,1.28.79,1.34C151.83,390.09,152.18,389.66,152.48,389.43Zm315.58,15.76c.68-.28,1.52-.37,1.67-1.32a8.23,8.23,0,0,0,5.85-4.54c-3.07.94-4.61,2.58-6.32,3.94-.65.38-1.57.44-1.68,1.45l-.94.65C467.2,406,467.63,405.64,468.06,405.19Zm-3.44-100.42-1.56,1.32c-.75.86-2.35,1-2.21,2.82a4.63,4.63,0,0,0,2.89-2l1.45-1.55.71-1.33,3.3-2.7c.07-.4.32-1.05.19-1.13-.53-.34-.71.11-.8.57-1.39.62-2.7,1.31-3,3C464.89,303.7,464.68,304.16,464.62,304.77Zm421.44-54.56c.7-.25,1.5-.35,1.63-1.31.85-.33,2.2-1,1.66-1.68-.75-.9-1.49.54-2.2,1s-1.51.55-1.56,1.54l-.92.82C885.42,251.43,885.7,250.67,886.06,250.21ZM73.68,238.84c.15.41.3.82.46,1.23.15-.16.45-.32.44-.47,0-.62-.14-1.29-1-.61a2.43,2.43,0,0,0-.8-3.24c-.38-4.27-2.59-7.75-4.61-11.32.36,4.3,2.48,8,3.93,11.86C72.82,237,72.23,238.56,73.68,238.84Zm807.43,14.68c2.17,1.25,2.53-.56,3.57-1.86-2-.27-2.39,1.32-3.38,2l-.38,1.15c.25-.11.61-.16.73-.35C882,253.85,881.47,253.71,881.11,253.52Zm-423,59.09c1-.9,2.55-1.32,2.52-3.16-1.67.14-2.36,1.18-3,2.29-.62.2-1.13.52-.61,1.22C457,313.06,457.68,312.74,458.06,312.61Zm-210,296.49-2,.13c.08.14.11.34.22.4.78.42,1.45.44,1.76-.58-1.33,2.44,1.66,2,2.18,3.25.7-.06,1.37.88,2.07,0,.07-.08,0-.43-.05-.44-.79-.24-1.57-.42-2.06.52C251.55,610,248.17,610.59,248.07,609.1Zm268-289.85c-2.6-1.38-3,.81-4.37,2.37,2.52.21,2.86-2.06,4.4-2.42ZM683.62,681.73c-.45-1.29-1.38-1-2.29-.67-.11,0-.15.28-.22.43.87,0,1.69,1,2.59.11.6,1.9,2.19,2.09,3.81,2.25a24.87,24.87,0,0,0,12.75,5.31l-12.14-6.07C686.59,682.73,685.35,681.44,683.62,681.73ZM823.06,731.4c2.37-.62,4.19,1.68,6.54,1.16-2.12-.66-4-2.55-6.53-1.13-.54-3-3.32-2-4.51-2.51C819.53,729.82,822.25,728.92,823.06,731.4ZM938.72,153c2.07-1.29,3.33-3.26,4.79-5.4-3.76-.32-3.51,3.61-5.7,4.69-.34.51-1.68.78-.72,1.6C937.76,154.42,938.4,153.7,938.72,153ZM218.6,578.81c-.46-1.92-1.93-1.89-4.15-2.24,1.7,1.43,2.66,2.46,4.26,2.15a28.75,28.75,0,0,0,11.64,5.63C226.49,582.4,223.46,578.62,218.6,578.81ZM111.91,323.67c-.69.41-.78-.24-1-.59l1.17.63c-.09,5.07,3.63,8,6.28,11.57C117.46,330.7,114.42,327.33,111.91,323.67ZM241.14,629.32l0,0c-3.41-2.7-6.47-6-11.3-6.2C233.47,625.51,235.83,630.06,241.14,629.32ZM403.85,401.49c6.35,1.24,10-3.6,14.54-6.39-5.42.81-9.8,4-14.5,6.36l.46.86.37-.42ZM141.74,295.75c-.18-2-.92-3.63-3.32-5.34.71,2.79,1.46,4.45,3,5.71q2.84,7.56,5.65,15.14C146.54,305.6,145.61,300.12,141.74,295.75Zm91.19-26.39,0,.15.16-.1c.25,5.36,4.66,7.52,7.26,11.25.87-.87,1-1,1-1a1.22,1.22,0,0,0-.31-.33C237.16,276.94,238.17,270.59,232.93,269.36Zm284.39-11.85c6.94.22,11.15-6,17.46-7.32-6.52.74-11.67,4.66-17.3,7.46l-1.55.71c.19.14.4.43.57.4C517.2,258.67,518.15,258.64,517.32,257.51ZM555,445c-1.16,0-2.58-1.19-3.33.47-.2.44.6,1.92,1,2,3.68.32,7.24,2.53,12.07.87-3.91-1.22-7.33-1.05-9.73-3.46l-.25.14Zm-61.69,44.06c7.39,2.72,15,4.9,22.05,8.49-6-6.15-13.9-7.3-21.67-8.88-12.36-5.76-25.56-6.58-39.86-7.27,3,2.21,5.4,1.22,7.61,1.61C472.11,484.94,482.88,486.17,493.33,489.09ZM247.65,289.83c-.91-3.07-2.11-6-4.88-7.9.9,3.07,1.79,6.14,5,7.79.87,7,7.69,10,10.24,15.95a30,30,0,0,0-5.21-22.15c.21,4.68,3,8.11,2.1,12.38C253.24,292.79,250.22,291.59,247.65,289.83Zm-53.87,15.86c-.35-1-1-1-1.82-.55l1.23,1.21c2.48,8.53,10.07,12.41,16.31,17.33a17.51,17.51,0,0,0,10.86,4.14A270.59,270.59,0,0,0,193.78,305.69ZM61.87,582.48c.92.93,1.68.39,2.61-.13,5.73-3.19,11.59-6.15,17.21-9.52,2-1.23,6.49-1.54,5.37-4.32-.73-1.8-5.34-1-8.21-.11-.15.05-.3.15-.46.19-7.56,2.18-12.28,7.74-16.51,13.88l.83.62c0-.1,0-.28,0-.29C62.44,582.67,62.15,582.58,61.87,582.48ZM109.16,263l.59-.71-.33-.12-.16.81c2.83,4.22,5.43,8.7,11.18,9.47.55-1.27,0-2.4-.5-3.68-.94-2.48,1.59-3.41,2.65-5,3.29,2.67,2-1.25,3.07-2.35a156.26,156.26,0,0,0,28.94,27.73,12.52,12.52,0,0,0-2.7-6.95c-2-2.78-5.54-4.81-6-8.31-1.39-10.27-7.74-17-15.54-22.7-2.15-1.56-4.86-1.78-7.88-.11-2.41,1.33-2.82,2.62-2.85,4.93-.1,8.74-.61,9.06-9.34,6.44C109.56,262.27,109.46,262.78,109.16,263ZM504.5,518.92c.38,1,1,.91,1.81.51l-1.11-1.24a17.17,17.17,0,0,0-2.28-2.58c-14.25-10.83-31.09-15-48.24-17.53-5.2-.77-11.52-2.44-17.42,2.28,12.31,3.71,24.22,6.42,34.75,12.75,1.37.82,3,2,4.58,1.33,2.53-1.07-1.4-3.13.34-4.49,5.11,1.87,8.58,6.16,13.27,8.65s8.88,5.29,14.62,6.09c-2.62-3.8-9.1-3.22-9.09-9.11C499.42,515.36,501.68,517.83,504.5,518.92ZM92.15,248.28c1.35,4,4.66,5.83,8.5,7.77-.3-5.49-3.26-8.8-6.46-12.18-1.19,1.76.79,2.8.37,4-.52,1.46-1-.46-1.66-.23-.87-3.51-1.8-7-2.55-10.52-.1-.49,0-1.79,1.12-1.6.45.07.78.9,1.16,1.38a4,4,0,0,0,1.66,3.83c1.21-1.82-.36-3-1-4.39C87.15,212,75.81,189.16,72.43,163.82a3.45,3.45,0,0,0-1.66,3.29c.18,10.27-.34,20.64,1,30.78C74.06,216.35,83.9,232.05,92.15,248.28ZM237.48,436.6a26.33,26.33,0,0,1-3.32,1.84c-4.18,1.58-5.76.4-4.8-3.81.38-1.66,0-2.08-1.41-2.29-1.78-.27-3.59-.89-5.34-.73-9.93.9-19.75-1.81-29.68-.84a2.28,2.28,0,0,1-2.77-1.68c8.66-6.7,19.65-3.63,29.18-6.66-1.56-1.13-4.37-2.32-3.19-4.35.88-1.51,2.87-3.86,5.88-2.67,5.79,2.3,12.17.5,18.12,2.45,2.26.74,5.46,2.19,7.5-1.11l1.23-.47c-.22-.09-.45-.28-.66-.25-.44.06-.92.2-.46.82-2.55-.6-5-1.81-9.2-.7,3.62-2.8,4.63-4.08.57-5.07-1.7-.42-5.09,2-5.59-2.37-.07-.61-3.53-.83-6.42-1.44,11.5-3.34,22.83,1.85,33.75-2.83a63.44,63.44,0,0,0-6-2.92c-3.8-1.37-7.2-4.19-11.58-3.59A120.78,120.78,0,0,0,217.87,404c-2.88,1.06-5.42,3.07-8.11,4.65-2,1.2-5.57,1.39-3.23,5.4.39.68-1.25.58-2,.8-3.31,1-6.83,1.53-9.89,3-4.89,2.38-10.93,3.7-11.36,11.16-.08,1.22-1.95,4.36-4,5-3,.9-4.36,2.93-6.22,5.27,4.9,1.57,9.3,3.64,14.19,1.94,4-1.39,8-.92,12.33,0-2,1.49-4.27,2-5.17,5,6.66,0,13,.14,19.39,0a71.54,71.54,0,0,1,12.33.54,2.57,2.57,0,0,1,2.46,2c.37,1.51-.85,1.78-1.8,2.47-1.55,1.12-3.86,1.3-5,3.59a10.24,10.24,0,0,0,2.81,0c5.84-2,11.87-.94,17.75-.76,6.65.2,13.32,1.42,17.34,8.46-6.79,1-13.6-.61-19.94,1.85a212.42,212.42,0,0,0,31.9.56c1.22-.07,2.75-.58,3.58.92a1.33,1.33,0,0,1-.3,1.25,4.13,4.13,0,0,1-3.8.62c-1.25-.27-2.72-2.58-3.55-.33-.58,1.58.73,3.1,3,3.7,7.55,2,14.61.52,21.58-2.28.43-.18,1-.29.8-1-.35-1.23-2.24-.79-2.38-2,5.57-5,11.25-9.72,16.93-14.64-6.93,4.93-15.4,4.35-22.87,7-2.28.82-5.69.8-6.69-1.2s1.44-4.09,3.46-5.34a8.57,8.57,0,0,0,4.4-6c-7.85,3.07-16.23-.47-23.57,3.79-1.32.77-2.71-.84-4.28-.25a1.66,1.66,0,0,1-2.21-1.39c-.07-1.06.63-1.69,1.73-2.05,2.93-1,5.48-2.82,8.23-4.17,3.79-1.85,8.32-2.67,11.91-6.45-6.89-.55-12.75-.36-18.29,3.22a42.25,42.25,0,0,1-10.36,4.32c-4.83,1.52-9.3-.95-11.72-6,5.6,2.3,12.74-1.11,15.55-7.43C245.82,428.47,239.76,431.43,237.48,436.6Zm209,92.37c-2.73.34-6.39-1.68-8,.42-2.06,2.68-3.78,1.87-5.7,1-1.33-.59-2.79-1.1-3.69-.28-1.27,1.15,1.41,2.1,1.07,3.73-6.8,0-12.63-4.38-18.71-3.39,7,8.24,18.79,9.67,26.14,18.12-11.73-1.5-23.13-.27-35.2,1.28,2.42,1.74,4.57,1,6.43,1.66,15.15,5.78,31.43,5.12,47.08,8.15,6.86,1.33,13.76,2.26,20.21,6.27-3.92-.11-2.44,3.95-4.62,5.07,1.38,1.83,3.49,1.36,5.34,1.86,4.48,1.21,9-.41,13.55.71,5.17,1.26,11.17,4.28,15.38-2.41.28-.45,1.56-.28,2.38-.4,8.7-1.34,17.8-.92,25.75-5.7a2.29,2.29,0,0,1,1.85-.18c2.2,1.13,4.57,1,5.56-1.06,1.16-2.41-1.62-3.52-3-5-.43-.43-2,.09-1.24-1.32s1.43-.56,2.39-.14c3.6,1.59,7.22,3.17,10.94,4.44,4.95,1.69,9.7,4.47,15.75,3.64-1.91-1.88-3.2-3.68-5.28-4.39-13.47-4.58-26.43-11.84-41.61-7.51-2.58.74-4.7,1.44-5.88,3.83-1.46,3,2.89,2.14,2.9,4.22,0,.31,0,.61,0,.92-10-1.57-30.37-4.36-34.37-9.42,4.4.76,7.25-2,10.31-3.88-2.67-3.62-6.72-3.7-10.48-4.54-6.07-1.35-12.65-1.63-17-7.66C480.15,536,494.54,541,509,541.7c-.41-3.19,3.28-.91,3.56-3.45-6.05-.87-11.65-3.37-17.09-6.27a8.07,8.07,0,0,0-3.76-1.09c-5.05.16-9.49-1.91-13.55-4.28-16.82-9.83-35.3-12.6-54.91-13.46,2.7,1.74,2.53,5.06,5.39,6.45,4.14,2,8.21,4.35,12.78,4.85a9,9,0,0,1,6.55,3.81Zm14.45,56.5c1.3.27,2.62.46,3.89.81,12.27,3.4,23.54,10.35,37.2,8.74,8.41-1,17-1,25.28-2.88-12.39-.59-24.71-1.33-36.93-3.39-6.86-1.15-13.1-4.25-19.67-6.27-10.61-3.27-21.74-5-31.64-10.57-4.07-2.3-7.62-5.49-12.73-6.26-11.54-1.75-23.06-3.92-33.82-8.86-.8-.37-2-2.09-3.12.28s1.11,2,1.73,2.42c6.71,4.68,14.72,7.29,20.74,13.08l-.67.88c-8.23-.92-16.05-3.54-24-5.66-3.73-1-6.88-3.08-10.34-4.55-1.4-.6-3.19-1.21-4.05.15s1.05,2.2,1.91,3c1.88,1.77,4,3.32,7.12,5.89-4.7-1.27-7.52,1.23-10.91.49,2.15,11.9,15.32,12.58,21.19,21.06-9.59.18-18.13-1.9-26.49-4.77,4.41-3.78,4.38-3.89-1.26-6.7q-4.65-2.32-9.25-4.73a22.62,22.62,0,0,0-12.44-2.73c1.1.88,1.62,1.23,2.05,1.66,6,5.95,15.2,8.59,19,16.38,2.51,5.11,7.47,6.88,10.85,10.55,2.79,3,7.77,5.58,12.32,7.35.58.22,1.39.37,1.64.81s1.32,1.05.44,2.24c-9.71-1.55-18.41-5.77-26.81-10.78-.44,0-1.17-.25-1.28-.08-.37.6.26.68.67.83l1.79,2.38-1,.8c-11.25-5.4-21.52-13-34.36-15.09,7.05,6.26,12.1,14.49,20.43,19.5-7.36-.55-13.59-4.22-20.43-6-6.32-1.62-12-5.48-19.56-6.21,7.6,9.72,18.73,13.09,26.76,21.47-15.69-.4-28.52-9.23-43.78-10.48,1.88,3,4.46,3.78,6.68,5.07,1.69,1,5,2,4.92,2.75-.49,4.57,3.27,3.74,5.42,4.74,10.17,4.74,21.25,5.81,32.08,7.95,5.46,1.09,11.23,1,16.88,3.5-6.76,4.84-14.29,1.44-20.83,3.8.62,1.23,2.93.39,2.86,1-.81,6.59,4.75,4.17,7.18,4.52,10.14,1.48,20.39,2.38,30.62,3.07,4.19.28,8.43,1.22,12.33,1.28a77.74,77.74,0,0,1,12.37.73c6.18,1.07,12.15,3.56,19.32,2.91-2.87-2.51-5.12-4.88-7.74-6.69-4.61-3.19-8.14-9.29-15.36-6.23-.35.15-1.09-.62-1.64-1-3.3-2.16-6.85-4-9.8-6.58-2.3-2-6.37-2.3-6.77-6.54a11.48,11.48,0,0,1,2.49.22A121.36,121.36,0,0,0,404,629.33c5.23.72,11.14,2.32,14.09,7.36,5.64,9.64,13.79,13.64,26.14,12.89-7.25-6.69-13.12-13.18-22.39-17,6.81-.11,12.52-.08,17.33,3.89.47.21,1,.83,1.35,0,.06-.14-.48-.53-.75-.81,1-1.46,2-1,3.34-.37a126.94,126.94,0,0,1,11.82,6.24c3.36,2.09,6.79,4.11,11.16,3,3.21-.85,4.81-1.75,2.15-5.13a33,33,0,0,0-14.86-10.75c-4.22-1.58-9.38-2.15-11.95-7.44,3.35-.41,6.5-1.46,9.43-1,10.76,1.61,21.11,4.94,31.49,8.13,12.47,3.82,25,7.82,38.15,4-2.7-.34-5.5-.64-8.28-1.07A98.67,98.67,0,0,1,483.83,622c-10.08-4.94-21.23-7.71-32-11.22-1.49-.48-2.56-1.66-4.34-1.75-5.55-.31-11.11-.8-16.6-1.63a42.4,42.4,0,0,1-8.36-2.69c-1-.39-2.21-1.24-1.95-2.53.37-1.86,1.83-.52,2.81-.69,6.28-1,12.68-.52,19.93-.95C435,594.22,424.52,595,416,588.92c11.31-.74,21.13,1.71,31.29,3l-14.11-7c8.23-.85,14.07,4.09,20.45,7.32a34.56,34.56,0,0,0,16.65,3.66c-2.08-5.12-7-6.52-10.65-9.48ZM508.18,323.7l-.81-1.17A154.84,154.84,0,0,1,523.94,301c18.08-20.1,41.4-31.9,66.23-40.95,15.29-5.57,31-10.1,46.54-14.93,25-7.76,50.65-12.76,75.9-19.45,16.07-4.26,32.33-7.79,48.25-12.62,5.51-1.67,11.54-4.8,16.66-3.8,9.31,1.81,17-1.61,24.68-4.77,13-5.35,26.34-10,39.32-15.48a339.91,339.91,0,0,0,63.07-34.76c11-7.75,20.52-17.28,30.85-25.84,5.9-4.9,10.54-11.07,15.86-16.55,1.61-1.67-.73-2.4.16-3.44-1.83-1.3-1.38.82-2,1.32-.9.7-1.9,1.29-2.83,2-7.88,5.72-15.72,11.49-23.64,17.15-10.89,7.77-21.37,16.17-33.12,22.66-12.26,6.77-24.59,13.45-37.13,19.68-1.93,1-1.94,3.79-4.25,3.46-5.58-.78-10,2.59-14.71,4.34-11.81,4.37-23.22,9.82-35.08,14-17.46,6.22-35.37,11-53.29,15.84-29.81,8.06-60,14-90.3,20-14.56,2.88-29.1,5.83-43.65,8.73C594.22,241,578,247.12,562,254.46c-9.38,4.31-19,8-28.16,13a195.89,195.89,0,0,0-44.76,32.63Q476,313,462.74,325.83C450,338.23,436.08,349.47,424.31,363a183.13,183.13,0,0,1-18,17.93c-9.9,8.56-19.45,17.57-28.69,26.85-4.69,4.72-9,9.5-15.66,11.49-2.52.75-5.5,1.43-7.12,4.34,3.77.56,6.11-2.77,9.28-3.14,7-.8,12.7-4.42,18.33-8.05,9.45-6.08,18.36-13.07,28.09-18.65,8.57-4.92,17.14-9.54,24.2-16.66,5.7-5.77,11.55-11.34,16.85-17.52q9.89-11.54,20.67-22.28c10.89-10.82,24.15-19.18,33.29-31.86.87-1.2,1.92-2.58,4.24-2.52-2.54,5.53-6,9.81-9.4,14.17-6.7,8.63-11.07,18.68-17.14,27.76C473.78,359,465,373.69,452.55,385.65c-.79.76-1.95,2.34-1.68,2.8,1.62,2.8-.75,4-2,5.42-6.73,7.49-14,14.43-24,19.84,10.44.5,17.17-3.35,23.23-10.13,12.71-14.23,27.28-26.76,36.82-43.79,2.79-5,7.4-9.13,10.48-14.22,5-8.26,13.29-14.27,16.59-23.87C510,321.27,509.31,322.91,508.18,323.7ZM664,267.06c2.89.16,5.88.86,8.67.39,12.76-2.17,25.72-1.64,38.56-3.39,15.58-2.11,31.17-4.12,46.68-6.75,21-3.57,41.38-9.59,61.76-15.61,22.58-6.68,44.52-14.76,65.07-26.51,9.25-5.29,18.31-10.47,24.17-19.68a23.27,23.27,0,0,1,9.1-8A13.66,13.66,0,0,0,925,178c-5.39,3.52-10.16,6.34-14.63,9.59C890,202.51,868,214.52,843.83,221.72c-27.11,8.07-53.92,17.11-81.82,22.62-21.44,4.23-42.76,9.27-64.23,13.49A248.62,248.62,0,0,0,664,267.06Zm-18.6,38.41c14.06-1.69,28.14-.36,42.19-1.55,12.5-1.07,25.17-1.16,37.67-2.42a410.47,410.47,0,0,0,54.23-8.75c17.55-4.19,35.51-6.89,52-14.85a129.54,129.54,0,0,1,19.61-7.16c.16-1.64-2.78.33-1.48-2.37A11.64,11.64,0,0,1,853,264.3c3.15-2.62,6.5-5.08,8.9-10.09-7,2.83-13,5.27-19,7.75a2.47,2.47,0,0,0-1.11,1c-2.73,4.88-7.63,6-12.46,6.86-9.24,1.72-18.6,2.81-27.78,4.8-13.85,3-27.76,5.9-41.8,7.61-17.26,2.1-34.37,5-51.44,8.12s-34.24,6.94-51.35,10.4c-1.19.24-2.32.33-2.8,1.72,1.55.91,3.6-.71,5.18,1.11C654.57,304.32,649.69,302.79,645.41,305.47Zm166.22,4.76a6.79,6.79,0,0,0-1.62-.17c-22.87,6.09-46.24,9.3-69.71,11.52-21.25,2-42.64,2.25-63.94,4a309,309,0,0,1-38.27,1.19c-2.3-.09-4.57,0-5.67,2.91,13.87,0,27.54-3.09,41.07.6-14.5.47-28.25,5.09-42.34,6.91.38,1.92,1.91,1.46,3.2,1.49,4.32.1,8.66,0,13,.28,27.27,1.94,54.49.23,81.73-.78,12.44-.47,24.62-2.57,36.88-4.34,13.71-2,27.31-4.18,40-10.07a16.94,16.94,0,0,0,8.06-6.59L803.88,321c-3.16,1.17-3.16,1.17-9.51-1C800,316.48,806.78,315.52,811.63,310.23ZM662.29,654.63c10.12,1,18.09,7.49,27.91,10,17.66,4.45,34.79,11.13,52,17.25,11.91,4.23,23.69,8.87,35.48,13.39,14.42,5.54,28.8,11.37,44.44,14.11,14.51,2.54,28.83,6.13,43.6,7.17,1.46.1,3.43.84,3.86-1s-1.61-2.24-3-2.76c-10.77-4.18-21.53-8.43-32.36-12.45-31.73-11.76-64.41-20.52-96.69-30.54-13.83-4.29-28.33-5.64-42.17-10-3.54-1.12-6.46-4-10.39-3.78C677.41,656.35,670,654.19,662.29,654.63Zm268,24.3c-14.53-1.9-29-4.5-42.84-9-8.3-2.68-17.54,1.39-25.27-5-3.15-2.61-8.17-3.19-12.46-4.16-14-3.15-28.06-6-42.08-9.06-19.51-4.27-39.09-8.09-59-10.07-4.23-.42-8.44-1.15-13.32-1.83.86,1,1.12,1.58,1.51,1.67,12,2.95,22.87,8.81,34.55,12.66,14.36,4.73,28.78,9.13,43.48,12.68,22.35,5.39,44.74,10.72,67.4,14.68a161.71,161.71,0,0,0,34.08,2.55c3.52-.14,5.74-4,9.1-3.09C928,681.67,929,680.57,930.24,678.93ZM750.78,627.68c4.41,1.91,7.86,1.81,11.2,2.37q33.24,5.58,66.79,8.73c13.19,1.24,26.36,2.72,39.54,4.16,14.15,1.56,28.29,3.31,42.46,4.77,12.22,1.27,24.53,1.85,36.7,3.44,14.17,1.86,28.21-.95,42.31-.4.85,0,1.73-.08,1.94-1.1.24-1.19-.35-1.82-1.56-2-3.9-.64-7.77-1.49-11.69-2-13.17-1.58-26.37-3-39.54-4.54-15.1-1.76-30.16-3.88-45.28-5.31-14.85-1.41-29.62-3.24-44.36-5.58a257.91,257.91,0,0,0-39.16-3.51c-7.15,0-14.3,0-21.45-.2-4.85-.11-4.85-.21-9.38,2,9.61,1.3,9.61,1.3,10.43,2.84C777.07,631,764.69,627.88,750.78,627.68ZM641.35,265.14a15.76,15.76,0,0,0-10,2.22c-6.7,4.35-14.14,6.74-21.94,8.37-21.25,4.46-40.89,12.44-56.76,27.8-1.46,1.41-6.83,1.11-4,5.75-4,4.67-5.57,11.13-11.5,14.47-3.49,2-8,4.38-8.4,8.52-.55,5.42-2,10.05-5.36,14.17-6.76,8.17-15.55,14.3-22.36,22.44-5.23,6.24-13.21,10.07-16.15,18.34-.39,1.1-2.42,2.11-.76,3.3,1.44,1,2.64-.31,3.82-1.34,2-1.7,2-5.35,5.09-5.65,2.82-.28,5.2-2,5.94-3.79,2.17-5.26,8.75-5.71,10.82-10.8.21-.51,1-.78,1.47-1.21,6-5.24,12.65-9.67,17.25-16.37,2.7-3.93,5.54-7.79,8.57-11.49,8.38-10.22,16.26-20.77,26.16-29.81a92.51,92.51,0,0,1,26.36-17.25c14.81-6.3,30.57-9.14,46.31-11.95,2.68-.48,7.73-6.31,6.45-7.7-2.29-2.48-4.93.08-7.43.48a4.73,4.73,0,0,1-1.1-.11C636.23,270.67,637.42,266.82,641.35,265.14ZM734,368.45c-7.61-5.81-16.4-2.69-24.93-4.4,6.75-3.29,14.76-.61,20.4-6.25-44.73,3.56-89.4,1.41-134.12.41,15.37,3.65,31.12,5.46,46.21,10.32-16.84-.75-33.54,2.88-50.34.43a7.42,7.42,0,0,0,3.63,1.67c15.3,1.8,30.55,4.17,46,4.2,14.43,0,28.87.64,43.31,0C700.83,374.1,717.64,374.63,734,368.45ZM178,228.69c-.25-2.25-.46-4.5-.74-6.75-.84-6.73-3-13.61-2.26-20.16,1.11-9.89-.63-19.44-1.16-29.11a62.5,62.5,0,0,0-2.42-15c-2.43-8-6.88-14.88-10.43-22.23-3.82-7.92-7.64-16.27-16.73-20a3.75,3.75,0,0,1-1.67-2.35c-1.88-7.11-6.37-12.87-9.61-19.26-2.58-5.12-6.35-8.25-10.89-11-.74-.44-1.44-2-2.88-.62s-.33,2.41.47,3.32c4,4.49,7.39,9.2,7.79,15.49a4.68,4.68,0,0,0,1.1,2.17c3.85,5.24,5,11.45,5.19,17.6.13,4.47,2,5,5.56,5.11s7,.77,9.63,3.27c5.56,5.22,9.69,11.76,10.51,19.1,1,9.22,3,18.28,2.82,27.84a114.12,114.12,0,0,0,2.35,25.06C166.76,211.48,172.44,220,178,228.69Zm25.64-50.95a1.8,1.8,0,0,0-1.08,2c-.38,6.4,1.45,12.4,3.41,18.36.65,2,1,4.63-.83,5.26-3.39,1.18-4.56,2.89-4.6,6.4,0,2.7,1.26,4.66,1.89,6.87,1.72,6,6.16,12.57.29,18.89-.17.18-.06.64-.06,1,0,6.13,2,12.12,3.74,17.65,1.67,5.14,4.55,10.25,6.7,15.45,2.26,5.46,5.67,10.17,9.21,14.92-1.22-16.21-3.6-32.11-8.41-47.57,1.9-.77,3,.94,4.29,1,1.62.08,4.32,1.34,3.57-2.71-2.74-15-5.43-30-9.27-44.8C211.18,185.35,207.51,181.24,203.65,177.74ZM667.57,394.27A64.88,64.88,0,0,0,647,391.66c-22.18.71-44.34.15-66.24-3.64-4.2-.73.66,4.06-2.61,3-.34-.12.47,1.48,1.25,1.75,6,2.06,12.06,4.14,18.14,6,12,3.73,24.48,4.85,37,6,11.83,1.06,23.59.3,35.32-1.08,2.55-.3,5.16-2.31,5.38-4.36.28-2.55-3.06-1.31-4.72-2-1.19-.49-2.82-.16-3.82-.83C664.49,395,667.37,395.12,667.57,394.27ZM625.67,293.2c-31-1.59-46.6,20.61-64.17,40.52,10.87,4.1,20.89,1.17,30.77-2.23,2-.67,2-2-.45-3.18s-5-1.38-7.63-2.13c3.36-1.76,6.35-3.61,9.94-4.63,4.91-1.4,10.12-1.51,14.85-3.64,1.95-.89,4.83-1.55,4.56-3.72s-3.18-2.54-5.41-2.44c-3.64.17-7.09-1.41-10.86-.68C605.74,303.24,620.69,306.31,625.67,293.2ZM568.75,425.05c14.11,3.35,28.58,2.77,41,9.51l-5,.51a19.88,19.88,0,0,0,9.83,1.72c.56,0,1.43-.23,1.59-.59.71-1.65.64-1.54,2.13-1.66a71.51,71.51,0,0,0,8.28-1.05c.78-.16,1.37-1.25,2-1.91a10,10,0,0,0-1.78-1.56c-6.73-3.52-13.32-7.51-21.47-6.34a35.69,35.69,0,0,1-12.74-.65c-14.15-2.95-28.39-1.65-42.48,1.27,2.48.92,4.74,2.66,8.46,1.52-1.75,1.06-3.18-.21-4,1.65,2.79.49,5.53.82,8,2.07-.69,2.23-3.15-.43-4.3,2,15.14,6.32,30.14,11.78,48.27,7.49C593.77,432.42,580.37,431.82,568.75,425.05ZM175.82,599.42c-1.69-3.22-4.57-3.77-7.22-4.53-7.27-2.11-14.83-.67-22.24-1.57-2.47-.29-5.57-.27-8.05,1.54-8.16,6-14.53,13.45-18,23-1.56,4.28-2.43,9,1.59,13.25C128.58,608.54,156.64,599.49,175.82,599.42ZM338.88,476.71c-1.88-1.24-3.59-.74-5.33-.39-8.56,1.72-17.09,3.46-25.95,2.28-4.37-.58-8.58-2.07-13.11-1.9-5,.19-9.15,3.6-14.33,3.32-1.9-.1,0,2.47-.89,3.81-.7,1,.86.82,1.46.95,1.76.38,3.59,1.08,5.33.93,14.08-1.21,27.51,2,40.65,6.31,5.4,1.78,8.29.21,10.71-4.75-3.84-.63-7.48-1.3-9.82-5.72C333.49,483.66,334.76,477.48,338.88,476.71ZM109.94,167.61l.78,0a4.31,4.31,0,0,0,.24-1.29c-2.11-16-4.53-31.92-3.81-48.1.1-2.13-1.16-1.42-2-1.13-8.83,3.07-13.6,13.76-10.5,22.66,1.57,4.51,4.28,8.66,3.77,13.9-.21,2.22,2.81,4.8,4.39,3.55,3.81-3,3.77.35,4.47,2.1C108.39,162,109.08,164.82,109.94,167.61ZM289.67,492.35c-1.84,1.06-4.67-.74-5.68,2.13-.7,2-1.06,4.39-4.2,2.88-.2-.1-.9.4-1.08.76-.38.82.5,1,.88,1.43,2.48,3,5.49,0,8.34.87,10.55,3.2,21.33,5,32.34,2.23,1.1-.27,3.06-.56,3.1-1,.19-1.78-1.63-1.47-2.74-2-4.41-2.2-9.27-3.19-13.71-5.41a62.94,62.94,0,0,0-19-5.51C287,491.14,290.05,490.34,289.67,492.35ZM132.05,243c-.74-4.19-.93-8.33-3.18-11.89-.34-.55-1-1.68.1-2.12,3.47-1.45.84-2.41-.13-3.71-5.24-7.05-11.89-13.15-13-22.81a41.71,41.71,0,0,0-2.16-9.05c-.88-2.44-2.06-2.27-3.55-.69-2.49,2.63-1.66,5.5-.55,8.38,1.06,2.72,3.76,6.57,2.82,8-2.64,3.91,1.22,4.61,2.36,6,1.43,1.73,2.87,2.61,2.57,4.44a15.06,15.06,0,0,0,4.08,13.31C124.88,236.23,128.63,239.41,132.05,243Zm132.26,142.8c6.93,2,12.37,3.71,17.89,5.08,5.34,1.32,10.8,2.92,15.93-.77-.2-1.68-3.16-1.83-2.15-4.05s3-2.23,5-2.31a101.58,101.58,0,0,1,13.74-.08c3.18.3,6.58.64,10.45-.67-15.1-4.62-32.69-5.89-39.2-.53,2.09.23,4.08.38,6,.69.95.15,2.24.53,2.14,1.64-.16,1.78-1.59,1.17-2.7,1a23.81,23.81,0,0,0-3.44-.6C280.61,384.87,273.16,382,264.31,385.79Zm-139,152.42c-2.42,3-6.47,5.19-2.68,8.8,6.18,5.87,14.37,7,22.06,1.93,6.72-4.43,7.88-13.84,5-21.11-.91-2.32-3.19-2.46-5.05-2-2.16.6-1.7,2.41-.8,4,1.36,2.35.69,4.95.52,7.33-.31,4.3-4.89,7.46-10.22,7.56C130,544.81,126,544.33,125.3,538.21ZM609,584.4a64.09,64.09,0,0,0,25.49,5.84c4.42.12,6.25-.81,4.95-5.51,2.13.72,3.78,1.58,6,.44-8.23-3.25-15.14-9.08-24.49-9.4.86,2.52,4.33,1,4.44,3.64-5.4,2.13-10.28-2.66-16-1.32,1.28,3.23,4.46,3.31,6.18,5.14C614.17,586.37,611.79,583.2,609,584.4ZM329.2,521.69c-17.56-10.15-34.83-15.88-54.88-8.14,9.68,1.2,18,5.7,27,5C310.65,517.86,319.17,522.26,329.2,521.69ZM485.72,409.45c10.67,3.47,21.34,4.64,32.25,2.24a42.59,42.59,0,0,0,5.09-1.77c1.34-.48,1.51-1.64,1.64-2.82.23-2.14-1.57-1.2-2.42-1.43-8.42-2.33-17-1.86-25.57-1.22C492.45,404.78,488.52,405.4,485.72,409.45Zm30.78,43.72c6.36,2.62,12.15,6.41,19,7.65,9.82,1.78,19.75,1.38,29.64,1.73,1,0,2.54.7,2.5-1.31,0-1.48-1.25-1.21-2.17-1.39-6.31-1.23-12.69-2.2-18.9-3.79C536.71,453.54,526.64,453.43,516.5,453.17ZM133.67,325.09a3.85,3.85,0,0,0,1.1,4.52c3.26,2.71,5.21,6.35,7.36,9.85a11.77,11.77,0,0,0,4.88,4.08c3.56,1.89,5.55.18,5.91-3.77s-3-5.63-4.66-8.26A37.75,37.75,0,0,0,137,320.05c-.91-.6-2.1-1.4-3.11-.22-.59.68-1.41,1.74-.34,2.59S133.46,324.22,133.67,325.09Zm410.62,25.35c7.55.2,15,1.25,22.2-.72,4.32-1.18,8.79-.7,13-1.81,1-.28,3.3-.3,2.72-2.66-.46-1.86-2-1.37-3.23-1.46-1.63-.13-3.25-.47-4.83-.67C563.5,341.77,552.58,340,544.29,350.44ZM51.85,110c.24,6.51,4.58,10.18,9.43,13.43.84.56,2.13,1.42,3,.59.48-.46.42-2.06,0-2.8a22.92,22.92,0,0,1-2.56-10.15c-.24-7.23-.51-10.21-6.56-13.43-.87-.46-1.91-2.2-3.36-1s-.85,2.39-.51,4a12.44,12.44,0,0,0,2.79,5.48c3.25,4-2.68,1-2.31,2.9C51.84,109.33,51.82,109.67,51.85,110Zm92.42,403.12a92.18,92.18,0,0,0-20.75,4.2c-8.8,3-15.86,7.87-16.45,18.67C119.13,527.59,131.2,519.63,144.27,513.12Zm391.09-149.6c10.91,4,20.89,3,30.3-3.27,1-.66,3-.62,2.57-2.43-.38-1.51-2.08-1.45-3.35-1.43-6.1.12-12.22,0-18.27.63C542.39,357.44,538.09,358.56,535.36,363.52ZM62.56,84.81c-.39-4.21-.26-7.44-1.08-10.42-1-3.58-.22-7.58-2.76-10.82-1.39-1.79-2.55-3.14-5.16-2.86s-2.73,1.78-3,3.68c-1,8.46,1.26,15.7,7.73,21.39.84.74,1.6,2.63,3.11,1.62A3.29,3.29,0,0,0,62.56,84.81Zm-3.63,98.27c-.47-4.21,3.53-9.11-1.94-12.64-.68-.43-.53-2.15.48-3.12,6.46-6.22,5.65-13-2.32-16.9-1.54-.76-1.75-2.24-3.07-3a32,32,0,0,0-1.43,10.15C51,166.78,57.23,174.16,58.93,183.08ZM298.4,469.77c6.19,0,11,.12,15.82,0,5-.16,9.81-1.13,14.09-4,1.15-.77,2.47-1.76,2.35-3-.19-1.85-2.06-1-3.25-1.18a57.13,57.13,0,0,0-7.34-.86C312,460.67,304.57,462.25,298.4,469.77Zm329-45.71a14.93,14.93,0,0,0,2.26,1.68c.67.29,1.26.47.75,1.34l-.27-.12c1.56.14,1,2.1,2.13,2.54a15.74,15.74,0,0,0,3.75,1.2c9.6,1.13,18-2.52,26.52-5.94C651.09,421.1,639.78,424.13,627.41,424.06ZM208.56,525.16c-2.22.56-3.49.62-2.11,3.6a6,6,0,0,0,3.46,3.12c8.53,3.64,17.45,2.94,27.37,2.63-10.1-7.19-21.31-7.68-31.16-12.13-.14.4-.29.8-.44,1.19ZM550.89,375.43c-1.32-1-2.25-2.36-3.35-2.54-7.16-1.12-14.3-1.91-21.57-.29a14.13,14.13,0,0,0-6.77,3.71c-1.08,1-1.36,2.54,1,2.47C530.33,378.48,540.69,380.24,550.89,375.43Zm-376.11-31a7.4,7.4,0,0,0-1.26-1.47c-1.16-.79-1.7.34-2.45.91-3.53,2.72-5.4,7.08-9.38,9.39-1.59.93-1.24,2.72-.82,4.08,1.2,3.95,2.66,7.82,4,11.74.28.85.55,1.66,1.52,1.67,1.5,0,1.28-1.17,1.33-2.13.2-4,.38-8.65,2.68-11.31C173.8,353.36,170.65,347.89,174.78,344.47Zm100.81,53.47c-18.74-10.16-19.44-10.19-36.45-1.87a8.91,8.91,0,0,0,6.7-.06c4.3-1.53,8.17-.87,12.37.59C263.58,398.47,269.19,400,275.59,397.94ZM507,394.06c6.48,0,13,.15,19.42-.05,4.4-.14,8.8-.77,13.2-1.19.86-.09,1.84-.36,1.94-1.25.15-1.21-1-1.51-1.92-1.76-6.91-1.8-13.93-1.3-21-1.3C513.86,388.51,510.54,391,507,394.06ZM213.46,514.56c3.75,10.08,15.56,13.3,30.13,8.19C233.76,517.82,223.18,518.4,213.46,514.56ZM388.93,649.82a3.9,3.9,0,0,0-2,.06c-1.53.44-3.92-.24-4.27,2.13s1.83,2.89,3.39,3.68c5.81,2.91,12.19,2.56,18.41,3.08a1.92,1.92,0,0,0,1.95-1.23c.36-.9-.48-1.6-1.23-1.87C400.16,653.88,396.3,649.25,388.93,649.82ZM244.2,331.29a4.76,4.76,0,0,0-1.94-5.62c-10.51-7.76-22.45-13.73-30.6-24.45C219.85,314,230.68,323.72,244.2,331.29ZM86.35,69.08c-3.39,8.39,1.33,19.49,9,23.14C98,82.51,90.63,77.05,86.35,69.08ZM258.8,322c-4.84-14.23-10.87-21.54-18.37-23C244.61,308.64,251.79,315.29,258.8,322ZM128.05,124.17a8.28,8.28,0,0,0-.52,7c1.53,4.68,2.13,9.66,3.06,14.53.31,1.64,1.14,3.07,2.75,2.93a3,3,0,0,0,2.29-2.92,59.05,59.05,0,0,0-.14-9.87c-.22-1.44-.29-4.81-2.26-4.14-2.83,1-2.15-.68-2.64-1.94C129.91,128,129,126.29,128.05,124.17Zm36.19,158.29c8,5.83,11.86,15.86,21.54,21.17C183.16,291.25,174,286.55,164.24,282.46ZM351.5,499.19c-6.55,1.36-12.14,2.39-17.71.61-.54-.17-1.51.57-2.08,1.1s0,1.25.38,1.68c3.14,3.1,15.61,5.75,20.53,4.1-2.61-.17-4.92.37-6.83-1.48l2.45-.75c-.63-1.41-3.4-.08-3.21-2.45C346.85,501.21,349.37,502.75,351.5,499.19ZM115.67,301.32c-.1,3.89,5.77,11.63,8.65,12.42,1.67.46,2.89-.58,4-1.36.85-.61.47-1.73-.66-2.31-1.66-.84-1.46-2.75-2.22-4.12a12.52,12.52,0,0,0-5.93-5.79C117.47,299.3,116.05,299.89,115.67,301.32ZM531,614.21c-10.48-.89-20.92-2.11-31.37-3.34A50.56,50.56,0,0,0,531,614.21ZM448,432.77c6.09-.34,10.67,2.33,15.7,3,9.44,1.32,9.43,1.36,13.08-.63C468,432.59,458.77,428.33,448,432.77ZM638.35,575.48c7.78,5.33,24.67,10.64,30.48,10.09C658.66,580.76,648.84,577.15,638.35,575.48Zm17.42-3.26c8.18,4.85,17.6,4.29,26,7.33a9.38,9.38,0,0,0,2.39.2C675.09,575.93,667.09,568.25,655.77,572.22ZM545.35,544.65c-4-2.42-4.85-6.33-8.78-7.45-3.41-1-7.11-1.12-10.21-3.15a1.67,1.67,0,0,0-2.21.45c-.61.64-.18,1.12.45,1.51C530.66,539.82,536.1,545,545.35,544.65ZM184.48,358.54c-1.53-.08-3.77-1.31-4.31,1-.3,1.31,1.09,2.89,2.43,3.94,2,1.6,3.94,3.39,6,4.92,3.57,2.6,1.33-4.24,4.42-2.81.54.25.59-.88.34-1.06C190.48,362.49,190.05,356.74,184.48,358.54ZM80.93,588.6c4.36.19,7.58-.62,10.73-1,5.87-.78,11.88-.09,17.62-1.78.4-.12,2.41.57,1.18-.84-.52-.6,1-3.37-1.92-2.13-1.88.81-4.17.76-6.29.91C95.34,584.23,88.29,584,80.93,588.6ZM423.48,424.36H403c3.55,2,6.14,1.4,8.48,1.82-.51,1.74-3.34,1.71-2.69,3.36.92,2.32,2.94.37,4.33.16C417.07,429.12,420.2,426.54,423.48,424.36ZM124.86,503.08c10.17-1.23,20.12-3.9,30.38-4.79C144.74,497.44,134.43,497.81,124.86,503.08Zm367.66-78.91c-8.83-3.56-17.9-5.33-27.44-3.79C473.93,423.62,483.28,423.6,492.52,424.17ZM84.76,52.72c.07-4.77-3.83-6.9-5.16-10.37-.53,1.29-2.9.34-2.83,2,.11,2.55.17,5.28,1.14,7.55a6,6,0,0,0,5.4,3.6C84.47,55.49,84.87,53.59,84.76,52.72Zm194.07,477.6c4.68.12,6.85,5.1,11.33,5.43s9.08,1.77,14.24.32C298,533.2,283.15,529.67,278.83,530.32Zm65.44,120.4c-4.51-2.49-30.53-7.22-35.38-6.51C320.62,648.21,332.63,648.48,344.27,650.72ZM593.19,411.08c-6.14-3.84-24.15-6.24-31.9-4.38ZM695.73,613.26c-10.79-1.53-21.11-7.82-32.72-3.54C674.28,607.69,684.39,614.85,695.73,613.26Zm-89.32,9.36c-8.24,2.08-18.48-6.63-28.2,1.19a18.18,18.18,0,0,1,14.48-2C597.82,623,603.16,621.5,606.41,622.62ZM178.27,557.56c-5.5-1.56-9,.06-12.47-1.29-.8-.31-3.14,1.28-2.76,2.81.55,2.16,6.75,3,9.54,1.82.81-.34,2,.15,2.78.23C176.5,559.83,169.8,557.63,178.27,557.56Zm122.66,65.59c-5.23-5.87-18.55-12.13-23.65-11.9Zm382.56-229a121.33,121.33,0,0,0,23,.1c1.5-.15,3.27.05,5-1.53C701.79,393.1,692.5,392.19,683.49,394.16ZM120.91,498.24c.84-1.73-.54-1.69-1.22-1.31-3.56,2-7.22,3.88-9.82,7.17a1.64,1.64,0,0,0-.18,2.25c.77.78,1.43.12,2.12-.33,2.6-1.71,5.18-3.47,7.88-5C121,500.29,121,499.33,120.91,498.24ZM352.43,664.58c9.69,3.66,19.87,4.52,29.91,6.19.08-.43.16-.87.23-1.3Zm-70.61-34.52L258,621.68C265.5,625.7,273,629.9,281.82,630.06Zm-94.69-82c-7.75-2.74-16.1-4.11-22.92-9.37C169.59,547.31,178.91,546.28,187.13,548.06ZM683.65,594.9c8.69.77,16.75,4.85,25.53,4.51C700.79,597,692.46,594.32,683.65,594.9ZM715,658.54c-7.15-3-14.44-5.5-22.23-6.18C700,655.06,707.23,657.75,715,658.54ZM543.35,445.41c-9.59-5.87-15.55-6.78-17-2.36C532.37,441.71,537.63,444.36,543.35,445.41ZM865.77,691.74c-6.23-3-15.78-1.53-25-2.62C850,689.83,859.16,692,865.77,691.74Zm-152.18-6.18L735.87,694C728.76,690.25,721.88,685.92,713.59,685.56ZM613,644.13l.44-1.24c-7.5-3.58-16.17-.69-21-3ZM201.06,367.88c1.72,4.19,4,7.29,9,6.46.46-.08,1.09,1,1.47,0,.2-.56.13-1.77-.07-1.83C207.81,371.43,205.6,367.18,201.06,367.88ZM413.74,674.31c-4.93-1.24-12.57-3-20.42-2.08C401.05,672.85,408.61,675.55,413.74,674.31Zm90-400.86-.75-1c-4.2,2.91-8.66,5.48-11.4,10.26Zm4,349.93c-4.82-.72-8.65-4.74-14.78-3.14C498.53,621.59,503,623.66,507.8,623.38ZM231.82,475c-3.64-2.14-7.38-3.43-11.63-1.66C223.91,475.2,228,474.35,231.82,475Zm476.91-65.11c-4.22-3.39-7.57-.46-10.14-.34C701,411.6,704.35,409.45,708.73,409.84Zm-487,156.83,15.41,6.3A28.55,28.55,0,0,0,221.68,566.67Zm228.09.47c4.6,1.71,9.76,1.94,12.7,2.46C459.21,570.86,454.79,565.4,449.77,567.14Zm200.4,42.78-13-4.38C641.39,609.58,645.8,609.87,650.17,609.92ZM498.58,645.33c2.71,1.26,5.43,2.43,9.12,2C504.6,643.5,501.41,645.73,498.58,645.33Zm137.19-90.47c5.8,2.62,10.59,2.86,15.28,3.56C646.46,557.19,642.24,554.47,635.77,554.86ZM256.07,417.79c4.39-.37,7.79.53,11.25-1.71C259.92,415.47,259.92,415.47,256.07,417.79Zm261.76,95.52c2.63,1.84,4.7,4.77,9.06,4.89C523.71,515.75,521.39,513.31,517.83,513.31ZM949.06,692.39c-3.6-2.46-6.59-1.32-9.59,0ZM613.47,555.79,604,550.92C606.37,553.94,609.25,555.92,613.47,555.79ZM51.84,41a11.12,11.12,0,0,0,2.66,8.92A9.47,9.47,0,0,0,51.84,41ZM802.38,719,792,715.76A13.19,13.19,0,0,0,802.38,719ZM139.14,489.11c-3.38-.41-6.62-.28-9.42,2.42C133.55,492.51,135.93,489.17,139.14,489.11ZM480.34,395c-2.85-.51-3.28,1.16-4.26,3.54A5.12,5.12,0,0,0,480.34,395ZM244,608.07a5.32,5.32,0,0,0-1.12-.87c-.33-.14-1.09-.3-.57.53a2.46,2.46,0,0,0,1,.77C243.48,608.55,243.76,608.25,244,608.07ZM155.37,393.6c-.23.11-.68.25-.67.33,0,.29.15.71.37.83.41.22,1,.23.9-.47C156,394,155.59,393.83,155.37,393.6ZM711.06,600l-.06-.44.26,0ZM145.58,382.15l.44.14-.45.14Zm7.35,10.21,1.14.7c.09-.26.32-.66.23-.75a5.59,5.59,0,0,0-1.09-.76Zm193.85,259-.45-.14.45-.14ZM455.94,314c-.06.11-.21.25-.18.33.18.47.43.49.67,0,0-.07-.06-.26-.15-.33S456.06,314,455.94,314Z"/><path class="cls-1" d="M67,333.28c-22.37-17.61-33.77-42-42.17-68.13C36.63,289.19,50.37,312.07,67,333.28Z"/><path class="cls-1" d="M625.84,703.55c28.49,7.3,51.87,22.72,77.61,35.09C695.44,738.09,640.26,713.05,625.84,703.55Z"/><path class="cls-1" d="M11.54,46.49c0,25.49-1,49.9,1.31,75.34C6.54,112.11,5.84,65.65,11.54,46.49Z"/><path class="cls-1" d="M674.57,710.91c20.15,5.71,38,16.91,57.29,24.55C711.15,731.06,691.4,724.41,674.57,710.91Z"/><path class="cls-1" d="M75.45,321.61c-4.37-1.95-7.08-5.53-9.68-9C57.29,301.24,49.38,289.51,44,276.31c-.36-.88-2.44-2.18-.58-3.2s1.8.9,2.54,2.06c9.09,14.26,17,29.31,27.9,42.37C74.71,318.59,75.7,319.77,75.45,321.61Z"/><path class="cls-1" d="M29.4,182.51c2.72,13.57,4.44,27.36,9,40.5.87,2.5-.9,4.34-1.22,7.74A70.22,70.22,0,0,1,30.85,213c-1.68-6.84-2.77-13.83-3.83-20.8-.52-3.49-1.25-7.29,2.57-9.76Z"/><path class="cls-1" d="M522.36,220.16c-13,6.08-26.65,10.72-39.33,17.56C494.18,227.42,506.81,220.47,522.36,220.16Z"/><path class="cls-1" d="M300.63,293.14c-7.93-14.11-9.5-30.33-15.21-45.18C295.1,261.46,296.8,277.67,300.63,293.14Z"/><path class="cls-1" d="M431.06,289.64c6.61-12.09,13.74-23.43,28.74-26.13Z"/><path class="cls-1" d="M237.51,178.9c3.56,2.29,4.39,6.37,5.81,9.81,2.78,6.73,7,12.52,10.75,18.63.87,1.42,2.68,2.69,1.11,4.72l.06.07c-9.91-7.18-14.55-17.62-17.72-28.91-.38-1.35.08-2.92.15-4.39Z"/><path class="cls-1" d="M696.6,445.55c15.64-3.25,28.19-14.31,43.85-17.37A115.6,115.6,0,0,1,696.6,445.55Z"/><path class="cls-1" d="M571.58,683.65c-16.61,4.69-33.36,8.64-50.78,9.38l50.41-11.17C571.33,682.45,571.45,683.05,571.58,683.65Z"/><path class="cls-1" d="M.88,105.21C2.5,115.15,4.17,125.08,5.72,135c.5,3.25.62,6.56,1.07,9.82a1.69,1.69,0,0,1-1.6,1.95c-.77.15-1.19-.93-1.29-1.73-1.08-8.54-2.45-17.07-3-25.65C.52,114.7-.9,110,.88,105.21Z"/><path class="cls-1" d="M720.64,448.8c2.82-3.39,7.22-3.52,10.88-5.1,10.82-4.66,21.88-8.76,32.42-14.08a20.53,20.53,0,0,1,8.92-1.88c-3.11,2.93-6.65,2.78-9.5,4.18-12.83,6.28-25.85,12.19-39.49,16.56a13.61,13.61,0,0,1-3.34.22Z"/><path class="cls-1" d="M221.16,645.81c10.49,2.69,19.27,8.82,28.4,14.27C238.55,658.41,229.46,652.91,221.16,645.81Z"/><path class="cls-1" d="M622.72,511.06l-34.13-17.15c.3-.58.59-1.16.88-1.74,11.8,4.89,22.87,11.22,33.86,17.69C623.13,510.26,622.93,510.66,622.72,511.06Z"/><path class="cls-1" d="M613.46,191.73l-43.58,14.61c-.17-.52-.33-1-.5-1.56,14.24-5.73,29.27-9.06,43.66-14.33Z"/><path class="cls-1" d="M942.08,245.41c-3.78,10.32-12.25,17.14-18.34,25.73l-1.18-.86,17.85-26.12Z"/><path class="cls-1" d="M913.15,84.28c-10.1,7.41-19.4,16-31.15,21l-.51-.55c4.13-4.33,9.42-7.14,14.37-10.3,5.13-3.28,10.28-6.52,15.19-10.13.68-.5,1.45-1.7,2.15,0Z"/><path class="cls-1" d="M809.54,383.44c-7.19,5-13.76,11.25-22.95,12.5C793.61,390.61,800.82,385.65,809.54,383.44Z"/><path class="cls-1" d="M804.39,132a35.54,35.54,0,0,1-14.74,9.12c-2.71.82-5,3-7.62,4.22-.76.36-1.75,2.75-3,.36-1-1.89.16-2.73,1.73-3.22A109.37,109.37,0,0,0,797.85,135C800,133.88,802.21,133,804.39,132Z"/><path class="cls-1" d="M1004,682l27.41-2C1022.47,683.27,1013.37,684.68,1004,682Z"/><path class="cls-1" d="M20.68,167.76a107.22,107.22,0,0,1-3.27-30.24q2.27,15,4.52,30Z"/><path class="cls-1" d="M190.08,646c9.12,2.76,16.48,8.73,24.46,13.59C205.85,656,197.23,652.29,190.08,646Z"/><path class="cls-1" d="M572.35,193.79l26.29-7.3c-8.09,4.78-17.2,6-25.93,8.63Z"/><path class="cls-1" d="M635.76,182.28l23.33-7.67C651.85,178.69,644.32,181.84,635.76,182.28Z"/><path class="cls-1" d="M606.33,180c4.8-4.11,10.07-3.92,15-4.78C617.26,178.77,612.4,179.9,606.33,180Z"/><path class="cls-1" d="M995.31,87.45a57.94,57.94,0,0,1,4-16.79C998.61,76.3,999.88,82.34,995.31,87.45Z"/><path class="cls-1" d="M474.74,251.83c-2.65,4.32-6.9,5.53-10.56,8.45C466.42,255.37,469,253.3,474.74,251.83Z"/><path class="cls-1" d="M42.2,238.14c1.94,3.16,3.84,6.33,3.39,10.94C41.84,245.73,42.69,241.73,42.2,238.14Z"/><path class="cls-1" d="M95,369.22c-.88-3.23-7.13-5.51-1.55-10.1C94.26,362.54,95.58,365.67,95,369.22Z"/><path class="cls-1" d="M396.71,327.85c-1.44,4.66-6.46,6.33-8.52,10.49,1-4.92,4.3-8.18,7.84-11.26Z"/><path class="cls-1" d="M46.27,250.82c1.62,3.68,4.08,7.05,4.59,12.5C47.16,259,47.38,254.69,46.27,250.82Z"/><path class="cls-1" d="M312.75,281.36c3.54,2.7,4,5.92,3.64,9.46C316.56,287.35,312,285.8,312.75,281.36Z"/><path class="cls-1" d="M724.34,159.39c4.37-1.32,8.3-4.12,13.24-3.47-4.32,1.35-8.05,4.77-13.16,3.4Z"/><path class="cls-1" d="M987.35,162.87c-3.3-3.15-1.63-6.18,0-9.23Z"/><path class="cls-1" d="M396,327.08c2.6-3.13,4.89-6.54,8.33-8.94a26.62,26.62,0,0,1-7.65,9.71Z"/><path class="cls-1" d="M264.52,192.84c2.13,1.95,3.23,3.92,3,6.5C264.31,198.35,262.18,196.87,264.52,192.84Z"/><path class="cls-1" d="M829.54,357.66c-.83,3.65-3.24,5.57-6.82,6.2l.11.11c.2-4.35,4.88-3.93,6.84-6.41Z"/><path class="cls-1" d="M842.43,346.07l-7.17,7.25C835.6,348.35,839.39,347.6,842.43,346.07Z"/><path class="cls-1" d="M658.62,522.77c-2.23-.28-4.33-.75-5.67-4.16,2.78,1.27,5.59.79,5.6,4.31Z"/><path class="cls-1" d="M563.72,197.93c1.09-2.39,3.22-2,5.34-1.5l-5.42,1.38Z"/><path class="cls-1" d="M563.64,197.81c-.89,1.46-2.5,1.07-3.73,1.64,1-1.22,2.18-2,3.8-1.52Z"/><path class="cls-1" d="M658.55,522.92c.78-1.29,1.56.16,2.34,0-.13.24-.22.64-.39.68-.8.18-1.56.13-1.88-.83Z"/><path class="cls-1" d="M914,83.37c-.4-.76-.74-1.94.18-2.05,1.15-.13.08.73.07,1.14a5,5,0,0,1-.25.9Z"/><path class="cls-1" d="M724.42,159.32l-.52.74.41.11,0-.78Z"/><path class="cls-1" d="M255.18,212.06l.81.34c0-.81-.38-.52-.75-.27Z"/><path class="cls-1" d="M882,105.26c-.61.55-1.72.93-1.94.27-.38-1.11.88-.6,1.43-.82Z"/><path class="cls-1" d="M237.67,178.83a1,1,0,0,1-.82-1.38c0-.15.61-.32.63-.28.35.56,1.21,1.15,0,1.73Z"/><path class="cls-1" d="M720.53,448.7c.48.9-.13,1-.77,1-.24,0-.48-.22-.72-.33a1.3,1.3,0,0,1,1.6-.55Z"/><path class="cls-1" d="M913.2,84.29c-.2-.3-.63-.72-.55-.89.38-.79.91-.36,1.39,0h0c-.73-.12-.91.3-.9.92Z"/><path class="cls-1" d="M822.72,363.86l-.48.24c.07-.05.13-.14.2-.16a1.64,1.64,0,0,1,.38,0Z"/><path class="cls-1" d="M29.59,182.44v.28l-.2-.2A1.54,1.54,0,0,1,29.59,182.44Z"/><path class="cls-1" d="M829.67,357.56l.06.17a1.17,1.17,0,0,1-.2-.06Z"/><path class="cls-1" d="M506.08,324.29l1.29-1.76.81,1.17c-.39.52-.58,1.29-1.48,1.15A5.5,5.5,0,0,0,506.08,324.29Z"/><path class="cls-1" d="M506.7,324.85l-.53.7-.09-1.26A5.5,5.5,0,0,1,506.7,324.85Z"/><path class="cls-1" d="M423,620.4c-6.48,1.15-8.5.35-18.82-7.76,8.23-.35,13.87,3,18.87,7.93Z"/><path class="cls-1" d="M393.26,579.33c-4.11.19-7.18-2.14-10.4-4.15A20.92,20.92,0,0,1,393.26,579.33Z"/><path class="cls-1" d="M459.66,586.38c-1.2-.62-2.94-.32-3.57-2.29,1.73.26,3.4.31,4.82,1.38Z"/><path class="cls-1" d="M423.07,620.57l-.21-.09.16-.09Z"/><path class="cls-1" d="M363.33,606.25c.16.37.56,1,.46,1.09-.53.51-1,.28-1.43-.29Z"/><polygon class="cls-1" points="421.51 632.29 421.13 632.41 421.15 632.1 421.51 632.29"/><path class="cls-1" d="M411.84,572.57a7.86,7.86,0,0,1,.86.71c-.42.62-1,.4-1.53.17Z"/><path class="cls-1" d="M486.07,567.72a5.4,5.4,0,0,1-6.22-1,1,1,0,0,1,.12-.84C482.46,564.89,484,567.09,486.07,567.72Z"/><path class="cls-1" d="M446,522.32c-1.86,1.15-3.36.54-5.08-1.32a8,8,0,0,1,5,1.42Z"/><path class="cls-1" d="M447.64,523.77c.94,0,1.95-.31,2.86.69-1.14.11-2.36,1.27-2.77-.8Z"/><path class="cls-1" d="M447.73,523.66c-1.24.43-2,.21-1.7-1.33l-.08.09c.33.73,1.7.2,1.69,1.35Z"/><path class="cls-1" d="M447.92,528.26c.16.39.54,1.06.46,1.12-.75.58-1.46.54-1.92-.41Z"/><path class="cls-1" d="M257.79,456.91a12.58,12.58,0,0,1,10-3.11c1.06.13,2.65-.36,2.6,1.4,0,1.33-.72,2.82-2.35,2.7C264.76,457.66,261.29,458.38,257.79,456.91Z"/><path class="cls-1" d="M276.1,460.24c-2.55,1.26-5.1,1.61-8.63-.43C271,460.46,273.45,455.46,276.1,460.24Z"/><path class="cls-1" d="M211.73,213.21c-7.35-2.86-3-7.81-2.67-12.5C210.93,204.88,211.4,208.83,211.73,213.21Z"/><path class="cls-1" d="M632.49,393h13.59v.54H632.45C632.47,393.39,632.48,393.21,632.49,393Z"/></g></g></svg>