<svg xmlns="http://www.w3.org/2000/svg" viewBox="0 0 1025.69 826.8"><defs><style>.cls-1{fill:#050606;}</style></defs><title>Ativo 9</title><g id="Camada_2" data-name="Camada 2"><g id="Camada_1-2" data-name="Camada 1"><path class="cls-1" d="M806.14,744.28c-7.21-7-13.29-15.08-20.07-22.47-9.21-10-16.76-21.33-25.29-31.87-13.1-16.19-25.88-32.65-39.74-48.22-6.82-7.67-11.44-16.87-17.39-25.15-12.27-17.08-24.75-34.08-35.19-52.32-5.34-9.32-10-19.21-14.45-29.09-1.53-3.4-3-7.31,2.56-8.72-.46-1.5-1.37-1.3-2.08-1-9.31,4.47-18.73,8.73-27.84,13.56-6.19,3.29-13,4.6-19.35,7.28-2,.84-3.75,1.87-1.14,4.08,2.35,2,3.18,5,4.33,7.57,11,24.75,22.38,49.31,31.15,75,7.37,21.55,16.56,42.39,24.61,63.67,4.36,11.53,7.1,23.54,11,35.18,7.66,23,16,45.68,24.1,68.5a14.43,14.43,0,0,1,1.12,4.75c0,1.62,1.23,4.18-1,4.72-1.88.44-3.65-.85-5-2.88-5.4-7.94-9.1-16.67-12.75-25.46-5.23-12.61-11.44-24.74-17.72-36.85-6.95-13.4-12.16-27.53-17.16-41.73-1.43-4.05-5-6.71-6.55-10.35-8.12-18.6-17-37-23.24-56.26-5.52-17-12.86-33.25-18.08-50.26-3.17-10.33-9.44-19.59-10.32-30.65-2.24.59-3.11-2.55-5.31-2-9.71,2.48-19.44,4.58-29.6,3.93-3.37-.22-5.36,1.84-6,5.25-.51,2.57-1.37,5.08-2,7.63a4.33,4.33,0,0,1-4.9,3.31c-2.14-.16-4.92.95-6.16-2.46s-4-6-4.85-9.62c-.43-1.86-2-2.3-3.72-2.67-10.71-2.33-21.55-4.06-32-7.47-3.41-1.11-6.84-4.9-10.2-2.82-3.2,2-2.52,6.89-3.42,10.45a564.18,564.18,0,0,1-20.94,66.61c-7.09,18.19-14.79,36.33-24.28,53.34-13.54,24.29-23.82,50.06-36.55,74.68a30.66,30.66,0,0,1-2.75,4.66c-1.24,1.63-2.79,2.62-5.08,1.6-2.54-1.13-2-3-1.39-4.84,3.8-11.36,7.59-22.72,11.47-34,7-20.46,14.07-40.92,21.48-61.22,8.15-22.29,15.24-45,25.09-66.69,6.51-14.35,11.71-29.31,17.31-44.07,1-2.59,1.66-4.72-3-6-6.84-1.89-13.08-5.94-19.59-9.05-3.12-1.49-6.21-3-9.4-4.37-2.91-1.2-5.3-1.17-7.45,2.06-5.94,9-12.81,17.25-17.93,26.79-3.49,6.52-9.55,11.06-14.13,16.8-10.94,13.7-22.12,27.26-35,39.22-10.32,9.55-21.14,18.6-31,28.57-11.67,11.73-22.36,24.69-35.77,34.29-12.19,8.73-20.53,21.22-32.58,29.84a14,14,0,0,0-2.77,3.36,5.8,5.8,0,0,1-6.43,2.54c1.06-2.35-1.61-4.87.29-7.17s3.55-4.9,5.79-6.81c9.88-8.41,16.06-19.61,23.24-30.08,10.72-15.64,21.27-31.4,32.38-46.75,6.68-9.23,15.69-16.46,23.07-25.18,15-17.71,30.43-35,45.94-52.31,8.62-9.59,17.81-18.66,28.24-26.36,1.77-1.31,2.32-2.31.29-3.94-11.69-9.47-23.51-18.81-33.54-30.1-2.5-2.82-4.05-1.81-6,.34-3.81,4.32-6.89,9.21-11.22,13.17-15.48,14.17-33.32,25-50.86,36.21-6.93,4.44-13.48,9.47-20.14,14.32-9.88,7.2-21.56,11.26-31.42,18.58-14.16,10.51-30.07,18.24-45.08,27.42-5.34,3.27-10.23,7.26-15.83,10.17-20,10.37-40,20.65-59.61,31.77-2.4,1.36-4.43,3.45-7.34,3.94-.88-5.61,3-8.63,6.45-11.48,9.73-7.95,19.62-15.7,29.55-23.39,13.61-10.54,27-21.42,40.29-32.3,7.26-5.92,15.25-11,22.68-16.67,6.39-4.91,12.53-10.15,18.65-15.4,25.79-22.13,53-42.14,83.49-57.47,7.93-4,16.09-7.53,24.26-11a77.76,77.76,0,0,1,10.3-3c2.33-.62,2.44-1.36,1.3-3.62-8.17-16.06-17.48-31.57-22.42-49.17-2.86-10.21-4.58-20.57-6.27-31-.53-3.24-.55-7.68-6.14-6.25-3.95-5.85-10.1-2.72-15.07-3.08-5.93-.43-12,1.33-18,2.15-12.09,1.66-24.23,3.09-36.27,5.05-22.38,3.63-44.89,4.54-67.49,3.85q-32-1-64.08-2.16c-27.45-1-54.9-1.94-82.34-3.31-7.71-.38-15.48-.29-23.19-2.05-4.5-1-9.51,0-14.31-.34A20.6,20.6,0,0,1,0,375.73c5.34-2.19,11-2.8,16.23-3,14.79-.55,29.17-4.69,44-4.45,3.42.06,6.84,2,10.1.71,9.24-3.72,19.06-2.86,28.61-3.89,16.78-1.81,33.64-2.86,50.41-4.73,13.44-1.49,26.75-4.13,40.19-5.47,10.86-1.08,21.7-2.27,32.56-3.32a250.5,250.5,0,0,1,34.86-1c8.93.39,17.9.73,26.26,4.7a15.44,15.44,0,0,0,6.25,1.16,306.17,306.17,0,0,0,31.77-1c10.05-.86,15.94-6.87,16.52-17.21,1.09-19.5,6.91-37.75,13.9-55.76A125.21,125.21,0,0,1,359,266.33c1.86-3.32.86-5.47-2.51-6.49-25.15-7.6-47.09-21.45-68-36.57-12.91-9.31-25.79-18.83-37.9-29.33-12.47-10.81-26.21-20.14-38.9-30.7-7.89-6.56-15.79-13.05-24-19.15-2.75-2-3.84-5.79-6.89-7.71-.47-.29-1-1.11-.06-1.58s1.47-1.5,3-1.17c3.79.83,7,2.91,10.29,4.61,24.47,12.5,48.07,26.55,72,40,8.42,4.75,17.38,8.6,25.76,13.51,10.34,6.05,20.38,12.6,30.54,18.92,15.12,9.42,29.54,20,44.07,30.32,6.37,4.53,7.62,4.48,13.44-.81,7.68-7,15.16-14.24,23.8-20.11,5.26-3.57,5.69-6.17,1.3-10.84-9.18-9.78-18.56-19.39-28-28.88-7-7-13.6-14.39-19-22.78-9.83-15.36-20.5-30.25-29.3-46.17-9.93-18-20.41-35.68-28.7-54.53-1.38-3.14-3.37-6-4.91-9.08-1.42-2.81-2.6-5.73-2-9l1.92.25c5.81,2.72,9.08,8.09,13.37,12.46C324,67.63,336.89,86.17,351.6,103.19c11.23,13,21.27,27,32.58,39.94a443.47,443.47,0,0,1,28.71,36.17c2.44,3.46,5,6.84,7.5,10.23s7.77,3.38,9.18,7.84c3.16-1.76,5.88,2.93,10.22-.57,5.24-4.24,12.69-6,19.42-8.06,4.2-1.28,3.33-3.27,2.32-6-6.93-18.58-14.11-37.08-19.12-56.32-6.62-25.41-13.48-50.76-20.09-76.18-.85-3.26-2.05-6.62-.72-10.19.39-1.06.08-2.13,1.74-2.4a2.43,2.43,0,0,1,2.9,1.24c1.41,2.61,3.13,5.14,4,7.92,5.11,16.56,14.12,31.39,20.73,47.3,9.1,21.94,18.88,43.6,25.84,66.39,1.81,5.94,4,11.77,6.17,17.58,1.16,3.06,2.84,4.74,6.73,2.85,7.05-3.42,14.93-4,22.54-5.34,9.92-1.78,9.58-1.82,9.36-11.88-.26-12.09.67-24.21.55-36.3-.11-12.25,2.59-24.19,2.79-36.45.36-21.2,2.21-42.38,3.18-63.58.24-5.09-.63-10.23.28-15.34.79-4.47,2.43-7.39,7.93-7.2,6.25.21,5.7-.16,6.48,6.22,1.18,9.57,1.6,19.21,3.55,28.73,1.62,7.91,2,16.14,2.25,24.25.64,18.56,2.82,37,3.44,55.61.43,12.83,1,25.7,1.47,38.55.12,3.27-.83,6.53-.91,9.88-.08,4,1.84,5.73,5.28,5.38,8.87-.89,17,1.63,25,4.9,2.4,1,3.17.9,4.1-2.13,4.25-13.76,8.47-27.57,13.79-40.94C608.56,115.64,615,95.45,623.23,76q8.41-20,15.83-40.31c.63-1.75,1-6.53,5.42-3,.93.74,1.55-.87,2-1.66,1.52-2.71,2.9-5.51,4.44-8.2.53-.92,1-2.4,2.56-1.66,1.37.66.89,1.88.61,3.05C651.5,34.65,649,45.2,646.41,55.72c-4.23,17.24-8.08,34.6-12.88,51.68-5.81,20.71-9.61,42-18.84,61.74-1.92,4.08-2.64,8.77-3.53,13.25a3.63,3.63,0,0,0,2.91,4.5c8.48,2.25,16.14,6.86,24.74,8.79.17,0,.38,0,.49.09,5.6,4.76,7.15,0,9.82-3.74,18.16-25.51,35.46-51.66,55-76.18,17.07-21.46,33.67-43.27,49.42-65.72,4-5.63,7.94-11.22,12-16.74,1.37-1.86,3-3.46,5.69-3.57,2-.08,3.44.24,4.37,2.31,1.22,2.74-1.53,1.87-2.3,2.48-1.83,1.46-2.31,3.47-3.13,5.39-9.89,23.15-20.16,46.13-33.7,67.45-5.77,9.1-12.56,17.6-17.81,27-6.24,11.15-12,22.57-19.36,33-9.1,13-17,26.73-25.11,40.33a9.13,9.13,0,0,1-.53.84c-5.42,7.22-5.48,7.28,1.2,13.78s13.32,12.5,19.78,18.95c2.3,2.28,3.66,2,6,0,14.14-11.64,27.82-24,42.86-34.33,17.36-11.95,34.79-23.86,52.89-34.79,16.15-9.76,32-20.16,48.08-30,12.59-7.66,26.19-13.67,38.72-21.42,10.67-6.59,22.07-11.8,32.64-18.5,2.19-1.39,4.27.42,7.08-.63-4.05,6.41-9.62,10.24-14.66,14.28Q868,148.32,827.14,179.83C808.71,194,790.06,207.92,771,221.14c-16.51,11.43-33.84,21.67-50.72,32.55a51.82,51.82,0,0,0-7.61,6.37c-3.26,3.14-2.31,6.69,1.75,8.7,3.7,1.82,5.31,5.69,7,9.07,9.35,19,15.8,39,20.81,59.52,1.12,4.58,1.18,9.47,1.29,14.23.07,3.11,1.41,4.43,4.22,4,13.87-2,27.89-1.72,41.84-3.71,14.63-2.08,29.64-2,44.59-1.4,20.7.84,41.22,3.46,61.82,5.11,26.69,2.13,53.51,3.07,80,7.47,10,1.66,20.18,1.36,30.31,1.4a53.58,53.58,0,0,1,19.47,3.94c-2.47,3.44-5.77,4.24-9.4,4.94-18.92,3.62-38.15,3.5-57.24,5.07-18.62,1.52-37.21,3.33-55.84,4.53-10.88.71-21.84.06-32.72.75a320.75,320.75,0,0,1-37.34-.3c-17.74-.94-35.46-1.66-53-4.75-9.38-1.65-19.06-1.76-28.61-2.21-4.36-.21-7.39,1.34-8.33,6.66-2.17,12.28-4.26,24.7-8.81,36.34-3.69,9.43-8.69,18.34-13,27.52a204.26,204.26,0,0,1-13.8,23.83,174.27,174.27,0,0,1-31.84,36.41c-5.72,5-11.06,10.38-17.74,14.81,5.08,1.61,5.12,1.68,9.17-1,1.62-1.09,1.92.5,2.69,1,10.46,7.23,18.72,16.86,27.79,25.59,9.91,9.53,19.58,19.32,29.1,29.24,19.6,20.43,38.91,41.13,58.58,61.49,8.48,8.77,16.37,18.24,26.63,25.14,4.41,3,9.12,5.51,13.26,8.79,2,1.58,3,4.42,4.43,6.69l-.72.87c-9.11-5.82-16.39-13.84-24.69-20.63-13.8-11.3-27.23-23.21-42.51-32.46-13.21-8-24.39-18.17-35.5-28.6a54.62,54.62,0,0,0-8.52-6.42c3.21,8.47,9,15.19,14,22.39,16.6,23.79,33.08,47.64,48.56,72.21,9.09,14.44,19.14,28.34,27.81,43,6.11,10.37,13.08,20.1,19.52,30.21.94,1.49,1.27,2.62,0,4-1.52,1.54-2.35-.29-3.35-.76-3.41-1.58-5.72-4.28-7.65-7.5-3-4.91-6.21-9.62-10-15.37V744Zm-106-159.76a5.12,5.12,0,0,0,3.52,3.43c-.31-2.15-1.78-2.9-3-3.88-2.09-4.74-5.82-8.33-8.77-12.44l-1.11.31.25.42c.29-.28.58-.56.86-.85-2,1.55,0,2.55.67,3.44C695,578.22,697.59,581.34,700.12,584.52ZM375.49,568l-7.44,9.29,1.2.86c1.37-3.84,6.22-5.2,6.15-10.08l1.11-.61c0,.08,0,.18,0,.24C376.27,568.13,376,568.35,375.49,568Zm-37.81-73.89c-6.69,3.78-13.43,7.48-19.23,12.62l-4.4,2.85c2-.16,3.89-.43,4.86-2.26,7.39-2.83,13.24-8.09,19.7-12.4a17.63,17.63,0,0,0,6.64-5C341.88,491.42,339.36,492,337.68,494.11ZM473.77,498l-.11.21.24-.13c.06,5.35,2.41,9.73,5.83,13.65,1,1.12,1.93,1.61,3.43.82,2-1.07.66-2.19.16-3.24-1.49-3.12-3.91-5.83-4.61-9.29S476.52,496,473.77,498ZM283,529.33c-2.06-1.22-3.46.49-4.54,1.49a41.1,41.1,0,0,1-7.87,5.42c-6.67,3.86-13.15,8-19.74,12-1.64,1-1.22,2.2-1.05,3.29,10.84-8,23.93-12.29,33.06-22.33l.69-.76c-.15,0-.33-.15-.43-.1C282.66,528.63,282.64,529,283,529.33Zm73-167c.4-1.43,1.92-2.76.1-4.68-1.43,1.7-3.58,3-.69,5.28,1,4.16-2.86,8.29-.28,12.67,4.9-8.38,7.8-17.78,16.32-23.34a6.76,6.76,0,0,0,3.3-4.2,2,2,0,0,0-.85-2.17c-.56-.42-.74,0-1.1.35-3.16,2.73-6.62,5-9,8.73C362,357.91,359.74,361,356,362.3Zm89.18,20.22c-8.26,6.84-14.39,15.15-17.71,25.43-1.86,5.75-3.42,11.63-5.74,17.19-1.6,3.82-2.62,7.22.05,11.13,6.6-4.32,9.42-11.3,12-18,4.46-11.4,8.1-23.12,12.08-34.71.78-.41,1.32-1.13.64-1.8C446,381.24,445.52,382,445.19,382.52Zm117.1-86.42c2.3,1.54,3.85.74,5.25-1.43,1.65-2.55,4.09-5.12,6.81-5.44,5.7-.67,10.62-3.16,15.41-5.66,25.29-13.21,50.25-12,75.35.5,6.72,3.35,12.34,8.37,19.82,12.33-3.13-5.87-5.79-10.5-10.64-14.18-15.22-11.51-31.43-18.87-51.14-17.87-11.78.6-23.38,1.71-34.83,4.38-17.75,4.13-24.92,11.73-26.09,27.53l.15,0Zm76.13,111.47c-10.89-2.15-19-8.55-26-16.82a31.2,31.2,0,0,0-2.91-2.71c-3-2.73-5.93-.87-7.72,1.14-4.08,4.57-3.9,12.29.19,17.13,7.58,9,13.46,19.18,20.73,28.36,4.36,5.49,6.12,13.35,14.42,15.89-.45-3.2-3.15-5.83-2.39-8.79.91-3.55-.8-6.27-1.73-9.3-1.86-6-6.11-10.9-9-18,2.17,1.88,3.47,2.68,4.34,3.81,5.18,6.67,10.36,13.37,14.2,20.94a19.48,19.48,0,0,0,3.35,4.81,3.64,3.64,0,0,0,4.1,1c1.24-.6,1.07-2.61.53-3.62-3.36-6.32-2.74-13.92-6.64-20.05-1.95-3.06-2.12-6.12.49-9,3.23,2.55,5.15,5.95,7.25,9.35,2.23,3.61,3.27,8.23,7.78,10.28,1.33.6,1.74.16,2.8-.41,1.48-.79.79-1.38.49-2.23-.84-2.32-.76-4.79-1.6-7.19-3.16-8.94-4.94-18.37-9.84-26.9C662,401,664,414.27,674,420.64c-1.68-8-4.62-15.65-7.1-23.45-2.39-7.51-8.36-12-14.36-16.43-3-2.22-5.88-6.52-9.57-.85,4.06,3.9,9.14,7.23,12.05,13.41-11.17,0-15.23-11.17-24.82-14,.78,1.89,1.26,2.92,1.65,4,.8,2.24,3.34,5.06,1.09,6.72s-4.06-1.83-6-3.07c-3.4-2.17-6.31-5.38-12.21-4.3,12.35,4.82,16.72,16.14,24.49,24.2A9.24,9.24,0,0,0,638.42,407.57Zm-252.59-141a40.58,40.58,0,0,0,10.63-7,65.57,65.57,0,0,1,17.45-11.08c2-.9,4.62-2.73,5.89,1.38.23.75,1.73,1.84,3.67.82,11-5.83,22.25-11.32,33.32-17.08,2.09-1.08,4.41-2.15,5.8-4.35-4.08-2.72-8-1.91-11.69.14a158.78,158.78,0,0,1-18.58,9.2,15.16,15.16,0,0,1-6.91,1.47c-3.17-.19-2.54-1.12-1.55-2.7a14.36,14.36,0,0,1,2.73-2.84c4.21-3.78,9.28-6.27,14-9.26a175.72,175.72,0,0,1,44-19.57c10.89-3.25,22.34-4.11,33.38-6.61,13.3-3,26.51-2.65,39.84-1.87,9.32.54,18.2,3.91,27.54,4.57,3.72.27,8.85.33,10.7,2.62,2.61,3.23,5.8,4.47,9,5.75,22.77,9.14,42.59,22.91,61.12,38.64,9.9,8.4,17.28,19.21,26,28.66A48.55,48.55,0,0,1,704,300.29c2.51,11.71,6.31,23.09,8.28,34.91,1.71,10.22,4.66,20.33,3.9,30.79-.53,7.39-1.2,14.66-4.41,21.8-3.31,7.36-3.29,16-6.16,23.67a2.37,2.37,0,0,0,.59,3c2.43,2,1.69,4.24-.65,6s-4.87,3.14-6,5.79c-6.5,14.72-18.7,25.4-27.38,38.62-8.21,12.53-22.11,19.73-32.32,30.6-2.87,3.06-7.58,4.49-11.58,6.38-9.44,4.47-18.1,10.39-28.13,13.84-6.45,2.22-13.85,4-16.76,11.8-.46,1.23-2.67,1.93-1.22,3.71,1.28,1.56,3,1.14,4.57.55,17.08-6.36,34-13,49.87-22.14,13-7.52,23.92-17.7,34.58-28.2C687.56,465.33,700.87,447.12,710,426c1-2.35,1.25-5.11,2.55-7.26,7.19-11.93,8.53-25.24,9.73-38.67.77-8.65-1.28-17.27-.48-25.75a73.79,73.79,0,0,0-2.14-26.15c-6.11-23.35-14.37-45.48-32.07-62.88-.54-.53-1.11-1.72-.87-2.21,1-2-.5-3-1.44-4.3-10-13.95-24-23.57-37.06-34.07-5-4-9.87-8.49-16.34-10.67a165.61,165.61,0,0,1-18.56-8c-5.81-2.79-12.79-2-18-7-3-2.82-7.92-1.73-11.93-2.72-10.2-2.54-20.54-4.65-31.12-4.68-6,0-12.08,1.46-17.89.64a91.42,91.42,0,0,0-30.37.69,257.79,257.79,0,0,0-40.92,11.47c-9.57,3.59-19.46,7-28,13.09-6.81,4.8-15,7.31-20.94,13.73-7,7.63-14.94,14.45-21.89,22.14-3.16,3.49-6.36,7.46-7,12.59-.55.66-1.12,1.57-.14,2C385.63,268.32,385.77,267.2,385.83,266.57Zm156.41,6c-1.07,2.51-.2,5.45-2.22,7.46A36,36,0,0,0,532.51,292c-1.22,2.94-3.55,3.46-5.74,4.62a1.72,1.72,0,0,1-2.27-.26c-.68-.79-.12-1.54.14-2.3,2.25-6.51,1.49-9-4.36-13.12A93.79,93.79,0,0,0,497,269.55c-17.91-6.21-36.3-5.4-54.75-2.95-17.25,2.28-31.52,10.17-43.49,22.56a21.34,21.34,0,0,0-5.55,8.48,231.54,231.54,0,0,1,33-17,73,73,0,0,1,44.56-4.51,120.26,120.26,0,0,1,44.35,18.18c4.48,3,7.44,5.26,7.46,10.6a10.62,10.62,0,0,0,.2,2.46c2.08,9.05-.53,18.07-.14,27.13a76.51,76.51,0,0,1-3.19,24.41c-2.76,9.62-8.48,17.21-15.27,24.25-5.11,5.29-6,11.83-4.37,18.7.69,2.84,2.26,5.38,5.74,6.08,4,.8,7.95.79,10.42-2.56,1.86-2.52,4.18-3.95,7.31-6.3-2.47,6.36,2.08,7.34,5.28,8.13,5.73,1.4,8.66,5.59,11.78,9.78.81,1.09.58,3.3,2.75,2.81a4.91,4.91,0,0,0,3.51-3.83,5.59,5.59,0,0,1,1.44-3.08c5.39-5.93,12.36-5.23,19.18-5.47a22.52,22.52,0,0,1,5.45.2c6.63,1.44,13.11-2.36,13.73-8.86.78-8.13-3-20.59-13.82-23.64-2-.56-2.93-2-3.66,2.17-1.22,7,3.58,10.36,6.45,14.78,1,1.59,1.62,2.73,1,4.07s-2.06,1.58-4,1.43c-5.32-.4-10.26-3.69-16-1.18-6.9,3-8,2.12-9.62-5.39a152.62,152.62,0,0,1-3-29c-.18-12.1-.37-24.18,0-36.28.29-9.91-1.32-19.83.25-29.76.52-3.24,1.86-7.77.32-9.64C540.45,281.77,544.23,277.05,542.24,272.61Zm-57,246.84c-2.73-.38-5.65-.89-7.84-2.6-5.79-4.51-12.31-7.5-18.89-10.6-13-6.11-24.52-14.69-36.82-22a42.34,42.34,0,0,1-14.64-14.65c-2.8-4.64-5.45-9.16-9.89-12.67a44.92,44.92,0,0,1-8.75-10.1,126.37,126.37,0,0,1-21.55-59.05c-.36-3.44-2.21-7,.28-10.36a1.15,1.15,0,0,0-.32-1.73c-.88-.56-1.29.31-2,.77-2.45,1.71-4,4.77-7.51,4.95-1,.05-1.21.94-1.11,1.86.35,3.12.62,6.25,1,9.36,1.46,11.35,6.41,21.47,10.54,32,4.3,11,8.58,21.73,16.11,30.93,1.89,2.29,3.68,4.68,5.71,6.84,6.88,7.33,11.05,16.88,19.07,23.26,5.15,4.1,10.24,8.29,15.59,12.12a212.33,212.33,0,0,0,66.1,31.37c2.4.68,5.54,3.64,7.1,1.54s-2.46-4-3.63-6.25C492.25,521.32,490.07,517.84,485.25,519.45ZM593,456.59c-8.65-2-17,.85-25.48,2.73-9.46,2.11-18.72,4.92-28.69,3.16-6.37-1.12-12.89-2.27-19.12-3-10.17-1.12-20.28-5.24-30.76-2.73-2.31.55-6.26-1.05-6.46,2.57-.11,2.05,3.46,2.92,5.65,4,6.11,2.95,12.91,4.27,18,9.6,2.06,2.14,3.7,5.57,7.06,6.29a64.12,64.12,0,0,0,18.46,1.65c5.41-.42,11.09.15,16.66.17s11.81,2.54,16.66-1.89C573.87,471,586.67,468,593,456.59Zm88.66-132.67a51.54,51.54,0,0,0-13.4-9.71c-1.55-.8-5.15-.56-4.62-3.46.47-2.59,4-1.53,5.75-2.93.43-.33,1.55.38,2.34.36,4.87-.09,9.21,2.38,14,2.82,1.14.11,2.23,1,2.87-.6a2.74,2.74,0,0,0-.69-3.16,18.11,18.11,0,0,0-9.2-5.59c-16.55-3.55-33-8-50.15-7.52-9.57.26-19,1.26-27.92,5.3-10.13,4.57-17.08,12.75-24.47,20.47-1.06,1.1-1.75,2.88-.25,4.39,6.2-3.06,11.61-7.37,18-10.06,14.86-6.25,30-10.15,46.08-5.72,9.72,2.67,18.64,7.27,27.39,12.19C671.35,323,675.49,324.69,681.63,323.92ZM489.48,448.51a11.81,11.81,0,0,0,9-1.83c9.49-5.78,19.88-9.24,30.47-5.09s20.33,3.12,30.45-.61c2.61-1,5.2-.41,8.07.76,7.6,3.09,15.5,5.52,23.87,5.63,5.72.08,10.21-2.38,13.72-6.72.73-.9,1.91-1.8.95-3.47s-2.34-1.49-3.82-1.1a47.65,47.65,0,0,1-14.74,1.41c-9.49-.48-16.55-7.44-25.65-9.1-2.34-.43-3.55-.87-5.44.7-6.18,5.14-13.08,10.47-21.21,5.85a51.9,51.9,0,0,0-16.89-6c-2.78-.51-4.58.05-6.15,1.65-8.68,8.93-19.48,11-31.29,10-3.84-.33-2.85,3.33-3.95,5.11-1,1.59.53,2.29,2.28,2.66A30.92,30.92,0,0,0,489.48,448.51Zm64,68.56c-.81,2.08-1,3.74-2,4.79-1.77,2-3.72,5.1-6.91,2.65-2.38-1.82-4.72-4.36-1.34-7.61.92-.88.46-2.17.22-3.3-.91-4.1-3.77-5.52-8.65-5.82,3.7,3.9-.58,5.3-1.51,7.76-.38,1-.5,3-2.43,2.48-1.32-.37-1.92-1.52-2.24-3-.74-3.37-1.87-6.64-2.66-10-.36-1.52-1.39-1.6-2.52-1.72-.78-.09-1.24.14-1,1.05,1.33,5.05-1.4,9.08-3.22,13.5-2.59-3.41-5.36-6.4-6.38-10.58-1.34-5.55-6.07-4.23-9.89-4.36-1.33,0-2.83,1.24-2.16,2.7,3.08,6.66,4.92,14.93,11.59,18.41,7.72,4,15.22,9.26,24.48,10s18.15,1.71,25.32-5.82c3.18-3.33,4.59-7.61,6.12-11.77.57-1.53,1.22-4.23-.81-4.78-1.57-.43-3.54-1.39-5.9.75s-2.34,5.51-4.67,7.49c-.86-3.21-1.09-7.22,1.26-8.52,3.63-2,1.11-5.13,2.61-7.29.4-.59-1.13-.69-1.82-.92-.18,5.86-2.9,1-4.35.92-1.67-.09-3.1-.34-2.95,2a15.15,15.15,0,0,1-1.63,7.62C548.81,516.35,549.36,518.31,553.46,517.07ZM498.81,322.53c-5.26-7.83-10.59-15-19-18.77-8.71-3.93-18.12-4.91-27.53-5.21a154.81,154.81,0,0,0-55.89,8.72c-1.82.63-4.39.66-3.9,3.13.43,2.16,2.61,3.19,5,3.12,3.21-.08,6.41,0,9.87,0-.93,3.53-4.07,4.43-5.48,7.37,3-.32,5.77-.07,8.12-1,8.08-3.11,16.15-6.2,24.5-8.49,10.31-2.84,20.82-4.58,31.27-1.81,7.37,2,14.31,5.5,21.54,8.05C491.13,319,494.06,322.31,498.81,322.53Zm-38.06,60c-6.63,6.57-12.12,12.27-15.59,19.69a124.17,124.17,0,0,0-9.41,29.4c-1,5.19-2.19,10.35-3.11,15.56-.16.93-1,2.41.53,3.05,1.26.55,2.37-.44,3.08-1.19a64.2,64.2,0,0,0,7.08-8.24c7.34-11,13.9-22.53,22.29-32.82,4.33-5.31,9.53-10.21,9.49-17.88,0-1,1.6-2.19-.3-2.8-1.11-.36-2.1-1.07-3.63,0a13.54,13.54,0,0,0-4.19,4.06,40.26,40.26,0,0,1-7.74,8.87C457.36,394.29,460.75,389.18,460.75,382.56Zm132.73-56.49c2.36.52,3.7,1.56,3.82,3,.09,1.12-1.56,2.05-2.52,2-3.31-.16-5.33,2.38-8,3.4-1.11.42-3,.55-3,1.95,0,1.6,1.75,2.37,3.12,2.82,4.18,1.37,8.57,2.2,12.63,3.85,19.4,7.89,38.26,7.05,57-2.46,3.24-1.65,5-5.26,9.06-5.56a9,9,0,0,0-5.5-3.5c-2.53-.67-5.84-.88-7.31-2.58-3-3.49-7-4.26-10.83-5.47-.61-.19-1.58-1.81-2.29-.2-.5,1.15.52,1.53,1.36,2.17,2.86,2.17,6.49,2.63,9.9,4.42-3,1.65-7.52-1.64-8.56,3.49-.76,3.71-3.46,5.15-6.74,6.43-2.58,1-5.15.67-7.69,1.16-9.58,1.82-19.91-4-21.31-14.14-.38-2.78-2.79-5.31-6.46-4A71.41,71.41,0,0,0,593.48,326.07Zm-119.66.55c.32,8.71-4.42,11.72-11.15,14.74-3.35,1.5-7.34,0-10.45.65-8,1.78-12.24-2-16.23-7.74-1.93-2.76-3.88-6.4-8.35-3-.78.6-2.62.15-3.58.42-4.54,1.27-9.23-1.36-14.29.23,24.91,21.27,59.37,22.94,80.2,2.81C485.9,329.44,478.74,330.24,473.82,326.62Zm-119,15.93c5.48-6.44,11.47-11.88,13.16-21.34,2.62-14.7,5.05-29.65,11.08-43.57a33.75,33.75,0,0,0,1.92-5.58c.19-.76.41-2.13-1-2.37-1-.17-1.45.81-1.68,1.53a34.93,34.93,0,0,1-2.89,6.2c-5.83,10.83-12.31,21.38-15.36,33.47C357.42,321.23,355.21,331.65,354.78,342.55Zm82.05,28.56c-1.45.75-2.34,1.15-3.16,1.66a23.87,23.87,0,0,0-2.41,1.71c-13.63,10.8-17.89,26.38-21.5,42.27-.48,2.12-2.44,5.12.3,6.15,1.91.72,4.5-1.5,6.14-3.41a9.66,9.66,0,0,0,2.22-3.26c2.21-7.73,6.13-14.79,8.69-22.36,1.56-4.58,1.48-9.53,3.49-14.13C432.05,376.4,436.39,375.73,436.83,371.11Zm250.86,30.7c-2-1.65-1.05-4.18-1.83-6.28-3.68-9.95-11.51-16.17-19.3-22.42-1.21-1-3.72-.1-4.59-2.28,0,2.32-3.26.76-3.39,2.9-.12,2-.51,3.84,1.71,5.22,5.88,3.64,9.6,9.34,13.76,14.65,3,3.87,7.12,6.69,11.17,9.51C687.37,404.61,687.26,403,687.69,401.81ZM486.94,236.68c15.78-3,31.7.84,47.48-1.55C520.1,225.23,496.73,225.59,486.94,236.68ZM422.58,369.79c-10.56,5.12-19.85,11.35-23,23.59-1.56,6,4.43,10.94,2.1,17.23C406.59,395.81,412.86,382,422.58,369.79Zm42.34,89.34c3.09,0,5.48-3.27,4.74-8.14-.7-4.63.93-7.93,4.42-10.66,1.21-1,3.42-1.95,2.22-3.67s-2.2-3.54-5.49-2.75c-8.69,2.09-14.88,13.63-11.24,21.91C460.53,458,461.81,459.41,464.92,459.13Zm-55.2-92c-17,2.92-29,15.45-26,28.36C394.51,388.48,400.41,377,409.72,367.11Zm88.14-118c12-.77,22.7,2.85,33.73,4.12,3.63.42,3.42-1.67,3.86-3.2s.72-3.41-2.25-4.16c-9-2.27-18-1.12-26.93-.79A11.49,11.49,0,0,0,497.86,249.12ZM639.4,241.9l.63-1.06c-2.33-2.21-4.38-4.83-7-6.55-10.45-6.77-21.74-11.89-33.13-16.88-2.28-1-4,.69-6-.21-.24-.11-1.36.83-1.3,1.15.13.73.85,2,1.12,2,4.57-.9,7.08,3.19,10.8,4.36a82.87,82.87,0,0,1,26,13.45C633,240,636.42,240.68,639.4,241.9Zm-110.94-27c-9.38-4.72-39.94,1.29-46.56,8.82C497,219,512.58,218.65,528.46,214.94ZM192.42,367c22.48.5,44.65-3.06,67-4.63C236.94,362.14,214.58,363.3,192.42,367Zm477.63-1.49c6.94,3,11.66,7.81,15.72,14.07,3.85,5.93,10.27,9.93,14.32,16,.24-6.31-4.35-10.28-6.57-15.31-.56-1.28-1.92-2.23-3-3.23s-2.83-1.91-3.67-3.23C683,367.71,676.52,366.82,670.05,365.53ZM506.89,260.38c9.71,3.18,17.28,9,25.33,14.41.88-4.27.59-4-4.23-9.35C522.28,259.12,516.27,255.38,506.89,260.38Zm65.94-9.65c-8-5.27-17.19-5.42-26.23-6-.92-.07-2.33,0-1.61,1.46.91,1.88,1,4.25,4.19,4.67A79.79,79.79,0,0,0,572.83,250.73Zm28.29-16c17.61,3.59,28.89,19.22,46.81,22.87-3.73-4.44-8.63-5.21-12.68-7.48-9.56-5.35-17.89-12.82-28.56-16.32C604.43,233.09,602.89,233.14,601.12,234.76Zm260,134.4c0-.6,0-1.21,0-1.81h-65.1C817.73,369.8,839.42,369.76,861.11,369.16ZM424.78,478c-.61-8.89-6.5-14.59-11.51-20.73-.43-.52-2-1.52-3.07-.39-.76.81-.22,1.75.09,2.75C412.69,467.39,416.05,474.35,424.78,478ZM590.5,514.27c2.18,0,8.62-5.38,8-6.71-1.25-2.86-3.36-5.86-6.42-6-3.83-.2-6.21,3-6.26,6.66A6.47,6.47,0,0,0,590.5,514.27Zm21.86-52.6c7.8-3,9.47-8,5.16-13.83-1.38-1.85-2.94-3.92-5.71-2.07-2.26,1.51-3.4,7.18-1.35,8.28C613.82,455.85,613.25,458.28,612.36,461.67Zm-182.27,4.68c-.29,6.61,5.15,9.45,8.53,13.52,1,1.26,2.7,3.26,4.57,2.24s-.49-2.58-.39-4c.09-1.15.29-2.29.41-3.44.08-.81-.06-1.28-1.07-1.62C437.77,471.57,432.69,471.29,430.09,466.35ZM577.8,523c3.39-4.76,4.33-7.71,3.91-11.13a3.24,3.24,0,0,0-1.36-2.48c-1.19-.75-1.62.61-2.29,1.21C572.93,515.18,572.88,517.76,577.8,523Zm135.13-158.9c-1.11-8.3-8.37-18.34-13.73-19.21l6.45,7.07c-.61,1.33-2.19-.4-2.82,1Zm-137.6-126c-6.17-2.68-12.28-5.29-19.16-3.6-.93.23-2.31,0-2.43,1.16-.14,1.34,1.15,1.76,2.31,1.88C562.44,238.21,568.92,236.75,575.33,238.12ZM697.68,359.35c4.56,6.37,9.17,12.68,16.05,18.26C711.09,368.24,704.47,363.72,697.68,359.35ZM653.94,473.94c1.87-1.4,2.08-3.3,3.91-4.41,2.21-1.34,3.3-4.64,4.64-7.22a3,3,0,0,0-.2-2.74c-.89-1-1.67.34-2.5.71C653.93,462.87,653,467.7,653.94,473.94Zm-38.88,25c7.51.08,12-4.79,9.67-10.3C620,490.58,615.62,493,615.06,498.9ZM321.06,226l.43-1.17c-2.81-1.6-6-2.81-8.33-4.9s-5.2-2.87-7.75-4.31-4.56-4.08-9-4A132.7,132.7,0,0,0,321.06,226Zm350-37.32c-4.51,6-9.52,11.58-12,18.87C664.34,202.06,668.91,196.15,671.08,188.7Zm-109,77.81c-5.07-.74-8,1.76-10.81,4.53-1,1-.44,2.25.23,3.18,1.05,1.45,1.55-.32,2.28-.59C557.13,272.39,559.7,270.19,562.11,266.51ZM665.89,456.16a97.89,97.89,0,0,0,3.16-9.3,3.89,3.89,0,0,0-1.54-3.89c-1.26-.91-2.24.15-3.14.55-1.59.69-1,2.6-.59,3.41C665.24,449.86,664.81,452.91,665.89,456.16ZM453.8,485c.59,3.4,3.55,4.3,5.4,6.17a2.55,2.55,0,0,0,3.53-.17c1.15-1,.57-2.14-.12-3.46C460.46,483.38,457.07,484.94,453.8,485Zm81.25-341.25c-.24,8.51-1,17.07,1.13,25.6C538.32,160.63,536.37,152.2,535.05,143.74Zm68.21,21c.45,3-3.43,3.84-3.54,6.78s-2.05,5.76-.23,9.49C601.83,175.41,602.36,170,603.26,164.79ZM445.79,252.65c-6.71-1.77-12.16,2.51-18,5.42ZM636.61,474.81c1.08,2.07,3.31,3.3,4.46,3a5.1,5.1,0,0,0,3.79-4.73c.11-2.11-1.45-1.87-2.75-1.77C639.61,471.53,638.18,473.3,636.61,474.81Zm-254-58.29c3.83-2.79,6-6.78,8.95-11.35C385.23,407,385,412.63,382.64,416.52ZM681.52,442.8c2.66-1.79,2.4-4.49,2.85-6.75a2.15,2.15,0,0,0-2.3-2.59c-1.92.1-1.09,2-1.14,2.67A38.15,38.15,0,0,0,681.52,442.8Zm-293.84-3.3c1.56-3.74,3.68-7.49-.44-11.24C384.9,432.23,386.84,435.85,387.68,439.5Zm191-227.21c-6.49-2.24-12.58-1.82-18.56-2.29C565.87,211.88,571.74,213.21,578.63,212.29ZM401.85,451.84c-.75-2.55-1.25-5.29-4.1-6.49-.61-.26-2,.18-1.61,1.15,1,2.46,1.73,5.29,4.36,6.69C401.94,454,401.19,452.29,401.85,451.84ZM320.37,634c4.25-1.69,6.24-3.58,8.11-8C324.12,627.3,323.17,631.77,320.37,634Zm418.14,8.58c-.37-3.68-1.5-6.39-4.07-8.4-.68-.54.51-2.69-1.58-1.86-.54.21-1.33,1.15-1.21,1.42.36.84,1.05,2.08,1.7,2.14,2.09.19,2.86.93,2.4,3C735.37,640.71,736.86,641.37,738.51,642.58Zm-105.84-320c-3.27.18-6.14-2-8.83.49C626.75,325.17,629.64,327.63,632.67,322.55ZM587,228.35c-2.84-.14-5.58-1.91-8.88-.52C581.21,230.08,584.08,229.8,587,228.35ZM636.9,651.41c.35,4.12,2.51,7.51,4.49,11C641.19,658.2,638.89,654.87,636.9,651.41Zm-173-327.77c-2.18-1.18-4.28-1.72-6,.07C459.75,325.69,461.91,328.2,463.94,323.64Zm215,104.85c.31-2.54.24-4.93-1.83-6.57-.59-.47-1.16.16-1.43.85C674.39,425.94,677.59,426.68,678.94,428.49ZM459.93,241c3.16-1.24,7-.93,9.36-4C465.9,237.74,462.59,238.61,459.93,241ZM604.67,496.38c-.45.07-2-.39-1.71,1.06s.7,3.42,2.72,3.67a1.86,1.86,0,0,0,2.14-2.1C607.78,497.33,607.09,496.13,604.67,496.38Zm32.82-11.85c-1-.5-.47-2.38-1.78-2.13-2,.39-3,2.28-4,3.92a.83.83,0,0,0,.94,1.21A7.35,7.35,0,0,0,637.49,484.53ZM404.7,442.45a11.18,11.18,0,0,0,1.9,9.29C407.14,448.45,406.1,445.47,404.7,442.45Zm-63.53-333c.48-2,1.44-4-.67-5.49-1-.71-1.67.17-1.91.76C337.59,107.17,340,108,341.17,109.41ZM606.3,365.25h8.81C612.1,362.76,609.13,364.39,606.3,365.25Zm203.05-191c-1.46.34-3.23.23-3.44,2.45Zm-5,3.06-.12-.35c-.24.1-.49.19-.72.31a2.36,2.36,0,0,0,.12.38Zm-87,413.24-1.33-1.1c-.11.43-.43.94-.29,1.27a1.71,1.71,0,0,0,1.1.81C717.28,591.6,717.76,591.34,717.38,590.53Zm93.55-417c.15-.24.4-.47.38-.68s-.37-.3-.57-.44l-.46.74Z"/><path class="cls-1" d="M542.79,816.86l-.24-3c-.32-1.66-.63-3.32-.94-5-.66-12.78-1.15-25.56-2-38.32-2.1-30.7-5.89-61.24-7.24-92-1-22.62-2.67-45.28-5.39-67.83-1-8.54-.89-17.22-1.48-25.83-.2-2.8.8-3.39,3-2.27,1.46.74,3,.2,4.34.66,5.87,2,10-2.89,15.31-3.59,7.49-1,13.92,1,13.64,10.16-.71,23,0,46.16-1.41,69.14-1.27,19.88-.8,39.85-2.91,59.64-1.21,11.37-2.12,22.72-2.72,34.12,0,.34-.56.65-.87,1-.44-.71.3-1.89-1.09-2.39a11.09,11.09,0,0,0,0,1.92c.15.74.59,1,1.21.32-.34,6.81-.73,13.62-1,20.43-.45,11.55-.95,23.09-2,34.6a152.83,152.83,0,0,0-.27,15.44c0,2.47-.55,3.6-3,2Q545.24,821.44,542.79,816.86Zm3.34-194.6c1.12-7,.83-16.76,0-26.48C545.6,605.46,544.36,615.15,546.13,622.26ZM542,688.09c-.4,4.62,1.29,9,.62,14.56,3.58-5.31,3.57-5.49-.11-7.42-.73-.38-.91-.92-.48-1.51C543.39,691.89,541.85,689.91,542,688.09Zm3.43,49.65c2.09-3.74.51-6.56-.3-9.44C543.44,731.23,543.3,734.12,545.46,737.74Z"/><path class="cls-1" d="M356,728.1c-3.18,7.54-9.23,13.12-13.63,19.84-8.22,12.55-18.31,23.22-31.13,31.32-5.22,3.29-9.33,8.31-15.48,10.26-1-.09-1.81,1.34-3,.46,14-13.39,25.92-29.07,41.65-40.49,8.27-6,14.34-13.38,20.21-21.3.39-.52,1-.87,1.49,0Z"/><path class="cls-1" d="M912.58,679.39c-7.22-4-15.51-6.78-19.16-15.31h0c1.9-1.71,2.34,1.71,3.93,1.12l-.05,0c.48,1-.69,3.17,1.94,2.83,1.77-.22,2.6-.91,1.87-2.75,3.16,2.77,6.52,5.43,10.79,5.77,2.86.23,4,2.63,6.17,3.65,1.47.69.32,2.46-.5,3.33C916.27,679.4,914.94,681.52,912.58,679.39Z"/><path class="cls-1" d="M8.79,394.33c.35-.6-3.42-2.16.34-1.87,4.91.39,9.86.67,14.72,1.21,11,1.21,22,.71,33,1.88,6.71.72,13.39,1.68,20.08,2.63-19.27-.48-38.51-2.21-57.81-1.78Z"/><path class="cls-1" d="M44.57,575.7l17.75-10.54C58.36,572.07,51.47,573.9,44.57,575.7Z"/><path class="cls-1" d="M123,604.17a135.73,135.73,0,0,1-17.09,12c1-2.88,4-3.85,5.76-6.07,4-1.4,6.78-5.06,10.93-6.27Z"/><path class="cls-1" d="M990.66,330.81c.85,3.13-1.58,1.47-2.37,1.4-7.22-.6-14.4-2-21.68-.82,7.89-.59,15.8-.71,23.71-.67Z"/><path class="cls-1" d="M893.42,664.08c-3.1-1.35-5.28-3.88-7.78-6-.56-.49-1.45-1.12-.28-1.76.38-.2,1.16.33,1.75.53a21.86,21.86,0,0,0,8,5.35c-.29.87-.4,1.89-1.66,1.9Z"/><path class="cls-1" d="M942.18,123.21l-1.73-.73c.63-.8,1.12-2,1.93-2.3,1-.34,2.09-.47,2.82-1.38A5.52,5.52,0,0,1,942.18,123.21Z"/><path class="cls-1" d="M106.07,616.06c-1.06,2.21-3.25,1.66-5,2.08C102.23,616.29,103.73,615.16,106.07,616.06Z"/><path class="cls-1" d="M327.82,785.1c-.27-2,2.74-1,2.61-2.81v-.07c1.49,2.07-.59,2.18-1.59,2.89Z"/><path class="cls-1" d="M291.44,790.9l1.48-1C293.46,791.68,292,790.62,291.44,790.9Z"/><path class="cls-1" d="M101,618.13a.49.49,0,0,0-.45.68A.71.71,0,0,0,101,618.13Z"/><path class="cls-1" d="M943.72,632.43c-15.17-3.8-28-12.33-41.75-18.75-18.24-8.52-34.7-20.19-51.59-31-11.54-7.4-24.19-12.81-35.6-20.35-18.2-12-37.24-22.7-55.61-34.47-13.11-8.41-23.86-19.27-35.48-29.24-3.79-3.25-6.21-8.09-9.26-12.19-1.2-1.62-.91-3.75.32-4.52,2.83-1.78,3.84-4.76,5.67-7.16,2.51-3.28,5.76-2.77,9-1.93a83.08,83.08,0,0,1,29.13,14.33c11.85,9,24.12,17.33,36.32,25.78,15.75,10.9,31.32,22.06,46.46,33.8,14.88,11.56,30.18,22.6,44.85,34.41,15.57,12.52,30.79,25.49,45.21,39.36C935.48,624.45,940.3,627.72,943.72,632.43ZM828.09,546.81c-.17.24-.34.47-.49.72,0,0,.08.13.13.21l.36-.92c-1.08.23-2-1.66-3.16-.22.5-.23.71-.59.42-1.09-.06-.1-.31-.08-.47-.12,0,.39.09.78.14,1.17C826,547.43,827,547.12,828.09,546.81Zm-11.18-5.95c1,3.29,4.05,3,6.64,3.48l-6.74-3.41L802,532.05C806.34,536.19,810.3,541,816.91,540.86ZM737,489.41c4.78,5.34,11.12,8.34,17.26,11.63C749.41,495.75,743.34,492.35,737,489.41Z"/><path class="cls-1" d="M94.71,514c3.34.5,2.77-3.32,4.63-4.64a96.52,96.52,0,0,1,14.8-9c19.3-9,38.87-17.42,57.62-27.63,11.07-6,23-10.5,34.18-16.33,16.06-8.38,33.56-12.78,50.37-19.05,10.56-3.94,21.17-7.75,31.91-11.21,7.06-2.27,14.36-2,21.45-3.69s14.51-.85,21.74-1.45c3.24-.28,4.06,1.35,4.3,3.26s.81,3.66-2.17,5.39c-8,4.62-15.61,9.83-24,13.69-16.08,7.4-31.93,15.47-48.47,21.67-19.65,7.36-39.83,13.35-59.95,19.39-17.61,5.28-35.34,10.27-53.22,14.52-14.36,3.42-28.19,8.51-42.36,12.48C102,512.45,98.52,513.73,94.71,514ZM209.6,464.34c11.93-.65,23.06-3.22,32.16-11.21Zm70.47-25.19a33.49,33.49,0,0,0,14.16-3.74C288.44,435.19,284.37,437.58,280.07,439.15Z"/><path class="cls-1" d="M968.75,231.91c-5.55,3.79-11.19,5.82-16.72,7.68-9.59,3.21-18.38,8-27.36,12.44-12,5.86-24.6,10.31-36.53,16.29a537.62,537.62,0,0,1-53.6,23c-10.83,4-21.08,9.82-32.47,12-9.41,1.83-18.4,5.55-28.08,6.06-9,.47-17.57-1.83-26.09-4.08-3.8-1-8.24.37-11.44-3-.48-.5-.56-.31-.1-.71,4.42-3.81,9.81-6,15-8.29,12.76-5.66,26.09-10.09,38.61-16.2,19.56-9.54,40.89-12.67,61.46-18.55,13.42-3.84,26.76-8.22,40.41-10.94,17.29-3.45,34.13-8.57,51.3-12.44,5.45-1.23,10.84-2.71,16.24-4.14A14.3,14.3,0,0,1,968.75,231.91ZM842,271.22c4.56-2.75,10.4-2.68,15.68-7.08-6.81,1-11.58,3.58-16.36,6.2-.71.24-2.15.3-1.84,1C839.91,272.37,841.08,271.41,842,271.22ZM818.8,281.1c6.14,1.15,10.42-2.72,15.25-5.08C828.08,275.13,823.7,278.93,818.8,281.1Z"/><path class="cls-1" d="M107.21,249.49c6.56-1.19,12.42,1.49,18.59,2.13,20.8,2.19,41.44,5.82,62,9.28,29.35,4.92,58.52,11.22,87.09,19.9,11.94,3.63,24.08,6.68,36.24,9.53,8.5,2,15.3,7.48,23.35,10.3.65.23,1.42.72,1.12,1.36a2.58,2.58,0,0,1-1.79,1.36c-3.14.17-6.31-.05-9.45.18-11.24.84-22.08-1.38-33.06-3.38a53.8,53.8,0,0,0-14.41-1c4,1.41,7.83,3.26,11.92,4.13,7.22,1.54,13.44,5.08,19.64,8.75.91.54,2.69.76,2.13,2.24-.35.91-1.75,1.18-3,1.19-11.47.12-22.79-1.17-33.52-5.19-16.54-6.18-34.05-8.93-50.64-14.8-8.08-2.86-16.12-6.06-24.09-9.17-4.41-1.72-9.75-2.63-14.31-4.59-18.52-8-37.74-14-56.64-20.87C120.88,258.08,114.61,252.83,107.21,249.49Zm105.31,26.68c1.65,2.95,4.71.8,6.71,1.91,4.37,2.41,9.23,3.43,13.83,5.11,4,1.45,7.92,3.85,12.68,2.53C235.45,280.14,224.19,277.75,212.52,276.17Z"/><path class="cls-1" d="M975.26,509.29c-29.79-4.91-58.92-12.25-87.85-20.54-18.55-5.31-36.24-12.66-53.78-20.55-10.61-4.76-21.66-8.54-32.38-13-9-3.81-18.54-6.48-27.35-10.91-5.27-2.65-10.88-4.65-15-9.21-3.52-3.87-8.52-5.42-13-7.84-1.32-.71-3.18-1.26-2.33-3.6a3.12,3.12,0,0,1,3.84-2.22c6.64.93,13.41,1.3,19.87,2.94,12,3,24.38,3.91,36.11,8,13.75,4.81,27.63,9.23,41.41,13.93a377.34,377.34,0,0,1,57.42,25.63c12.57,6.79,25.81,12.11,38.49,18.56C952.37,496.37,963.58,503.16,975.26,509.29ZM857.37,465c3.6,4.11,10.17,2.67,14.86,6.07A25.72,25.72,0,0,0,857.37,465Z"/><path class="cls-1" d="M868.37,610.22c-17-5.8-33.81-11.23-49-21.84-12.77-8.93-23.76-19.8-36.21-29-3.85-2.83-8.27-4.86-11.56-8.45,2.91-2,3-2.08,5.2,0a235.15,235.15,0,0,0,31.52,24.53c10.57,6.87,21.44,13.76,33.08,18.39,10.11,4,18.87,9.62,27.6,15.66C868.8,609.76,868.58,610,868.37,610.22Z"/><path class="cls-1" d="M295.5,143.1c16.27,12.71,32.71,25.19,46.82,40.41,2.79,3,6.54,5.05,9,8.46,1.34,1.85,2.64,4,.79,5.76-1.62,1.55-3.53-.1-5-1.25a302.92,302.92,0,0,1-40.75-38.59,179.62,179.62,0,0,1-11.57-14.14C295.05,143.54,295.28,143.33,295.5,143.1Z"/><path class="cls-1" d="M772.36,144.29c-1.75,4.67-6.21,6.67-9.36,9.87-10.79,10.93-21.52,21.91-32,33.17-2.41,2.61-5.62,4.54-8.61,6.62-2.66,1.85-4.38-.14-5.91-.7s.67-2.47,1.32-3.72c3.13-6.09,8.9-9.69,13.65-14.23,11.71-11.19,25.17-20.23,37.71-30.42C769.88,144.33,770.62,143.35,772.36,144.29Z"/><path class="cls-1" d="M201.48,427.25c.58-4,4-4.71,6.64-5.51,13-3.89,26-7.74,39.2-10.94,6.57-1.6,13.64-.37,20.28-2.36,1.66-.5,3.37-.82,5.34-1.29C267.52,413.42,220.47,428,201.48,427.25Zm2.15-1.05.31-.35a3,3,0,0,0-.66-.3c-.09,0-.22.19-.32.3Z"/><path class="cls-1" d="M866.28,521.66c-14.16-6.46-28.38-12.78-42.45-19.43a172.87,172.87,0,0,1-38-24.63c-1.41-1.19-3.86-1.06-4.78-3.23-.28-.66-1.42-.95-.76-2,.86-1.36,1.68-.34,2.49,0,14.07,6.5,26.85,15.13,39.55,23.93,4.27,3,9.41,4.62,14,7.09q11.05,5.93,21.92,12.17c2.53,1.45,5.9,1.17,7.79,3.83.49.69.84,1.44.05,2.19Z"/><path class="cls-1" d="M229.15,227.52c.64.07,1.45-.08,1.91.25,8.15,5.81,18.31,6.18,27.19,10.09,9.89,4.35,21,5.25,30.6,10.68,6,3.38,11.52,7.57,18.44,9.2,2.88.68.94,4.08,2.61,5.78-3.4.83-4.58-2-6.56-3.1-8.93-5.12-19.07-7.09-28.59-10.47-6.85-2.43-12.95-4.55-18.5-9.6-4.13-3.76-10.75-3.8-16.16-5.8A27.34,27.34,0,0,1,229.15,227.52Z"/><path class="cls-1" d="M886.57,426.51c-6.73-1.08-13.53-1.89-20.18-3.32-12.11-2.61-24.48-3.52-36.62-5.81-4.67-.89-9.48-1.33-13.68-3.71-.84-.48-2.85-1-2.29-2.69.44-1.32,2-.87,3-.85a56.22,56.22,0,0,1,7.47.33c17.6,2.64,35.2,5.37,52.35,10.25,3.52,1,6.78,2.9,10.16,4.39Z"/><path class="cls-1" d="M788.43,590.67c-18.17-13.12-35.67-27-51.3-43.38,1.61-1.61,3.4-1.44,4.11-.86,5.7,4.66,13.55,5.84,18.37,12,4.25,5.43,9.64,9.82,14.79,14.43,5.57,5,10.29,10.89,15.38,16.4Z"/><path class="cls-1" d="M846,222c-9,5-18.42,9.21-27.07,14.93a192.11,192.11,0,0,1-36.83,18.78c-1.26.49-2.57,1.61-3.44.27-1-1.55.47-2.36,1.66-3.43,9.75-8.72,22.49-12.47,32.94-20,3.69-2.66,8.52-2.87,12.74-4.09C832.7,226.46,839.12,223.72,846,222Z"/><path class="cls-1" d="M500.09,598.59c4.28,1.53,5.06,4.48,3.41,8.4-.25.6-.54,1.61-.93,1.67-7.08,1.12-3.75,5-2.24,8.33a12.84,12.84,0,0,1,.46,10.48c-2,5-2.69,10.31-5.1,15.22-1.53,3.12-3.66,2.63-5.83,2.29-2.77-.43-1.51-2.35-1.26-4.15,1.21-8.8,4-17.2,6-25.8.51-2.14-1.07-5.57,3.5-5,.92.12,1.07-1.45.83-2-1.44-3.44.66-6.38,1.13-9.54Z"/><path class="cls-1" d="M280.92,485.54c-.9,5.09-4.9,6.71-8.26,8.4-11.68,5.9-22.33,13.88-35.23,17.42-2.05.57-2.29,4.23-5.46,4.29-1.12,0-2.13.64-3.34-.76,1.61-.63,1.91-3.41,4.73-1.58,1.29.83,2-.17,1.17-2-.34-.74.07-.73.37-.94s.64-.25.85-.47c1.48-1.52,1-2.58-.93-3.17,7.75-3.83,15.28-7.79,23-11.29C265.35,492.06,272.32,487.36,280.92,485.54Z"/><path class="cls-1" d="M112.7,270.47c30.75,7.78,60.09,20,90.8,27.95C187.7,296,171.6,294.2,157,287.93S126.93,277.65,112.7,270.47Z"/><path class="cls-1" d="M153.37,294.91c-9.41,6.19-51.75,2.57-59.65-5.34C113.68,293.54,133.44,291.29,153.37,294.91Z"/><path class="cls-1" d="M226,323.51c11.4,2.34,23.31.13,34.8,3,1.27.31,2.54.61,3.81.95s3.14.65,2.47,2.2c-.51,1.16-2,1.87-4.1,1.09-4.14-1.52-8.68-3.15-12.29,1.54a3.63,3.63,0,0,1-3.67,1c-6.65-1.34-12.94-4.44-19.94-4.16-.58,0-1.16-.58-1.77-.64-2.15-.23-3.68-1.75-3.54-3.48C222,322.64,224.46,324.09,226,323.51Z"/><path class="cls-1" d="M413.84,128.52c-4.91-2.9-9.16-5.51-10-11.24-.33-2.3,0-4.3,1.93-5.06,2.29-.9,2.18,2,3,3.09,2.46,3.32,5.75,6.38,5,11.24-.19,1.19.47,2.12,1.95,2.35.74.11,2,1,2,1.26-1.6,5.89,4.22,9.15,4.86,14.14a4.54,4.54,0,0,1-1.45,3.48c-.89.75-1.62-.74-2.26-1.39-3.88-3.91-8.83-7.14-6.78-14.19C412.6,130.23,411.71,129.31,413.84,128.52Z"/><path class="cls-1" d="M131.51,407.82c-19.39,6.76-39.59,7.61-59.88,7.81C91.18,410.06,111.29,408.54,131.51,407.82Z"/><path class="cls-1" d="M338.83,550.37c.49.75-.9,1.57-1.95,2.55-7.39,6.88-15,13.5-24,18.16-.82.42-2,1.73-3.12.47s.68-1.92,1.18-2.76a33.06,33.06,0,0,1,13-12.35,27.4,27.4,0,0,0,9.89-8.6c1.26-1.91,3-1.4,4.14-1.28C339.84,546.75,338,548.38,338.83,550.37Z"/><path class="cls-1" d="M947.35,612.75c-17.65-11.88-32.5-26.31-49.1-38C904,573.87,944.44,604.43,947.35,612.75Z"/><path class="cls-1" d="M872,317.85C863,321,854.34,323.72,845.24,325a12.27,12.27,0,0,1-1.93.4c-3.06-.11-6.82-.84-7.48-3.61-.76-3.2,3.88-4.06,5.53-3.89C851.49,319,861.61,314.69,872,317.85Z"/><path class="cls-1" d="M582.23,97.85c0,9.77.06,19.55-.07,29.32,0,1.19-1,2.34-1.49,3.55-.64,1.66-1.13,4.28-3.12,3.71s-4-3.27-3.67-5.36C575.41,118.34,578.71,108,582.23,97.85Z"/><path class="cls-1" d="M409.45,608.6c-4.63,6.47-7.12,12.77-10.33,18.68-1.43,2.64-6,4-8.54,2.67a1.25,1.25,0,0,1-.49-2c2.14-3,2.34-6.43,3.16-9.81.77-3.19,3.88-5.31,6.93-6.66C402.68,610.37,405.43,609.82,409.45,608.6Z"/><path class="cls-1" d="M602,622.68c4,2.77,3.08,7.57,4.39,11.36,4.59,13.27,8.13,26.92,14.16,39.67,1.13,2.4-1.93,4.84.65,6.87a6,6,0,0,0-.6.53c-1.6-3.48-5.39-5.28-6.82-8.91-1.61-4-3.6-7.75-2.27-12.61,1.17-4.32-1.11-8.59-2.48-12.83-2.59-8-4.69-16-7-24.09Z"/><path class="cls-1" d="M145.15,408.3c13.51-8.92,29.16-9.38,44.33-11.7C175.27,402.65,160.32,406,145.15,408.3Z"/><path class="cls-1" d="M648,590.07c5,0,7,2.41,8.28,5.39,3.67,8.36,10.43,14.72,14.57,22.74,1.29,2.49,3.35,4.88,2,9.42Z"/><path class="cls-1" d="M228.07,405.7c-13.87,2.47-26.91,10.82-43.12,6.1C199.65,406.35,214.06,407.39,228.07,405.7Z"/><path class="cls-1" d="M420.55,637.52c-5.14,20.36-17.92,37.79-22.31,58.42.28-8.82,3.79-16.71,7.07-24.66,2.61-6.35,6.47-12.5,7.51-19.09C413.8,646,418.56,642.69,420.55,637.52Z"/><path class="cls-1" d="M106.11,629.8c7.52-9.11,42.34-31.76,46.47-31-5.76,7.12-14.84,9.43-22.18,14.45C122.31,618.77,114.92,625.37,106.11,629.8Z"/><path class="cls-1" d="M406.59,602.71c2.14-6.13,5.89-11.09,9.5-16.07.4-.54,1.83-2.82,3.51-1.09,1,1.08,2.32,1.8,1.56,4.1A31.77,31.77,0,0,1,414,601.7C411.85,604,409.41,602.87,406.59,602.71Z"/><path class="cls-1" d="M373.57,666.93c1.53,3.39-.22,5.05-1.68,7.18-2.31,3.34-3.83,7.2-5.87,10.73-1.31,2.26-3.31,3.89-6,2.29-3-1.81.08-3.43.73-4.74C363.76,676.34,366.55,670,373.57,666.93Z"/><path class="cls-1" d="M774.81,395.38c6.48-5.27,13.08-3.2,19.59-2.64,7.8.67,15.05,3.38,22.55,5.26-7.89-1.27-15.93,0-23.63-1.37-3.17-.56-6.73-3.43-9.7-2S778.13,394.94,774.81,395.38Zm11.67-2.52c-.1-.1-.23-.31-.31-.3a3.44,3.44,0,0,0-.66.28c.11.11.23.31.32.3A2.33,2.33,0,0,0,786.48,392.86Z"/><path class="cls-1" d="M954.58,167.09a72.25,72.25,0,0,1-19,5.11c-4.57.59-9.13-.71-14.33.61C925.26,167.9,943.94,165.09,954.58,167.09Z"/><path class="cls-1" d="M977.93,410.45c-2.41,1.68-56.84-1.1-61.17-3.31C937.19,406.42,957.71,409.54,977.93,410.45Z"/><path class="cls-1" d="M962.36,346.45c-18.47,1.42-36.72-1.87-55.63-2.07,1.08-1.08,1.41-1.81,2.51-1.74q26.38,1.51,52.78,3c.13,0,.24.53.35.81Z"/><path class="cls-1" d="M299.85,470.77c0,1.66-1.17,2.18-2.41,2.75-3.77,1.75-7.4,3.85-11.29,5.27-3.29,1.19-3.12-2.49-4.45-4-1.5-1.72-.06-1.76,1.21-2.5,5-2.92,10.41-3.08,16-2.61C300,469.76,299.52,470.45,299.85,470.77Z"/><path class="cls-1" d="M183.57,436.23c-8,3.13-15.57,4-23.82,6.44C168.08,432.49,174.86,430.63,183.57,436.23Z"/><path class="cls-1" d="M761.83,411.24c16.92,2,33,6.89,49.2,11.42A458.51,458.51,0,0,1,761.83,411.24Z"/><path class="cls-1" d="M776.86,233.22c-1.64-1.11-.05-1.65.51-2,8.47-6,17.18-11.59,26.2-16.72,1.93-1.1,3.21-.79,4.5.57-10,6.9-21,11.75-31.22,18.1C776.84,233.11,776.86,233.22,776.86,233.22Z"/><path class="cls-1" d="M226.26,521.14c0,1.86-6.43,7.27-8.46,7.28s-2.68-1.65-3.15-3.4c-1-3.86,2.79-4.43,4.48-6.24,1.22-1.3,3.26-3.17,5.64-2.14C227,517.59,225.48,520,226.26,521.14Z"/><path class="cls-1" d="M786.9,670.57A77.59,77.59,0,0,1,805,687.1c1.38,1.8,4.27,4.34,2.46,5.9s-3.26-2.11-4.73-3.6c-4.68-4.74-9.32-9.53-13.81-14.45-1-1.14-3.16-2.15-2-4.42Z"/><path class="cls-1" d="M588.55,621.69c.28,3.72-.09,6.73-3.25,6.75a4.62,4.62,0,0,1-4.77-5.47c.52-3.25.1-8.34,4.75-8.14C589.32,615,588,619.78,588.55,621.69Z"/><path class="cls-1" d="M296.51,619.54c-8.82,11-17.16,22.43-28.92,30.6C277,639.73,286.79,629.66,296.51,619.54Z"/><path class="cls-1" d="M529.48,792.16c-1.19-5.87-1.91-10.49-1.71-15.19.37-8.09-1.32-16-1.94-24-.11-1.42-4.15-1.63-1-4,2-1.52.15-4.43,1.35-6.91C527.42,758.54,531.2,774.47,529.48,792.16Z"/><path class="cls-1" d="M436.74,720c2.65-12.35,8-23.56,14.37-34.36l.66.43c.13,2.11-1.08,3.78-2,5.46-5.09,9.22-6.21,20.14-12.49,28.83Z"/><path class="cls-1" d="M877.61,97.64A56.63,56.63,0,0,1,905,87.22,110,110,0,0,1,877.61,97.64Z"/><path class="cls-1" d="M257.78,677c3.51-7.09,7.83-13.44,14.52-18.05,2-1.36,2.57-4.6,5.72-4.72l-.13-.08c-5.42,8.77-12.32,16.33-19.49,23.66Z"/><path class="cls-1" d="M661.44,130.64c-1,4.15-2.1,8.28-3,12.46a4.11,4.11,0,0,1-2.75,3.16c-1.12.43-2.12,2.13-3.44.87-1.11-1.06-.52-2.41.17-3.64C654.94,139,656.73,134,661.44,130.64Z"/><path class="cls-1" d="M689.48,700.13c4.22,7,8.3,14.07,11,21.79.79,2.23,2.28,4.36,1.79,8.26-4.68-10.72-11.79-19.07-12.74-30.14Z"/><path class="cls-1" d="M282.83,88.76c2.47.23,6.86,6,6.1,8-.61,1.62-2.05,3.31-3.82,3.47-2.69.23-5.47-3.93-4.94-7.22C280.46,91.26,280.56,89,282.83,88.76Z"/><path class="cls-1" d="M288.23,572.31c1.13.52,2.67.73,3.09,1.53.58,1.11-.48,2-1.74,2.36-3.07.9-3,5-6.06,6-1,.34-1.78,1.49-3.08.85,1.63-1.63-1.22-2-1-3.93C280.18,573.31,286.07,575.39,288.23,572.31Z"/><path class="cls-1" d="M427.18,550.6c-4.17,13.11-7.61,17.11-15.07,17.38C418.84,563.63,420.18,555.69,427.18,550.6Z"/><path class="cls-1" d="M729.11,544.06c-2.66-.14-7.9-6.11-7.27-8.5.17-.65.71-2.29,1.82-1.59,2.87,1.8,6.88,1.82,8.54,5.56C733.53,542.51,732.43,544.22,729.11,544.06Z"/><path class="cls-1" d="M681.87,680.56c2.61-2.21,6.06-.11,8.73-2,.88-.63,1.89.13,2.38,1.15a2.39,2.39,0,0,1,.09,2.64c-2.36,4.3-6.75,4.93-9.51,1.11A30.93,30.93,0,0,1,681.87,680.56Z"/><path class="cls-1" d="M456.64,676.09l13.14-30.83,1.29.55C467.36,656.4,462.15,666.37,456.64,676.09Z"/><path class="cls-1" d="M887.24,71.55c-2.6,1.71-7.08,2.49-10.47,2.07-2.13-.26-4.25-.59-6.37-.9-1.15-.16-2.2-.47-2.62-1.73,1.41-.23,1.41-2.5,3.06-2.23C876.14,69.61,881.43,70.55,887.24,71.55Z"/><path class="cls-1" d="M218.87,606.09c5.48-6.46,13.44-9,20.53-12.87,1-.55,2-1.06,3-1.6.19.24.39.46.59.68-6.87,6.45-15.57,9.86-23.63,14.36A7.27,7.27,0,0,0,218.87,606.09Z"/><path class="cls-1" d="M909.08,396.11c11.38-1.64,22.79-2.26,34.29-.81C932,396.92,920.52,396.13,909.08,396.11Z"/><path class="cls-1" d="M356.91,535.12c-.15,2.43-9,8.49-11,8.09-1-.19-1.32-1-1.66-1.65a1.93,1.93,0,0,1,1-2.54,56.5,56.5,0,0,0,7.9-4.94C354.88,532.87,355.92,534.33,356.91,535.12Z"/><path class="cls-1" d="M309.85,103.65c-5.94-8.78-11.59-17.72-15.62-27.55C299.08,85.48,306.93,93.21,309.85,103.65Z"/><path class="cls-1" d="M229.69,537.88c-5.27,5-10.18,10.41-17,13.39,4.56-5.68,9.16-11.29,16.12-14.14Z"/><path class="cls-1" d="M592.06,773.37c-.91,9.2,7.6,4.66,11.63,7.33-.27.31-.51.78-.9,1s-1.12.31-1.35.09a5.79,5.79,0,0,0-6.67-1.25c-1.68.63-2-.49-2.48-2.51C591.9,776.25,591.09,774.75,592.06,773.37Z"/><path class="cls-1" d="M631.51,161c0,11.07,0,11.07-3.19,14C625.36,167.93,625.9,165.27,631.51,161Z"/><path class="cls-1" d="M566.19,752.41c.25,9.49,1.2,19-1.6,28.37C563.41,771.25,565.51,761.86,566.19,752.41Z"/><path class="cls-1" d="M490.56,129.81c-2.81-.23-3.49-2.89-3.55-4.61a4.27,4.27,0,0,1,4.35-4.47,4.33,4.33,0,0,1,4.06,4.22C495.43,127.73,493.14,129.07,490.56,129.81Z"/><path class="cls-1" d="M109.08,480a14.56,14.56,0,0,1,6.48-4.27c2.79-1.11,3.3,2.42,5.43,2.65a7.19,7.19,0,0,1-3.41,3C114.28,483.08,111.73,482.06,109.08,480Z"/><path class="cls-1" d="M389.83,134.67c-2.47-.83-3.05-3.36-4.29-5.16A190.39,190.39,0,0,1,374.19,111c5.56,7.7,13,14.12,15.55,23.83Z"/><path class="cls-1" d="M503.75,740.48c1.71,1.9-1.89,6.36,2.76,8.74,1,.51,1.6,3,1.37,4.48-.3,1.81-1.66,3.91-3.82,3.7-1.95-.18-1.19-2.33-1.3-3.7-.08-1-.36-2.29.13-2.92,1.83-2.33,2.27-4.39.34-6.95C502.26,742.55,503.74,740.94,503.75,740.48Z"/><path class="cls-1" d="M895.13,436.68c9.64-.08,18,4.58,24.65,6.94C912.48,443.64,904.14,439,895.13,436.68Z"/><path class="cls-1" d="M337.81,159.69c3.47,1.51,5.17,4.76,7.35,7.52,1.82,2.29,3.7,3.79,6.36.69-2.77,4.95,4.26,4.87,3.46,9.25-5.55-6.27-13.7-9.43-17.08-17.58Z"/><path class="cls-1" d="M318.64,598.61c-5.75,5.19-10.62,11.3-16.72,16.14a7,7,0,0,0-2.69,4v0c-.7-1.5-.65-3,.67-4,6.56-4.94,10.69-12.46,17.89-16.7Z"/><path class="cls-1" d="M90.57,312.81c-5.58,4-11.21,7.76-18.63,8.89.72-3.65,3.33-3.9,5.58-4.16A12.29,12.29,0,0,0,83.71,315C85.55,313.63,88.25,313.48,90.57,312.81Z"/><path class="cls-1" d="M839,634c-1.62-.23-4.36-.46-4.33-2a4.69,4.69,0,0,1,4.13-4.13c2.67-.35,3.72,3.46,6.61,2.65C843,631.15,842.44,635.14,839,634Z"/><path class="cls-1" d="M935.51,260.75c-8.29,4.59-16.29,9.75-25.69,12.21l25-13.37Z"/><path class="cls-1" d="M678.44,607.21c4.45,2.89,8.33,9.3,9,15-2.94-1.61-4.27-4.22-5.42-7s-2.26-5.41-3.4-8.11Z"/><path class="cls-1" d="M631.44,710.23c-1.88-5.06-4-10.05-5.55-15.23-.75-2.55-3.92-3.38-3.78-6.34,0-.87-.13-1.78.86-2,.41-.08,1.2.53,1.43,1a71.42,71.42,0,0,1,6.92,22.69Z"/><path class="cls-1" d="M441,579.1c2.15-5.2,3.44-10.5,7.41-14.46C446.25,569.5,448,576.31,441,579.1Z"/><path class="cls-1" d="M732,565.81c7,4.22,12.67,9.9,17.75,16.23l.14-.12c-.64,1.28-1.59.38-1.9,0-4.6-6.15-11.46-9.91-16.45-15.63Z"/><path class="cls-1" d="M458.18,88.12c4.71,7.49,9.66,15,10.66,24.25Q463.52,100.24,458.18,88.12Z"/><path class="cls-1" d="M204.76,222.14c-2,1.2-.86,4.65-3.72,4.71a3.68,3.68,0,0,1-3.78-3.51c0-2.46,2.21-3.23,4.37-3.66S203.17,221.7,204.76,222.14Z"/><path class="cls-1" d="M437.4,744.87c-1.25-3.77.71-5.46,1.5-7.48,1.49-3.78,3.84-7.21,4.67-11.26.14-.67,0-1.29.94-1.18.75.09,1.41.59,1.13,1.25C443.07,732.15,440.42,738.06,437.4,744.87Z"/><path class="cls-1" d="M675.43,110.46c-.22,7.52-2.79,11.73-7.77,13.37C669.38,119.06,672.32,115.41,675.43,110.46Z"/><path class="cls-1" d="M216,325.36c.24,2.43-1.06,3.25-3.26,3.11-2.83-.19-6,1.19-8.33-1.31-1.56-1.66.46-1.84,1.31-2,3.46-.64,6.95-1.25,10.4.09Z"/><path class="cls-1" d="M973.14,248.72c-4.63.66-9.1,2.16-13.94,1.7C963.33,245,968.28,246.91,973.14,248.72Z"/><path class="cls-1" d="M143.14,223.15c.56-2.16.76-4.82,3.64-3.57,2.09.9,3.59,3,4.53,5.23.39.92-1,.72-1.28.58-1.54-.69-3.12,1.73-4.54,0-.92-1.16-.34-1.58.95-1.87.72-.16.64-1.08.06-1.52C145,220.85,144.41,222.77,143.14,223.15Z"/><path class="cls-1" d="M227.94,142.68a74.46,74.46,0,0,1,22.58,13.16l-22.93-12.62C227.7,143,227.82,142.86,227.94,142.68Z"/><path class="cls-1" d="M840,527.72l-16.78-9.63A33.5,33.5,0,0,1,840,527.72Z"/><path class="cls-1" d="M756.69,475.27l14.9,8.77C765,483.76,759.13,480.36,756.69,475.27Z"/><path class="cls-1" d="M835.4,192.54c-4.15,5.76-10.61,8.49-16.36,12.13a77.7,77.7,0,0,1,16.44-12Z"/><path class="cls-1" d="M753.45,141.15a24.56,24.56,0,0,1-11.38,12.38C748.74,144.3,748.58,143,753.45,141.15Z"/><path class="cls-1" d="M308.1,344.39c6.64-1.57,12.3,1.34,18.21,1.15C320.28,347.24,314.55,345.21,308.1,344.39Z"/><path class="cls-1" d="M132.38,400.85l-14.15-1.27C121.19,400.58,127,398.73,132.38,400.85Z"/><path class="cls-1" d="M165,346.29c4.73-2,9.68-1.39,14.67-.3l-14.37,1.64Z"/><path class="cls-1" d="M760.74,717c-2.65,1.47-.85,3.2.36,3.58,4.61,1.43,6,5.54,8.75,9.43-3-.5-4.08-2.23-5.26-4-1.55-2.33-1.94-5.36-4.73-7-1-.58.82-1.12.79-1.92Z"/><path class="cls-1" d="M852.58,628.89c6.67-.36,10.23,3.39,14.51,5.55C862.41,633.22,857.43,632.72,852.58,628.89Z"/><path class="cls-1" d="M443.38,173.85c-2.64-4.23-3.16-9.16-4.95-15.2A20.55,20.55,0,0,1,443.38,173.85Z"/><path class="cls-1" d="M573.64,640.47c.13,5.64,2.16,11.09,1.73,14.75C574.18,651.73,574.26,646.06,573.64,640.47Z"/><path class="cls-1" d="M341.84,651.1c2.29-4.79,6-8.33,10-11.59-2.81,4.32-5.17,9-9.94,11.65Z"/><path class="cls-1" d="M519.46,673.39c-1.73-6,0-12-.43-18C518.85,661.39,521.52,667.23,519.46,673.39Z"/><path class="cls-1" d="M629.59,574.22c-3.76-5.42-6-11.49-8.2-17.61l1.14-.54,7.67,17.61A6.2,6.2,0,0,0,629.59,574.22Z"/><path class="cls-1" d="M782.43,325.26c-4.29,4-7.61-2.25-11.42-.23C774.85,322.54,778.46,323.88,782.43,325.26Z"/><path class="cls-1" d="M885.43,563.19c4.16,1.4,6.5,6.68,12.17,5.26-3.5,3.22-3.55,3.29-6.53.86-2.14-1.75-4.11-3.7-6.16-5.56C885.09,563.57,885.26,563.39,885.43,563.19Z"/><path class="cls-1" d="M517.43,694.74c-1.38-5.83,1.3-11.16,2.05-14.57a26.12,26.12,0,0,1-1.94,14.5Z"/><path class="cls-1" d="M884.27,506.18c-2.3.37-3.9-.58-5.6-.91-2.54-.48-2.3-2.32-2.72-3.95.95,1.3,3.39,1,3.59,1.45C880.44,505,883.12,504.08,884.27,506.18Z"/><path class="cls-1" d="M915.43,515.22c3-1.14,5.15.93,7.59,1.87a23.69,23.69,0,0,0,5.88,1.69c-5,.69-9.52-.73-13.89-3C915.14,515.61,915.28,515.42,915.43,515.22Z"/><path class="cls-1" d="M838.47,714.61c-3.26-1.41-5.26-2.05-7.55-1.79-1.78.2-2.46-1.29-1.94-3,.62-2,1.76-.84,3-.57C834.61,709.83,836,711.66,838.47,714.61Z"/><path class="cls-1" d="M788.44,749.05c-3.82-2.71-7.94-5.1-10.19-10.11,5.21,1.78,7.54,6.16,10.79,9.46C788.83,748.61,788.63,748.83,788.44,749.05Z"/><path class="cls-1" d="M516.36,47.08c0,5.56.11,11.27-1.42,16.85A53.52,53.52,0,0,1,516.36,47.08Z"/><path class="cls-1" d="M236.37,702.69q4.63-5.25,9.25-10.51c-2.6,4-3.9,9.13-9.34,10.5Z"/><path class="cls-1" d="M654.7,745.76c-3.79-2.68-7.45-4.25-9.19-8.9C649.75,738.64,653.48,740,654.7,745.76Z"/><path class="cls-1" d="M962.37,346.44c5.25-.09,10.47.1,15.52,2.09-5.23-.09-10.56.87-15.53-2.08Z"/><path class="cls-1" d="M480.88,92.8c-2.09-.59-2.63-2.33-2.94-4.1-.16-1,.88-2.28,1.46-1.9,1.28.85,4,.33,3.56,3.11C482.76,91.22,482.57,92.52,480.88,92.8Z"/><path class="cls-1" d="M185.05,520c-1,2.62-1.56,4.49-2.38,6.24-.54,1.14-1.74,2.38-2.81,1.16-.44-.5-1.79-2.58.06-3.82C181.42,522.58,182.88,521.52,185.05,520Z"/><path class="cls-1" d="M820.16,323.18c-3.13-.27-4,2.87-6.85,2.29-1.31-.27-1.55-1.06-1.8-1.92-.45-1.57,1.2-1.2,1.64-1.2C815.21,322.36,817.42,320.39,820.16,323.18Z"/><path class="cls-1" d="M387.86,71.72c-.7,3-.05,5.69-1.6,5.84-3.16.31-5.15-2.44-8.34-4.79C381.69,73.28,384.36,77.17,387.86,71.72Z"/><path class="cls-1" d="M899.75,626.76c4.55-.42,5,4.41,8.71,5.82C902.41,634.46,903.43,627.47,899.75,626.76Z"/><path class="cls-1" d="M194.67,541.11c2.74-2.86,5.36-5.81,10.1-8.21C201.63,537.34,198.8,540.06,194.67,541.11Z"/><path class="cls-1" d="M848.9,492.77c-4.19-1.92-8.63-3.36-12.22-6.49,4.16,2,9.24,2.15,12.2,6.48Z"/><path class="cls-1" d="M653.9,756.86c-3.82-.89-7.22-1.25-7.85-5.8C648.2,753.31,652.66,752.06,653.9,756.86Z"/><path class="cls-1" d="M284.34,267.69c-3.83-.84-7.72-1.54-12.13-3.83C277.59,263.35,280.82,265.94,284.34,267.69Z"/><path class="cls-1" d="M704,26.5c-9.3.14-9.3.14-11.73-1.73,1.69,0,3.73-.06,5.77,0S702.42,24.26,704,26.5Z"/><path class="cls-1" d="M257.48,475.32c3.3-1.3,1.66,3.58,4.17,3.34-.41,1.35-1.32,1.62-2.66,1.54-2.47-.16-2.76-3.07-4.85-3.62C255,475.41,255.91,474.6,257.48,475.32Z"/><path class="cls-1" d="M601.93,743.93c-1.17-2.7,2.44-4.6.85-7.19.39-.24.79-.69,1.16-.66a1.83,1.83,0,0,1,1,.81C603.61,739.06,605.08,742.47,601.93,743.93Z"/><path class="cls-1" d="M949.19,480.32c-4.86-1.19-9.58-2.7-13.65-5.74A42.21,42.21,0,0,1,949.19,480.32Z"/><path class="cls-1" d="M245.41,123.47c-2.51.1-5.58,2-6.76-2.51C240.78,122.59,244.31,119.3,245.41,123.47Z"/><path class="cls-1" d="M149.22,246.4l16.56,1.79C159.88,249.21,155.17,249,149.22,246.4Z"/><path class="cls-1" d="M83.19,435.65c-3.76,1.76-7.9,1.68-12,1.73A23.73,23.73,0,0,1,83.19,435.65Z"/><path class="cls-1" d="M810.08,472.73c3.32-.84,5.35.94,7,3.52-2-1.78-6.18.68-6.89-3.6Z"/><path class="cls-1" d="M190,572.58l-9.21,7.9C182.66,576.66,185.17,573.57,190,572.58Z"/><path class="cls-1" d="M645.86,99.41c-1-6.23,2.63-10,3.76-14.35C649.93,89.79,647.44,93.82,645.86,99.41Z"/><path class="cls-1" d="M569.87,0c.78,1,3.35.49,2.61,3.13-.25.91-.24,2.36-1.28,2a3.62,3.62,0,0,1-2.66-3.65C568.56.65,568.46-.15,569.87,0Z"/><path class="cls-1" d="M331.13,152.38c-3.89-1.16-5.95-4.28-7.82-7.6,2.51,2.63,6.29,3.93,7.7,7.72Z"/><path class="cls-1" d="M99.19,555.68c-.59,3.6-2.83,3.65-4.6,4.16-.45.13-2-.94-1.41-1.45,1.33-1.15,2.11-3.25,4.46-3A3.85,3.85,0,0,1,99.19,555.68Z"/><path class="cls-1" d="M312.79,382.29c-2.26,2.17-2.26,2.17-6.55,2.14a43,43,0,0,1-5.43-.24,33,33,0,0,1,12.06-1.77Z"/><path class="cls-1" d="M690,8.77l-12-.69C682.06,6.93,686.09,6.05,690,8.77Z"/><path class="cls-1" d="M566.94,725.67c1.07,7.17.95,9.12-.47,12.85-1.45-2.21.31-4.23.15-6.3A48.13,48.13,0,0,1,566.94,725.67Z"/><path class="cls-1" d="M764.5,451.35c2.92,1.37,6.16,2.11,9.22,5.22-4.15-.93-7.65-1.18-9.14-5.34Z"/><path class="cls-1" d="M253.87,313.33c-1.91,0-2.61.17-3.18,0-1.61-.56-3.67.76-4.9-1.14-.2-.3-.17-1.16,0-1.22,1.93-.77,3.78-.06,5.59.54C251.9,311.65,252.32,312.17,253.87,313.33Z"/><path class="cls-1" d="M337.9,159.57c-3.83-.91-6.25-3.15-6.78-7.19a1.31,1.31,0,0,1-.11.12c3,1.73,5.57,3.82,6.8,7.19Z"/><path class="cls-1" d="M739.92,693.68c-2.18-3.16-5.35-5.61-6.62-9.48a20.06,20.06,0,0,1,7.36,8.73Z"/><path class="cls-1" d="M241.57,526.57c-.07,3.33-.8,4.17-7.08,8.18-.2-.2-.41-.39-.62-.57,1.79-3.3,6.12-4,7.71-7.51Z"/><path class="cls-1" d="M186.53,634.24c2.44-1.62,4.51-4.26,8.86-5.17Z"/><path class="cls-1" d="M172.58,453.67c-.64,1.84-.64,1.85-2.6,2.37a33.28,33.28,0,0,1-3.81.86,11.67,11.67,0,0,1-2.55-.2l9-2.95Z"/><path class="cls-1" d="M386.15,766.87c-.69,3-.94,6-3.69,7.78C382.9,769.76,383.08,769.37,386.15,766.87Z"/><path class="cls-1" d="M676.52,668.14c-2.67-3.53-3.54-7.92-5.64-11.71l-.06,0c1.16-1.43,1.42-.28,1.8.61q2.25,5.29,4.52,10.58A8.11,8.11,0,0,0,676.52,668.14Z"/><path class="cls-1" d="M815.55,424.77c4-1.34,7.28,1.37,12.21,2.12C822.55,427.67,819.21,425.37,815.55,424.77Z"/><path class="cls-1" d="M219.41,606.66c-3.12,2-6.14,4.19-10.09,4.27,3.4-1.21,5.46-5,9.55-4.84A7.27,7.27,0,0,1,219.41,606.66Z"/><path class="cls-1" d="M174.77,167.73c.09,2.37-2,3.11-2.57,4.77-.25.8-.91,1.45-1.83.78a3.33,3.33,0,0,1-1.14-1.51c-.37-1.14.53-1.57,1.34-1.3C173.19,171.31,172.23,167.42,174.77,167.73Z"/><path class="cls-1" d="M94.91,473c-.79,2.69-3.43,3-4.87,4.69-.78.93-1.47-.24-1.92-.63-1-.87.09-1.29.66-1.72C90.57,474,93.09,474.49,94.91,473Z"/><path class="cls-1" d="M313.74,191.54l8,5.85A10.25,10.25,0,0,1,313.74,191.54Z"/><path class="cls-1" d="M83.61,490.41l8.06-3.49C89.42,491.11,86.51,491.16,83.61,490.41Z"/><path class="cls-1" d="M303.85,691a18.06,18.06,0,0,1,7.82-7.11,20.67,20.67,0,0,1-7.46,7.43Z"/><path class="cls-1" d="M293.93,333c-2.15-.19-4.3-.4-6.45-.58-1-.09-1.65-.5-1.41-1.52s1.16-.28,1.76-.39c2.36-.41,4.16,1.15,6.35,1.3C294.1,332.19,294,332.59,293.93,333Z"/><path class="cls-1" d="M227.59,143.22c-2.87-1.78-5.94-3.27-8.75-6.05,4,.75,6.69,2.94,9.1,5.51C227.82,142.86,227.7,143,227.59,143.22Z"/><path class="cls-1" d="M100.27,399.25c-3.59.28-6.89-.41-10.16-.67Z"/><path class="cls-1" d="M735.48,58.74a42.48,42.48,0,0,1,6-10c.19.2.39.39.59.57l-5.89,10.06C735.94,59.14,735.71,58.94,735.48,58.74Z"/><path class="cls-1" d="M749.14,38.3c-2.35,3.08-3.5,7-6.54,9.57a3.73,3.73,0,0,0-.73-.58c2.41-3,3.62-6.9,6.58-9.56A3.74,3.74,0,0,0,749.14,38.3Z"/><path class="cls-1" d="M758,342.59c.58-1.54,1.15-3.09,1.73-4.63.73.34,2.12.73,2.1,1C761.63,341,759.55,341.45,758,342.59Z"/><path class="cls-1" d="M511,159V144.13C512.07,149,511.71,153.94,511,159Z"/><path class="cls-1" d="M341.53,652.62c-1.27,2.73-3.51,4.59-6,6.79,0-4.13,3.25-5.28,5.28-7.35A5.65,5.65,0,0,0,341.53,652.62Z"/><path class="cls-1" d="M663.55,640.16c2.72,2.4,4.09,5.55,5,9l.14-.08a13.93,13.93,0,0,1-5.07-9Z"/><path class="cls-1" d="M745.32,439.18c-2.82.2-4.68-1.3-6.56-3.56C742,435.33,743.45,437.68,745.32,439.18Z"/><path class="cls-1" d="M312.87,382.42c1.81-3.59,5.37-1.61,8-2.56-2.49,1.47-4.92,3.19-8.08,2.43Z"/><path class="cls-1" d="M727.59,690.13l5.92,3.55c-.87,1.65-2.19.47-2.52.05-.48-.6-.09-1.72-.67-2.61C729.59,690,727.9,691.65,727.59,690.13Z"/><path class="cls-1" d="M630.2,573.68c1.83,3.22,3.75,6.4,3.58,10.5l-4.19-10A6.2,6.2,0,0,1,630.2,573.68Z"/><path class="cls-1" d="M921.88,467.73l8.41,4.28c-3.13-.83-7-.33-8.41-4.29Z"/><path class="cls-1" d="M734,694.5c1.6,1.33,3.19,2.67,5.2,4.36C735.24,699.69,734.66,697,734,694.5Z"/><path class="cls-1" d="M492.22,569.73a4,4,0,0,0,.38-.89,2.89,2.89,0,0,1,3-2.5c.93-.05,1.27.86.7,1.75-.82,1.25-1.06,3.48-3.49,2.17A7.15,7.15,0,0,0,492.22,569.73Z"/><path class="cls-1" d="M307.77,761.87c.41,3.41-2.68,4.07-4.49,5.72,1.46-1.93,2.26-4.4,4.59-5.61Z"/><path class="cls-1" d="M377.67,197.7c2.79.17,3.17,3.1,4.82,4.55a8.64,8.64,0,0,1-4.67-4.63Z"/><path class="cls-1" d="M849.39,183.55c-.66,2.91-3.27,3.18-6.14,4.93a8.19,8.19,0,0,1,6.2-4.83Z"/><path class="cls-1" d="M793.47,754c-2.68-.64-4.06-2.59-5-5,.19-.22.39-.44.6-.65l5,5.05A7.7,7.7,0,0,0,793.47,754Z"/><path class="cls-1" d="M915,515.81c-2.28-1.2-4.79-.3-7.14-1,2.53-.51,5.08-1.4,7.56.41C915.28,515.42,915.14,515.61,915,515.81Z"/><path class="cls-1" d="M295.14,697.39c2-1.38,3.23-3.64,5.66-4.42a5.54,5.54,0,0,0,.68.69c-1.38,2.07-3.52,3.19-5.53,4.46Z"/><path class="cls-1" d="M396.88,143.6c2.64,1.51,3.46,4.5,5.42,6.56a6.63,6.63,0,0,0-.52.54c-2.75-1.37-3.53-4.44-5.55-6.43A6.86,6.86,0,0,0,396.88,143.6Z"/><path class="cls-1" d="M689.58,700c-2.56-1.94-2.14-5.27-3.61-7.71h-.1c.57-1,1.31-1.07,1.65,0,.8,2.55,2.25,4.95,2,7.78Z"/><path class="cls-1" d="M657.63,766.94c1.48,2.1,3.06,4.16,3.07,6.92-.19.16-.38.32-.58.46a13.73,13.73,0,0,1-2.82-7Z"/><path class="cls-1" d="M888.81,621.15c-1.65-1.93-4.3-.43-5.07-2.61C885.84,618,886.35,620.88,888.81,621.15Z"/><path class="cls-1" d="M183.46,154.17c-1.76-1-3.73-1.69-5-5C181,151,183,151.59,184,153.64,183.81,153.81,183.63,154,183.46,154.17Z"/><path class="cls-1" d="M316,679.2c-.15,2-1.21,3.34-3.5,4.22a6.47,6.47,0,0,1,3-5.24Z"/><path class="cls-1" d="M878.68,685.61l5.5,3.56.12-.06c-1.73-1.41-5.36.08-5.58-3.65Z"/><path class="cls-1" d="M779.1,662.62c-3.22.77-2-2.69-3.56-3.44,2.26.15,1.71,2.87,3.49,3.47Z"/><path class="cls-1" d="M882,617c-1.49.48-3.14,2-3.8,0Z"/><path class="cls-1" d="M829.58,679a9.52,9.52,0,0,1,4.87,4.13l.15-.09c-2.63.24-4.12-1.58-5.74-3.17Z"/><path class="cls-1" d="M296,698.12c-1.28,1.9-3.36,2.06-5.49,3,.71-2.94,3.63-2,4.68-3.69Z"/><path class="cls-1" d="M234.49,534.75l-4.8,3.13-.86-.75c1.63-1.06,2.82-2.89,5-3C234.08,534.36,234.29,534.55,234.49,534.75Z"/><path class="cls-1" d="M849.45,183.65c.81-2,2.57-2.44,5.27-3.2-1.87,2.13-3.13,3.43-5.33,3.1Z"/><path class="cls-1" d="M760.64,592.08l3.92,3.5C762.26,595.56,761,594.33,760.64,592.08Z"/><path class="cls-1" d="M427.52,710.8c.89,2.49-1.49,4.21-1.51,6.49l.11.14a10.57,10.57,0,0,1,1.53-6.49Z"/><path class="cls-1" d="M377.82,197.62c-1.68-.74-3.24-1.58-3.58-4.38,1.79,1.5,3.92,1.87,3.43,4.46Z"/><path class="cls-1" d="M756.13,587.62c1.45,1.21,3.11,2.24,4.14,5.17-2.33-1.63-3.95-2.63-4.82-4.55C755.69,588,755.92,587.83,756.13,587.62Z"/><path class="cls-1" d="M810.15,472.65c-.24-.84-1-.71-1.6-.82-.07,0-.18.21-.28.32.55.38,0,1-.2.33,0-.05.27-.15.31-.27.38-.93.37-.93,1.71.51Z"/><path class="cls-1" d="M394.19,141.23l-2.76-4c.13-.18.27-.35.4-.52a5.15,5.15,0,0,1,3.07,3.93C394.66,140.8,394.42,141,394.19,141.23Z"/><path class="cls-1" d="M631.32,710.38c2.08.6,2,2.26,2.21,4.33a7.13,7.13,0,0,1-2.08-4.48A1.74,1.74,0,0,0,631.32,710.38Z"/><path class="cls-1" d="M769.05,238.93c0-1.94.81-2.67,3.55-3.29l-.12-.09L769,239Z"/><path class="cls-1" d="M760,449.73c2.13-1.19,3.48-.18,4.55,1.62l.08-.12c-2,1-2.87-1.48-4.53-1.54Z"/><path class="cls-1" d="M751.22,441.07c-2.94,1.9-2.36-1.61-3.77-2.07,2.16-.7,2,2.07,3.76,2.06Z"/><path class="cls-1" d="M668.58,649.11c1.55.91,1.06,2.6,1.6,3.9-1.08-1.11-2.4-2.15-1.46-4Z"/><path class="cls-1" d="M736.16,59.36l-2.56,4c-.08-2.47.55-3.72,1.88-4.67C735.71,58.94,735.94,59.14,736.16,59.36Z"/><path class="cls-1" d="M678.58,607.15c-1.13-1.34-3.15-2.37-1.59-4.63l0,.09c0,1.7,2.57,2.56,1.47,4.6Z"/><path class="cls-1" d="M845.12,111c1.22,2.27-.46,2.5-2,3-.55-2,2.43-1.25,2-2.93Z"/><path class="cls-1" d="M101.88,632.13l.86-.22c-.17-.08-.37-.26-.49-.22a3.1,3.1,0,0,0-.71.44Z"/><path class="cls-1" d="M766.76,239.83c-1.35.24-2.06,2.07-3.81,1.54.9-1.79,2.32-1.87,3.93-1.42Z"/><path class="cls-1" d="M760.05,449.69c-.83-.64-2.3-.61-2.25-2.29,1.47.09,3.35-.33,2.15,2.33Z"/><path class="cls-1" d="M426,717.29c-.56.86-.66,2.05-2.16,2.64.54-1.31.37-2.74,2.26-2.51Z"/><path class="cls-1" d="M794.36,755.05c2.1-.72,2.41.92,3.27,2.31-2,0-2.4-1.37-3.13-2.39Z"/><path class="cls-1" d="M677.14,667.59c.35.83,1.31,2,.16,2.45-.85.32-.67-1.15-.78-1.9A8.11,8.11,0,0,1,677.14,667.59Z"/><path class="cls-1" d="M394.9,140.6c1.21.64,1.57,1.84,2,3a6.86,6.86,0,0,1-.65.67l-2-3C394.42,141,394.66,140.8,394.9,140.6Z"/><path class="cls-1" d="M729.54,679.07a4,4,0,0,1,2,3l-.61.46-1.84-2.75A5.72,5.72,0,0,0,729.54,679.07Z"/><path class="cls-1" d="M686,692.33a6.25,6.25,0,0,0-1-3.08c1.61.64,2.94,1.38.91,3.07Z"/><path class="cls-1" d="M185.44,154.24a4.48,4.48,0,0,1,2.6,2.27,3.19,3.19,0,0,1-3.11-1.81C185.11,154.55,185.28,154.39,185.44,154.24Z"/><path class="cls-1" d="M852,107.26c.41,2.46-.94,2.71-2.84,2.29l.14.09,2.71-2.38Z"/><path class="cls-1" d="M820.61,478.19a3,3,0,0,1-.8-.14c-.49-.23-.46-.4,0-.37.31,0,.61,0,.92.06Z"/><path class="cls-1" d="M333.92,781c-.68-1.89.79-2.21,2.22-3.63-.36,2.21-.89,3.22-2.31,3.52Z"/><path class="cls-1" d="M721.88,670.52c1.91-1.62,1.73.63,2.88,1.12-1.76.66-1.9-.92-2.8-1.13Z"/><path class="cls-1" d="M876.08,685.73c-.21-.7-.42-1.41-.64-2.11.3.08.7.06.87.25.62.69.73,1.39-.22,1.94Z"/><path class="cls-1" d="M245.24,591.92l-.27-1.5c.26.08,1.25-1,.66.43-.14.34-.25.69-.37,1Z"/><path class="cls-1" d="M340.27,209.13l1.11,1.51a1.47,1.47,0,0,1-.45.08c-1.16-.17-.49-1.06-.65-1.63Z"/><path class="cls-1" d="M336.37,206.2c-.35,1.3,2.86,1.32,1.13,3.12l0,0c-.9-.83-1.66-1.71-1.08-3.06Z"/><path class="cls-1" d="M294.81,143.75a4.05,4.05,0,0,1-2.29-2.5c.12-.19.24-.39.37-.57,1.54.09,1.83,1.52,2.61,2.42C295.28,143.33,295.05,143.54,294.81,143.75Z"/><path class="cls-1" d="M602,622.67l-.95-3.84c2.1,1.35,1.62,2.58.91,3.85Z"/><path class="cls-1" d="M834.45,683.08c.83.16,1.62.42,1.73,1.42,0,.14-.54.51-.57.49-.58-.54-2-.66-1-2Z"/><path class="cls-1" d="M389.74,134.79c1.65-.42,1.82.78,2.09,1.88-.13.17-.27.34-.4.52a3.06,3.06,0,0,1-1.6-2.52Z"/><path class="cls-1" d="M727.35,677.29a4.65,4.65,0,0,1-2-3.09l-.14.1c2.11.14,2.6,1.3,2,3.15Z"/><path class="cls-1" d="M749.7,582l2.06,2,.16-.1c-1.92.63-2.86.22-2.09-2Z"/><path class="cls-1" d="M236.28,702.68c1.22.25.82,1,.47,1.67a1,1,0,0,1-.68.34c-.64-.77.2-1.32.32-2Z"/><path class="cls-1" d="M316,677.74l2.28-2.41.68.8a3.39,3.39,0,0,1-2,2Z"/><path class="cls-1" d="M754,585.51l2.1,2.11c-.21.21-.44.42-.68.62a3.14,3.14,0,0,1-2-2A4.29,4.29,0,0,0,754,585.51Z"/><path class="cls-1" d="M773.73,234c.93-.73,1.47-2.94,3.13-.78,0,0,0-.1,0-.08-.76.52-1.52,1-2.28,1.52Z"/><path class="cls-1" d="M852,107.26l2.16-.26v.47l-2.18-.21Z"/><path class="cls-1" d="M318.8,597.11c.47-.67,1-2.09,1.75-1.34s-.59,1.54-1.25,2.18A3.22,3.22,0,0,0,318.8,597.11Z"/><path class="cls-1" d="M437.28,720.36c-.68.78-.16,2.25-1.51,2.66l.09.14c-.9-1.39-.16-2.32.88-3.16Z"/><path class="cls-1" d="M729.13,679.74c-.59-.82-1.17-1.64-1.77-2.46l-.13.17c1.65-.73,1.75.78,2.31,1.62A5.72,5.72,0,0,1,729.13,679.74Z"/><path class="cls-1" d="M427.65,710.94l.57-1.78a2.19,2.19,0,0,1,.28.7c0,.64,0,1.3-1,.95Z"/><path class="cls-1" d="M740.66,692.93l1.9,2.09a3.69,3.69,0,0,0-.67.7l-2-2Z"/><path class="cls-1" d="M256,680.1c-.42.8-1.06,2.23-1.78,1.6-1-.84.45-1.58,1.12-2.21A4.77,4.77,0,0,0,256,680.1Z"/><path class="cls-1" d="M848.88,492.76l2-.13v.14h-2Z"/><path class="cls-1" d="M786,669.63l-1.87.25-.06-.73,1.85.55Z"/><path class="cls-1" d="M319.81,674l.58-1.19c.57.55.63,1.08-.06,1.58A6.41,6.41,0,0,1,319.81,674Z"/><path class="cls-1" d="M318.25,675.33l1.56-1.3a6.41,6.41,0,0,0,.52.39c-.31.7-.48,1.51-1.4,1.71Z"/><path class="cls-1" d="M255.29,679.49l1.57-1.47a2.87,2.87,0,0,0,.82.5L256,680.1A4.77,4.77,0,0,1,255.29,679.49Z"/><path class="cls-1" d="M731.58,682a1.56,1.56,0,0,1,1.27,1.66c0,.1-.22.29-.34.3-1,0-1.12-.9-1.54-1.5Z"/><path class="cls-1" d="M451.11,685.64c.5-.35.41-1.84,1.48-.95.35.29,0,1.19-.82,1.38Z"/><path class="cls-1" d="M845.1,111,847,111c-.06.24,0,.61-.18.7-.85.54-1.52.45-1.74-.69A.42.42,0,0,0,845.1,111Z"/><path class="cls-1" d="M878.72,685.46c-.7,2-1.79-.09-2.64.27v.08c.73-2.14,1.69-.45,2.58-.18C878.68,685.61,878.72,685.46,878.72,685.46Z"/><path class="cls-1" d="M303.2,692.32l-1.72,1.34a5.54,5.54,0,0,1-.68-.69c.59-1.34,1.51-1.17,2.53-.55Z"/><path class="cls-1" d="M517.54,694.67l-.44.67.61.15-.27-.75Z"/><path class="cls-1" d="M743.45,697.13l-1.56-1.41a3.69,3.69,0,0,1,.67-.7l1.48,1.56C743.84,696.75,743.64,696.94,743.45,697.13Z"/><path class="cls-1" d="M172.59,453.75l1.92-.26c0,.27.07.74,0,.76-.74.21-1.6.68-1.93-.57Z"/><path class="cls-1" d="M356.14,728.18c-1.17-.5-.33-1.17-.15-1.79.24.09.65.13.7.28a1.09,1.09,0,0,1-.71,1.42Z"/><polygon class="cls-1" points="819.33 399.02 819.79 398.93 819.37 398.74 819.33 399.02"/><path class="cls-1" d="M492.79,570.26l-.69,1.57a1.43,1.43,0,0,1,.12-2.1A7.15,7.15,0,0,1,492.79,570.26Z"/><path class="cls-1" d="M766.88,240c-.35-2.63,1.73-.08,2.17-1l0,0c-1-.51-1.52.54-2.26.86Z"/><path class="cls-1" d="M242.45,591.62c1-.27,2-1.54,2.79.3l0,0-2.22.41C242.84,592.08,242.64,591.86,242.45,591.62Z"/><path class="cls-1" d="M774.57,234.65c-.32,1.18-1.28.87-2.09.9l.12.09c-.69-1.29.89-1,1.13-1.65Z"/><path class="cls-1" d="M337.5,209.32c.8-1.92,1.84-.07,2.76-.18a.17.17,0,0,0,0,0c-.89.78-1.86.21-2.8.17A.42.42,0,0,0,337.5,209.32Z"/><path class="cls-1" d="M122.63,603.8a1.37,1.37,0,0,1,1.68-.51c.47.14.5.47.1.62a9.08,9.08,0,0,1-1.38.26Z"/><path class="cls-1" d="M663.65,640.07c-1.16.11-1-.73-1.06-1.45,0-.06.41-.12.63-.18l.33,1.72Z"/><path class="cls-1" d="M336.4,206.21l-2.82-.31-.1.1,2.89.2Z"/><path class="cls-1" d="M331.86,204.35c0,1.09,2.49-.31,1.63,1.65a.9.9,0,0,1,.09-.1c-.53-.48-1.05-1-1.56-1.46Z"/><path class="cls-1" d="M657.3,767.31l-1.21-1.78a4.45,4.45,0,0,0,.51-.56c1.22.19,1.06,1.11,1,2Z"/><path class="cls-1" d="M245.36,525.7l-.28-1.34.63,0c-.12.44-.24.89-.37,1.33Z"/><path class="cls-1" d="M869,609.55l1.06,1.33c-.83.47-1.43.32-1.72-.66C868.58,610,868.8,609.76,869,609.55Z"/><path class="cls-1" d="M660.7,773.86c.91.34,1.33,1.33.67,1.73-1,.62-.81-.82-1.25-1.27C660.32,774.18,660.51,774,660.7,773.86Z"/><path class="cls-1" d="M670.88,656.43c0-.63,0-1.27.07-1.9.22.12.53.18.64.37.55.87.44,1.48-.76,1.5Z"/><path class="cls-1" d="M332.92,782c-.73,1.12-1.51,1.79-2.49.22v.06c.9.25,1.67-1.68,2.64-.18Z"/><path class="cls-1" d="M779,662.65l.39,1.79c-.24-.07-.6-.07-.69-.22a1.12,1.12,0,0,1,.36-1.59Z"/><path class="cls-1" d="M292.52,141.25c-.4-.46-1.83-.38-1.12-1.32.56-.75,1.34-.23,1.49.75C292.76,140.86,292.64,141.06,292.52,141.25Z"/><path class="cls-1" d="M675.43,602.39l-.68-1.71c.24,0,.66-.1.68,0,.23.65,1.11,1.36-.1,1.92Z"/><path class="cls-1" d="M921.88,467.72l-1.59.35c-.18-1,.47-.27.73-.32a4.9,4.9,0,0,1,.86,0Z"/><path class="cls-1" d="M722,670.51c-.06-1-1.66-2-.12-3.08h0c.12,1,1.81,2,0,3.08Z"/><path class="cls-1" d="M725.38,674.2c-.23-.36-.47-.71-.7-1.06h.81l-.24,1.15Z"/><path class="cls-1" d="M752.43,585.24c.65-.64,1.11-.06,1.6.27a4.29,4.29,0,0,1-.6.75.92.92,0,0,1-.89-1.1Z"/><path class="cls-1" d="M751.76,584c.36.34,1.29.36.67,1.23l.11-.08c-.61-.2-1.81-.1-.64-1.24Z"/><path class="cls-1" d="M216.09,325.26l0,.18s-.12-.06-.1-.07Z"/><path class="cls-1" d="M721.84,667.43l-.49.74-.3-.33.8-.4Z"/><path class="cls-1" d="M731.49,566.25a6.57,6.57,0,0,1-.81-.76c.63-.87.89,0,1.27.32Z"/><path class="cls-1" d="M278,654.18l-.11-.71.64.13-.66.49Z"/><path class="cls-1" d="M744,696.58c.07.43.29,1.17.17,1.24-.65.33-.64-.29-.76-.69C743.64,696.94,743.84,696.75,744,696.58Z"/><path class="cls-1" d="M884.41,562.22a.9.9,0,0,1,1,1c-.17.2-.34.38-.52.56-.38-.49-1.32-.85-.41-1.66Z"/><path class="cls-1" d="M884.5,562.09c-.41.41-.78.39-1-.13-.06-.11.06-.31.1-.47l.86.73Z"/><polygon class="cls-1" points="289.76 701.58 289.43 701.69 289.45 701.41 289.76 701.58"/><path class="cls-1" d="M741.46,48.73c.14-.48.27-1,.41-1.44a3.73,3.73,0,0,1,.73.58c-.18.48-.37,1-.55,1.43C741.85,49.12,741.65,48.93,741.46,48.73Z"/><path class="cls-1" d="M751.21,441.06l-.46.77-.31-.34.78-.42Z"/><path class="cls-1" d="M760.65,717.13l-.08-.21a.91.91,0,0,0,.17.09Z"/><path class="cls-1" d="M748.45,37.73c.12-.4.13-1,.76-.69.16.09,0,.82-.07,1.26A3.74,3.74,0,0,1,748.45,37.73Z"/><path class="cls-1" d="M184.93,154.7l-1.47-.53c.17-.18.35-.36.54-.53l1.44.6C185.28,154.39,185.11,154.55,184.93,154.7Z"/><path class="cls-1" d="M435.77,723l-.74.7c0-.14-.17-.33-.12-.43.23-.49.57-.51.95-.14Z"/><path class="cls-1" d="M341.94,651.16l-.41,1.46a5.65,5.65,0,0,1-.73-.56c.11-.57.31-1.06,1-1Z"/><path class="cls-1" d="M256.86,678l.92-1.07.62.81-.72.76A2.87,2.87,0,0,1,256.86,678Z"/><path class="cls-1" d="M316.93,678.14,316,679.2l-.49-1a1,1,0,0,1,.46-.44Z"/><path class="cls-1" d="M189.35,157.43l-.26-.29c.11-.07.22-.21.32-.2s.17.18.26.27Z"/><path class="cls-1" d="M86.31,477.94l.15-.31.5.32-.32.34Z"/><path class="cls-1" d="M806.51,744c.45,0,1,.2.61.71s-.76,0-1-.4Z"/><path class="cls-1" d="M835.48,192.66l.66-.74c.05.13.17.3.13.4-.17.49-.48.57-.87.22Z"/><path class="cls-1" d="M866.11,521.62l.1-.21a2.27,2.27,0,0,0,.06.25Z"/><path class="cls-1" d="M794.06,753.45c.41.48,1.26.87.3,1.6l.14-.08a.93.93,0,0,1-1-1A7.7,7.7,0,0,1,794.06,753.45Z"/><path class="cls-1" d="M621.18,680.58c.06.4.27,1.08.14,1.16-.58.32-.66-.2-.74-.63A6,6,0,0,1,621.18,680.58Z"/><path class="cls-1" d="M785.89,669.7l1,.88v-.05c-.37.1-.43,1-1.11.33s.1-.82.16-1.22Z"/><path class="cls-1" d="M308.52,760.71l1.16-.17-.38.67-.9-.58Z"/><path class="cls-1" d="M308.4,760.63c.15.33,1,.38.45,1-.22.23-.71.2-1.08.29l.1.11c.23-.42.46-.83.67-1.26Z"/><path class="cls-1" d="M781.05,667.53l.37.11c.18-.43.24-.43.2,0l-.58-.13Z"/><path class="cls-1" d="M656.09,765.53c-.07-.4-.32-1.06-.19-1.14.57-.36.61.19.7.58A4.45,4.45,0,0,1,656.09,765.53Z"/><path class="cls-1" d="M299.23,618.76l-1-.14.26-.47.68.65Z"/><path class="cls-1" d="M245.34,525.71l-.91-.11c0-.05.11-.16.15-.15.26.07.52.16.78.25Z"/><path class="cls-1" d="M402.3,150.16c.1.41.36,1.12.27,1.17-.62.34-.69-.2-.79-.63A6.63,6.63,0,0,1,402.3,150.16Z"/><path class="cls-1" d="M337.55,777.43c-.11.1-.22.27-.33.27s-.22-.18-.33-.28c.11-.1.23-.27.34-.27S337.44,777.33,337.55,777.43Z"/><path class="cls-1" d="M781,667.51l.09-1c.06.06.18.13.17.16-.07.28-.16.54-.25.81Z"/><path class="cls-1" d="M849.19,109.55c.42.31.48.65,0,1-.09.06-.29,0-.44,0,.19-.28.38-.55.56-.83Z"/><path class="cls-1" d="M333.83,780.93c.1.7-.35.94-.91,1.07l.15.11c-.07-.33-.15-.67-.23-1l1.08-.07Z"/><path class="cls-1" d="M332,204.44l-.26.13a1.51,1.51,0,0,0,.11-.22Z"/><path class="cls-1" d="M677,602.52c-.66,1.38-1.1.58-1.55-.14l-.11.18c.59-1.14,1.09-.11,1.64.06Z"/><path class="cls-1" d="M241.58,526.67l1.32.09-.52.65-.8-.83S241.58,526.67,241.58,526.67Z"/><path class="cls-1" d="M674.12,599.05l-.26-.18.31-.43c.08.11.24.22.23.33S674.22,599,674.12,599.05Z"/><path class="cls-1" d="M884.18,689.17l1.08.11-.06,0c-.29-.05-.59-.1-.89-.13Z"/><path class="cls-1" d="M500.11,598.48l-1,.72-.19-.44,1.14-.15A1.11,1.11,0,0,0,500.11,598.48Z"/><path class="cls-1" d="M319.3,598a1.5,1.5,0,0,1-.66.66l-.86-.53,1-1A3.22,3.22,0,0,1,319.3,598Z"/><path class="cls-1" d="M304.21,691.35c-.34.32-.69.63-1,1l.15.11c-.8-.82-.42-1.21.52-1.39Z"/><path class="cls-1" d="M514.44,398.38c-1.38-.25-3.84,2-3.75-1.67.06-2.42.7-4.4,3.52-4.42,2.41,0,4.85.4,4.89,3.59C519.15,399.49,516.37,398.23,514.44,398.38Z"/><path class="cls-1" d="M639.15,406.91c.06.4.31,1,.16,1.16-.47.38-.74,0-.89-.5A9.24,9.24,0,0,1,639.15,406.91Z"/></g></g></svg>