<svg xmlns="http://www.w3.org/2000/svg" viewBox="0 0 1535.81 489.21"><defs><style>.cls-1{fill:#080808;}</style></defs><title>Ativo 10</title><g id="Camada_2" data-name="Camada 2"><g id="Camada_1-2" data-name="Camada 1"><path class="cls-1" d="M340.52,486.85c-10.44.08-20.86.1-31.3,1.09-18.39,1.73-36.85-.21-55.27.2-26.64.6-53.22-.86-79.77-2.36-14.62-.83-29.23-2.49-43.88-3.12-12.43-.52-24.82-1.18-37.05-3.58-6.33-1.24-12.62-2.74-18.93-4.1a25.08,25.08,0,0,1-11.89-5.9c.19-1.24.92-1.24,2.07-1.35,6.37-.6,12.67-1.8,19.09-2.16-8.63-2.56-17.1.72-25.64.49-8.92-2.27-18.12-2-27.18-2.8C20.54,462.33,10.2,462.58,0,461v-124c2.47-.71,2.27,1.72,2.86,2.76a38.11,38.11,0,0,0,8.64,11L0,330.06v-51a19.57,19.57,0,0,1,8.55.25c7.3,2,14.51,3.6,20.45,8.74,2.92,2.53,6.26,4.56,9.59,6.94a40.67,40.67,0,0,0,1.14-12c-.25-4,.25-8.27-1.1-11.85-1.75-4.66-1.15-9-.71-13.55.11-1.14.61-3.27-1.21-3.3-5.76-.1-10.24-4.69-16.07-4.32-1.5.1-2.7-.27-2.49-2.17s-.85-3.11-2-4.39c-3.91-4.49-6.65-9.94-11.25-13.86a4.75,4.75,0,0,1-1.85-4.86c1.48-6.62-1.21-12.53-3.09-18.58v-92c3.14-.44,5.19-2.4,6.62-5,1.21-2.26,1.92-3.07,4.05-.44,2.4,3,4.13,9.12,10.1,3.65,1.33-1.21,2.77.81,2.67,2.41-.43,6.47,1.53,12.73,1.44,19.17s.08,13,.26,19.44c.05,2-.28,4.64,3.44,3,.93-.4,2.47.89,2.41,2.57s-.63,3.45-2.28,3.29c-2.91-.29-2.75,1.25-2.81,3.21-.54,16.52,1.05,32.78,6.44,48.49a14.54,14.54,0,0,0,6.39,8c1,.56,3.49,1.73,3.21-.91-.4-3.87,1.31-7.59-.26-11.66-1.25-3.23-2-7.74-.63-10.68,2.65-5.92.09-11.77,1.27-17.52a3.83,3.83,0,0,0-1-2.74c-1.3-1.54-2.46-3.39-4.78-3.63a9.81,9.81,0,0,0,3.25-5.42c1.08-4.93-2-9.69-.17-14.76.73-2,1.7-5.43-2.13-6.69-.29-.1-.58-1.31-.35-1.74,1.93-3.62.19-7.46.75-11.17.29-2,1.19-4.62-2.26-5.49-.88-.23-1.08-1.4.41-2.49,3.49-2.54,2.22-6.1.93-9.31-.79-2-5.62-2.86-.2-6,3-1.73.19-13.28-2.74-16.62-1.11-1.26-2.94-2.78-1.33-5,1.79.49,1.92,2.66,3.88,2.7,1.73-2,1.74-4.51,1.24-6.84-.85-4-.41-7.73-.1-11.71.35-4.59,1.32-10-3.37-13.68-.76-.59-1.09-1.29-.46-2.09s.91-2.53,2.43-1.85c1.89.85,1.87-.3,2.65-1.51,1.92-3,1.61-5.34-.42-8.06C36,43.59,36.1,43.46,40.33,42.5c1.09-.25.2-1,.56-1.5,1.21-1.54.56-3.56,1.22-5.24.81-2,.86-4.49,4.6-2.94,3.39,1.4,6.2-.18,6.28-4.45,0-1.54-.27-3.23,2-3.19s3.28,1.28,2.84,3.6c-.68,3.6,1.7,3.79,4.17,3.52s3.61-2,3.85-4.48c.17-1.66.92-3,2.9-2.43s2.42,2,2.25,3.89c-.14,1.5-1.16,2.35-2,3.31a4.7,4.7,0,0,0-1.39,4.54c.74,2.61,2.76.51,4.09.95,2.23.73,5.11-1.39,6.87,2.43.61,1.33,1,1.86.49,3.18-.86,2.07-1.66,1.16-3,.38-1.06-.64-3-1.77-3.75,0-.64,1.47.24,3.2,1.64,4.35,1.14.93,3.14.47,3.78,2.09.36.9,2.24,2.34.67,2.77-5.43,1.46-1.18,4.52-1.58,7,1.42-1,2.4-2.35,4.2-2.21,1.93,4.79-2.23,11.31,4.21,14.87.86.47,2.34,1.46,1.42,2.72-.7,1-2.14.69-3.23,0a1.47,1.47,0,0,0-2.14.09c.78,1.26.44,2.78.14,4.36s-.28,3.53,1.73,4.16c3.31,1,3.55,3.62,4,6.49-5.46-1.36-5.55-1.31-5.63,3.79,0,1.33.18,2.65.22,4,.29,9.14.8,18.28.78,27.42s1.92,17.87,1.24,27c-.56,7.44.43,15,.07,22.46-.35,7.14,1,14.17.33,21.35-.54,5.87.29,11.9.91,17.81.19,1.83-2.57,4.45.23,5.18,2.17.56,3.62-2.44,5-4.19A9.34,9.34,0,0,0,92,212c2.64-10.78,6.55-21.11,4.29-32.89-1.66-8.64-1.39-17.86-.19-26.84.45-3.42,1-9.4-.31-10-4.2-1.87,0-4.76-1.74-6.55-.63-.64.26-2.37,1.18-2.33,5.56.25,1.86-4,2.91-6,1.24-2.29,2.77-5.23-1.74-6.45-1.52-.41-1.91-2.11-1.67-3.72,6.69-.4,9.21-3.76,8.29-10.93-.08-.58,0-1.57.37-1.77,2.32-1.32,2.75-3.19,2.77-5.78s2.34-2.33,3.64-1.14c1.76,1.59-.23,6.07,4.29,5.79,0,.61-.44.58-.88.73a2,2,0,0,0-1,3.47c1.37,1.48,2.61.07,3.63-1,.77-.85,1.51-1.74,2.35-2.53s1.37-2.84,2.84-1.17c.74.84,1.45,1.92-.1,3.71-2.29,2.66-2.19,5.68,2.48,6.89,1.72.46,3.68,2.14,2.43,4.93-2.16,4.83-1.63,8.8,4.69,10.45-4.3,4.12-4.29,8.68-3.24,13.38a12,12,0,0,1,.51,3.91c-.49,5.06-.14,5.55,4.86,8.09a1,1,0,0,1-.06,1.92c-6.17,1.3-4,6.07-3.95,9.71,0,4.57,1.27,9.25.61,13.67-1,6.34-.35,12.56-.16,18.82,0,1.16.58,3,1.35,3.3,1.33.49,2.25-1.12,3.2-2.35,1.93,2.86.51,5.24-1.66,5.74-3.67.86-3.6,3.38-3.87,5.95-.21,2,0,4-.32,6-.6,3.35.31,5.4,4.12,5.41a7.14,7.14,0,0,1-.68,1.15c-.23.22-.59.55-.81.5-5.5-1.32-7,3.06-8.91,6.46-4.11,7.3-9.17,13.67-16.52,17.95-4.15,2.41-8.28,4.88-12.55,7.05a4.09,4.09,0,0,0-2.55,4.21c-.18,10,1.18,19.9-.66,30-1.38,7.56-.23,15.59-.19,23.41,0,1.09-.4,2.4,1.25,2.77.63-3.22,5.54-2.83,5.46-6.92s3.42-6.51,5-10.17a3.94,3.94,0,0,1,.72,3.35c-.25,4.44-3.47,7.79-4.55,11.6-2.5,8.87.41,18.44-2.47,27.56,5.4-14.26,13-27.28,19-41.09-4.6,15.47-6.7,31.52-12.27,46.72,7.33-10.6,10.45-23.74,20.76-34-.86,9.48-8.09,15-9,22.94,2.15-.28,2.51-3.09,5.38-2.45.16,9.08-10,13.12-11.31,22.66,9-9.08,17.69-16.86,25.69-25.54-3,8.36-9.59,14.55-13.67,22.52,8.55.22,16.71,1.16,24.47,4.39a19.42,19.42,0,0,0,4.31,1c2.47.41,3.39-.37,4.37-3.11,1.88-5.19,1.5-10.33,1.48-15.54,0-2.59.7-5-2.22-7.42-1.87-1.52-3.3-6.54-2.21-8.17,2.37-3.54.5-2.65-1.7-3.11-7.55-1.58-13-7.14-19.22-11.07-1.84-1.16,1.56-4.79.54-7.47a15.68,15.68,0,0,0-.84-2.33c-2.21-3.92-.08-9.39-4.58-12.55-.59-.41.91-.42,1.15-.87,2.77-5.3,1.57-12.21-2.61-14.91,2.88-2.31,5.06-5.35,3.71-8.92-1.76-4.66,0-8.45,1.17-12.9,1.56,1.22,1.15,3.63,3,3.34,1.74-.26,1.78-2,2.22-3.48s.69-3.29,2.13-4.39c2.57,2.74,6.81,4.19,6.74,9,0,.52,1.14,1.13,1.82,1.59,1.15.77,1.13,1.69,1,3a85.66,85.66,0,0,0,.42,27.86c.87,4.66,2.54,9.43,6,13.05,1.53,1.6,4,2.4,4.71-.67a51.27,51.27,0,0,0,1.37-11.18c.09-8.14-.21-16.28-.28-24.42a3.43,3.43,0,0,0-1.84-3.3,3.56,3.56,0,0,1-1.33-5.73c4.75-5.35-.75-11.68,2.1-17.09a1.72,1.72,0,0,0-1.36-2.29c-5.32-1.5-2-2.46-.18-4.64,2-2.43,6.39-4.35,3.82-9.19-1.13-2.11.53-3.72,3.83-4.39a1.21,1.21,0,0,0,1.08-1.37c-.35-3.88,1.34-7.47,1.5-11.25l.85.73.39-.67-1.22,0c-2.07-2.87-5.3-5.14-4.49-9.64l-3.33,2.28a41.77,41.77,0,0,1,3.91-12.37,10.81,10.81,0,0,1,3.1-3.85c2-1.54,4.28-1.46,6.75-.29,2.83,1.35,1.77,1.71-.08,2.81-.59.35.54.82,1.14.7,1.24-.26,2.22.36,2.13,1.41-.25,3.13.86,5.75,2.21,8.47a3.2,3.2,0,0,1-1.33,3.94c-1.31.78-.92-2-2.33-1.54-1.49,2.36,1.76,5.56.32,6.38-4.63,2.62-2.36,6.35-2.54,9.73-.15,2.83.67,4.29,3.77,3a2.58,2.58,0,0,1,3.44,1.11c2,2.93,4.57,5.38,2.61,9.72-1.78,3.95.62,7.73,5,9.52,1.16.48,2.18,1.49,1.6,2.66s.5,3.44-2,3.27c-1.48-.1-3.07,0-2.46,1.87,1.35,4.22-2.14,9.8,3.65,12.84a2.64,2.64,0,0,1,1,3.06,1.48,1.48,0,0,1-2.19.39c-3.55-2.51-3.5.25-3.51,2.49-.05,10.94-.06,21.89,0,32.84,0,3.9.43,8.54,5,9.15,4.87.65,5.14-4.34,5.78-7.7,1.41-7.43,4-14.78,2.57-22.5-.49-2.55-2.74-5.31,2.32-5.6,1.16-.07,1.31-2,1.78-3.29,1-2.62-.15-5.41.84-8.25,1.43,3.38,2.95,1.63,4.49.53,1.21-.86,2.75-3.21,3.94-.79,2.36,4.81,4.16,9.9,7,14.47.18.29,0,1.19-.24,1.3-4.29,2-2,4.18-.42,6.59,1.38,2.07,1,4.29.15,6.61a53.2,53.2,0,0,0-1.55,7.26c-.18.95-.45,2.23,1.17,1.94,5.21-.92,3,2.52,2.47,4.45-1.47,4.78-4.76,8.65-7,13-4.64,8.89-11.71,14.39-21.43,16.45-1.49.32-1.87.69-1.93,2.09-.28,6.43-1,12.86-.87,19.28.07,3.38.52,7.12,3.91,10.63-.53-4.52.82-7.39,3.6-9.5,1.86,3.65,2.2,8.06,5.73,12-.86-10.11,2.34-18.2,7-25.86l.67.5c.43,8-2.55,15.73-1.32,23.86,1.58-4.1,2.37-9.48,8-8.33,2.71.55,1.51,5.09,1.54,7.94,1.88-.42,2.41-3.87,4.64-2,4.38,3.65-2.27,5.83-1.68,9.4,2.06-1.3,4.25-2.47,6.06-1.31,2.31,1.49-.69,3.49-.72,6.49,5.9-5.56,9.93-.59,14.6,1.6.57-4.55-1.84-7.78-3-11.94l5.5,3.33c-2.58-4.19,0-9.76-4.65-11.28s-6.26-4.65-7.71-8.44c-1.85-4.86-7.74-7.91-6.41-14.16.24-1.16-3.08-4.73,1.87-3.06a14.47,14.47,0,0,0-.11-6.8c-1.35-6.47.17-9.91,5.85-13.11a42.89,42.89,0,0,1,4.25,12.55c.87,4.73,2.13,9.38,3.25,14.06.34,1.41,1.12,2.37,2.78,2.22,1.86-.17,1.23-1.66,1.42-2.66.58-3-.33-5.92-.58-8.88-.38-4.53-2.13-8.92-1.35-13.57.9-5.35,3.92-10.73-.23-16a1.2,1.2,0,0,1,.42-1.73c1.58-1.1,1.11-1.56-.24-2.63s1.5-11,2.38-10.41c3.26,2.08,3-1.12,4.28-2.18,2.2-1.83,9.29-.75,8.83,1-1.13,4.4,2.16,7.73,2,11.73-.11,2.64,1.44,3.59,3.95,3.55-7.59,10.78-4.12,31.74-3.23,46.95,2.92-5.74,4.64-10.84,4.48-16.21-.16-5.17,3.59-9.15,3.49-14.17,0-.23.58-.69.62-.66,4.24,3,2.91-3,4.91-3.31a1.24,1.24,0,0,1,.94,1.67c-1.51,3.57-.7,6.64,1.22,9.91.94,1.61,3.9,2.4,2.88,4.72-2.36,5.41,1.32,10.8-1,16.61-2.79,7-6.16,12.86-13,15.86-4.53,2-4.19,5.88-2.66,8.1,2.08,3,1.41,5.25.66,8-.25.92-1.48,2.15.27,3l-.39-.8-.41.33.81.45c2.8-5.46,5.29-11.14,10.67-14.73a4.21,4.21,0,0,0,.64.56c-.8,2.39-1.6,4.77-2.43,7.26,4.9-1.74,6.81-7,11.61-8.95,1.11,4.92-2.92,7.14-5,10.36,3.55.53,5.82-3.24,9.41-2.2-1.3,4.22-5.41,5.32-8.81,8.37a70.92,70.92,0,0,1,7.73-1.37c1.77-.11,2.58.79.94,2.36-2.6,1.15-5.63,1.3-8.58,3.64a27.69,27.69,0,0,0,9.89-2.62c1.84-.27,3.77-1.11,5.63.6-5,4.22-11.42,4.56-17,7.85,4.67,1,8.72-2.69,13.09-.62-1.16,2.22-3.75,1.73-5.05,3.57,2.95.45,5.27-1.23,7.56-2.18,3.87-1.6,4.7,1,6.1,3.45a5,5,0,0,0-6.57-.27c3-.46,4.2,1.68,5.76,3.35a3.82,3.82,0,0,0,3.52,1.63c4.7-.16,9.72.33,12.62,5.2a6.11,6.11,0,0,0,1,1.13c15.73,16.05,32,31,53.58,39.52,22.48,8.88,45.1,16.94,68.62,22.56a425.84,425.84,0,0,0,47.95,8.11c17.48,2.11,34.94,4.19,52.67,3.34,12.8-.61,25.47-3.32,38.24-3.09,25.62.45,51.24,1.46,76.84,2.7C684,479,719,478.6,753.83,473c19.85-3.2,39.65-.36,59.47.37a69.74,69.74,0,0,1,9.88,1.07c21.82,3.91,43.9,3.61,65.72,1.87,22-1.74,43.87-3.26,65.78-1.22,27,2.51,54,3.81,81.17,4.07,44.81.42,89.55-.8,134.2-4.67a13.24,13.24,0,0,1,4,.17,128.75,128.75,0,0,0,30.63,3.05c30.77-.47,61.47,2.86,92.23,1.26.85,0,2.12.6,2.15-1.55-41.34-4.22-82.92-3.07-124.43-4.7,21.08-4.58,41.87-10.32,63.66-8.81-3.54-1.87-7.34-1.72-11.08-1.86-17.52-.68-34.72,1.9-51.93,4.8-15.72,2.65-31.67,3.53-47.54,5-17.11,1.54-34.19,2.28-51.35,2.42-51.63.42-103.24-1.16-154.85-2.26-4.45-.09-9,.34-13.4-1.16,11-1.57,22.17-2.14,34.16-4.31a31,31,0,0,0-8.81-.74c-10,.51-19.85,1.87-29.71,3.28-14.35,2-28.89.91-43.22,2.46-19.29,2.08-37.83-2.2-56.61-5.34,8.14-1.73,16.62-1.49,24.66-4-6.63.44-13.22-.24-19.87.4-4.84.47-8.71,3.6-13.47,3.45-14.7-.47-29.12,2.27-43.66,3.65-6.15.59-12.47,1.34-19.75-1.15C758,461.66,783.21,456,809,452.76a8.33,8.33,0,0,0-3.81-1.54c-18.25-.81-36.52-2-54.65,1.6-3.06.61-6,1.28-8.55,3.26-1,.09-2.17-.66-3,.92,1.2,0,2.46.86,2.87-1l35.46-3.13a12.47,12.47,0,0,1-4.9,2.19c-12.9,3.62-26.33,5.32-38.83,10.38A108.15,108.15,0,0,1,699.86,473c-32.59,2.15-65.24-.05-97.85,1-1.5.05-3,0-4.51,0a113.39,113.39,0,0,1,18.83-3.91,223.23,223.23,0,0,0,37.25-8c29.22-8.86,58.06-19,87.65-26.67,16.65-4.33,33.47-6.81,50.61-5.12,19.66,1.94,38.73,7.09,57.76,12.15,16.7,4.43,33.4,7,50.62,3.58a262.31,262.31,0,0,1,28.08-3.94c20.3-1.74,40.06,1.88,59.61,6.42,31.25,7.26,62.35,5.09,93.54,0,12.42-2,24.86-4,37.36-5.36,20.77-2.32,41.14,1.48,61.29,5.63,15.56,3.21,31.13,5.15,46.91,4.55,18.42-.71,36.22-5.74,54.24-9.18,3.29-.63,4.29-2.09,2.32-5.76,4.77,2.64,8.22-.5,12-1,6-.72,9.92-3.28,12.39-8.08,1.25-2.43,2.06-1,2.64-.31a14.61,14.61,0,0,1,1.59,3.59c1-.35-.45-3.13,2.57-1.73,4.48,2.07,7.26,5.74,10.39,9,2.7,2.84,4.77,3.56,7.7.46a78.82,78.82,0,0,0-6.88-4.81c-3.65-2.05-6.62-3.94-1.88-7.89,1-.83.11-1.82-.1-2.73,6.85-3.11,13.67-6,21.33-6.93,7.24-.92,11.77-7.3,17.79-10.81,1.41-.83,2.63-2.06,4.4-2a25.88,25.88,0,0,0,16.17-5.23c5.84-4.28,12.75-6,19.46-8.23,4.37-1.46,8.64-3.25,12.92-5a3.06,3.06,0,0,0,2.08-3.57c-1.47-6.5-1-13.35-3.94-19.6-1.1-2.36-.24-4.74,1.66-6.62,2.54-.5,2.36,1.75,2.79,3,2.29,6.76,4.41,13.57,6.61,20.42,2.59-1,2.62-2.93,2.75-4.75s-.57-3.89.84-5.71c1.3-1.67.57-3-.62-4.79a42.19,42.19,0,0,1-7-19.05l.1-.27c3-.9,2.87,1.81,3.59,3.3,2.15,4.48,4.12,9,6.16,13.57.61-13.89-2.82-27-4.66-40.37a34,34,0,0,1,.92-13.46c3.33,8.25,2.26,16.3,6,23.05-.2-14.33-.71-28.58-3.31-42.65-.53-2.85-.23-6.06-4.29-6.75a1.8,1.8,0,0,1-1-2.51c1.21-1.9,1.21.41,1.8.7,1.9.9,1.73-.42,1.91-1.59.76-4.89,1.15-9.66-3.12-13.39-.25-.22-.34-1.1-.15-1.25,4.42-3.72.54-7.94.79-11.89.11-2-.88-2.09-2.47-2.73-10.84-4.32-22.82-6.61-30.79-16.38-1.09-1.34-2.46-2-4.36-.82-1.14.71-3.23,1.11-3.85-.43a3,3,0,0,1,1.79-3.61c1-.38,2.52-.81,1.06-2.37-6.59-7.05-7.63-17.3-14.11-24.41-.86-.94-.12-1.36.32-2,1-1.5,1.82-3.06,2.66-4.49,3.47,3.33,1.83,8.85,5.18,12.16-.55-8.52-6.41-15.4-6.45-24-4.88-3.41-2.52-6.36-.31-10.41,1.54-2.83.35-7.17.26-10.84-.08-3.33,1.58-7.51-4.4-8.32,2.31-.75,4.49-.66,4.42-3.48-.11-4.5,0-9,0-13.5,0-1.8-1-2.34-2.67-2.9-2.31-.79-2.54-4.95-.53-5,5.25-.27,2.08-4.17,3.25-6.05,1.05-1.68-4.76-6,2.07-5.36.22,0,.8-1.71.88-2.66.17-2.15.66-4.49.07-6.46-1.35-4.45,1.3-7.64,2.78-11.23.41-1,1.84-1.84.61-3-3.84-3.71.06-5.06,1.69-7.2,1.43.86.23,3.08,1.66,2.88a3.83,3.83,0,0,0,3.45-2.23c1-2.45.5-5,1-7.36.4-2,1.72-2,3.36-1.49,2.36.74.6,1.24.1,2.17a4.07,4.07,0,0,0,.91,4.85c1.16,1,2.85-.14,4-1a10.42,10.42,0,0,0,2.41-2.46c.87-1.31,2.06-.92,2.25,0,.79,3.61,3.11,3.78,6.23,4,2.09.15,3.41,3,6.16,3.29,1,.11,0,2.52-1,2.62-4.4.49-2,3.09-2,5.16,0,2.72,1.94,4.18,3.57,5.58,1.93,1.65,1.81,3.11.44,4.65-3,3.33-2.3,6.54.34,9.44,1.18,1.3,1.65,2.48,1,3.87-3.22,6.48-2.94,13.27-2.19,20.18.42,3.85.94,7.8,1,11.54.17,6.6-.56,13.35.23,19.9,1.35,11.21,1.52,23.05,10.8,31.63.56.51.34,2.5,1.71,1.29.53-.47,2.33-2.14.9-2.81-3.63-1.73-1.28-3.07-.24-4.84a10.13,10.13,0,0,0,1.58-4.59c.19-7.08.11-14.16.15-21.25,0-1.71,0-3.1-2.16-3.9-2.65-1-3.06-4.9-.58-5.6,4.56-1.28,2.81-4.51,2.12-6.51-1.12-3.3-1.08-6.49-1.07-9.8,0-6.82-.11-13.65-.28-20.47,0-.65.29-2.73-.86-1.91-1.94,1.38-3.19.44-3.25-.85-.09-1.82-.51-4.75,1.57-5.41,5.63-1.78,3.77-6.53,3.32-9.56s4.31-7.87-2.31-9.42c-.6-.15-.82-1-.41-1.67,4-6.82.41-13.83.1-20.7-.08-1.74-.5-1.94,1.13-2.61,3.61-1.48,4.65-7,2.39-10.1-1-1.36-1.76-4.74-1.48-4.88,5.51-2.75,4.41-7.92,4.91-12.49.21-1.88.34-3.78-2.23-4.19a2.11,2.11,0,0,1-1.91-2.46c.06-1.81,1.65-1.33,2.62-1.6,3.33-.93,4.44-2.72,2-5.55s.13-4.33,1.81-5c4.53-1.83,5.32-3.87,2.1-7.71-.81-1-.79-2.41,0-2.15,6.07,2.14,5.06-3.8,7.34-6.68.88,2.35,5.43,3.5.71,6.13-.71.4-.38,1.16.16,1.64.36.32.75.67,1.25.17,3-3,6.42-6.19,6.58-10.46.07-2-1.54-4.48-1.33-7a.55.55,0,0,0,.67-.43c1.28.68,2.06-.54,3.08-.81l1,1.1c0,1.9-1.32,3.84.27,5.69,1.59-.55-.23-2.94,1.53-3.41,2.26.91,0,4,2.71,4.77,3.23,1,6.22,3.56,8.63-1.47.64-1.33,3.34-1.71,5.14-2.38a5,5,0,0,1,1,2c.41,2.38-2,2.42-3.18,3.16-1.49,1-3.47,2.29-3.36,3.45.23,2.34,2.81,3.51,4.55,4.95.84.69,2.22-1.64,3.53-.14.23,1.4-3,1.72-1,3.94s2-.69,3.14-.77c2.11-.15,4.27-.45,5.24,1.62,1.19,2.55-1.58,3.18-3,3.59-2.88.84-2.95,2.12-1.56,4.3,1,1.52,1.46,3.37,3.14,4.37.72.42,1.67.83.4,1.64-2.94,1.89-1.9,4.47-1.49,7.1,1.55-.5,1.93-2.75,3.84-2,.69.26,1.25,1.06.89,1.52-1,1.32-.57,3.63-2.79,4.15-.83.19-2.63-.88-2,1.49.5,1.89,1.7,1.69,3.07,1.31,1-.26,2.26-1.77,2.66.33.35,1.85-1.28,2.23-2.63,2-3.11-.47-2.81,2-2.73,3.49.11,2.27,1.76,1,2.93.77,3-.65,3,1.6,3.41,3.53s.35,4.71-1.5,4.25c-4-1-3.19,1.95-3.52,3.56-1,5.06.35,10,1,15.81l3.59-4.09c.07,1.47.45,2.44-.22,3.36-3.32,4.59-3.38,9.57-1.44,14.64a8,8,0,0,1,.25,6.26c-2.51,5.7-1.29,11.53-1.4,17.44,2-.46,2-3.57,3.75-2.48.88.57,3.21.69,2.8,3.16-.45,2.64-2.08,5.8-3.62,6-4,.56-2.77,3.26-2.63,5,.7,8.43-2.44,17,1.43,25.35,1.36,2.91-1.14,5.61-1.89,8.39-1.73,6.44-.1,13.1-1.29,19.59-.21,1.09-.81,2.81.73,3.58s2.47-.6,3.59-1.22c6.62-3.67,8.49-10.2,10-16.88.69-3.07,2.85-6.43-1.34-9-.92-.56-.56-1.78.18-3a20.27,20.27,0,0,0,2.78-15.09c-1.31-5.72.53-11.12.94-16.65.07-1-.55-4.22,2.64-2.36.51-1.61,3-3.94.68-4.76-5.79-2-2.59-4.24-1-7.07,1.44-2.65,2.93-5.44-.83-8.21-2.14-1.58-1.82-4.32,1.22-5.91,2.35-1.23,4.1-3,1.5-5.69-.81-.85-1.25-2.95-.32-2.76,5.66,1.16,3.83-3.48,4.74-5.81a23,23,0,0,1,4.23-7.55c.3.63.63,1,.55,1.18-1.3,2.89,0,6.11,2.06,6.67,3.15.86,3-2.48,3.16-4.79.08-1,.83-2.14,1.92-1.81,1.67.49-.26,1.66.12,2.29.57.92.28,3.27,2.75,1.74,1.28-.79,2.2.37,2,1.8-.25,1.9.17,3,2.31,3.39,1.84.35,1.8,2.11,1.72,3.65a10.78,10.78,0,0,0-2.71,1c-.63.44-2.4-.57-1.88,1.11s1.65.47,2.63.15,2.27-.47,2.39-2c1.5.45,1.81-2.47,3.58-1.27v70c-3.57,7-3.46,15-6.3,22.21-1,2.53-.44,3.22,2,3.33,1.5.06,2.48.63,2.49,2.39a2,2,0,0,1-2.63,2.12c-3.85-.84-4.32,2-5.29,4.44-1.37,3.35.71,8.63-5.3,9.42-.31,0-.53.8-.79,1.23A48.06,48.06,0,0,1,1493.2,228c-1.19.4-1.78.62-1.92,2.17-.44,4.69-.23,9.43-1.37,14.08-.41,1.65-1,4.17,2.51,3.94,1.81-.13,2.35,1.33,2.4,3.07.4,13.26,2.44,26.44,2,39.75-.08,2-1.64,4.18.33,6.29,3.13-3.19,6.29-6.11,7.75-10.6,3.54-10.87.31-22.28,2.91-33.21a1.85,1.85,0,0,0-1.13-2.44c-.7-.25-1.13-1.14-.53-1.5,4.92-3-.72-4.23-1-6.33,4.29.42,5.94-2.3,6.81-5.82.48-1.94,1.36-5.4,2.43-5,5.75,2.3,3.64-2.57,4.95-4.51.75-1.12,2.72-5,3.86-2.18,1.28,3.22,3.19,5.24,5.35,7.48a2.2,2.2,0,0,1,.27,2.77c-3.38,5.59,1.77,1.58,2.78,2.45.46,4.14,1,8.66.61,12.62-.5,5.15,1,9.93,1,14.92,0,7.1-6.4,13.73-1.5,21a.9.9,0,0,1-.18.85c-5.22,2.15-5.21,7.75-7.63,11.72-5.14,8.41-10.27,16.56-20.38,20-3,1-6.78,2.38-7.81,5.9-1.89,6.51-.55,13.19-.82,20,2.57-.76,2.86-3.24,4.91-3.48,0,5.09-4.25,8.8-4.74,14.26a12.79,12.79,0,0,0,5.69-4.38c2.2-2.86,1.48-8.53-1.06-9.78-.17-2.33,0-4.2,2.19-6,4-3.42,4.42-9.48,8.82-12.78,3,3.71,3.23,9,6,13.28.26-5.16,2-9.71,3.8-14.23.54-1.34.73-2.62-1-3.21-.54-.18-1.8.82-1.34-.76.19-.65,1.4-1.68,1.59-1.57,2,1.1,5.1.5,6,2.95,3.46,10,6.28,20.11,4.43,31.14,2.8-2.1,3.64-5.46,5.74-7.86V473a46.16,46.16,0,0,0-14.56,2.86c-7.93,2.68-16.36,2.54-24.44,4.39-2-.66-3.87.63-5.85.7-25.7,1-51.4,2.05-77.11,2.93-13.6.47-27.3-1-40.82,1.22-7.12,1.15-14.24.93-21.28.6-9.3-.44-18.5.86-27.77.49-1.91-.07-4.16,0-4.1,3-12.85-1.29-25.87-3.16-38.61-1.78-23.76,2.58-47.48,1-71.21,1.43-20.12.39-40.27.48-60.39,0-34.11-.87-68.22-2-102.35-1.65-28.1.29-56.2.06-84.31,1.18-17.27.68-34.63-.72-51.91-.1-12.82.45-25.51-1.07-38.22-.88-14.29.22-28.58.92-42.88.68-16.64-.27-33.28-1.05-49.91-.85-23.46.28-46.91,1-70.37.59-26.77-.5-53.55-1.12-80.33-1.64-3.82-.07-7.65.17-11.48.26-10-1.42-19.94,1.06-29.93,1.17l-11.18.18c-.45-.55-.81-.28-1.15.14l-31.72.06a4.83,4.83,0,0,0-3.82-.08h0c-18.31-3.34-36.69-5.45-55.44-4.68.29,2.37,2.25,1.29,2.48,2.5-70.41-3.27-140.84-3.86-210.83-3.81,5.54,2.37,12,2.92,18.4,3,14,.28,28,.05,41.95.21C337.9,485.17,340.61,483.3,340.52,486.85Zm-313.61-257-.05.15L27,230c.29.72-.24,1.83,1,2.09a4.26,4.26,0,0,0,2.79,3.22c3.3,3.83,8,4.39,12.41,5.81-1.35-2.24-3.73-2.51-5.7-3.55s-4-2.21-6-3.32c-1.13-.86-1.53-3-3.66-2.08C29,230.76,26.91,230.77,26.91,229.89ZM127.79,425.72c-.39.23-1.39.06-.65,1l.62-1c-.71-.41-1.41-.83-2.11-1.25-2.6-8-8.83-12.85-14.79-18.16C97.47,394.35,81.6,390.61,64.34,391.9c-11.68.88-20.69,8-29.78,14.63l-2.37,1c1.21.49,2.2,1,3-.32,7.84-4.8,16.67-7.5,24.82-11.64,1.13-.57,2.91-1.81,3.86,0,.67,1.28-.7,2.45-1.74,3.24-3.93,2.95-7.9,5.84-12.51,7.69l-1.39,1.19c.91.71,1.44.22,1.86-.59,4.57.14,8.12-2.65,11.91-4.49,1.51,1.65-1.46,2.15-.61,3.29,3.36,1.08,5.4-2.27,8.41-2.1l.59.59c-4.17,4.67-11.31,5-15.76,10.84,10.23-3.36,19.14-10.06,30.26-5.88-4.5,3-10.15-.12-13.72,4.08,1,1.63,5-.49,4,2.28-.72,2-1,2.32.86,2.68,1.27.25,2.78,2,3.83.33.95-1.46-.28-2.76-1.61-3.66-.66-.45-1.42-.87-.69-2.42a16.06,16.06,0,0,1,10.15,9.05,8,8,0,0,0,3.84,4.16c1,.5,1.49-.16.88-1.24.21-.21.4-.43.6-.66.56-.42,2.15,2,1.7-.33a22.51,22.51,0,0,0-1.93-5.49c-1.88-3.81-3.77-7.57-7.7-11.15,4.63.6,7.12,2.11,8.68,5.08,1.42,2.7,2.95,5.34,4.69,8.47.64-4.62,2.56-3.13,4.61-1.72,2.69,1.86,3.81,5.75,8.28,6.33l-3.7-7.33c2.42,1.08,4.49-.57,6.08,1.45,2.79,3.55,7,4.66,11,6C125.62,426.52,126.57,427.07,127.79,425.72Zm1379.62-48.5c-.66.76-2,1.54-.84,2.57.55.47,1.27-.67,1.47-1.51l1-1c1.27-.09,2.1-2.52,4-.54-.54.44-1.23.76-1.53,1.3-.61,1.1-3.43.93-2,3.18.91,1.38,2.42,1.2,3.56.51,2-1.2,3.84-.3,5.57.18a7.1,7.1,0,0,0,6.87-1.15c-3.27-3.47-7.37-1.33-10.89-1.73-.17-3.5,6.7-2.44,3.13-7.89,3.44,2.27,6.64,2.17,8.84,1.18s-2.51-2-1.31-4.2a10.16,10.16,0,0,1,1.76.49c1.67.8,2.7-.13,3-1.48.44-1.7-1.38-1.3-2.19-1.89-3.26-2.36-6.82-1.32-10.25-1-9.87.79-19.08,3.41-26.62,10.29-.63.55-2.22,1-1.54,1.79s1.93,0,2.52-1c4.14.9,7.18-3,11.53-2.92-.42,1.74-2.38,1.95-2.19,3.5,2.07,1.76,3.61-.52,5.42-.7,1.32-.13,2.36,0,1.16,1.67A1,1,0,0,0,1507.41,377.22ZM197,312l-6.7,4.09c3.58.06,5.39-1,6.79-2.89l1.06-.94a6.94,6.94,0,0,0,4-5c.71-.41,1.33-1.2.7-1.74-.93-.78-1,.61-1.47,1L197,312Zm1309.18-6.6c2.06-.63,3.12-2.22,3.88-4.08,5.38-3.59,5.87-9.82,8.26-15.06a169.13,169.13,0,0,1-9.35,14.27c-1.3,1.33-3.23,2.23-3.21,4.51l-.6.46C1505.55,305.9,1505.89,305.86,1506.19,305.39ZM17.94,442a9.26,9.26,0,0,0-7.23,3.26c3.41-.34,5.46-1.7,7.65-2.68,1.36-.92,3.65.13,4.57-2.24C20.73,439.59,19.21,440.4,17.94,442Zm32-107.11-.06.15.18-.07c.2,3.81-.65,7.76,1.85,11.7C51.45,342.39,51.27,338.53,49.94,334.87Zm-23.57-90.1c.91.39,1.5,2.28,2.66.93.37-.43-1-1.42-2-1.68-2.48-2.36-4.45-5.34-8.52-7.23A28,28,0,0,0,26.37,244.77ZM1505.78,309c-4.06.32-6.67,3.7-11.81,4.83,6,1,8.76-2.74,12.39-4.14.83-.85,2.58-.94,2.25-3A3.67,3.67,0,0,0,1505.78,309ZM223.57,407.75c-.51.05-.77.27-.52.8,0,.07.21.07.32.11l.13-.91c-5.41-3.2-10.64-6.76-16.7-8.68C212.12,402.51,216.59,407.65,223.57,407.75Zm-59.63-1.66c.54,1.06,1.92,1.36,2.21.65.42-1-1.28-.59-1.79-1.22l-19.64-7.78-.41,1.16A65.82,65.82,0,0,0,163.94,406.09ZM29.87,373.23c.13,0,.27.06.4.07s0-.13.07-.2l-.53.29c-1-7.06-8.53-9.34-11-15.31C21.13,364.15,23.78,370,29.87,373.23Zm1382.05,37.91,11.56-13.8c-3.7,1.44-8.7,6.53-12.39,13.11-.56.65-2,1.29-1.08,2.13C1410.77,413.25,1411.44,411.9,1411.92,411.14ZM92.57,228.67c7-7.89,8.92-17.55,10-27.53-2.67,9.3-5,18.7-10.71,26.81-.78.57-2.27,1.05-1.26,2.2C91,230.65,92,229.39,92.57,228.67Zm1424-43.81a8.29,8.29,0,0,0-1.86,2.77c-5.64,9.64-11.81,18.75-23.61,21.71a2.9,2.9,0,0,0,0,.84c10.46-.51,20.22-10.8,25.85-25,1.13-.32.88-1.26.92-2.07,1.35-.88,1.54-2.36,2-3.73,6.89-20.22,7.83-41.11,6.76-62.16-.25-4.7-.75-9.59-3-14.06,2.54,26.9,2.71,53.55-6.18,79.49C1517.13,183.42,1516.83,184.14,1516.53,184.86Zm-66,242.49a1.47,1.47,0,0,0-1.76-.39c-1.29.46-1.7,3.45-3.26,2s.75-2.72,1.63-4a10.4,10.4,0,0,0,.65-1.3c-5,1.59-12.72,10.29-12.76,14.37l8.92-8.46c1.51,2-1.28,2.83,0,4.58,2.58-2,3.76-5.28,6.58-6.83l-.62-.73c0,.08-.09.23-.06.25C1450,427,1450.25,427.2,1450.48,427.35ZM170.21,467.79c-.53-.23-1.05-.49-1.59-.67-.07,0-.28.37-.42.57l1.75.38c6.42,4.87,13.89,5.93,21.69,6.86,10,1.18,19.83,1,29.75.83-6-2.2-12.57-.67-18.55-2.55C192.19,469.86,181.28,468.47,170.21,467.79ZM201,382.12c-1.66.33-2.88-1.75-5.13-.63,8.24,6.08,15.79,12.71,25.92,15.1a85.75,85.75,0,0,0-15.18-10c-1.05-.58-2.52-.83-1.68-2.61a8.54,8.54,0,0,1,1.91.25c10.53,4,19.85,10.23,29.43,16,1.73,1,3.5,2,5.26,3-5.38-7.81-14.61-10-21.22-16,10,4,19.3,9.68,29.34,13.58a1.91,1.91,0,0,0-.37-2.44c-9.33-8.1-20-13.85-32.15-15.81C212,381.66,206.46,379.24,201,382.12Zm134.43,73.23c14.16,7.52,29.46,11.93,44.68,16.6-7.88-4.31-16.69-6.67-24.17-11.74a41.19,41.19,0,0,1,7.93,2.52c2.62.95,5.36,1.58,8,2.54,2.46.91,4.75,2.56,8.37,1.17a78.58,78.58,0,0,1-20.34-9.31c6.16,1.87,12.81,1.3,18.68,4.47a11.45,11.45,0,0,0,8.58,1.19l-.12.24.2-.07c-11.92-4.23-23.5-9.45-36-12-1.05-.22-2.17-1.2-3.23,0-2.05,2.23-4.18,1-6.36.26-10.09-3.47-20-7.69-31-8.33a124.37,124.37,0,0,0,14.88,10.1c2.8,1.54,5.51,4,9.23,3.28Zm-309.2-10c4.68-1.15,8.21-5.06,13.15-5.57,3.73-.39,7.72-3.17,10.88,1.9.78,1.23,4.18.83,6.37,1.18.07-5.68,4.53-2.23,6.63-3.66-1.5,3.51-5.66,4.56-6.65,8.65,2.29.35,4.61,1.28,6.71.92,7-1.19,12.86,2.27,19,4.33,3,1,5.41,2.56,7.46-.66,1.48-2.34,3.25-1,4.81-.85,2.3.17,4.57,1.24,6.84,1.21s4,2.37,6.85.38c-5.62-2.32-9.18-10-16.58-4.25-.31.25-1.22-.17-1.81-.41-2.74-1.1-5.37-2.65-8.21-3.3-5.41-1.23-8.33-6.23-13.41-8-11.29-4-22.73-3.53-34.21-1.75-3.54.55-7.59.71-10.16,4.47l2.17.38c1.32.26,3.36-.77,3.65,1.42.23,1.8-2,1.26-2.87,2.2-.31.35-.67.66-1,1-.56.25-1.94-.23-1.43,1C24.73,446.55,25.75,446,26.27,445.32Zm235.18-44.85-1.19-.14.48.94c1.61,1.42,3.28,2.77,4.79,4.28.61.6,1.92,1.41,1,2.38-.6.61-1.68.31-2.85,0-3.53-1-6.4-4-11-3.74,2.25,1.43,4,2.62,5.78,3.62,5.27,2.93,9.93,7,15.88,8.67.81.23,1.59,1.31,2.37-.06,1.4-2.46,2-2.5,4.35-.81,3.51,2.5,7.09,4.91,11.72,8.1-1.72-3.4-2.79-5.57-3.9-7.72-.69-1.34-.74-2.32.76-3.31,1.88-1.24,2.22.22,2.93,1.27,2.67,3.93,4.1,8.93,9.2,10.68,1.15-1.61-1-3.24-.25-4.93,5.91,2.7,8.8,8.9,14.78,11.11-2.67-4.54-6.82-7.91-9.9-13.34,6.64,3.32,8.31,11.2,16.55,12.5-14-20.85-34.22-28.23-56.88-31.84.4,2.39,3.47,2.37,3.33,4.85C266.35,403.29,264.19,400.91,261.45,400.47ZM223.92,439l-.14-.13a2.76,2.76,0,0,0,1.73,2.7c5.82,2.75,11.6,5.58,17.41,8.35.19.09.55-.19.84-.3-.21-1.26-2.2-1.54-1.68-3.54,6.6-.06,12,5.15,19.63,4.62-7.55-4.43-14.46-8.26-22.14-10.82-8.77-2.93-17.36-6.43-25.9-10-6.39-2.66-12.45-6.08-19.46-7.09A163.32,163.32,0,0,1,147.36,409c-4.94-2.32-10.5-4.32-16.65-1.4a14.39,14.39,0,0,0,7.31,4.5c4.48,1.19,8.72,2.74,12.34,5.92,2,1.77,5.09,4.57,7.13,3.5,4.1-2.16,5.77.16,7.93,2.41a13.46,13.46,0,0,0,6.21,4c.6.16,2.11.65,2-.4-.64-4.5,2-1.64,3.38-1.66s2.69,1.77,4.53.93c-2.26-2.19-5.49-2.71-7.31-5.32.51-.21.81-.46,1.06-.42,10.28,1.54,19.09,6.94,28.47,10.85a2.91,2.91,0,0,1,1.31,1.33,7,7,0,0,0,7.21,3.48C216.76,435.73,220.11,438,223.92,439ZM180,455c-.21.65.19.74.67.7.1,0,.27-.3.26-.31-.29-.28-.54-.77-1-.28-.24-1.65-2.48-2-2.42-4,4.29-1.44,8.29,4,13,.41,1.41-1.07,5.27,2.08,5.44-2.77,0-1,1.65-.63,2.58-.25,2.53,1,5,1.83,7.14,4a15.84,15.84,0,0,0,10.21,5c-2.31-2.56-6.11-2.93-8-6,2.83.52,5.36,1.64,8,2.38,2.16.61,4.76,1.95,6-1.54,2.24,2.56,5.19-.31,7.83,1.08a9.37,9.37,0,0,0,7.3,1.17c-8.43-3.5-15.33-7.76-23.15-9.92-.86-.24-3.16-1.69-2.61.71,1.06,4.64-1.69,2.35-3.12,1.94-6.76-1.94-13.49-4-20.24-6.05-1.1-.33-2.14-.6-1.11,1.15l-1,.9-14-5.27c4.17,3.85,9.29,6.29,13.15,10.37l-1,.82c-2.18-.77-4.37-1.52-6.54-2.32-6.62-2.46-13.22-4.73-18.6-9.8-3.39-3.19-8.31-3.66-12.79-4.9-6.16-1.72-11.67,3.11-17.66,1,0,0-.21.51-.55,1.34a62.38,62.38,0,0,1,13.79,7.25c3.18,2.09,4.79,6.11,10,5.28,4.31-.68,7.29,3.36,10.83,5.37,2.12,1.21,5.43,3.76,6.28,3.13C172.43,452.67,176.13,454,180,455Zm-39.58-77.4c-.41-.07-1.12-.29-1.17-.19-.31.64.25.62.66.68-1,1.63-2.32.52-3.54.33-4.95-.79-9.68-3.3-15.17-1.88,1.78,4.66,5.35,5,9.59,4.73,9.12-.49,17.88,1.48,24.53,7.89,10.62,10.23,23.86,15.75,36.85,21.7,4.33,2,8.71,4.49,13.86,4.58-17.1-8.18-34-16.64-47.5-30.41,13.69,3.1,22.28,16,36.27,19.24-3.54-7.06-12.4-7.86-15.78-14.59,1.65-1.34,2.85,0,3.76.58,5.57,3.61,11.89,5.66,17.7,8.78,1.12.61,2.67,2.94,4,.54,1-1.79-.56-3-2-4-4.63-3.21-9.38-6.25-13.83-9.69-17.67-13.68-37.8-18.28-59.6-16.59,4.67,4.76,11.78,4.68,17.84,8C144.3,378.57,142.37,377.88,140.44,377.61Zm1367.22,21c-.29.3-.59.59-.86.91,0,0,.16.21.24.33.21-.41.42-.82.62-1.23,0-.16,0-.39.15-.45a.63.63,0,0,1,.48,0c1.43.55,2.85,1.13,5.22,2.08-1.16-1.69-1.65-2.53-2.27-3.25a22.07,22.07,0,0,0-2.43-2.5c-13-11.32-28-11.8-43.44-7.13a68,68,0,0,0-34.3,23.51c-5.07,6.44-7.33,14.13-9.67,22.44,1.14-.51,1.53-.57,1.71-.8a2.74,2.74,0,0,0,.67-1.28c1-8.09,6.9-13,11.84-18.56a1.5,1.5,0,0,1,2.17-.37A36.31,36.31,0,0,0,1451,418c3.8.76,7.46,2.16,9.28-3a12.59,12.59,0,0,1,1.69-3.52c.73-.94,1.83-2.49,3.15-1.37s-.43,1.95-1,2.81c-.33.52-.31.8.1,1.14,1.34.71,2.87-.77,4.19.31-1,4.51-4.88,6.11-8.38,8.26,2.28-.93,5.07-.87,6.19.08,2.43,2,3.64-.33,5.58-.57-1.81-.08-4-.7-3.71-2.19.78-4.61,4.83-6,8.55-7-.18-2.85-4.67-.35-4.1-4.57.69-5.06,4.3-4.42,7.19-4.63,4.53-.32,7,1.66,7.27,4.54.12,1.12.09,3.2,2.58,2a2.4,2.4,0,0,1,3.4,1.12c-.31,1.25-3,0-2.33,2.44a11,11,0,0,1,9,3.44c-.71-4.45-7.48-11.86-11.16-12.7-1.33-.3-3.8-1.82-2.87-2.08,4.41-1.19.17-2-.08-2.25a13.31,13.31,0,0,0-2.67-1.73c7.71-.32,13.61,6.72,22.38,4.63-4.74-2.91-8.22-6.7-12.18-11,4.46.45,6.74,3.19,9.33,5.35C1504,398.82,1505.54,400,1507.66,398.61Zm-45-374a30.32,30.32,0,0,0-5.31,19.22c1.15,27.56,2.72,55.12,2.4,82.73-.06,5.8,1.39,11.49,1.2,17.35-.13,3.67-1.44,7.07-1.3,10.83.46,12.23,1,24.53.83,36.71-.25,20.37-1.5,40.76-1.11,61.13.49,25.91-.67,51.86,1.42,77.74.58,7.15,1,14.31,1.53,21.67.65-.4,1.09-.54,1.11-.71.18-1.65.36-3.29.41-4.94.52-19.78-2.26-39.52-.19-59.37,1.05-10,.12-20.26.25-30.39.11-8.75.66-17.46,1.61-26.2.68-6.34,1.37-12.84.91-19.47-.53-7.8-1.88-15.57-1.45-23.48,1.14-20.91,1.63-41.82.07-62.75-.49-6.6-1.18-13.34-.8-19.83.89-15.16-.26-30.21-1-45.28-.39-7.76-1.89-15.47-2.25-23.23C1460.78,32.45,1462,28.51,1462.63,24.6ZM64.64,170.37a17.2,17.2,0,0,0,.72-2.28c1.62-9-.17-17.79-1.58-26.6-.13-.84-1.27-2.4-.12-2.34,4.58.23,2.25-3.15,2.37-4.62,1-11.81-1.7-23.52-1-35.36.52-9-.81-17.9-.7-26.84a124.24,124.24,0,0,0-1.19-20.77c-.4-2.64-1.27-4.78-3.75-6.34C61.61,87,61,128.71,64.64,170.37Zm1329.95-77a14,14,0,0,0-6.18,7.2c-3.06,8.44-3.32,17.26-3.4,26q-.23,22.53,1,45.08c.3,5.4-.23,11.77,6,15.92-1.78-16.16-2.11-31.87-2.48-47.6S1390.42,108.73,1394.59,93.34ZM778.46,441.17c-29,3.5-56.39,13.24-84.55,19.62,10,.13,19.51-2.24,28.93-4.93,11.8-3.38,23.54-6.62,35.92-7.24,6.61-.33,13.24.4,19.73-.1,10.63-.82,21.15-1.72,31.83-.7,5.61.54,11.32.09,17,.09-17.51-2.63-35.14-3-53.16-3.62C775.49,442.45,777.59,443.28,778.46,441.17ZM1438.72,456c2.85,2.63,7,3.22,9.93,6-3.21.38-5.91-.92-8.64-2-4.83-1.84-9.75-3.13-15-2.84a3.25,3.25,0,0,0-3.36,2.32c-.38,1.07,0,1.7.73,1.91,5.95,1.63,11.93,3.16,17.89,4.73-2.87-3.12-7.52-2.35-11-6,8.85,1.28,16,5.73,24.39,5.86-.44-2.44-3.24-1.55-3.63-3.62,8.78-1.9,17.12.36,25.75,2.32-1.65-2.79-4.82-2.43-6.67-4.36,4.72-1.39,9.11,3.68,14.66-.6-10.85-2.59-20.59-7.32-31.24-1.93a1.4,1.4,0,0,1-1.82-.21C1447.36,453.48,1443,455.59,1438.72,456ZM114,133.7c-2.36,1-2,2.34-2,3.4-.32,11.07-2,22-1,33.23.88,10-1.08,20.24-2.32,30.22-2,15.79-3.77,32.39-20.75,41.2,2.93,1.51,4.7,0,6.48-1.5,5.77-4.85,9-11.32,11.59-18.18,4.45-11.68,6.49-23.8,7.38-36.25C114.6,168.58,113.89,151.37,114,133.7ZM234.83,431.78c1.74,1.11,3.44,2.26,5.21,3.3,7,4.13,15.31,5,22.37,9,3.33,1.9,3.49,1.75,6,.21a1.75,1.75,0,0,1,1.36.06c1.35.62,2.62,1.45,4,2,6.52,2.53,13.07,5,20.13,5.71-9.92-3.46-17.61-11.07-27.74-14.14A156.38,156.38,0,0,0,234.83,431.78ZM281.32,471c-1.63,0-3.27,0-4.9,0a79.54,79.54,0,0,1-27.34-3.89,22.16,22.16,0,0,0-11.81-.84c-4.13.94-8.17.51-12.26.66-8.21.3-16.19-1.83-24.39-1.92a133,133,0,0,0,42,8.83c-1.18-1.1-3.33-.45-3.66-3.14C253.16,471,267.15,473,281.32,471Zm1213-272.24c11.75-6.16,16.13-17.45,19.31-29a146.35,146.35,0,0,0,4.9-37.8,255.57,255.57,0,0,0-2-36.4c-1.33,1-1.37,2-1.73,2.91-1.56,4,.72,7.64,1,11.41a283,283,0,0,1,.38,29.27c-.47,11.37-1.45,22.73-5.3,33.62A72.1,72.1,0,0,1,1494.35,198.77ZM169.15,234.26c-1.84,4.18-1.33,8.58-.94,12.85,1.61,17.87.9,35.75-.78,53.52-1.12,11.88,1,23.33,2.37,35C167.12,301.82,174.59,268,169.15,234.26ZM38.61,232.65C29.38,225.44,23.88,216,21,204.75,17.66,192,17.44,179,17.13,165.91c-.25-10.39,0-20.8-1.5-31.51A24.24,24.24,0,0,0,14.2,144c.35,13.27.47,26.54,1.8,39.75,1.11,11,2.63,22.05,7.1,32.28C26.26,223.24,29.92,230.39,38.61,232.65Zm1408.05-34c2.83-4.92,1.82-91.42-.82-95.47C1445,135.11,1446.36,166.82,1446.66,198.63Zm-460.44,265c-31.64-3.74-63.23-7-94.87-.54C923,460.67,954.65,462.28,986.22,463.59ZM19.34,298.33c3.18,12.89,3.31,26.58,10.55,38.31-2.1-5.31-.28-11.1-3.17-16.3,2.91-.27,1.75,2.9,3.78,2.62,1.15-.46-.36-2.24,1.4-2.52l3.52,10.44c.09-4.7.22-9.73-1.85-13.57C29.87,310.4,23.46,305.26,19.34,298.33Zm37.75-181-1.42.07c-1.09,35.68-1,71.36-.12,107h1.54Zm1372.27,356.5c-17.9-8.4-35.07-6.82-52.32-1.48C1394.29,469.51,1411.26,477.93,1429.36,473.84Zm8.69-421.3c.16,14.08-4,28.15.14,42.69,3.26-5.64,6.26-11.07,5.18-17.35a24.87,24.87,0,0,1,.67-10.59c1.45-6,.26-12.17-.11-18.28-3.46,11.43.34,23.61-3.85,35C1438.3,73.57,1439.15,63,1438.05,52.54Zm-42.14,98.2a7.12,7.12,0,0,0-2,6.44c1.28,9.68,2.43,19.38,3.9,29,2.19,14.38,6.76,27.68,18.22,37.58,2.32,2,4.69,4.19,8.4,3.09-10.78-5.61-16.39-14.59-19.9-24.36a140.39,140.39,0,0,1-7.8-39.19C1396.51,159.33,1397.26,155.16,1395.91,150.74ZM1156.27,454.6A3,3,0,0,0,1153,453a228.53,228.53,0,0,0-32.34,1.58c-13.46,1.62-26.71,5.1-40.44,4.49-1.94-.09-3.92.82-5.88,1.26l.21,1Zm-866.63.45c18.86,7.65,37.84,14.7,58.39,15.9C329.06,463.81,309,460.69,289.64,455.05Zm1153-161.7c2.59-2.67,2.24-5.1,2.17-7.36q-.55-15.64-1.32-31.29a53.16,53.16,0,0,0-.86-6.89c-.16-.89-.55-2.17-1.73-2.05-1.34.14-1.05,1.45-1,2.4.06,7.47-.16,15,.29,22.4S1441.7,285.2,1442.62,293.35Zm-513,163.13c6,1.2,11.06-2.08,16.63-2.33s11.24-.06,16.87-.06c-17.68-5-35.3-2.32-52.94-.65,8.4.55,16.74,2.39,25.27,1.21Zm326,10.68c16.25-1.23,32.57,1.56,48.54-.49-4.57-3.07-9.22-6.1-15.85-3.15-2.08.92-5.43,2-8.12,1.21C1271.74,462.23,1263.92,467.05,1255.61,467.16ZM138.35,454.9c-1.63-4-6.63-4.66-5-9a4.55,4.55,0,0,0-1.54-.9c-9.85-3.65-20.06-2.66-30.27-2.32C113.89,445.37,125.74,449.67,138.35,454.9ZM1444.42,296.67l-2.59.14c.41,25.73,3.66,51.38,3.74,77.13.27-12.86.45-25.72.21-38.58S1444.9,309.57,1444.42,296.67Zm-1378-94.33c-3.14,6.62-2.6,44.08.43,48.5.36-3.68.94-7.09,1-10.5C68,228,68.3,215.58,66.46,202.34ZM248,294c-3,8.47-2.5,47,.62,52.77C247.13,329.21,249.15,311.62,248,294ZM43,109.17c3.25-19.42.14-39.18,3.84-58.52C44.12,54,43.93,58,43.37,61.86c-1.2,8.14-2.73,16.36.73,24.43a3.92,3.92,0,0,1,.16,3.27A31.05,31.05,0,0,0,43,109.17ZM1503,446.74c3.23-2.26,3.92-4.55,4.76-6.56,1.62-3.88,3.46-7.19,7.94-8.47,1.83-.52,3.42-2.91,4.79.41l2.88-6.56c-2.94.76-1.68-3.37-4.47-3.59-4-.31-6.67,1.89-9.4,3.67-2.28,1.48,1.06,2.8,1.25,4.21.17,1.26-1,2.73-1.58,4.07C1507.31,437.8,1505.43,441.66,1503,446.74ZM167.28,403.35c-14.21-11.66-33.18-20.22-42-19.45Zm125.8,61.32a85.55,85.55,0,0,0-37.21-8.3C268,460.46,279.74,466.17,293.08,464.67Zm1190.69-201.1c-3.48,9.6-3.59,37.18-.4,40.35C1485.48,290.72,1484.41,277.55,1483.77,263.57ZM65.28,360.93A18.41,18.41,0,0,0,67,350.85c-.42-4.94-1.24-9.8-.82-14.83.37-4.27,0-8.61-.06-12.93s0-8.61,0-12.92l-1.9,0C60.93,327.11,64.87,344,65.28,360.93Zm-30.92,9.63c-6.75-18.91-20-34.46-27.14-53.18C13.15,336.71,24.14,353.44,34.36,370.56ZM1131.19,461.8c-20.57-.72-40.31,3.81-59.86,9.49C1091.28,468.1,1110.92,463,1131.19,461.8ZM1516,239.36c-3,14.14-.63,27.44-2.7,40.49a104.74,104.74,0,0,0,4.44-16.74,9.38,9.38,0,0,0-.39-2.86c-1,.58-2.23,1.29-2.45-.7-.16-1.44,1.2-1.77,2.11-2.44a2,2,0,0,0,.72-1.63C1516.14,250.66,1518.85,245.53,1516,239.36ZM387.67,473.24c10.26,1.56,19.49.63,29,.74C407.37,466.61,398.11,468.19,387.67,473.24Zm954.61-3.56c13-2.89,26.66-2.74,39.21-7.77C1367.53,460.34,1355.35,467.09,1342.28,469.68ZM103.59,466.1c15.49,3.46,31,6.34,47,3.11C135,467.48,119.15,468.6,103.59,466.1Zm1372.13-99.8c4.91-14.56,2.65-29.87,4-44.84C1478.16,336.37,1475.08,351.11,1475.72,366.3Zm-35.35,104.45c-11.85-4.78-23.3-10.7-36.52-9.25C1416.36,463.41,1427.85,469.39,1440.37,470.75Zm-.82-294.09c-.43,7.18-1.36,14.36-1.16,21.52.19,6.79-.56,13.72,1.38,17.46C1441.82,204.62,1439.39,190.66,1439.55,176.66ZM200.74,270.16c-.47,12.06-2.52,23.73-7.69,35.06C199.53,302.14,204.12,282.49,200.74,270.16ZM49.62,252.69c-3.71,12-.59,23.83,0,35.73ZM1446.68,208a109.87,109.87,0,0,0,1.19,31.16C1447.08,228.77,1449.29,218.27,1446.68,208ZM134.36,257.38c-1,5.18-2.14,10.33-2.92,15.54a67.55,67.55,0,0,0-.26,8.43c0,.91.23,1.58,1.34,1.57.73,0,1.19-.18,1.33-1C135.26,273.81,135,265.64,134.36,257.38ZM1395,149.47c.82-12.3.42-24.59,1.63-36.85C1393.7,124.85,1393.67,137.17,1395,149.47ZM65.32,295.1c-.4-11.38,0-22.78.13-34.18C63.23,272.29,64.61,283.7,65.32,295.1Zm1076,165.38,0,1.62h32.41A102.79,102.79,0,0,0,1141.32,460.48ZM80.18,317.47c-5,13.51-2.31,27.47-2.57,41.26Q78.9,338.09,80.18,317.47ZM50.3,326.58c1.05-9.41.21-18.84,1.37-28.21.2-1.62-.7-2.66-2.7-2.95C51.18,305.86,47.16,316.34,50.3,326.58ZM250.2,415.3c5.48,6,13.59,7.36,20.08,11.57C265.75,419.18,257.49,418.1,250.2,415.3Zm-147-240.91,1.86,0V142.86C103.24,153.28,104.25,163.89,103.16,174.39ZM800.38,439.87c-10.46-1.29-20.79-2.62-31.1,0ZM1526.1,248.55c0,8.85-.14,17.74-.2,26.64C1527.92,266.34,1529.68,257.49,1526.1,248.55ZM1363.63,435.22V414.6C1355.77,421.36,1361.27,428.33,1363.63,435.22ZM157.21,311.74c-2.51-2.71-5.76-1.95-8-3.7s-4.57-3.28-6.13-5.75c-1.37-2.16-2.94-4.19-4.42-6.27C140.66,305.75,148.88,312.51,157.21,311.74ZM1507.89,157.56a69.29,69.29,0,0,0,3.23-30.86C1509.27,136.9,1510,147.4,1507.89,157.56Zm-114.61,42.7c1.08,9.15,6,16.19,12.84,22.17C1401.1,215.44,1397.37,207.75,1393.28,200.26ZM79.73,244.12a40,40,0,0,0,.48,20.21C79.68,257.6,81.44,250.81,79.73,244.12ZM849.2,465.35c-8.12-.6-15.87,2-23.82,2.82C833.65,470,841.44,467.76,849.2,465.35ZM9.72,164.64c-1.61,10.28-.52,26.45,1.79,30.22C10.2,185.21,12,175.42,9.72,164.64Zm1470.73,55.41c-3.39,7.91-2.46,16.4-3,24.73C1479.36,236.67,1478.9,228.28,1480.45,220.05ZM55.82,88.3c-2.35-8.6,1.88-17.6-1.42-26.18C54,66.46,54,70.78,54,75.1A38.09,38.09,0,0,0,55.82,88.3ZM79.39,292.84A50.89,50.89,0,0,0,79.51,313,72.19,72.19,0,0,0,79.39,292.84ZM18.74,323.28c-2.63-10.63-3.74-12.87-9.9-20.5A63.71,63.71,0,0,0,18.74,323.28ZM24.3,294c4.29,5,7.63,10.93,14,13.83C34.38,302.47,30.66,296.9,24.3,294ZM1438.05,100.09c-.34,5.68-1.69,11.38.46,17C1439.25,111.42,1439.52,105.75,1438.05,100.09Zm-51.69,344c-.2-.42-.41-.84-.62-1.26-7.21,1.91-14.17,4.47-20.21,9.47Zm19.69-11.91c-5.57,1.95-11.45,3.46-16.12,7.65C1396.08,439.11,1401.65,437.11,1406.05,432.13ZM35.89,388.33c-6.28-4.46-12.22-9.54-19.78-12C21.66,382,28.92,384.91,35.89,388.33Zm72.39-253.61c.55-6.27,1.31-12.51-.77-19.47C105.56,122.51,106.78,128.65,108.28,134.72ZM857.36,465.93l24.15-2C873.32,463.15,865.12,462.29,857.36,465.93ZM86.42,370.15l21.13-2C100.3,367,93.15,366.61,86.42,370.15Zm-1.36-10.73,1.24.07a50.37,50.37,0,0,0-1.24-23.78ZM1477.55,160.33v32C1478.6,179.2,1476.12,167.09,1477.55,160.33ZM46,159.41c.13-6.71,2.2-12.55-.32-18.31C44.81,146.83,43,152.54,46,159.41ZM1452.29,34.07c.39,5.82-1.33,11.71.17,18.18C1453.24,45.72,1455,39.87,1452.29,34.07ZM65.65,196.12c1.25-4.62.51-9.08.68-13.48,0-.84-.11-1.79-1.17-1.87-1.23-.1-1.16,1-1.15,1.74C64.08,187,63,191.64,65.65,196.12Zm-56.29-70v18.15C12.17,138.25,10.16,132.25,9.36,126.11ZM1411.24,446.44a11.64,11.64,0,0,0-12.9,5.22A52.46,52.46,0,0,0,1411.24,446.44ZM46.76,119.61c-2.08,3.9-2.43,11.83-.8,18.89C47,131.65,46.71,125.93,46.76,119.61ZM1385.12,449.39c6.37-2.07,12.75-4.15,17.29-9.59Zm89.24-330.33c.17-6.49,1.86-12.82.69-19.29A61.26,61.26,0,0,0,1474.36,119.06ZM162.24,343.52V359A22,22,0,0,0,162.24,343.52ZM1439.3,145.71c1.17-6.6-1-14.15-.5-19.38C1441.7,131.43,1437.77,139.21,1439.3,145.71Zm-48.18,266.21c1.88-3.9,4.81-6.37,5.75-10.15C1390.75,402,1390.46,402.44,1391.12,411.92Zm107.3,47.91c-4.93-2.13-9.54-5.41-15.31-4.32C1488.07,457.48,1492.84,460.08,1498.42,459.83ZM164.36,230c-1.81,2.5-.53,7-1.42,11.3-.19.91-2,2.05-.09,2.64,1.72.52,2.12-1.09,2.1-2.51C164.9,237.06,165.55,232.68,164.36,230ZM1509,334c-2.16,4.62-.46,8.33.09,13.23C1510.86,342.27,1511.82,338.52,1509,334ZM6.45,159.9c.54-5.34,1.19-10.68-1-16.71C4.48,149.42,6.26,154.61,6.45,159.9ZM90.16,330.76c1.88-4.35,2.72-8.55-.64-13.61C89.77,322.42,90,326.59,90.16,330.76Zm1344.78,90.83c-4.68,5.19-7.16,12.19-6.45,16Q1431.73,429.56,1434.94,421.59Zm43.23-271.47c2.1-4.91,1.59-9.92,1.33-14.92C1477.3,140.05,1477.84,145.12,1478.17,150.12Zm-1355,9.29c-2.42,5.34-2.42,5.34-1.17,8.68C122.47,164.7,122.82,162.06,123.18,159.41ZM19.66,393.5c-2.61-1.9-5.59-2.28-8.82-3.26C13.12,393.87,15,397.48,19.66,393.5Zm99.57-185.76c3.45-11.46,3.66-13.75,1.58-18.52C121.68,196,119.37,201.74,119.23,207.74Zm1184,249.77,9.6,2.94c.93.29,1.67.09,1.83-.94.12-.84-.58-1.05-1.26-1.18C1310.23,457.73,1307.14,456.21,1303.25,457.51Zm173.56-201.06c-.49,4.39-1.17,8.79-1.68,13.2C1477.4,265.47,1476,260.81,1476.81,256.45ZM234.29,412.92c2.93,4.28,6.88,4.08,10.59,5.42C242.84,413.31,238.59,414.17,234.29,412.92ZM1434.77,278.45c-1.34,8.08-1.26,8.66,1.3,12.3C1435.59,286.23,1435.18,282.34,1434.77,278.45ZM77.53,179.36c1-7.62.32-14.48,0-21.34A113.55,113.55,0,0,0,77.53,179.36ZM1417.93,237c3,3.1,3,3.1,7.09,2.86C1422.4,239.13,1420.66,237.08,1417.93,237Zm-38.66,181.09c2.51-3.39.86-7.37,2.08-10.84C1378.3,410.37,1377.36,413.88,1379.27,418.07Zm25.93-11.48c-.35,3.33-3.89,5.36-3.47,10.36C1403.9,412.88,1406.58,410.52,1405.2,406.59Zm25.62-141.94c.71-3.82,1.92-7.76-1.3-12.35C1430,257.29,1430.43,261,1430.82,264.65Zm54.45,197.18,10.4,2.54C1492.48,462.19,1489.08,461,1485.27,461.83Zm-6.7-390.26c-2.27,3.64-1.63,6.28-1.22,9.58C1479.13,78.08,1478.54,75.44,1478.57,71.57ZM1474.2,49.3c2-4.16,2.33-7.07.12-10.84C1473.4,42.22,1473.83,45.14,1474.2,49.3Zm-37,306.77c1.87-3.63,1.47-7.11,0-11.18Zm-57.89-204.45c-.08,4-1.38,8,1,12.67C1381.66,159.29,1379.23,155.57,1379.29,151.62ZM160.4,271.31c.49,3.36-1.49,6.6-1,10C160.88,278.17,161.85,274.89,160.4,271.31Zm1309,2.84c0,2.55.84,7.16,0,10.81C1467.69,281.5,1470,277,1469.41,274.15ZM182.69,369.64a15,15,0,0,0-5.91-6.9C177.36,367,180,368.38,182.69,369.64Zm1167,64.52c.58-4.24,0-6.75-3.75-8.87ZM1478.25,69.27c1.36-2.57.78-5-1.11-7.11C1476,64.85,1477.49,67.2,1478.25,69.27ZM191.43,369.08c-2-2.92-2.73-5.24-5.3-6.93C187.5,366.81,187.5,366.81,191.43,369.08ZM235.76,348c-1.1-3.89-4.07-4-5.62-5.62C231,344.78,232.76,346.15,235.76,348Zm38.79,24.29c-2.19.66-3,1.38-3.73,3.14C272.74,374.94,273.54,374.24,274.55,372.29Zm-.94,11.2a3.81,3.81,0,0,0-.91-.21,3.59,3.59,0,0,0-.89.21,5,5,0,0,0,1,.33C273.06,383.83,273.31,383.62,273.61,383.49ZM118.67,209.31c-.19.17-.49.32-.51.5a2.23,2.23,0,0,0,.24.83c.17-.17.47-.32.49-.5A2.1,2.1,0,0,0,118.67,209.31ZM1450.26,38.4l0-.44.13,0Zm-17.63,2.8.89-.4a4,4,0,0,0-.67-.43.55.55,0,0,0-.41.16A3.57,3.57,0,0,0,1432.63,41.2Z"/><path class="cls-1" d="M1443,487.94c.82-.48,1.61-1.29,2.47-1.38a203.28,203.28,0,0,1,22-1.36l-2.75,1.76-2,.42a1.94,1.94,0,0,0-2.46.46C1454.58,487.77,1448.81,488.72,1443,487.94Z"/><path class="cls-1" d="M204.34,337.59l1.16-1.35c.65.83.29,1.4-.49,1.85Z"/><path class="cls-1" d="M268.92,363l.77-.56c0,.37-.08.75-.13,1.12A4.21,4.21,0,0,1,268.92,363Z"/><path class="cls-1" d="M488.49,486.19h14.42C498.4,487.07,493.88,488.06,488.49,486.19Z"/><path class="cls-1" d="M1463,397.2c-5.2,6.24-11.81,11.12-16.61,17.74,2.32-8.82,6.88-15.65,16-18.47A8.42,8.42,0,0,0,1463,397.2Z"/><path class="cls-1" d="M1466.79,408.13c.62.14,1.37.41.9,1.13s-1.19.87-1.81,1.29c-.24-.35-.67-.71-.67-1.07C1465.22,408.52,1466,408.22,1466.79,408.13Z"/><path class="cls-1" d="M1462.35,396.47l1.76-.19c.1.9-.67.73-1.15.92A8.42,8.42,0,0,1,1462.35,396.47Z"/><path class="cls-1" d="M102.85,407.82c2.5,1.26,5.14,2.1,7,4.25,1.25,1.46.74,2.35-.1,3.15-1.19,1.15-1.51-.45-2-1C106.06,412.1,104.48,410,102.85,407.82Z"/><path class="cls-1" d="M69.15,401.43l-6.56,2.13C64.26,399.66,65,399.44,69.15,401.43Z"/><path class="cls-1" d="M92.44,424.65l-1.2-1.32c.88-.57,1.47-.3,1.8.66C92.84,424.22,92.65,424.44,92.44,424.65Z"/><path class="cls-1" d="M69.78,403.84a9.54,9.54,0,0,1,.86-.84c.76.6.2,1-.27,1.43Z"/><path class="cls-1" d="M147.48,378.72l-.31-.15.32-.45.3.31Z"/><path class="cls-1" d="M145.65,439.07c7.55.54,14.55,5.62,15.11,10.52Z"/><path class="cls-1" d="M186.68,442.47l1.49,1.36-.67.78-1.84-1.24Z"/><path class="cls-1" d="M188.17,443.83c.59.3,2,.07,1.38,1.21-.4.75-1.38-.07-2.05-.43Z"/><path class="cls-1" d="M184.77,448.47l1.11,1.41a1.6,1.6,0,0,1-2.14-.59Z"/><path class="cls-1" d="M223.92,439c.46-.56.2-2.36.84-1.79,3.26,2.9,8.41,1.14,11.24,4.78l.13-.07c-4.16-.81-8.47-1-12.34-3.05Z"/><path class="cls-1" d="M236,442l.46.67H236c0-.24.08-.48.13-.73Z"/><path class="cls-1" d="M330.74,453.27l-4.7-1.66c2.35-1.32,3.95-.19,5.56.84Z"/><path class="cls-1" d="M332.59,454.41c-.78-.11-1.54-.26-1.85-1.14l.86-.82,2,1.09Z"/><path class="cls-1" d="M334.48,454.46l1,.89-.69.87-.92-1.08C334.08,454.92,334.28,454.7,334.48,454.46Z"/><path class="cls-1" d="M333.86,455.14l-1.27-.73,1-.87.92.92C334.28,454.7,334.08,454.92,333.86,455.14Z"/><path class="cls-1" d="M1508.2,368.44c-1.57,1.24-2.25,3.57-5,4,0-3.1,1.66-4.26,4.24-4.68Z"/><path class="cls-1" d="M1507.48,367.72l1-.3c-.11.34-.21.68-.32,1Z"/><path class="cls-1" d="M205,384.07c-1.41.78-2.39.21-3.14-1C203.57,381.5,204.24,383,205,384.07Z"/><path class="cls-1" d="M202,383.13c-.75,0-1.07-.43-1.1-1.13C201.46,382.21,202.53,381.9,202,383.13Z"/><path class="cls-1" d="M184.12,473.77c2.35-2.82,4.26-2.22,6.17-1.11.54.31,1,.93.38,1.53C188.59,476.06,186.77,474,184.12,473.77Z"/></g></g></svg>