<svg xmlns="http://www.w3.org/2000/svg" viewBox="0 0 810.01 1261.09"><defs><style>.cls-1{fill:#eadcc0;}.cls-2{fill:#030304;}</style></defs><title>Ativo 12</title><g id="Camada_2" data-name="Camada 2"><g id="Camada_1-2" data-name="Camada 1"><path class="cls-1" d="M634.06,18.35c-13.61-8.27-35.35-7.75-46.24,4-8.31,9-7.71,21.62-7.27,31.05,1.05,22.08,10.88,26.19,15.85,49.54,2.36,11,1.35,23.66-.66,48.88-2.89,36.39-8.24,45.35-10.56,48.88-2.09,3.17-13.77,20.9-29.07,20.48-8.52-.23-12.66-5.95-23.12-13.21,0,0-12.7-8.83-42.27-17.84-27.78-8.46-76.56-9.43-116.92,19.16-23.4,16.57-13,26-42.94,51.52-19,16.23-32.92,21.4-46.9,42.28-6.31,9.43-8.38,15.71-14.53,31-10.23,25.53-22.51,50.18-33.69,75.31-30,67.44-34,73.63-42.93,81.24-12.64,10.77-17.59,9.39-42.28,27.75a357.93,357.93,0,0,0-40.29,35c-37.36,37.08-62.15,61.69-76,101.72-4.42,12.79-20.59,61.93-.66,115.6,8,21.52,16.39,44.14,38.31,59.45,14.77,10.31,28.62,12.38,37,28.4,7.5,14.36,6.1,31.32,5.94,33-1.26,13.62-6.26,16.33-5.94,27.74.35,12.73,6.93,22,11.89,29.07,12.23,17.32,30,27.4,39,32.36,11.94,6.62,15.24,6.29,17.84,11.23,7,13.31-7.56,33.5-13.88,42.28-7,9.76-12.49,17.35-19.81,17.17-9.05-.22-11.68-12.07-23.12-21.14-15.91-12.6-37-10.53-43.6-9.9-36.06,3.42-65.06,42.32-72,77.61-10.59,53.87,30.58,97.36,41,108.33,60.63,64.07,154.44,55.19,175.7,53.17,18.08-1.71,121.75-10.7,166.79-83.89,33-53.6,21.35-120.17,40.3-122.53,10.54-1.31,15.27,19.2,33.35,31.71,45.17,31.27,125.61-17,133.43-21.8,64.28-39.1,104-112,111.64-180,5.68-50.42-10.67-58.87-2-116.92,6.4-42.82,18.2-57.6,45.57-122.86,41.91-99.91,62.86-149.86,58.46-207.08-1.53-20-6.47-74.41-46.57-119.89-14.75-16.73-36.16-41-70.35-48.55-28.39-6.26-50,2.49-56.47-8.92-5.36-9.4,6.65-20,14.86-50.53,3.34-12.42,4.21-23.48,6-45.58,2.08-26.48,4-53.55-1-87.19C651.11,43.81,648.32,27,634.06,18.35Z"/><path class="cls-2" d="M570,1068.1c-8.21,3.11-17.23,1.09-25.47,4-1.38-2.35-3.66-1.92-5.78-1.77-8.54.62-17.09,1.16-25.61,2-4.79.46-8.75-1.06-13.06-3.87,4.37-.45,8.12-.57,11.45-2.6-7.47-1-14.87.13-22.34-.48-10.77-.88-20.79-3.35-30-8.89-2.26-1.36-3.08-1.08-3.8,1.29-3.45,11.4-9.32,21.71-14.72,32.22-4.11,8-9.1,15.6-12.64,23.83-4,9.21-8.73,17.65-16.4,24.16-2.55,2.17-5,4.28-6.74,7.15-4,6.61-10.1,11.33-15.59,16.56-13.67,13.06-31.6,19.13-47.55,28.4-17.15,10-36.37,15.38-54.87,22.2-16.47,6.09-32.3,14.35-50.05,16.7-.53.07-1.52-.13-1.69,1.09,1.2.06,2.36.2,3.51.16a233.31,233.31,0,0,0,33.87-4.14c13.4-2.44,27.21-3.46,39.57-10.11a19.62,19.62,0,0,1,9.09-2c1.62,0,1.95.82,1.84,2.15-5.73,7.59-14.45,8.92-22.83,11.09-5.67,1.47-11.24,3.32-16.86,5-2-1-2.61,1.46-4.09,1.69-5,.77-10,1.32-15,2.27-7.8,1.49-15.74.93-23.6,1.71-7,.7-14.21,2.33-21.29.9-3.68-.75-7.48-1.31-10.85-.48-8.2,2-16.05-.37-24.05-.73-7-.32-13.67-2.31-20.61-2.79-1.31-.09-2.13-.18-2.9,1-.92,1.39-.56,2.33.48,3.49,1.87,2.1,3.59,3.57,6.8,2.44,5.25-1.84,9.58,2,14.36,3.07-25.6,2.69-49.58-2.56-72.48-13.83.82-2.36,3.79-1.91,3-3.87a5,5,0,0,0-3.52-2.41c-5.89-.59-10.89-3.59-16.27-5.55-.79-.29-1.83-1.47-2.63-.34-4.13,5.88-8.08,1.94-12.24,0-3.29-1.52-5.73-4.76-9.73-4.82l0,0c-.31-3.4-3.51-3.79-5.62-5.15-6.74-4.36-12-10.47-18.09-15.52-11-9-23-17.3-26.07-32.82-.48-2.45-2.08-4.84-3.64-6.89-5.33-7-8.64-14.35-6-23.39a7.3,7.3,0,0,0-.14-4.91c-2.52-4.95-2.76-10.44-4.28-15.57-3.14-10.55-5.32-21.09-4.71-32.16.33-5.9.24-11.84,3.33-17.17.71-1.24.69-3.35,3.24-2.65,2.27.63,1.92,2.06,1.82,3.76-.17,3.2-.6,6.49,1.66,9.64,3.74-6.55,7.11-13.17,11.14-19.36,7.27-11.19,14.37-22.42,25.87-30.24,5.31-3.62,11.15-5.64,16.65-8.56,19.73-10.48,39.71-9.79,59.61-.87a75.12,75.12,0,0,1,23.94,17.47c4.22,4.49,6.9,4.23,9.15-1.26,4.66-11.34,6.27-23.18,3.72-35.34-.2-1-.32-2.85-2.31-2.48-10.82,2-18.8-3.52-25.94-10.38-6.07-5.84-10.59-13-14.63-20.41a120.67,120.67,0,0,1-13.92-42.27,83.58,83.58,0,0,1,1-29.63c1.49-6.71,1.57-6.69-5.12-8.83a5.48,5.48,0,0,1-.88-.33c-14.33-7.58-27.33-16.64-38.67-28.58-13-13.64-22-29.67-30.59-45.91-6.16-11.57-9.9-24.23-13.42-37C10.46,748,8.31,728.84,10.21,709a217.38,217.38,0,0,1,7.37-39.71,221.25,221.25,0,0,1,19.76-47.83,267,267,0,0,1,33.75-47.14,256.22,256.22,0,0,1,21-20.38c9.24-8.18,18.39-16.47,27.57-24.72s19.3-14.9,28.52-22.91c5.9-5.12,10.6-11.28,16.32-16.4,11.23-10,21.83-20.55,30.07-33.23,7.8-12,15.72-24,21.54-37,12.66-28.31,26.75-55.91,40.06-83.9,12-25.3,24-50.64,42.07-72.4,10-12,19.54-24.48,31.55-34.53,24.41-20.43,51.42-36.12,82.08-45.72,19.82-6.2,40.05-8.9,60.49-10.55,17.61-1.43,34.29,3.43,50.46,10.05,10,4.08,19.19,9.26,25.77,18.12,3.74,5,5.54,5.49,9.39.41,4.75-6.28,10.78-11.47,15.1-18,6.31-9.55,11.67-19.63,13.15-31.21a169.11,169.11,0,0,0,0-39.78c-2.06-19-5.5-37.71-16.51-54.09-2.26-3.36-4.42-6.75-6.79-10-3.34-4.62-.89-10.15.91-15.12,7.76-21.44,35.82-37.16,57.63-31.71,16.06,4,29.14,11.51,38.65,24.75,12.58,17.5,13.26,37.93,11.67,58.16-1.2,15.22-4.33,30.34-5.35,45.61-1.26,18.66-1.64,37.38-2.19,56.08-.63,21.13.44,42.25.89,63.37.07,3.27,1.36,4.31,4.31,4.68,5.76.74,11.56.79,17.28,2.12,37.92,8.84,65.17,31.67,84.3,64.77,15.42,26.68,21.19,56.14,23.15,86.52a209.48,209.48,0,0,1-1.84,46c-2.67,17.18-5.65,34.28-9.87,51.12-7.89,31.48-20.93,60.91-36.28,89.37S716.69,651.28,706,681.94c-8,22.73-13.88,46-16.52,69.9-2.1,18.94-3.64,38-4,57-.39,23.3-1.25,46.42-6.12,69.32-3.72,17.47-8.12,34.7-16,50.77a221.69,221.69,0,0,1-35.47,51.68,141.69,141.69,0,0,1-50.38,35.45c-4.57,1.94-8.67,4.63-13.15,6.66a3.2,3.2,0,0,0-1.9,4.15c.73,1.94,2.24.6,3.42.61,5.91.09,11.28-1.84,16.67-4.09,5.08-2.12,9.54-5.26,14.39-7.72,22.93-11.61,41.17-29.05,57-48.63,16-19.78,26.23-42.94,33-67.56a255.12,255.12,0,0,0,9.09-65.28,686.25,686.25,0,0,1,5.27-82,207.4,207.4,0,0,1,7.36-35.2c2.19-7.06,4.57-14.07,5.9-21.41a146.65,146.65,0,0,1,6.56-22.76c.69-2,1.82-3.59,3.75-3.12,2.23.55.94,2.6.92,4.19,0,5.78-3.13,11.23-1.55,17.21,1,4,1.52,8.06,2.25,12.1.13,2.94-1.65,4.05-4.22,4.31-8.6.88-9.23,1.63-7.14,10a23.19,23.19,0,0,0,3.05,7.26,13.54,13.54,0,0,1,.63,14.81c-1.84,3.4-2.44,7.09-1.39,10.05,2.19,6.14-1.81,10.81-2.51,16.19a81,81,0,0,0-.06,19.74c.61,5.23,1.15,10.42,2.28,15.58a9.89,9.89,0,0,1-1.85,8.49,7.36,7.36,0,0,0-1.17,5.71c2.49,18.82,1.37,37.6-.75,56.35-1.25,11-2.41,22-4.28,32.94-1.37,7.95-1.28,17.14-7,23-5.1,5.29-5.12,12-8.57,17.55-1.18,1.9-2.14,3.64-.4,6.32,1.1,1.7-.78,4.6-2.8,6.06a19.67,19.67,0,0,1-6,3.33c-7.18,1.9-10.86,7.34-14,13.33-.59,1.16-1.41,1.06-2.11,1.58-1.11.81-3.79.68-2.45,3.09,1.09,2,2.79,3.47,5.16,1.24a10.39,10.39,0,0,1,1.77-.91c-.67,3.72-2.63,6.05-5.52,6.82a10.05,10.05,0,0,0-5,3.14c-2.44-.69-4.4.62-6.14,1.85A144.16,144.16,0,0,0,636,1008,175,175,0,0,1,591,1041.09c-15.63,8.14-31.86,15.62-49.36,19.49-1.07.24-3.53-.21-3.29,2,.21,2,2.13,1.59,3.61,1.68q11.24.66,22.47,1.41C566.53,1065.85,568.72,1066,570,1068.1Zm-185.55,40.24a.94.94,0,0,0,.9-1.1c4.76.39,4.86-4.3,7-6.65,3.49-3.8,6.54-8,7.56-13.46l-15,19.55-1.06,1.07c-.41.52-1.4,1-.17,1.67-.27-.53-.65-.59-1.07-.21-.1.1-.09.31-.13.47.35-.12.69-.23,1-.36ZM168.14,519.62c-.27-1-.88-1.18-1.63-.52-.17.14-1.1.53-.22.86.48.17,1.15-.2,1.7-.33-.17-.82,1.39-1.49.23-2.4,2.82.36,3.92-2,5.55-3.52.11-.39.38-1.06.3-1.11-.6-.33-.71.16-.8.61a7.43,7.43,0,0,0-4.91,4.09C167.38,518,166,518.64,168.14,519.62ZM141.89,540.9c-1.95,1.55-4.34,2.66-6.61,6a14.13,14.13,0,0,0,7.17-5.5c1-.23,2.31-.72,1.54-1.72C143.39,538.89,142.56,540.35,141.89,540.9Zm55.83,70.82c-2.77,1.69-4,4.7-5.92,7.07a47.66,47.66,0,0,0-7.66,12.31,38.69,38.69,0,0,0,8.36-11.66,19,19,0,0,0,5.89-7.12c1.21-.8,2.48-1.54,2.82-3.42A5.62,5.62,0,0,0,197.72,611.72ZM370.28,1008c-1.34,3.27-3.9,6.13-3.72,10.35,3.41-3.09,4-5,3.57-10.25l.26,0ZM234.71,1128.57c-2.73-.54-4.73-2.55-8.38-1.07-6.35,2.56-10.85,7.42-16.41,10.88-.68.42-1.89,1.66-.84,2.74a2.53,2.53,0,0,0,3.17.45c7.7-4.07,15.83-7.38,22.51-13.15l-.2,0ZM717.8,534.78c1.14.48,1.28-.27,1.58-1.13,1.84-5.31,4.07-10.77,8-14.58,2.77-2.71,3.35-5.41,2.82-8.2-.74-3.85-.65-7.74-.89-11.72-1.75.56-1.84,1.61-2.24,2.75-3.17,9.16-6.29,18.35-10,27.31-1,2.53-1,4,.83,5.66-.13,3.67-4.5,1.56-5.88,4.6-1.8,4-3.94,7.88-5.93,11.82-.58,1.13-1.59,2.1.25,3.26s2.41-.08,3.17-1c3.65-4.66,5.46-10.36,8.51-15.37C718.46,537.34,717.89,535.91,717.8,534.78Zm-381.49,544.3c1.78,2.13,6.33,1.35,8-1.51,4.36-7.67,8.93-15.25,12.82-23.16,2.19-4.45,5-8.86,5.2-14.2-3.14.62-4.37,2.5-5.11,5.25a17.11,17.11,0,0,1-3.42,5.84c-6.76,8.67-13.91,17.14-17.4,27.87l-.36.56ZM572.86,929.77c2.31-1.84,4.52-3.82,6.95-5.5,12.38-8.59,19.27-21.47,26.33-34.11,1.83-3.28,2.92-6.9,6-9.34,1.36-1.08,2.36-2.72,1.33-4.17-2.82-4-.36-7.49,1-10.85a181.81,181.81,0,0,0,13.73-65.58c0-2.93.71-6-1.07-8.81-1,4.32-1.23,8.72-2.2,13-3.73,16.28-7.52,32.56-11.63,48.75a178.71,178.71,0,0,1-14.26,37.07c-7.22,14.2-17.23,26.46-26.87,39-5.52,2.89-11.09,5.7-15.22,10.54C563.89,938.87,567.79,933.42,572.86,929.77ZM453.35,952.16l-.65-.44.13.61.61-.34a61.89,61.89,0,0,0,10.5,18.55c8.41,10.44,20,15.75,32.44,19.91,16,5.35,31.91,5.86,47.9.55,5.44-1.81,10.51-4.82,16-6.38,10.35-2.92,20.3-6.35,28.52-13.67,5.21-4.64,10.18-9.52,15.2-14.36,20.26-19.52,33.64-43.17,41.87-69.77,6.67-21.54,9.85-43.82,11.25-66.25,1.24-19.84,1.5-39.74,2.14-59.61.34-10.44.57-20.94,2.62-31.18a277.27,277.27,0,0,1,12.83-44.31c6.37-16.8,12.78-33.57,20.85-49.58,6.12-12.16,12.13-24.39,18.31-36.52a744.22,744.22,0,0,0,33.28-74.65,352.21,352.21,0,0,0,17.21-62.58,259.31,259.31,0,0,0,3.87-36.69c.59-16.45-1.57-32.71-4.14-48.86a131.28,131.28,0,0,0-14.74-43.19c-10.87-19.53-28-32.36-47.72-42a48.53,48.53,0,0,0-20.79-5.14c-2.66,0-3.21.42-2.09,3.05,1.46,3.45,4.55,4.06,7.44,5,19.89,6.65,36,18.73,48.62,35.19,9.95,13,14,28.64,17.9,44.51a219.24,219.24,0,0,1,5.22,71.86c-.56,6.46-.31,13-1.72,19.41-1,4.52-2,9-3,13.54-5,24.41-12.67,48.09-24.3,70-14.63,27.6-27.63,56-42.49,83.48-5.24,9.68-8.14,20.39-12.25,30.58-4.31,10.7-6.5,22.19-11.72,32.49-4.25,8.39-6.5,17.23-8.38,26.29-3.73,17.93-4.19,36.21-5.6,54.37-1.8,23.17-2.85,46.4-4.29,69.6-.21,3.29-.81,6.55-1.28,9.81s-1.55,6.3-.24,9.74-3.43,3.7-4.12,6.26c-.2.77-.46,1.83-.11,2.37,2.21,3.35,2.34,6.17-1.29,8.71-.79.55-.9,2.05-1.32,3.12-5.43,13.68-11.15,27.18-19.3,39.58a169.62,169.62,0,0,1-33,37.55c-14.77,12.29-32.47,18-50.93,21.36-19.89,3.61-37.64-2-53.27-14.55-5.2-4.18-11.25-7.64-13.24-14.74-.3-1.05-.85-1.52-2.2-1.1C460.17,954.89,456.77,953.34,453.35,952.16ZM105,789.06c.21-.23.41-.47.61-.71-.09,0-.25-.07-.27-.05-.12.25-.23.52-.34.77.17-.61.61-1.29.48-1.82a77.35,77.35,0,0,0-7.88-20C86.56,748.2,82,727.77,82.42,706c.08-3.81,1.42-8.26,5.3-8.46,4.36-.23,4.24,4.45,4.36,7.86a100.08,100.08,0,0,0,6.24,31.87c2.69,7.17,4.78,14.69,12.18,19.2,0-1.19.33-2.32-.06-3.06-4.31-8.16-4.34-17.18-5.73-26a168.61,168.61,0,0,1-1.66-35c.27-5.52,3.31-11,.17-16.6a1,1,0,0,1,.7-1.49c2.61,0,5.42-1.39,7.33,2.13,1.73,3.21,1.67,6.24,1,9.58-.79,4-1.49,8.06-1.89,12.12-1,10,1.6,19.58,4,29.09,1.07,4.18,3.52,7.8,8,10.94,0-3.27.33-5.47-.05-7.54-2.42-13-.89-25.88,1.37-38.71,1-5.62,1.67-11.88,5.34-16,3.22-3.61,6.63-7,9.53-12.68a33.55,33.55,0,0,0-.52,3.94c.39,8.31-5.34,15.5-3.4,24.44,2.18,10.05,1,20.6,1.44,30.92.7,15.27,2.82,30.08,8.36,44.33a24,24,0,0,0,7.18,10.59,209.74,209.74,0,0,1-6.76-24.11c-2-9.19-4.49-18.53-4.09-27.74.37-8.47,0-17,1-25.49,1.09-9.38,1.92-18.89,4.79-27.84,5.06-15.78,10.68-31.42,19.88-45.43,13.3-20.23,27.5-39.75,46.29-55.37,4.29-3.57,9.21-6.39,13.65-9.78,21.27-16.24,36-38.19,51.35-59.51,15.64-21.74,28.34-45.2,39.24-69.66,4.23-9.49,10.57-17.91,15-27.25,10.67-22.55,20.24-45.6,34-66.61,12.24-18.68,23.27-38.17,37.4-55.58,10.05-12.4,20.42-24.47,33.51-33.88,9.7-7,19.66-13.22,32.08-14,2-.13,4.19-.85,4.38-3.8s-2.06-3.52-3.69-3.85a28,28,0,0,0-11.67-.27c-5,1.13-9.62,3.41-14.49,4.91-1.32.41-3.5,1.59-4.26-.15-.67-1.54-.41-3.3,1.38-5.15,10.44-10.81,23.09-15.38,37.86-14.33,9.21.66,18.12,3.3,25.57,8.48,6.59,4.58,14,6.6,21.51,10.57-4.22-11-10.43-19-20.19-24.43-9.14-5-19-6.37-29.06-6.83-17.76-.82-34.81,3.34-51.69,8.24-12.36,3.58-24.75,7.1-35.31,15C381,229.9,372.67,236.29,364,242c-22.69,14.92-39.51,35.41-52.94,58.33-11,18.77-20.94,38.27-28.32,59-5.21,14.66-12.46,28.59-18.77,42.86a7,7,0,0,0-.7,2.7c0,4.63.44,9.35-4.22,12.45a7.36,7.36,0,0,0-2.24,2.61c-3,5.47-5.86,11-8.74,16.5-7.1,13.58-14.52,27-23.34,39.53a383.86,383.86,0,0,1-31.12,38.08c-12.48,13.61-27.5,24.38-42.36,35.23a329,329,0,0,0-45,39.07A236.41,236.41,0,0,0,71.66,636c-6.39,11.43-11.95,23.29-15.51,35.67A185.52,185.52,0,0,0,49,725.94c.32,22.69,5.23,43.76,16.37,63.34,6.5,11.4,13,22.66,23.58,31.37,7.64,6.31,16.91,9.34,24.69,15.07,2.2,1.63,4.73,3,7.34,3.17,4.65.26,5,.28,4.32,4.39-.5,3,1.92,8,3.73,7.55,4.74-1.13,8.44-3,9.64-8.65.65-3,2.7-5.95,4.77-8.63,8.49-11,20.43-16.59,33-21,3.22-1.14,6.92-.83,10.33-1.54,1.68-.35,4.19-1.62,1.84-3.62-3-2.6-5.91-6.16-10.24-6.27-1.59-.05-2-2.71-2.91-1.32-3.92,6.18-10.95,7-16.67,9.92-3.26,1.68-5.8,4.69-11.13,2-4.51-2.29-11.09-.61-16.75-.46a3.43,3.43,0,0,0-3.3,3.2c0,1.53,1.67,2.05,3.12,2.66,4.51,1.92,8.64,0,12.91-.78,1.49-.26,4-1.47,4.19.52.11,1.35-.85,4.43-3.22,4.84-5.43,1-8.25,5-11.33,8.81-.88,1.1-1.57,2.79-3.36,2.12-5.15-1.94-11.19-1.39-15.55-5.65-.87-.86-2.48-1.5-3.11.42-.42,1.27.28,3.33-1.85,3.23-1.92-.09-2.76-2-3.92-3.38-6.28-7.8-11.22-16.54-17.31-24.44a156.86,156.86,0,0,1-15.38-24.68c-4-7.76-4.67-16.21-6.08-24.51C65,743,63.11,732.46,62.25,721.74c-.67-8.35,1-16.45,1.31-24.69A103.22,103.22,0,0,1,66,678.9c2.79-12.94,9.49-24.49,14.74-36.42C88.87,624,101.36,608,115.19,593.14a227.88,227.88,0,0,1,40.57-34.32c9-6,16.63-14.16,27.84-16.35a5,5,0,0,0,2.31-1.63,101.47,101.47,0,0,1,10.71-9.4c1.89-1.38,5-4,6.92-1.28,1.76,2.48-.69,5.13-3.07,6.86-.27.19-.59.32-.84.52-6.91,5.68-14.31,10.7-21,16.67-5,4.45-9.75,9.5-16.14,12.21-4.37,1.86-7.8,5-11.06,8.29-7.86,8-15.54,16.14-24.07,23.55-10.72,9.32-19.09,20.7-25.7,33.66-6.45,12.64-12.84,25.07-16,39C84,677.9,83,685.19,79,691.38c-3.24,5-3.8,10.52-3.79,16.27,0,9.41-.45,18.83-.24,28.23.19,8.44,1.28,16.77,6.06,24.16,3.92,6.06,7.6,12.27,11.51,18.34a20.55,20.55,0,0,0,10,8.59C103.67,787.42,104.66,787.8,105,789.06ZM477.74,899.65c-2.12-.95-3.77.53-5.5,1.21a74.07,74.07,0,0,1-20.19,4.37c-14.79,1.38-27.45-4.42-39.85-11.49-6.74-3.85-10.84-10.59-17.25-14.71-.44-.28-.43-.5.06-.66,1.07-1,2.13,1,3.05.42-2.72-12-15.05-15.48-21.94-24.45a31.06,31.06,0,0,1,12.66,1.5c5.68,1.77,11.8,4,17.5,2,10.63-3.6,21.21-7.79,29.61-15.73,4.58-4.33,8.22-10.1,13.49-13.16,7.37-4.29,11-10.58,13.71-17.89.65-1.74,1-2.51,3.08-3,7.66-1.69,12.13-6.57,11.1-11.78-1.27-6.39,1.81-10.77,6-15,2.44-2.46,6.38-2.88,8-6.42,4.21-9.28,9.23-18.23,11.3-28.36.75-3.68,3.13-5.54,6.66-6.26,1.13-.23,2.53.58,3.14-1.46,1.47-4.84,3.36-9.55,4.93-14.36.86-2.64,1-5.5,2.8-7.83,1.51-2,3.35-2.35,4.94-.5,3.82,4.45,3.29,10.47-1.93,13.33a16.76,16.76,0,0,0-8.25,11.69c-3,13.83-11.28,25.1-16.7,37.72a14.25,14.25,0,0,1-4.44,5.86c-5.52,3.93-7.76,9.94-10.33,15.62-3.05,6.76-6.36,13.31-10,19.78-4.57,8-12.49,13.2-16.88,21.27-1.69,3.11-3.37,6.33-6.12,8.74-7.26,6.35-13.08,14.69-23.35,16.87-.78.16-1.77.27-1.6,1.43s1.15,1.25,1.91,1.22c3.76-.12,7.59.19,11-2,13.12-8.17,23.53-19.35,33.87-30.58,6.75-7.34,11.57-16,16.57-24.56,6.55-11.26,14.28-21.81,21.34-32.78,14-21.81,21.88-45.47,20.77-72.44-.5.9-.8,1.39-1.05,1.91-1.53,3.25-4.92,2.86-7.14,2.38-1.7-.37-1.8-3.5-1.39-5.76,1.13-6.29,1.84-12.69,5.17-18.34,5-8.45,8.22-17.73,10.63-27.06,2.78-10.79,6.41-21.31,9.2-32.09.82-3.17,2.67-5.83,6.2-4.64s4.64,4.18,3,8c-4.25,10.29-6.58,21.06-8.51,32-2.71,15.4-5.27,30.75-5.84,46.42-.47,12.74-1.45,25.51-4.19,38-4.24,19.37-14.23,36.33-23.8,53.36-5.23,9.31-12.32,17.58-15.22,28.16-.33,1.21-.94,3.09-1.77,3.3-6.16,1.53-8.12,7.91-13,10.95-1.89,1.18-2.26,4-1,6.2.72,1.26,2.39,2.49,3.73,1.85,2.88-1.38,6.46-1.38,8.06-5.4a57.08,57.08,0,0,1,10.64-16.58c9.72-11,18.4-22.74,23.74-36.67a89.5,89.5,0,0,1,5.92-12.94c5-8.68,9.07-17.86,10.07-28.1,2.23-22.85,3.64-45.81,8.88-68.29,2.86-12.31,4.26-25,10-36.54,6.2-12.55,8.88-26.05,9.08-40,.06-4.83,0-9.66.1-14.49.05-1.82.42-4.49,2.71-3.87,5.9,1.62,3.17-1.23,2.45-3.76-.54-1.9-1.18-3.7-1.88-5.54a7.5,7.5,0,0,1,1.67-8.31c1.58-1.64,3.54-1.62,5.46-1.05s1.35,2.38,1.51,3.82c.33,3-1.76,5.27-2.08,8.07-1.47,12.91-.77,26-3.71,38.81-1.58,6.9-3.24,13.8-4.32,20.79-.28,1.78-3.27.27-2.07,2.44,2.12,3.86,1.4,8,.59,11.84-2.63,12.61-4.49,25.34-8.13,37.79-1.89,6.46-4.27,13-5,19.86-.27,2.72.28,5.32-.09,8.06-1,7.34-3.56,14.36-3.6,21.92a111.91,111.91,0,0,1-5.89,36.2c-2.87,8.29-5.25,16.88-9.68,24.69-6.27,11-12.66,21.92-20.79,31.72-2.93,3.54-6.83,6.33-8.57,10.82-.48,1.23-1.35,2.71,0,3.62s1.88-.71,2.75-1.43c9.68-8,17.34-17.71,24.57-27.9,2.72-3.83,2.95-9.77,9.24-11,1.18-.24,2.4-3.51.75-6.13-1.49-2.36-3.41-5.68,1.89-6.52a2.29,2.29,0,0,0,1.41-1.29c1.63-4.1,4-8.15,4.49-12.4.43-3.72,6.74-7.46.58-11.48l.56-.83c4.91-7.5,4.71-16.3,6-24.66,1.45-9.85,2.84-19.61,5.55-29.29,1.08-3.85,2.73-7.63,3.5-11.59,2-10.07,2.63-20.4,5.64-30.25,3.4-11.14,5.33-22.63,8.57-33.79.92-3.17-2.25-5-1.15-7.86,2.59-6.78,3-14.14,5.19-21,3.34-10.64,4.43-21.65,5.12-32.62.49-7.71,1.23-15,5.48-21.65,3.7-5.83,7.36-11.74,10.47-17.89,2.29-4.53,3.22-9.74,5.56-14.23a220.19,220.19,0,0,0,11.15-25.21c1.26-3.39,1.76-7.84,4.83-9.6a14.85,14.85,0,0,0,7.13-8.21c4.41-12,8.76-24.07,13.28-36.05,4.3-11.41,9.51-22.18,11.55-34.74,2.36-14.57,4.41-28.9,4.34-43.68,0-10.24,2.09-20.42.08-30.77-.77-3.95-2.76-6.21-5.86-8.39a167.13,167.13,0,0,1,.6,27.18,235.17,235.17,0,0,1-3.49,26.53c-1.52,8.77-3.81,17.36-8.94,24.9-.73-9.06.25-18,1.75-26.69,3.48-20.09,2.61-40.18,1.66-60.32a33.76,33.76,0,0,0-.93-4.35c-.88-4.62-4.07-8.1-6.13-12.13-1.24-2.43-.83-4.12,1-5.71,2.25-1.94,2.72.87,3.84,1.64a45.56,45.56,0,0,1,14.9,17.08c7,13.53,13.9,26.92,12,43.1-.92,7.66-1.15,15.5-1.32,23.21-.22,10.3-2,20.34-3.14,30.48-.35,3-.39,5.95,1,8.71a3.22,3.22,0,0,0,1.77,1.54c1.56.45,1.17-1.13,1.51-1.84,3.14-6.54,3.6-13.75,4.56-20.73,1.09-8,.19-16.26,1.79-24.07,2-10,1-19.7.38-29.53-.59-9.4-3.34-18.45-6.41-27.26-4.21-12.1-11.08-22.43-22.75-28.78a102.8,102.8,0,0,0-29.35-10.84c-7.78-1.52-8.48-.66-9.42,6.86A246.54,246.54,0,0,0,616.22,321a31.8,31.8,0,0,1-1.19,8.7c-2.64,9.54-5.21,19.11-7.6,28.72a554.13,554.13,0,0,1-19.64,61.9,519.27,519.27,0,0,1-21.4,48.11c-9.34,18.69-17.49,38-25.84,57.17-6.53,15-15,29.17-18.89,45.24-2.4,10-8.18,18.69-11,28.47-1.76,6.11-4.46,11.86-6,18.13-1.05,4.28-4.46,8.64-6.19,13.17-6.92,18.06-14.37,35.89-22.58,53.39-2.5,5.34-5.6,10.83-11.07,14.1-.69.42-2.18,1.8-2.28.68-.42-4.7-3.1-1.51-5.14-1.62.16-1.6-.87-3.17.24-4.77,7.26-10.46,12.67-22,18.55-33.19,3.66-7,8-13.72,9.32-21.76-2.71,3.1-5.52,6.16-7.47,9.69-11.39,20.66-24.78,40-37.91,59.58-14.1,21-30.13,40.57-45,61-8.54,11.71-16.3,24-17.61,39.12-.77,8.88-.71,17.53,6.57,24.47-4.73-11.3-.3-21.19,4.26-31.06.71-1.56,1.44-3,3.58-2.66s2.79,3.16,2.3,3.68c-3,3.25-1.24,7.17-1.61,10.61-.8,7.36-1.82,14.79-1.29,22.25.31,4.39,1.84,6.25,6.41,7.62-2.67-6.69-1.92-13.23-.26-19.72,1.23-4.79,3.28-9.28,5.18-13.84a8.43,8.43,0,0,1,6.84-5.6c2.79-.53,3.62.3,3.36,3.2-.45,4.87-3.09,9.06-3.84,13.78s-4.26,8.73-3,13.74c.25,1-.65,2.75,1.44,3.17,1.65.34,2.37-.59,3.29-1.58,3.28-3.53,7.3-6.58,9.77-10.6,3.47-5.67,7.64-5.18,12.66-3.21-1.17,3.54-4.19,5.74-6.25,8.64-4.17,5.87-8.21,11.93-13.78,16.6-8.61,7.21-18.4,4.64-27.94,2.68-2.19-.46-4.15-1.13-6.52-.85-6,.71-12.25-.09-17.14-3.31-11-7.25-21.84-14.77-33.69-20.66-10.31-5.13-20.47-10.64-31.57-13.91-13.55-4-27-8.4-41-11.31,5.9-4.47,2.35-12.37-5.57-20.43-2.91,4.63-3.41,9.33-.37,14.08.8,1.24,1,2.15,0,3.47-1.23,1.54-2.5,1.16-4,.83-7.94-1.8-14.87-6.2-24.12-4.87-6.18.89-13.91-2.86-19.21-7.8-10.44-9.74-19.38-20.49-21.51-35.5-.53-3.72-.55-7.48-1.18-11.22a77.1,77.1,0,0,1,5.57-44.92,5.77,5.77,0,0,1,.39-.92c2.12-3.18,5.52-3.21,8.46-2.43s.57,3.39.43,4.94c-.49,5.42-1.9,10.75-2.4,16.17-1.24,13.3-1.54,26.52,7.1,38,.54.72.46,2.17,1.85,1.86a1.92,1.92,0,0,0,1.26-1.31c.15-5.19,2.48-9.94,2.95-15,.75-8-2.23-16.63,4-23.75.84-1-2.55-3.32.48-3.58,2.42-.2,1.4,2.92,2.33,4.3,1.06,1.57.55,3.21.58,4.81.17,8.64-.75,17.35,1.05,25.89,1.67,7.88,2.07,16.39,8.93,22.16,1.93,1.62,3.95,5.56,6.11,4,2.31-1.72-.16-5.36-1-8-2.66-8.17-4.9-16.36-5.12-25.09-.24-9.62,3.73-18.4,4.79-27.74.35-3.07,3-4.41,6-4.79,1.83-.23,2.8,1,2.12,2.11-2.76,4.64-.14,9.83-1.87,14.52a13,13,0,0,0-.86,6.8c.93,5.32,1.59,10.72,2.91,15.94,1.7,6.74,4,13.32,9.8,17.84,1.17.92,2.39,2.81,4.22,1.48s-.57-2.95-.22-4.55c.12-.55-.79-1.34-1.26-2a37.72,37.72,0,0,1-7.32-22.58c.12-14.56,5.1-27.52,16-38.09,3.39-3.29,5.75-2,8.43-.73,3.3,1.58,1.22,4,.27,6.17a27.42,27.42,0,0,1-1.67,3.55c-7.56,12.17-7.66,25.27-5,38.77,1.59,8.14,5.7,14.75,12,20.69-.59-3.11-.42-6.22-1.74-8.45-6.07-10.33-4.77-21.27-3.68-32.35.35-3.55,1.56-6.79,3.88-8.84,6.84-6.07,9.47-14,11.47-22.44.22-1,.53-2.26,1.23-2.66,4.17-2.41,4.19-2.34,5.89-5.12,3.33-5.45,5.23-11.69,10.31-16.18,6.1-5.39,10.3-12.4,14.91-19.09,2.91-4.2,6.22-9.41,11.05-10.79,8.05-2.29,13.67-7.55,18.71-13.17,11.59-12.93,21.13-27.43,29.45-42.7a4.37,4.37,0,0,0,.52-2.87c-.66-2.7,1.14-4,3-4.29a3.51,3.51,0,0,1,4.06,3.3c.27,4.13,1.56,8.11-.86,12.43-2.52,4.51-6,8.27-8.53,12.72-7.64,13.35-17.83,24.63-29.08,35-13.74,12.71-27.49,25.35-38.49,40.77-13.17,18.46-23.4,37.69-20.26,61.34.83,6.31-.36,13.42,5.7,18.38a118.35,118.35,0,0,0,1.19-16.39c0-7.95-.38-16.32,1.55-23.69,2.88-11,9-21.18,15.58-30.53a207.51,207.51,0,0,1,35.94-38.8c15.25-12.93,27.39-28.62,38.28-45.25,6.14-9.39,8.94-20.66,16-29.59,3.76-4.75,4.55-10.85,7.54-16,8.64-14.84,18.18-29.15,27.73-43.33,12.69-18.84,20-39.93,29.33-60.22,3.68-8,6.92-16.24,11.43-23.91,7.75-13.17,15.13-26.57,22.53-39.94,2.13-3.86,3.64-8.06,5.75-11.94,1.47-2.71,3.67-1.59,5.89-.6s1,1.84.54,3.08c-3.52,10.42-8.65,20.17-13.56,29.89-10.65,21.09-22.62,41.5-32,63.25q-11.61,26.82-25.56,52.54c-7.66,14.18-15,28.53-22.73,42.68-4.95,9.1-10.23,18-15.44,27-9.74,16.75-19.49,33.47-34.71,46.16A153.7,153.7,0,0,0,330.8,679a205.16,205.16,0,0,0-25.9,62.49c-1.71,7.51-3.4,15.68.09,23.46,1.14-.19,1.17-.89,1.37-1.51a88.72,88.72,0,0,0,3.52-18.8c1.55-16.84,10.38-31.2,17.56-45.72,9.46-19.14,24.28-35,38.75-50.64,9.89-10.7,19.87-21.27,28.12-33.29,12.22-17.81,22-37.1,32.88-55.7,13.72-23.44,26.26-47.54,39.17-71.43,11.19-20.72,20.67-42.29,31.89-63,6.58-12.14,12.71-24.52,19.11-36.76,1-1.84,1.58-4.49,4.89-3.61-2.88,8-4.72,16.14-8.41,23.69q-9.08,18.58-17.85,37.33c-12.92,27.49-25.67,55.06-39,82.35-12.62,25.76-25.28,51.48-39.61,76.36-6.29,10.93-12.08,22.17-18.67,32.92-14.37,23.45-29.28,46.59-39.32,72.39-2.15,5.53-4.83,10.92-5,16.85,5.18-.16,6.46-4.26,8.59-7.37.91-1.32.63-3,1.45-4.61,5.48-10.44,10.91-20.92,14-32.42.73-2.75,1.65-5.24,5.33-5.72,2-.26,3.62-2.24,4.59-4.25,8.86-18.4,19.46-35.85,29.45-53.64,8.3-14.75,16.39-29.62,24.65-44.4,5-9,9.16-18.55,14.28-27.48,9.57-16.73,18.46-33.83,26.52-51.28,8.48-18.36,16.67-36.86,25.48-55.07,3.5-7.22,8.11-13.91,11.48-21.19,7.76-16.78,13-34.57,20.69-51.42a30.1,30.1,0,0,0,2.5-10c.23-3.09.87-5.71,4.2-5.1a6,6,0,0,1,5,6.21c.07,3-1.34,5.39-2.3,8-6.82,18.49-14.48,36.64-22.25,54.75-5,11.6-10.76,22.86-15.66,34.49-6.13,14.56-13.47,28.57-19.39,43.19-4.47,11.05-9.6,21.81-13.82,33-3.6,9.52-7.82,19.09-13.53,27.43-5,7.34-6.7,15.54-9.74,23.4-.44,1.14,2.89,2.73.19,3.92-4,1.75-5.26,5.43-6.59,8.89-3,7.68-8.24,14.28-10.17,22.42-.34,1.43-1.64,2.32-2.9,3.1-4.26,2.64-4.9,6.29-1.7,9.88A13.16,13.16,0,0,1,437,636.4c5.57-4.11,5.58-10.66,8.5-15.67a221.45,221.45,0,0,0,10.84-21.55c5.93-13.37,11.46-27,18.67-39.68,6.78-11.89,11.53-24.61,17.1-36.94,8.69-19.28,15.79-39.27,26.6-57.58,2-3.37,4.64-6.28,6.07-10.06,3.6-9.52,7.42-18.95,11.69-28.21,2.53-5.5,3.82-11.55,8.1-16.18a4.09,4.09,0,0,0,.92-2.23c1.42-12.58,10.65-21.76,14.39-33.49,4.74-14.88,12.94-28.56,15.47-44.31,2.36-14.73,5.28-29.37,7.91-44.06.39-2.14.92-4.77,3.27-4.63s5.19.52,6.71,3.22a7.18,7.18,0,0,1,.9,5.73c-1.81,5.34-1.7,11-3.11,16.37-2.93,11.16-6.32,22.21-8,33.67-.56,3.86-.72,7.8-1.61,11.58-.93,3.94-4.48,8.4-3.42,11.42,2.35,6.7-4.58,4.67-5.81,7.82-2,5.11-4,10.28-6,15.28-3.76,9.39-7.07,19.14-12.07,28.08-1.62,2.9-2.6,5.84-1.3,9.39,1,2.76-.73,5.13-3,6.75a10.42,10.42,0,0,0-3.2,3.62,97.4,97.4,0,0,0-9.25,24.82c-.62,2.71-1,5.27-2.42,7.76-8.14,14.22-13.73,29.64-20.64,44.44a214.91,214.91,0,0,0-10.57,28.73c-2.4,8-7,15.2-10.37,22.88-6.14,14.15-14.68,27.07-20.76,41.25-3.89,9.08-5.84,19.16-13.43,26.41-1.09,1-1.54,2.92-1.92,4.5a11.57,11.57,0,0,1-4.09,6.75,4.12,4.12,0,0,0-.26,6.33c2.19,2.19,3.68.31,4.87-1.69,2.81-4.69,5.69-9.34,8.5-14,2.53-4.22,3.8-9.42,6.57-13.08,8.24-10.87,12.95-23.17,17.69-35.68,5.17-13.64,11.29-26.91,16.53-40.52,4-10.39,7.83-20.85,12.45-31,4.2-9.23,9.06-18.13,12.91-27.57,3.93-9.63,5.7-20.34,13.1-28.39a2.31,2.31,0,0,0,.27-.42c6.27-13,12.2-26.09,17.69-39.43,1.92-4.66,4.22-9.28,6.58-13.74,4.24-8,2.13-18.55,10.25-24.89.54-.43.62-1.47.89-2.23,4.21-11.86,5.19-24.45,8.22-36.56s4.28-24.06,10.14-35.75c7-14,3.34-30.64-11.77-40.13s-31.74-14.11-49.3-16.31c-11.65-1.46-23.38-.37-35-1.74a14.2,14.2,0,0,0-4,.09A119.77,119.77,0,0,0,466.43,256,137.54,137.54,0,0,0,433.79,279c-10.66,9.84-17.5,22.86-28.19,32.59a13,13,0,0,0-1.79,2.4,196.72,196.72,0,0,0-14.29,26.4c-8.83,19-19,37.42-27,56.88-5.46,13.27-12.1,26.05-17.78,39.28s-11.68,26.67-19.6,39-14.71,25.69-22.52,38.25c-11.08,17.79-25.15,33.3-39.63,48.28-9.42,9.75-20,18.46-30.49,27-7.19,5.87-12.29,13.43-18.46,20.1-20.4,22-36.25,46.74-42.37,76.69-3.42,16.74-6.05,33.55-3.39,50.77a99.5,99.5,0,0,0,28.84,56.66c7.93,7.9,17.59,13.52,29,14.79,26,2.91,51.82,6.15,76.59,15.21C319.8,829.63,336.13,837.49,351,848c13.73,9.67,23.5,23.36,34.67,35.62,6.47,7.11,12.39,14.75,20.3,20.46,13.89,10,29,16.69,46.27,18.47,14.27,1.48,28.09.52,41.23-5.28,23-10.16,40.52-27,56-46.31,11.92-14.81,19.15-31.87,24.92-49.82,3.53-11,5.85-22.2,8.95-33.25,2.54-9,5.61-18,6.84-27.36,2.14-16.3,2.64-32.76,3.78-49.13,1.58-22.64,5.35-44.95,7.94-67.43.33-2.91.9-5.91-.82-9.42-1.42,5.21-2.87,9.57-3.8,14.05-3.78,18.23-7.6,36.44-9,55.08-.6,7.92-2.34,15.76-3,23.68-1.24,15-2.56,30-5.74,44.68s-7.65,29.22-14.33,42.93c-4.32,8.85-7.82,18.09-12.15,26.94-1.38,2.82-1.52,4.38,1.31,5.73,1.48.71,2.81,1.74,1.63,3.31s-2.83.71-3.6-.7c-1.66-3-2.68-1.65-4,.25C541,860.78,535,872.08,525.86,881.07c-1.92,1.89-3.19,5.7-5.18,6-4,.64-6.5,2.75-9,5.35-12.15,12.47-26.08,21.4-44.17,21.59-5.47.06-11,2.26-16.73.07,2.95-2.7,6.56-2,9.67-3,6.88-2.29,11.81-7.31,17.35-11.49l-.06-.21ZM258.83,948.82c1-3.5,2.1-6.19,4-8.53a31.61,31.61,0,0,0,6.78-12.84c2.61-11.55,4.22-23.33,7.73-34.69.66-2.14,3.35-5.13.62-6.36-2.1-1-4,2.47-5.15,4.71-2.22,4.4-4,9.06-6.39,13.35-4.54,8-9.41,15.89-14.16,23.8-1.54,2.56-3.85,4.72-6.78,3.5a6.54,6.54,0,0,1-4.11-6.77c.38-3.52.79-6.94,4.23-9.38,3.68-2.61,3.83,2.46,6.34,2.29,1-2.35,1.44-4.69-.62-6.78a2.78,2.78,0,0,1-.83-2.65c1.07-7.82,2-15.66,6.4-22.56a9.28,9.28,0,0,0,.9-3.32,1.75,1.75,0,0,0-1.1-2,1.82,1.82,0,0,0-2.23.4c-8.73,7.74-14.06,17.89-19.76,27.78-6.89-4.48-6.82-4.45-4.6-11.52a70.45,70.45,0,0,1,19.27-30.71c1.85-1.73,4-3.28,5-5.73-.39-.3-.53-.5-.65-.48a3.36,3.36,0,0,0-1.44.27c-12,7.47-23.75,15.26-28.16,29.94-.51,1.68-1.31,4.66-3.14,3.56-2.6-1.55-6.53,1.07-7.5-1.83-.76-2.26-2.58-4.21-2.71-6.21a16.74,16.74,0,0,1,2-9.82c4.5-7.7,11.16-12.94,18.78-17.17,1.12-.62,3-1,2.24-2.68-.87-2-2.37-.26-3.32.14A95.69,95.69,0,0,0,196.82,881c-2.49,2.78-4.13,6.32-6.23,9.46-.44.65-1.31,1.57-1.81,1.48-.85-.15-1.44-.91-1.75-2.06-1.21-4.45.57-8.13,2.69-11.7C197.15,865.64,208,857,221,850.89c1.31-.62,3.15-1.15,2.21-3.06-.81-1.65-2.2-.46-3.34,0-10.82,4.27-21.13,9.57-30.15,16.92-13.33,10.87-21.41,24.91-23.33,42.19-.31,2.87-.09,6-4.16,5.81-4.31-.17-4.76-3.37-4.44-6.67.35-3.61,1-7.19,1.56-10.78,1.21-8,3.38-15.94,8.18-22.4,7.85-10.55,17.49-19.35,29.38-25.4,2-1,4.47-1.72,5.31-5.09a22.39,22.39,0,0,0-5.13,1.44c-4.71,2.22-9.56,5.24-14.28,6.1-8.72,1.59-15,6.23-21.42,11.45-3.5,2.83-5.86,7-10.7,8.48-3,.93-6.27,3.92-4.86,7.66,2,5.27-1.77,8-3.76,11.58A38,38,0,0,0,137.28,906c-1.16,22.7,12.31,38,26.53,52.87.32.34.93.4,1.3.71,1.14.95,2.5,1.28,3.64.45s.8-2.12.63-3.27c-.48-3.39-2.83-5.85-4.6-8.53-3.74-5.68-6.4-11.58-5.4-18.58.32-2.24,1.3-4.59,3.41-5.09s3.4,1.78,4.52,3.35c1.62,2.27,2.94,4.76,5.08,8.3,0-3.58,1-5.46.65-8-.57-3.59,3-5.18,5.21-7.37,1.9-1.91,4.08.15,4.79.78,1.59,1.41,1.27,4,.88,6.18-1.11,6.18.55,11.92,3.29,17.33,1.52,3,4.39,6.48,7.63,4.7s1.26-5.39-.74-8.08a7.7,7.7,0,0,1-1.39-4.06c-.08-1.6.42-3.63,2.28-3.88,2.92-.4,4-3,6.23-4.4,1.86,3.34,3.8,6.57,3.13,10.66-.18,1.11-.33,2.55.84,3.2,3,1.67,4.87,4.43,6.63,7.11a9.6,9.6,0,0,1,1.2,7.71c-.37,1.74.75,5,.78,7.78-1.64-2.47-4.5-4.1-4.63-7.41a1.11,1.11,0,0,0-1.27-1.15c-1.5,0-.72,1-.57,1.7.24,1.12.55,2.23.74,3.37,1,6.16,4,12,4.82,17.94,2.34,16.92-2,32.95-9.74,48-5.24,10.24-11.1,20.25-20.9,26.79-17.42,11.61-36.39,19.6-57.36,22.07a30.87,30.87,0,0,1-17.69-3.06c-4.86-2.44-6.69-7.56-9.91-11.45-.79-1-1.58-2.64-3-2.3s-2,2.07-2.14,3.54a33.13,33.13,0,0,0,2,14.55c1.19,3.08,2.18,6.23,3.25,9.32a2.36,2.36,0,0,1-2.73-.56c-8.81-7.36-11.17-16.8-9.76-27.88.86-6.83,4.5-10,10.66-12.25,8.47-3.13,17-1.72,25.52-1.85.08-1-1-1.51-1.47-2.31-1.57-2.49-5.63-1.83-6.24-2.72-3.84-5.62-10-6.44-15.3-6.72-17.36-.91-31.38,6.69-40.84,21-9.73,14.68-13.72,31-11.12,49,3.69,25.47,14.29,46.07,37.37,59,19.53,11,39.6,21,61.65,25.45a182.46,182.46,0,0,0,61.59,2.14,210,210,0,0,0,38.41-9.25c15.43-5.28,30.54-11.35,44.81-19.51,9.87-5.65,20.45-10.1,29.83-16.61a243.48,243.48,0,0,0,39.27-33.6c13.68-14.64,27.43-29.3,36.61-47.37,7-13.67,12.68-27.84,15.16-43.11,1.59-9.87,1.71-19.89,3.4-29.76,1-6.07-1.43-11.81-3.26-17.85-2.21,1.87-4.7,2.28-4.89,5.94-.46,8.88-1.8,17.71-2.75,26.56a138.65,138.65,0,0,1-17.8,55c-12.38,21.53-27.51,40.82-46.53,56.91-6.3,5.33-12.61,10.67-19.12,15.74-12.28,9.56-26.31,16.16-40,23.32-13,6.81-26.45,12.59-40.88,15.68-21.7,4.64-43.78,6-65.83,7.66-26.11,2-50-4.29-71.7-19a208.52,208.52,0,0,1-17.76-14.07c-13-11-22.93-23.82-24-41.69a68.67,68.67,0,0,1-.17-8.48c.14-2,1.09-4.2,3-4.87,1.64-.58,2.58,1.58,3.62,2.71,1.22,1.33,2.18,2.9,3.27,4.35,3.52,4.73,5.9,10.31,10.46,14.28.91.8,1.61,2.66,3.11,1.64.58-.39.65-2.33.24-3.25a6.62,6.62,0,0,1,.32-6.59c.66-1.05.28-1.71-.35-2.57-.81-1.12-3.07-2.46-.08-3.63a2.47,2.47,0,0,1,3.37,2.21c-.12,3.07,2.42,4,3.71,6,10.38,15.61,25.46,24.74,42.71,30.62,4.63,1.58,9.7,2,14.6,2.62,4.06.54,5.17-3.29,5.64-5.69.59-3-3-2.29-4.84-2.66-3.72-.71-7.56-.83-11.23-1.68-12.39-2.85-23.3-8.49-32.18-17.75-.94-1-1.72-2-1.13-3.54.8-2.08,2.14-.6,3.28-.65,2.61-.1,4.78,1,7,2.15,4.85,2.37,9.57,5.31,14.69,6.78,13.49,3.86,27.12,6.44,41.41,4.28,9.23-1.39,18.56-3,27.16-6s16.47-8.87,24.35-13.94c11.57-7.44,22.92-15.07,33.23-24.43,7.58-6.88,15.49-13.36,22.38-21,9.74-10.79,18.24-22.6,27.63-33.67,11.75-13.84,19.21-29.78,23.8-47.15.66-2.5,1.94-5.75-2.12-7.41-2.59-1-5.43.36-7.88-1.2-.11-.07-.81.56-1.05,1-1.22,2.13-2.39,4.44-3.7,6.32-2.11,3,.82,5.31-.19,8.17-3.31,9.32-8.26,17.68-13.33,26.09-7,11.53-12.38,24.06-23.84,32.34-2.88,2.08-4.49,2.46-6.08-.9-2.83-6,1.32-10.52,4.56-13.64,10.86-10.5,15.12-24.44,21.36-37.39,3.72-7.73,4.71-16.68,9.2-23.83,6.49-10.31,7.24-20.82,4.79-32.14-.19-.85.46-2.21-1.08-2.27-1.38-.06-1.13,1.35-1.59,2.15-5.32,9.28-7.75,19.78-12.45,29.37-3.86,7.89-8.08,15.72-10.41,24.32a10.64,10.64,0,0,1-2.75,4.66c-2.47,2.34-5.33,5.29-9,3.2s-3.11-5.44-1.89-9.18c2.93-9.06,7.68-17.32,10.76-26.37,4.25-12.48,8.65-24.83,11-37.85.44-2.47.6-4.67-1.37-6.39-1.38-1.21-2.84-3-4.51.07-4.53,8.37-7.43,17.41-10.68,26.27-1.57,4.28-3.47,7.68-7.29,10-.84.52-2.18,1.24-2.54.11C265.19,946.6,262.34,948.21,258.83,948.82Zm334-896.44c3.92,5.63,8,10.7,8.08,17.44,0,4.57,1.9,8.53,3.34,12.68a91.54,91.54,0,0,1,3,10.4c4.06,18.21,3.78,36.65.81,54.83-2.76,16.83-6.89,33.41-14.56,49-6,12.18-14.39,22.45-23.42,32.32-2.81,3.08-2.53,6.17,1.13,6.41,3.27.22,5.79,1.67,8.32,3,1.94,1,2.1.28,2.8-1,2-3.67,4-7.35,6.14-10.91,4.49-7.3,9.59-14.28,13.57-21.85,5.75-10.91,8.7-22.91,12.58-34.57,3.73-11.26,4.27-22.66,5.73-34.07,1.21-9.4.73-18.72-.07-28.2-1.12-13.25-2.82-26.15-7.92-38.52C608.71,60.53,604,53.34,592.8,52.38ZM698.23,376.59c0,4.13.39,8.3-.08,12.38-1.64,14.3-2.14,28.74-5,42.89-1.47,7.39-2.44,15.07-5.28,21.93-4.26,10.28-10.72,19.71-9.94,31.55,0,.58-.47,1.22-.76,1.82-8,16.52-14.78,33.55-22.49,50.2-5.73,12.36-11.91,24.49-18,36.62-4.37,8.63-9.64,16.8-12.79,26-.71,2.09-2.29,5.05.13,5.91s6.23.57,8-2c2.63-3.73,4.45-8,6.69-12,7.2-12.82,12.74-26.44,19.47-39.5,8.14-15.79,16.51-31.43,22-48.68,5-15.57,12.21-30.36,14.51-46.85,2.89-20.74,7.61-41.29,6.42-62.41C700.83,388.56,700.81,382.44,698.23,376.59Zm-534.73,760a1.92,1.92,0,0,0,2.45,1.06,64.68,64.68,0,0,1,12.24-1.19,57.89,57.89,0,0,0,24.06-4.66c19.51-8.18,37.42-19.29,54.31-31.93,18.68-14,37.6-27.72,53.75-44.76,9.4-9.91,19.08-19.56,25-32.26,3.34-7.13,5.2-14.91,9.88-21.53,1.94-2.74,3.21-6.48,1.16-10.24-.52-1,0-2.41-2-1.63-.95.38-2.09-1.3-3.16.66-1.65,3-4.12,5.59-5.84,8.59-8.78,15.36-15.77,31.76-27.34,45.47-7.89,9.35-14.89,19.57-24,27.71-11.57,10.31-24.52,18.87-37.7,27.09-14.68,9.15-29.19,18.47-45.24,25.2C188.91,1129.31,175.23,1130,163.5,1136.61ZM370.8,831.09c-.63-1.63-.77-3-1.5-3.7-6.87-6.73-6.68-15.58-4.26-23.12,4.77-14.82,13.22-28.14,21.33-41.38,9.55-15.61,20.11-30.6,30.27-45.84q12.36-18.51,24.84-37c4-5.89,8-11.71,12-17.61,1.59-2.39,1.89-6.09,0-7.2-2.2-1.3-5.29,0-7,3.12-.93,1.74-.61,4-1.94,5.19-5.86,5.22-11.67,11.18-15.08,17.66-7.35,14-19,24.71-26.33,38.84-9.5,18.28-22.07,35-33.5,52.25-8.43,12.74-10.88,27-11.33,41.83C358.08,821.05,364.58,829.9,370.8,831.09Zm-14.71,174.54c-2.26,4.66-4.69,9.25-6.75,14-7.11,16.4-17.66,30.18-30.11,43-13.19,13.54-26.75,26.67-41,39-10.72,9.26-20.24,21.05-36.27,21.68-1.47.06-2,1-1.48,2.73.43,1.33.2,1.7,1.89,1.74a20.48,20.48,0,0,0,11.63-3.58c6.39-4.07,12.79-8.14,19.26-12.09,10.37-6.33,19.09-14.72,28.13-22.66,4.29-3.78,9.83-5.46,13.81-9.53,12.8-13.07,23.83-27.41,31.91-43.88C351.78,1026.46,355.74,1016.63,356.09,1005.63ZM635.53,535.94a19.71,19.71,0,0,1,1.27-2.71,154.64,154.64,0,0,0,13.47-26.31c1.67-4.15,3.62-8,7.53-11.06s7.37-7.43,5.63-13.35a8.36,8.36,0,0,1,1-6.6c4.28-8,7.2-16.56,10.45-25,1.92-5,2.67-10.38,3.71-15.64.35-1.8-.37-5.32-1.62-4.69-3.14,1.59-7.51,2.19-8.75,6.41-1.48,5-2.82,10.06-4.15,15.11a303.68,303.68,0,0,1-18.61,51.4c-.93,2-1.91,4.27-1.8,6.36.09,1.78.69,1.69-.06,2.65C638.43,519.14,633.5,525.83,635.53,535.94ZM373.11,648.36c-4.45,7.45-10.65,13.73-14.28,21.63-5.3,11.52-12.79,21.84-18.11,33.33-4.27,9.23-11.43,17.32-13,27.49-1.34,8.45-3.7,16.59-5.83,24.75-1.4,5.37-.39,9.61,1.29,14.3.48,1.34,1,2.13,2.32,1.88s.82-1.6.84-2.46c.06-4-.49-8.07.14-12,1.08-6.76,1-13.83,4.89-20,3.8-6,7.87-11.91,10.56-18.39,7.08-17,15.36-33.49,23.4-50.07A103.55,103.55,0,0,0,373.11,648.36ZM636.75,47.26a10.31,10.31,0,0,0,.91-6.58c-2.15-12.38-20-18.74-29-16-10.42,3.14-17.31,10.21-22.57,19.16,5.7,3.31,10.25.82,14.72-2.38,5.75-4.12,11.94-5.2,19.08-4.28S632.16,42,636.75,47.26ZM690,578.52c-3.54,2.83-5.29,6.68-7.09,10.74a92.5,92.5,0,0,1-9.27,16.88c-6.76,9.36-13.34,18.77-18.61,29.1-3.39,6.63-4.62,14.1-8.46,20.56-.81,1.37-1.36,4.47,1,5.21,1.8.55,3.38-1.11,4.73-3,3.23-4.49,3.65-10,6.49-14.78,5.88-10,10.62-20.63,16.25-30.8,5.4-9.77,7.94-20.93,14.53-30.14A3.73,3.73,0,0,0,690,578.52Zm-37.23,21.86c-1.36,2.13-3.87,2.8-5.32,5.09C642.7,613,639.1,621,635.35,629c-5.76,12.3-10.84,24.8-12.39,38.45-.16,1.37-.3,3.29.59,3.64,1.47.58,2.59-1,3.18-2.31,2.56-5.85,5.62-11.56,7.38-17.64a164.4,164.4,0,0,1,6.6-17.91c4.23-10.08,9.08-19.9,13-30.1C654.41,601.48,653.47,601.22,652.74,600.38Zm-24.52-56.13c-3.92.67-5.22,3.21-7.11,5.42-12.83,15-17,32.77-16.68,52,0,2-.69,5.29,1.91,5.34,2.42,0,2.87-2.78,3-5.46.72-12.17,2.73-24.12,8.13-35.22C621,559.11,623.43,551.46,628.22,544.25Zm8-351.61a3.59,3.59,0,0,0-2.58,2.9c-2.13,8.18-4,16.42-6.93,24.38-1.77,4.76-2.34,10-4.51,14.56-2.38,5-2.66,9.13.94,13.33.61.72,1.44,1.72,2.2,1.75,1.48.08,1.52-1.71,1.72-2.57a159,159,0,0,0,3.14-16c.4-3.12,2.4-5.69,2.18-9a50.25,50.25,0,0,1,1.75-16.68C635.19,201.24,636.34,197,636.19,192.64Zm69.88,123.72a25.9,25.9,0,0,0,1.84,2.08c9.69,8.41,14.63,20.33,22.28,30.24a4.67,4.67,0,0,1,1,2.22c.57,6.63,3.29,12.69,4.93,19,.51,1.94,1.18,4.1,3.89,4.29C742.34,355.16,723.76,323.7,706.07,316.36ZM181,1038.69c15-8.06,22-43.33,14.17-70.52,0,13.27.56,25.18-1.23,37C192.13,1017.33,186,1027.7,181,1038.69ZM607.76,808c-6.47,20.15-7.78,41.71-17.49,61,3.76-4.67,7.44-9.3,9.9-14.51,3-6.37,6.84-13,3.06-20.5-.59-1.18-.38-3.09.29-3.09,4.66,0,3.83-4,4.05-6.21C608.14,819.16,607.76,813.55,607.76,808Zm-227-96.35c.39,1.36.35,3.11,1.17,3.74,1.45,1.12,2.81-.49,3.82-1.38,2.31-2,4.41-4.36,6.56-6.6a66.54,66.54,0,0,0,15.57-27c.22-.72.3-1.28-.28-1.73a1.44,1.44,0,0,0-2.17.33c-.72.89-1.74,1.81-1.93,2.84-1.59,8.91-7.13,14.45-14.77,18.68A15,15,0,0,0,380.74,711.64ZM137.23,1162.05c-15.22-14.39-34.75-23.37-48.18-40,2.68,9.22,8.91,15.62,16.09,20.63,6.42,4.47,13.62,7.92,20.11,12.41C129.07,1157.75,132.34,1161.33,137.23,1162.05ZM655.56,597.56c8.27-3.64,9-12,12.84-18.08,5.06-8,5.74-12.76,4.23-20.7-1.61.64-1.54,2.39-2.36,3.53-3.54,4.9-3.57,11.44-7.61,16.13C658.05,583.78,654.56,589.61,655.56,597.56Zm50.33-75-1.68-.49c-3.82,6.62-7.61,13.27-11.48,19.85a9.2,9.2,0,0,0-1.15,7.59c.75,2.57,0,4.3-2.42,5.76-5.95,3.53-6.12,9.66-6.42,15.66C693.41,556.16,699.36,539.24,705.89,522.58Zm-456.47,618c16.45-.55,29.54-7.69,39.85-20.29C276.65,1128.31,262.47,1133.31,249.42,1140.54Zm71.07-256.89a18,18,0,0,1-6,2c-.39.08-1.42,1.14-.74,1.37,3.51,1.19,3.34,5.24,6,7.22,4,2.91,8.65,2.6,13,3.83,1.79.51,3.81-.84,2.51-3.54-2.94-6.12-10.08-6.73-14.44-11C320.81,883.52,320.61,883.62,320.49,883.65Zm217,74.75a19.25,19.25,0,0,0-7.67.62,4.06,4.06,0,0,0-3.15,3.92c-.18,2.11,1.55,3,3.39,3.59a8.42,8.42,0,0,0,5.35.33,47.9,47.9,0,0,0,12.88-6c1.08-.77,3.07-1.17,2-3.27s-2.67-1.38-4.3-1C543.22,957.23,540.37,957.79,537.52,958.4ZM719.24,363.27c1,4.8,1.32,9,3.49,12.85,1.55,2.73,2.14,5.54-.28,8.19s-1.61,5.6-.69,8.38c1,3,3.16,7,5.93,6s2.41-5.6,1.14-8.52c-1.74-4-2.22-8.31-3.71-12.24C723.35,373.24,723.85,367.61,719.24,363.27ZM324.53,953.5c.9,1.49,0,3.77,1.33,5.67.79,1.08,1.29,2.07,2.47.6,3.79-4.71,8-9.16,8.23-15.8.07-2.38,0-3.21-2.91-2.61C328.34,942.47,324.64,946.8,324.53,953.5ZM625.66,731.14c2.91-4.72,3.05-9.48,4.56-13.79,1.67-4.73.13-7.51-4.44-9.07C623.35,715.69,620.11,723.08,625.66,731.14Zm-160,259.18c8.87,10.82,20.89,15.92,34.47,18.21C488.69,1002.27,476.42,997.63,465.61,990.32ZM606.8,805.73c3.6,0,1.36-4.63,4.11-4.43,4.83.36,3.85-2.94,3.21-5.22a27.88,27.88,0,0,1-.61-9.82c.12-1.55.17-3-.75-4.27-.56-.74-1.55-1.64-2.33-1.63-1.23,0-1.08,1.38-1.18,2.35C608.44,790.36,607.62,798,606.8,805.73ZM709.92,457.82a65.89,65.89,0,0,0-3.14,7.27c-1.54,5.28-6.93,8.88-6.51,15,.1,1.36-.86,3.34.9,3.94,1.39.47,2.8-.75,3.79-1.88a11.27,11.27,0,0,0,1.49-2.48C709.7,473,710.8,466.07,709.92,457.82ZM601.45,239.21c7.08-3.36,14.58-21.6,13.35-31.6C610.55,218.54,605.27,227.82,601.45,239.21ZM454.27,875.76a18.43,18.43,0,0,0,10.59-3.31c4.8-3.05,10-5.76,12.91-11.09.52-1,.85-1.94,0-2.68-1.13-1-2-.29-2.85.72C469.16,866.17,460.5,869.23,454.27,875.76Zm-38.9-212c1.59,1.25-.68,4.59,2.1,4.77,2.06.14,2.75-2.43,3.57-4.19a5.08,5.08,0,0,0,.28-.94c1-3.46,3.65-6.5,2.46-10.5-.36-1.22,2.43-.17,1.47-1.43a3,3,0,0,0-3.67-.24,5.27,5.27,0,0,0-1.11.94C417.62,655.47,416.38,659.5,415.37,663.74Zm93.53-83.2c-8.07,11.08-11.37,24.4-17.84,36.25a16.34,16.34,0,0,0,7.28-8.74C501.88,598.9,504,589.19,508.9,580.54ZM424.19,880.27c-3.77-.41-5.8-3.29-8.29-5.23-3.44-2.69-5.31-1.43-8.23.86-2.25,1.78-.9,1.89.28,2.41C413.07,880.59,418.09,883.66,424.19,880.27Zm10-239.06c-2.16-1.46-4.75-4.59-6.71-4.24-3.49.63-3.57,5.08-4.1,8.08-.39,2.21,2.6,3,4.29,4.07C428.3,649.54,434.23,642.53,434.19,641.21ZM634.77,114.39c.53,13.83-2.68,27.43-1.78,41.33C633.71,142,638.09,128.47,634.77,114.39ZM564,909.24c7.41-4.91,17.87-21.21,17.73-26.36Zm-388,243.34c-6.33-3.35-12.69-1.19-18.87-1.36-1.27,0-1.8.76-1.67,1.91.16,1.51,1.44,1.78,2.56,1.72C163.82,1154.51,169.8,1155.23,175.93,1152.58Zm82.29-274.71a35,35,0,0,0,3.36-2.66c3-3,5.93-6.11,8.74-9.3.67-.76,2.72-1.32,1.2-3s-2.7-.35-3.87.49c-4.4,3.14-6.6,8.25-10.5,11.86C255.91,876.39,256.78,877.22,258.22,877.87ZM574.54,939c-7.47,3.25-13.08,8.73-19,13.84,3.64-.54,7.92.51,9.6-4.36a2.62,2.62,0,0,1,2.72-1.69C573.45,947.36,574.7,944,574.54,939Zm-457-195.43c1.55,5.49,3,11,9.36,13.22-.07-3.64-1.62-6.52-3.07-9.62S121.61,741.49,117.54,743.6Zm181.6,136.08c-3.55-3-7.77-3.39-12.06-3.47-.92,0-2.9-1.65-2.5,1.2.18,1.19-.63,2.3,1.68,3.15C290.86,882.26,294.89,882.2,299.14,879.68Zm10,23.61c-4.44-2.94-8.54-3.64-12.32-5.09-3.43-1.31-2.51,2-3.23,3.46-1,2,.94,3.31,1.9,2.87C299.6,902.66,303.89,903.18,309.16,903.29ZM198.8,1144.74c-6.82-2-12.14,2.33-18.11,4C187.4,1150.35,192.94,1146.92,198.8,1144.74Zm544-723c-3.4,6.8-3.39,13.38-.07,19.84C743.42,434.81,745.83,428.7,742.78,421.75ZM113.42,770.48c.71,7.16,7.43,8.82,10.77,13.82C123.87,776,121.07,772.41,113.42,770.48ZM347.36,987.05c5.14-2.23,5.73-8.2,10-11.18C350.26,974.11,350.08,974.31,347.36,987.05ZM297,1117.2c6.78-.34,14.23-6.24,15.15-11.76C306.55,1108.69,301.51,1111.84,297,1117.2Zm-71.51,31.93c-5.65,3.35-11.73,4.25-16.93,8.34C215.2,1158.78,223.71,1154.66,225.44,1149.13Zm97.43-229.74c1.69-2.38,3.9-4.7,2.05-6.8-2.84-3.25-6.29-6.27-11.83-6.39C316.71,910.78,321.51,913.53,322.87,919.39ZM709.21,340.48c.43,4.92,1.63,8.86,6.79,10.24.65.18,1.18.53,1.74-.06s.31-1.12,0-1.77C716.21,344.92,713.2,342.46,709.21,340.48ZM188,1162.93c7.06,1.26,12.56-1.47,18.17-3.61C199.84,1157.81,194.06,1159.07,188,1162.93ZM630.3,695.56c1.14,1.86,2.4,3.1.92,5.4s1,3.69,2.68,5.43c1.64-3.64,3.27-7.16,1.79-10.78C634.68,693.13,632.39,695.91,630.3,695.56ZM621.94,71.93c-1.75-11-4-16.39-8.39-19.49C616.71,59,617.67,65.81,621.94,71.93Zm-300,1028.41c4.45-1.71,5.89-5.88,9.09-8.06.29-.2.23-1.6.05-1.67a3.45,3.45,0,0,0-2.35-.25C324.83,1092.21,322,1094.85,321.9,1100.34ZM417,1061c-3.72,5.89-8.59,11.26-10.54,18.27C411.72,1074.22,413.83,1067.33,417,1061ZM284.37,785.85a5.11,5.11,0,0,0-4.76-2.76c-1.91,0-2.09,2.42-1.95,4.07.11,1.41.69,3.47,2.6,2.5C281.79,788.88,284.18,788.46,284.37,785.85Zm65.07-52.32c-2.41,3.91-4.06,7.38-4,11.75C352.08,740.61,352.55,739.37,349.44,733.53ZM737.51,463.67l-3.5,16C740.24,471.24,740.29,471.05,737.51,463.67ZM633.79,80.15l-1.55.15q.53,8.39,1,16.77l.52-.07ZM111,909.72q2.42,10.69,4.82,21.38l1.2-.29C114.94,923.79,115.47,916.16,111,909.72ZM372.4,1041.79c4.11-3.62,5.45-7.21,4.76-12.06C374.27,1033.59,373.27,1037.71,372.4,1041.79ZM521.79,1004c-3.42-2.47-7.76-1.55-11.38-3.18-.78-.35-1.49-.79-2.13.13-1,1.49.66,1.66,1.22,2C513.36,1005.39,517.65,1003.74,521.79,1004Zm-104-52.05c-2.52,5.61-2,7,3.85,10.66C420.76,958.84,420.23,955.35,417.76,951.91Zm126.16,50.3c-4.89-3.73-7.85-1.3-11.72,1.66C536.7,1004.68,539.82,1003.43,543.92,1002.21Zm198-557.47c-3.71,3.8-2.93,7.39-1.19,11.86C742.65,452.45,742.37,448.91,741.94,444.74ZM446.07,879.52c-4.22-1.83-6.73,1.47-9.78,1-.72-.11-2.44.18-1.78,1.56.35.71,1.11,2.36,3.08,1C439.83,881.64,442.61,880.94,446.07,879.52ZM282.14,316.8c-2.64,2.82-5.41,5.71-5,10.3C281.23,324.75,280.26,320.13,282.14,316.8Zm173,572.9c3.92.9,7.59.4,10.67-2.34Zm-299,314.2a23.21,23.21,0,0,0,14.06.66A57.07,57.07,0,0,1,156.15,1203.9ZM645.22,915.6c-1,2.62-1.8,4.49-1,6.58a2.33,2.33,0,0,0,1.75-.27C647.61,919.92,647.05,918,645.22,915.6ZM297.7,864c2.68.8,5,.13,7.6-1.83C302,860.74,299,858.41,297.7,864ZM183.48,983.77c0-3.08.75-6.48-3.22-8.63C180,978.74,183.33,980.77,183.48,983.77Zm-71.81-225c.37-.2.79-.3.8-.44a1.81,1.81,0,0,0-.27-.9c-.22-.45-.6-.47-.71,0A3.79,3.79,0,0,0,111.67,758.81Z"/><path class="cls-2" d="M614.31,1040.05c-3.17-1.27-3.9-2.2-.81-5.15,5.29-5.07,12.36-6.72,18.13-10.71,2.09-1.45,4.48-.91,6.77-1C630.92,1029.59,624.06,1036.89,614.31,1040.05Z"/><path class="cls-2" d="M327.33,1212.39c-.18-.35-.54-1-.52-1,7.4-4.43,14.44-9.57,22.64-12.49,4.95-1.76,2.51,2.56,3.11,4.34C345.11,1208.93,337,1212.87,327.33,1212.39Z"/><path class="cls-2" d="M696.58,187.32c-.78,6.67-.72,13.48-3.38,19.92a48.25,48.25,0,0,1-.55-16.76c.53-3.3,1.24-6.44-.28-9.56-2.18-4.51-1.34-9-.09-13.51a11.31,11.31,0,0,1,4.14,9.6C696.3,180.44,696.52,183.88,696.58,187.32Z"/><path class="cls-2" d="M506.32,1088.14c-2.25-1.48-5.64-1.08-7.46-5.08l26.48,2.14c-.13.76.12,1.87-1,1.93C518.33,1087.44,512.43,1089.66,506.32,1088.14Z"/><path class="cls-2" d="M648.28,1010.48c-2,1.44-4.51,1.72-6.81,2.48-.09-5.93,2.45-8.29,11.17-10.43C653.55,1006.47,649.75,1007.84,648.28,1010.48Z"/><path class="cls-2" d="M216.5,1257.13c1.76-2.43,6.32-2.66,9-.45Z"/><path class="cls-2" d="M248.28,1249.49c3.66-3.52,8.54-3.32,13-4.28C257.44,1248.06,252.48,1247.62,248.28,1249.49Z"/><path class="cls-2" d="M284.76,255.63c-.84-1.57-.2-2.83.71-4.11,3-4.29,5.86-8.74,9.64-12.47,1.15-1.13,2.93-1.69,2.51-4.16-.28-1.63,2.28-1.38,3.3-2.36.89.95,2.68.56,3.17,2.07a2.88,2.88,0,0,1-.92,3.17c-3.83,2.93-5.87,7.35-9.19,10.75A37.79,37.79,0,0,1,284.76,255.63Z"/><path class="cls-2" d="M803.82,375c-3.12-9.93-6-18.54-8.49-27.26-.93-3.28-3.41-6.07-3.1-9.72.07-.93-1.84-2.09.21-2.79,1.57-.53,2.06.89,2.47,1.86,2.94,6.94,5.94,13.92,7.2,21.36C803,363.49,804.92,368.39,803.82,375Z"/><path class="cls-2" d="M69.91,871.53a14.85,14.85,0,0,0,1.46,1.26c5.23,3.52,10.42,7.11,15.75,10.48,1.5.94,2.22,2.36,3.32,3.54.72.79,1.32,1.56.5,2.53s-1.65.2-2.25-.13A141.47,141.47,0,0,1,68.9,875.64C67.6,874.58,68,872.61,69.91,871.53Z"/><path class="cls-2" d="M744.12,632c.73-9.25,5.64-15.76,9.65-22.64a2.43,2.43,0,0,1,3.47-.93c.92.47,1,1.21.49,2.06-3.72,6.55-6.33,13.7-10.64,19.94C746.69,631,745.72,631.17,744.12,632Z"/><path class="cls-2" d="M266.09,286c0-6,5-8.79,5.64-13.54.06-.49,1.53-.67,2.2-.08s.13,1.34-.23,2.09C271.8,278.41,270,282.35,266.09,286Z"/><path class="cls-2" d="M80.85,540c1.42,4.12,1.42,4.12-3.43,6.91C76.89,543.72,79.32,542.29,80.85,540Z"/><path class="cls-2" d="M225.93,367.18c-1.35-.24-2-1.25-1.58-2.1a6.13,6.13,0,0,1,2.71-2.47c.62-.29,1.57.73,1.3,1.56C227.93,365.45,227.62,367,225.93,367.18Z"/><path class="cls-2" d="M559.51,177.15c-.63-1.56-3.36-2-2.2-4.25.37-.72,1.51-1.35,2-.81C560.7,173.48,560.07,175.32,559.51,177.15Z"/><path class="cls-2" d="M68.66,1214l-.83-.55.48-.31.33.88Z"/><path class="cls-2" d="M477.23,1077.75c.88-.25,1.62,1,1.32,2.73a12.11,12.11,0,0,1-4.41,7.46c-1.11.88-3.55,1.48-4.49.86-1.41-1-.6-3.09.12-4.55C471.11,1081.53,472.4,1078.65,477.23,1077.75Z"/><path class="cls-2" d="M447.81,1099.89c1.23,4.1-1.73,6.66-.95,9.73C443.78,1106.51,446.89,1103.88,447.81,1099.89Z"/><path class="cls-2" d="M581.22,568.58c-2.76-14.93-1.36-27.62,6.86-39.79A389.28,389.28,0,0,0,611.87,488c6.44-12.61,15.29-23.89,20.26-37.29,2.62-7.07,5.35-14.1,8.09-21.12.78-2,1.75-3.92,2.67-5.85,1.05-2.2,2.29-4.43,5.22-3,2.47,1.22,2.8,3.25,1.63,5.86a151.22,151.22,0,0,0-8,22.12c-5.52,20.14-14.42,39.06-21.82,58.53-2,5.21-3.95,10.47-6,15.62-3,7.34-8,13.74-13.61,19.33-4,4-7,9-11,12.64S583.52,563,581.22,568.58Z"/><path class="cls-2" d="M382.34,559.89c-.9-4.64,2.39-8.12,4.76-11.71a137.43,137.43,0,0,0,12.45-24.48c3.46-8.55,9.29-16.23,14.67-23.87a132.8,132.8,0,0,0,16.53-31.23c3.14-8.59,7.48-17.2,13.71-24.43a11.26,11.26,0,0,0,1.81-4c3.13-10,10.06-17.94,14.33-27.32.45-1,.86-5.21,4.26-2.87,2.39,1.64,2.53,3.4,1.06,6.27-5.16,10.1-9.89,20.42-14.62,30.73-10.82,23.59-19,48.43-33.76,70.17-3.63,5.35-7,10.68-13.43,13.16-1.62.62-1.65,2.8-1.8,4.29-.86,8.86-6.3,15.77-9.92,23.43-1,2-1.7,4.31-3.08,6.11-.94,1.21-.42,4.13-3.05,3.45s-4.49-2.2-3.94-5.37A16,16,0,0,0,382.34,559.89Z"/><path class="cls-2" d="M641.05,330.14c-.11,15.93-4.47,31.21-7.24,46.73-.84,4.69-1.42,9.45-3.61,13.75-.79,1.54-.9,4.55-3.79,3.42-2.08-.81-4.45-1.39-4.38-5,.2-9.58,2-19,2.76-28.48,1.57-19.84,3.38-39.71-1.45-59.41-.24-1-.65-1.86-.8-2.83-.22-1.41-2.37-3-.24-4.18,1.44-.78,1.53,1.79,2.81,2.16.45.14.81.78,1.24.8,10.95.48,11.2,9.14,13,16.75A62,62,0,0,1,641.05,330.14Z"/><path class="cls-2" d="M555.26,530a68.31,68.31,0,0,1-4.32,17.08c-3.49,9.39-5.65,19.25-9,28.6-5.2,14.47-6.52,30.21-14.63,43.75-2.12,3.53-2.69,8-4,12a22.19,22.19,0,0,1-1.6,4.14c-1.42,2.46-4,3.87-6.47,3-2.83-1-1.8-3.45-1.13-6.06,3.28-12.83,11.34-23.81,13.81-37A178.19,178.19,0,0,1,533,575.12c.76-2.42,2.25-4.33,3.1-6.63,3-8.18,3-17.18,7-25.14,2.42-4.84,4.26-10,8.46-13.64.68-.59,1.52-1.94,2.9-.92C555.37,529.51,555.24,530.53,555.26,530Z"/><path class="cls-2" d="M369.28,487c1-7.15,4.42-13.39,7.59-19.64,2.64-5.19,5.1-10.63,10.08-14.33,2.38-1.76,4.9-2.62,7.32-1.22,2.19,1.27,1.73,3.61,1.16,6.06-1,4.11-3.26,7.46-5.17,11-3.16,5.91-7.17,11.45-8.84,18.05-.88,3.47-3.65,5.05-6,6.83C372.75,495.75,369.25,491.79,369.28,487Z"/><path class="cls-2" d="M576.12,530.22c-1.22,6.72-4.61,12.35-5.71,18.56a133.13,133.13,0,0,1-12,35.74c-.77,1.56-1.23,4.15-3.41,3.4-2.51-.86-2.06-3.14-1.58-5.66,2.35-12.4,5.87-24.51,9.16-36.65,1.56-5.75,3-11.69,6.47-16.9,1.45-2.19,3.12-2.92,5.08-2.62C576.51,526.46,574.77,529.44,576.12,530.22Z"/><path class="cls-2" d="M459.12,698.75c6.15,9.89-2.59,14.91-5.64,21.43-2.66,5.72-6.58,10.78-9.54,16.44S434.89,746,429.7,750c-1.07.83-1-2.53-3.15-2.26-.5.07-1-3.08-.36-4.73a10.75,10.75,0,0,1,2-3.4C439.73,727.1,448.31,712.37,459.12,698.75Z"/><path class="cls-2" d="M536.31,269.16c-.21-2.57,1.9-3.07,2.51-4.54-5.2-3.35-5.82-3.12-7.38,3-.74,2.89-3.63,2.55-5.17,2.52-5.94-.11-11.1,1.46-16.55,3.88-3.51,1.56-8.47.18-12.08-2.69-1.71-1.36-.79-2.22.41-3.43,4.78-4.84,10.93-7,17.23-8.34a44.73,44.73,0,0,1,29,3c1.18.55,2.66.76,3.25,2.13.8,1.88,1.9,3.8-1.84,3.74A93.63,93.63,0,0,0,536.31,269.16Z"/><path class="cls-2" d="M458.3,739.57c1.47-9.87,6.51-17.8,13.68-24.48a3.32,3.32,0,0,1,4.59-.2c1.68,1.52.11,3.54.28,4.8,1,7.27-3.11,13.39-3.62,20.23-.2,2.73-1,5.52-3.52,7.25-2.19,1.51-5.18,2.17-7,.77C460.19,746.07,457.78,743.41,458.3,739.57Z"/><path class="cls-2" d="M393.6,401.36c-3.32-7.78.76-14.62,2.85-21.53,1.38-4.55,2.48-9.56,6.19-13.13,2.65-2.55,5.66-6.46,9.34-4.22,4.07,2.47,1.31,6.56-.27,9.89-2.06,4.3-3.85,8.74-6.12,12.92C402.36,391.21,400.47,398.18,393.6,401.36Z"/><path class="cls-2" d="M386.39,527c-1.84,11.29-6.91,19.44-15.22,25.3-2.57,1.82-4.47,3.44-4.75,6.56a6.09,6.09,0,0,1-1.67,3.52c-.81.93-1.31,2.54-3.07,1.24a2.56,2.56,0,0,1-.81-3.5c4.21-9.78,8.33-19.6,12.66-29.32a14.32,14.32,0,0,1,5.84-6.62c1.25-.73,2.6-2.19,4.32-1S387,525.58,386.39,527Z"/><path class="cls-2" d="M361.25,577.43c-.24,7.09-5.32,10.34-7.45,15A98.08,98.08,0,0,1,344.94,607c-5.52,8.06-13.41,13.66-20.37,20.22-1.39,1.31-4,3.24-5.64,1.27s.65-4.7,2.23-5.77c6.7-4.53,10.83-11.42,16.39-16.94a74,74,0,0,0,13.92-19.08C353.54,582.69,357.56,580.81,361.25,577.43Z"/><path class="cls-2" d="M522.36,669.43c-.38,5.12-2.67,9.73-4.13,14.55-2.56,8.42-5.45,16.74-8,25.17-1,3.52-3.29,3.61-6.1,3-3.53-.82-1.43-3.22-1.05-4.73,3.46-13.87,8.85-27.1,13.7-40.5.38-1,.68-3,3.09-1.87S522.39,665.77,522.36,669.43Z"/><path class="cls-2" d="M247.35,602.5c.22-8.93,11-18.7,19.29-18.21a4.59,4.59,0,0,1,4.11,6.45c-1.28,2.82-2.58,5.63-5.19,7.69-2.8,2.22-5.29,4.82-7.89,7.29s-5,1.59-7.8.62A3.31,3.31,0,0,1,247.35,602.5Z"/><path class="cls-2" d="M297.45,548c5.26.09,5.86.84,3.66,5.25-4.07,8.19-11.28,13.68-17.66,19.85-1.23,1.2-3.9,1.62-4.56.48-1.24-2.15-4.05-4-2.53-7.28,1.7-3.63,3.74-7.26,6.78-9.67C287.48,553.21,290.89,547.87,297.45,548Z"/><path class="cls-2" d="M312.33,610.38c.71-1.91,1-4.3,2.26-5.78,4.48-5.08,6.79-11.76,12.12-16.15,3.12-2.56,7-6.74,10.51-3.78,3.35,2.78-.87,6.84-2.7,9.71-3.29,5.13-7.36,9.75-11,14.62a14.42,14.42,0,0,1-6.29,4.69C313.94,615,313.05,613,312.33,610.38Z"/><path class="cls-2" d="M347.32,460.75c.14-3.82,2.06-7.64,4.2-10.9,3.22-4.88,5.85-10.84,12.91-11.79,3.54-.48,5.58,1.32,4.39,4.47-3,7.93-8.35,14.55-12.54,21.82-1.46,2.52-4.43,2.33-6.82,1.78S347.44,463.11,347.32,460.75Z"/><path class="cls-2" d="M566.32,310.78c-.9-5.09-5-2.36-7.1-5.14-.92-1.21-2.35-2.38-2.33-3.9.13-8.94,4.4-16.61,8-24.42.57-1.24,2.28-2.77,4.13-1.77,2.18,1.18,4.25,2.7,4.25,5.63a18.73,18.73,0,0,1-2,7.47,37.46,37.46,0,0,0-3.12,15.74C568.23,306,567.27,307.67,566.32,310.78Z"/><path class="cls-2" d="M425.05,346.12a41.79,41.79,0,0,1,3.06-10.22c2.66-5.57,6.77-10.07,10.84-14.57,1.29-1.43,3.37-3.13,5.35-1.74,2.26,1.59,3.6,3.62,1.73,7-4.17,7.56-7.33,15.75-14.21,21.46-.91.75-2.37,2.55-3.62,1.34S424.37,347.85,425.05,346.12Z"/><path class="cls-2" d="M621,437.33c-1.38,4.8-2.62,9.6-5.78,13.49-2.41,3-4.83,5.78-5.38,9.81-.19,1.36-1.29,2.68-2.2,3.84-1.83,2.31-3.38,1.8-4.17-.85-2.68-9,3.11-25.75,12.36-29.4C619.62,432.71,621.09,433.37,621,437.33Z"/><path class="cls-2" d="M563.06,323.73c-1.17,5.42-2.65,10.79-3.42,16.27-.58,4.15-2.85,5.45-6.42,5-4.23-.55-5-4.05-4.55-7.31.82-6.38,4.32-12,5.86-18.24.58-2.39,4-1.58,6.08-1C563.11,319.18,563.35,321.37,563.06,323.73Z"/><path class="cls-2" d="M235.37,628c.06,4.82-7.43,12.9-12.1,13.31-3.19.29-4.26-4.3-7.71-3.1,0-2.41-.53-5,.91-7.1,2.92-4.29,6.54-7.83,11.94-8.72C232.78,621.63,235.33,623.78,235.37,628Z"/><path class="cls-2" d="M406.29,774.86c.75-3.31,1.31-7.35,5.47-9.65,2.4-1.32,4.46-3.3,6.93-4.47s4.92-1.6,7.07,1.61,1,5.43-1.15,7.11c-4.38,3.37-6.57,9.71-13.41,9.84C407.61,779.37,406.33,778.62,406.29,774.86Z"/><path class="cls-2" d="M520.08,337.42c3.81,7.42,4.66,14,1.55,21-1.46,3.26-2.14,7-5.17,9.29-1.28,1-2.34,3.85-4.25,2.06-1.43-1.33-3.82-3.1-1.84-6.16,2.52-3.9,2.3-8.83,4.15-13C516.26,346.56,517.91,342.54,520.08,337.42Z"/><path class="cls-2" d="M204.36,655.68c-.48-3.84.74-7.69,2.83-11.33.82-1.43,1.67-2,3.53-1.17,7.11,3.29,9.18,13.62,3.85,19.14-2.2,2.29-4.5,3.09-7.39,1.95s-3-3.63-2.83-6.19C204.39,657.42,204.36,656.76,204.36,655.68Z"/><path class="cls-2" d="M438.34,412.65c.22,4-5.63,11.1-9.06,11.49-2.73.31-6.62-3.58-5.85-6.18a21.85,21.85,0,0,1,5.74-9.51c1.43-1.37,3.27-2.32,5.8-1S438.94,410.16,438.34,412.65Z"/><path class="cls-2" d="M489.74,697.29c-1.44-1.34-5.31-1.18-3.46-5.19,2.59-5.61,5.19-11.22,8-16.73.92-1.82,2.84-2.86,4.8-1.89s2.58,2.36,1.4,4.81c-2.43,5.05-4.24,10.38-6.44,15.54C493.31,695.48,492.27,697.05,489.74,697.29Z"/><path class="cls-2" d="M441,780.47c1.46,1.13,4.1,1.82,2.88,5-1.56,4-3.48,7.88-6.7,10.87-1.5,1.38-3.22,2.36-5.38,1.32s-2.5-2.87-2.48-5C429.36,787.64,436,780.45,441,780.47Z"/><path class="cls-2" d="M353.62,473.32c1.74,4-3.78,4-4,7.58-.15,2.23-2.34,4.89-3.5,7.42-1.58,3.45-4,3.34-6.2,1.07-1.93-2-3.75-4.73-2.66-7.75,1.24-3.45,4.16-6,7.68-6.08,2.66,0,4.74.3,6.29-2.29.17-.29,1.52.12,2.32.21Z"/><path class="cls-2" d="M277.8,676.8c-1-.83.12-4-3.32-2.17-2.07,1.14-4.24-2.59-2.78-5.19,2.33-4.15,6.24-7.31,7.28-12.33.3-1.45,2.36-.72,3.59-.75,1.56,0,1.05,1.33,1.45,2.27,2.06,4.89-2.11,7.94-3.32,11.75A36.19,36.19,0,0,1,277.8,676.8Z"/><path class="cls-2" d="M548.36,614.93c-1.9-7,2-13.79,7.11-13.74,3,0,5.21,1.09,5.73,4.21.66,4-1.31,7-4.18,9.47-.25.22-1.5-.25-1.87-.72C552.77,611.16,550.49,611.29,548.36,614.93Z"/><path class="cls-2" d="M616.91,415.44c-2.4-.67-6,.52-5.55-3.94.36-3.71,5-11.08,7-11,2.37.06,5.92,6.5,5.46,9.92C623.52,412.54,619.26,415.59,616.91,415.44Z"/><path class="cls-2" d="M508.32,656c0,2.64-5,8.82-6.84,8-1.41-.6-4.17-.48-4.13-3.25.07-4.33,3.47-9.42,6.38-9.51C507,651.13,507.88,653.33,508.32,656Z"/><path class="cls-2" d="M427,437.63c0,2.61-5.67,9.88-7.58,10.05s-1.49-2.18-2.6-3c2.29-2.7,1.87-6.89,5.19-9.1a4.09,4.09,0,0,1,4.17-.37A1.66,1.66,0,0,1,427,437.63Z"/><path class="cls-2" d="M331.84,539.91c-1.87-5.2,2.49-8.62,2.86-13,.1-1.2,1.94-.52,2.38,0,1.52,1.63,1.65,5.49,1.25,5.63C334.69,533.81,336,539.17,331.84,539.91Z"/><path class="cls-2" d="M403.58,483.18c1.11,1.85,4.42,1.59,3.73,4.67-.75,3.38-2.85,5.65-6.17,6.12a2.36,2.36,0,0,1-2.53-3.3C399.7,487.9,400.34,484.7,403.58,483.18Z"/><path class="cls-2" d="M377.46,416.69c-1,3.55-3.71,5.86-7.08,7.25-1.86.77-2.16-1-2-2.36.56-3.75,2.5-6.92,5.9-8.4C376.06,412.41,377.08,414.64,377.46,416.69Z"/><path class="cls-2" d="M312.29,523.4c-.09,4.33-5.74,8.84-9,7.7-1.81-.64-1.61-2.63-.69-3.66a34.14,34.14,0,0,1,6.23-5.53C311.17,520.33,311.94,522.14,312.29,523.4Z"/><path class="cls-2" d="M362.05,521.22c-2.07-2.69-2.33-5.07,1.13-6.66a1.08,1.08,0,0,0,.58-.7c.05-1.12-2-2.73.37-3.09.48-.08,2.47,4.07,2,4.53C364.38,517.08,365,520.4,362.05,521.22Z"/><path class="cls-2" d="M473,279.81c0,.08-.1.33,0,.5.57,1.27,1.68,2.54,1.66,3.8,0,1.9,5,2.65,1.4,4.67-1.78,1-4.47-1.07-6-2.72a10.17,10.17,0,0,1-1.79-2.37A56.62,56.62,0,0,1,473,279.81Z"/><path class="cls-2" d="M583,457.09c3.78,4.9,3.79,7.38.37,10.37-.61.54-1.13,1.12-2.12.89-1.31-.3-1.26-1.31-1.38-2.28C579.61,464.18,579.88,463.38,583,457.09Z"/><path class="cls-2" d="M457.69,304.28c-.29-.14-.86-.33-.84-.42a78.92,78.92,0,0,1,1.82-9.48c.24-.79,2.2-.63,3.17.18,2,1.64,1,3.66.36,5.48C461.49,302.12,458.9,304.38,457.69,304.28Z"/><path class="cls-2" d="M493.91,734.8c-.36,4-1.56,6.72-4.66,7.26-1.21.21-3-1.57-3-3.71,0-3.11,2-4.23,4.59-4.51C492.19,733.71,493.88,733.56,493.91,734.8Z"/><path class="cls-2" d="M441.66,818.18l5.09-8.75a2.32,2.32,0,0,1,3.35-1c1.56.8.45,2,.16,3C449.17,815.22,446.91,817.67,441.66,818.18Z"/><path class="cls-2" d="M323.47,563.77c-1.25,1.55-1.11,4.33-4.2,4.47-2.18.1-2.84-1.17-3.07-3-.36-3,1.73-4.24,3.91-4.75C321.93,560.05,322.81,561.87,323.47,563.77Z"/><path class="cls-2" d="M415.14,458.72c-.84,3.5,1.82,7.1-2.69,8.6-1,.31-2.8.78-3-1.27C409.16,462.37,411.74,460.81,415.14,458.72Z"/><path class="cls-2" d="M590.91,442c1.61,4.1-1.89,6-2.95,8.79-.13.36-1.6.57-2.23.3-.83-.34-.74-1.44-.51-2.21A11.3,11.3,0,0,1,590.91,442Z"/><path class="cls-2" d="M599.82,476.52c1.49-.22,1.54.86,1.55,1.85,0,2.33-.83,4.24-3.27,4.84-.79.2-1.91.15-2-1.39C596,479,597.88,477.81,599.82,476.52Z"/><path class="cls-2" d="M534.44,287.76c2.1-1.63,2.34-5.18,5.72-4.25,1.25.35,1,1.28.47,2.35C539.31,288.7,537.37,289.24,534.44,287.76Z"/><path class="cls-2" d="M395.83,499c-.08.69-.16,2.39-2.1,2.47-1.07,0-1.23-1.3-.66-1.84,1.42-1.35-1.5-4.28,1.61-4.57C395.52,495,396,496.94,395.83,499Z"/><path class="cls-2" d="M326.53,497.24c.78-4.44.78-4.44,4.38-6.43-.46,1.3-.55,2.77-1.3,3.34A8.5,8.5,0,0,0,326.53,497.24Z"/><path class="cls-2" d="M187.14,671.66c2.16-1.33,2.91-4.15,5.55-3.2,1,.37,1.1,1.62.34,2.89C191.36,674.15,189.53,672.58,187.14,671.66Z"/><path class="cls-2" d="M264,660.43c-1.91.48-1,4.14-4,3.24-.31-.1-.74-.92-.64-1.06C260.5,661.15,261.15,658.94,264,660.43Z"/><path class="cls-2" d="M353.53,473.48l-.17-.24.25.09Z"/><path class="cls-2" d="M361.47,264.46C359,274.86,351.36,282.31,346,291c-6.45,10.48-13.3,20.6-18.3,32-3.92,8.89-5.39,19.09-12.89,26.24-.62.59.13,1.21.09,1.74-.25,3.21-.12,6.53-4.93,6.82-1.82.11-2.8,2.51-3.5,4.42-1,2.72,1.41,1.66,2.37,2.26,2,1.25,1.59,8.62-.58,11.34-8.81,11.06-14.51,23.85-20.2,36.63-4.76,10.67-9.27,21.48-13.72,32.24-6.48,15.64-16.57,28.64-26,42.26a46.11,46.11,0,0,1-16,14.94c-6.25,3.4-11.23,8.49-15.89,13.84-2,2.33-3.81,5.22-7.61,4.58-1.18-.2-2.45,2.22-3.3.16a4.44,4.44,0,0,1,.48-4.28c2.68-3.75,4.82-7.9,8.18-11.15,22.33-21.59,37.11-48.16,50.67-75.68,8.29-16.83,15-34.3,22.6-51.41,7.11-16,13.7-32.29,21.65-47.91,11.47-22.58,25.62-43.31,44.17-60.77a85.33,85.33,0,0,1,7.45-5.71Z"/><path class="cls-2" d="M221.37,536.91c1.52-7,4.76-13.58,11.94-17.49,9.6-5.23,15.76-13.69,22.23-22.15,9.47-12.36,16.63-26,24.47-39.34,4-6.85,9.8-12.69,11.8-20.69,1.78-7.15,5-13.76,7.69-20.57a24.39,24.39,0,0,1,4.28-6.48,3.23,3.23,0,0,1,4.16-.54c2.18,1.54,4,3.55,3.7,6.6-.39,4.59-2.93,8.48-5.06,12.17-8.05,13.95-14,28.87-21.25,43.2-4.77,9.48-11.87,17.34-17.85,26-3.75,5.42-7.58,10.79-11.34,16.2a111.21,111.21,0,0,1-26.75,27.39c-1.9,1.36-4.62.14-6.88-.17C220.9,540.79,221.33,538.91,221.37,536.91Z"/><path class="cls-2" d="M342.34,353.67c-8.91,14.18-11.09,30.84-19.46,44.84-1.61,2.7-1.31,6.57-5,8-1,.41-2.16,1.75-2.49-.35-.92-5.64-3-10.73-.28-17.11,4.18-9.86,7.83-20,12.37-29.71a26,26,0,0,1,5.89-8.34C336.61,348.12,338.35,354.58,342.34,353.67Z"/><path class="cls-2" d="M203.86,555.24c1.18,3.27-.17,5.24-2,7.1-9.28,9.26-18.52,18.56-27.82,27.8-.75.74-1.51,2.05-2.9,1.42-1.15-.51-.51-1.76-.75-2.66-2.61-9.82,3.66-15.91,9.8-21.44,5.83-5.26,12.59-9.51,19.06-14,1.25-.88,2.29-3,4.16-2.15C205.54,552.21,203.28,554.3,203.86,555.24Z"/><path class="cls-2" d="M110.74,657.86c-1.66-.06-3-6.17-2.69-8.1,1.65-8.72,8-14.67,12.44-21.69,2.17-3.4,1.1-8.14,4.62-11.09a13.12,13.12,0,0,1,2-1.84c1.06-.57,2.23-1.21,3.23-.49,1.22.88.26,2.17-.1,3.18-1.71,4.8-4.36,9.13-6.94,13.47-4.6,7.73-7.6,16.16-11,24.41C112,656.6,111.65,657.49,110.74,657.86Z"/><path class="cls-2" d="M381.69,281.32c1.92.4,4.14.48,2.74,4.16-1.87,4.87-6,8.11-8.44,12.57-1.19,2.14-4.2,2.34-5.28-1.52C369.48,292.12,376.65,281.52,381.69,281.32Z"/><path class="cls-2" d="M410.45,229.33c1.15.23,2.78-.58,3.56.78s.1,2.8-.78,4.08c-2.94,4.28-6.42,7.76-11.78,8.86-2.2.45-3.17-.21-3.1-2.41C398.49,236.08,405.62,229.38,410.45,229.33Z"/><path class="cls-2" d="M338.32,336.1c.1-6.26,3.08-10,7.6-9.77,3.57.21,5.25,2.17,4,5.57a13.55,13.55,0,0,1-8.55,8.19C337.28,341.48,338.68,337.79,338.32,336.1Z"/><path class="cls-2" d="M144.81,618.07c-3.54-.38-4.61-2.42-4-5.24.92-4.43,4.15-6.9,8.13-8.45,2-.79,2.88,1.06,3.49,2.29C154,609.86,148.07,618.18,144.81,618.07Z"/><path class="cls-2" d="M360.76,263.52c.6-.62,1.29-1.88,2.11-.92.53.61-.71,1.37-1.4,1.86Z"/><path class="cls-2" d="M257.29,1020.19c-.13,5.38-4.13,10.64-10.24,12.92-4.06,1.52-6.2-.2-7-3.75-1.15-5.33,2.49-9,5.59-12.47,2.47-2.82,5.62-3,9.46-1.92C258,1015.8,257.33,1017.17,257.29,1020.19Z"/><path class="cls-2" d="M203,1057.28a6.34,6.34,0,0,1,5.8,2.3c1.71,1.94,1.19,3.53-1.13,5.16-.6.42,1.24,3.86,3.65,3.46,1.44-.24,2.39.06,2.73,1,.78,2.24-2.43,3.27-2.11,5.62a3.2,3.2,0,0,1-3.09-.45c-2.43-2.76-4.81-4.41-8.21-1.19-1.35,1.27-3.22.22-4.66-.36-1.69-.69-1.56-2.46-1.12-3.88,1.08-3.54,1.35-7.44,4.42-10.18C200.35,1057.8,201.23,1056.57,203,1057.28Z"/><path class="cls-2" d="M245.3,1062.91a9.27,9.27,0,0,1,3.66-5.5,40.19,40.19,0,0,0,9.5-9.92c2-2.91,5.77-2.15,8.72-3.09.47-.16,2.22.65,1.58,2.94-1.95,7.09-8.05,10.22-12.88,14.55a54.44,54.44,0,0,1-6,4.23c-1.26.86-2.51.27-3.72-.17C244.55,1065.37,245.69,1064,245.3,1062.91Z"/><path class="cls-2" d="M179.69,1107.56c-1.22.61-3.23.72-2.24,2.91.74,1.61,2,.48,3,.24,2.06-.5,4.09-1.1,6.17-1.5a7.33,7.33,0,0,1,2.29.28,9.72,9.72,0,0,1-.63,2.31c-2.09,3.67-10.43,6.43-14.26,4.76-.93-.41-2.11-1.35-1.66-2,.81-1.25,1.18-3,3.06-3.45,2.86-.62,3.89-1.81,1.05-4l-.14-.1c.8,2.11,2.5-.42,3.5.68Zm2.18,7.19,1,.8c.24-.3,1-.24.67-.94a12,12,0,0,0-.73-1.17Z"/><path class="cls-2" d="M232.58,960.1c.68-3.27,2.26-5.66,5.23-6.73,2.17-.78,5-1.27,6.15,1.07s2.21,5.59-.84,7.95c-2.34,1.81-4.19.82-6.2-.73C235.71,960.73,234.72,958.75,232.58,960.1Z"/><path class="cls-2" d="M179.79,1107.66c2.47-2,4.77-4.34,7.49-6,.88-.53,3.91-2.48,4.27,1.47.18,2,1.43.5,2,.11,1.74-1.23,3.41-2.58,5.05-4,1.35-1.12,2.67-1.62,3.65.25.81,1.55.1,2.64-1.64,2.66-1.21,0-1.54.84-2.26,1.48-2.93,2.55-5.68,4.68-10.4,3-1.92-.69-5.74-1.52-8.25.83Z"/><path class="cls-2" d="M163.92,1091.78c-.61-.22-3.12.32-3.24-2.49s5-7.3,7.95-7a3.69,3.69,0,0,1,3.5,4.31C171.38,1089.92,169.06,1092.29,163.92,1091.78Z"/><path class="cls-2" d="M214.4,1090.34c.19-3.16,6.58-8.34,9.34-8.15a4.28,4.28,0,0,1,4,3.69c.23,1.41-1.35,3.24-3.12,3.29a10.79,10.79,0,0,0-7.17,2.42C215.9,1092.86,215.14,1091,214.4,1090.34Z"/><path class="cls-2" d="M261.89,961.17c1.21,4.08-2.17,5.22-4.73,6-1.25.39-3.38-2-2.68-3.78,1.06-2.77.69-6.28,3.69-8.18C259.3,957.24,263,957.65,261.89,961.17Z"/><path class="cls-2" d="M228.52,1013.62c-.84-5.74,3.89-8,7.07-11.08,1.64-1.56,2.46,1.38,2.27,1.89-1.16,3.34-3.36,6.12-5.44,9C231,1011.42,229.86,1013.58,228.52,1013.62Z"/><path class="cls-2" d="M226.37,916.1c-.07,3.48-2.62,4.9-5.09,5.84-.61.24-3-1.45-3.06-3.51-.07-2.48,3.36-6.52,5.32-6.11A3.29,3.29,0,0,1,226.37,916.1Z"/><path class="cls-2" d="M199.57,908.14c1.57,1.51,4.61,3.59,4.31,4.31-1,2.41-2.33,5.58-5.36,5.84s-1.86-2.89-2.11-4.46C196,911.35,197.79,909.61,199.57,908.14Z"/><path class="cls-2" d="M147.8,1104.15c-3.5,0-5.21-1-5-3,.19-1.82.43-4.22,3.57-4.26s4,2.79,4.29,4.27C151,1103,148.53,1104.06,147.8,1104.15Z"/><path class="cls-2" d="M224.94,1069.86c1.88-.8,1.59.75,1.53,1.45-.37,4.15-3.38,5.2-6.85,5.69-1.49.2-2.2-.4-2.27-1.86C217.22,1072.37,221.06,1069.73,224.94,1069.86Z"/><path class="cls-2" d="M137.61,1100.42c-1.87,2.06-2.86,5-6.33,4.73-1.16-.1-2.65,0-2.24-1.62.6-2.49,1.19-5.34,4.6-5.46A4.15,4.15,0,0,1,137.61,1100.42Z"/><path class="cls-2" d="M271.62,1010.77c-3.1.68-4.22-1.34-4.18-2.7.05-1.81,2-3.05,3.83-3.3,2.3-.31,3.73,1.86,3.91,3.44C275.51,1011.05,272.55,1010.26,271.62,1010.77Z"/><path class="cls-2" d="M230,1051.75c-1.1.18-2-.5-1.8-1.19a6.76,6.76,0,0,1,3.78-4.18c1.67-.67,1.9,1.67,1.93,2.11C234.1,1051.15,231.3,1050.65,230,1051.75Z"/><path class="cls-2" d="M236.9,973.67c-.6,1.42-.86,2.92-2.07,3a3.42,3.42,0,0,1-3.17-2.25c-.38-1.27,1.37-1.77,2.41-1.79A8,8,0,0,1,236.9,973.67Z"/><path class="cls-2" d="M121.63,1096.92c-.56,1.12-1.8,1.74-1.88,1.35-.41-2.24-4,.57-3.66-2.49.11-.86.51-1.87,1.42-1.47A29.26,29.26,0,0,1,121.63,1096.92Z"/><path class="cls-2" d="M218,922.07l-.33-.16.34-.47.33.32Z"/><path class="cls-2" d="M176.43,1107.08l-.21.11a1.67,1.67,0,0,0,.08-.2Z"/></g></g></svg>