<svg xmlns="http://www.w3.org/2000/svg" viewBox="0 0 86.35 78.52"><defs><style>.cls-1{fill:#0c0b0a;}</style></defs><title>Ativo 11</title><g id="Camada_2" data-name="Camada 2"><g id="Camada_1-2" data-name="Camada 1"><path class="cls-1" d="M86.35,10v4C74,13.66,62,16.6,49.17,18.1c5.21,2.14,3.23,3.57.74,5.18a42.17,42.17,0,0,0-3.82,3.14c-3.83,3.17-7.62,5.43-13.13,5.83S22.67,36,19.62,41.33c-1.44,2.54,1.08,4.43-.05,6.54C16.18,54.15,14,60.57,15.08,68c.42,3-.94,6.15-1.49,9.24-.73.15-1.57.15-1.62,1.2-4,0-8.45.11-11.92.11l0-12C.07,45.36.11,24.2,0,3,0,.56.56,0,3,0,29.82.1,59.5.06,86.28.06,86.28.06,86.35,10,86.35,10ZM32.4,28c1-1,1.8-1.76,2.6-2.56,1.09-1.11,2.93-1.6,3-3.5,0-.25-.71-.83-.92-.76A7.6,7.6,0,0,0,33,24.53C32.5,25.42,31.45,26.36,32.4,28Z"/></g></g></svg>