<svg xmlns="http://www.w3.org/2000/svg" viewBox="0 0 543.86 746.25"><title>Ativo 3</title><g id="Camada_2" data-name="Camada 2"><g id="Camada_1-2" data-name="Camada 1"><path d="M66,134.68c6-5.71,12-10.68,17-16.51,10.55-12.22,20.39-25,30.84-37.34,29.38-34.6,63.76-62,108.4-74.41C268.78-6.5,312.92.65,355.09,22.79c26.76,14,48.51,34.27,68.57,56.56,13.8,15.34,27.91,30.39,42,45.46,2.2,2.36,5.05,4.12,8.07,6.53,3.25-7.29,7.42-12.87,14.49-15.77A31.58,31.58,0,0,1,529,132.29c11.83,27.86.74,61-25.72,75.91-8.2,4.61-16.57,9.4-25.47,12.12-24.88,7.62-47.16,1-67.68-14.08C384,187,355.63,172.34,323.78,165.06c-21.18-4.84-42.66-7.19-64.32-5.35-28.08,2.4-55.33,8.65-80.51,21.76-18.81,9.79-37.2,20.39-55.76,30.66-9.81,5.42-20.06,10.73-31.42,9.13-8.65-1.23-16.91-5.22-25.32-8a28.65,28.65,0,0,1-3.16-1.49c4.5,18.36,2.16,35.55-7.73,51.75V237.7l-1.06-.46c-.8,1.4-1.57,2.82-2.42,4.2-3.19,5.21-6,10.72-9.74,15.5-3.36,4.29-9.23,4.77-15,2.11,3.24-3.45,6.42-6.73,9.48-10.13,9.79-10.88,11.32-24,9.89-37.79-.17-1.65-2.36-3.44-4-4.53-10.78-7-21.72-13.86-28.34-25.38C4,163.23,1.83,144.7,12,125.84c5.42-10,14.38-14.63,25.51-14.16s20.19,5.1,25.34,15.62C63.87,129.35,64.64,131.51,66,134.68Zm443.42,7.65c-10.8,10.41-17.23,8-26.6,4.81-5.86-2-11.33-5.59-16.47-9.18-13.75-9.59-24.92-21.93-35.68-34.68-18.95-22.45-39.37-43.21-64-59.7C328.51,18.07,287.7,5.31,241.53,13.49c-30.16,5.34-56.39,18.8-80.25,37.35-20.65,16-37.74,35.55-53.65,56.16-11.84,15.34-24.55,29.83-42.36,38.56-4.65,2.28-9.69,3.74-14.55,5.58,6.77-.35,13.55-1.15,19.75-3.49,15.85-6,26.56-18.64,37.19-30.95C123,99,136.51,79.74,154.53,64.45c22.09-18.76,46.2-33.75,74.59-41.19,19-5,38.23-7.07,57.73-4.51,27.43,3.61,52.11,14.36,75,29.72s41.79,34.92,60.45,54.9c11.08,11.87,22.45,23.56,34.52,34.4,12.4,11.15,27.1,16.45,44.18,12.81C506.29,149.45,509.19,147.23,509.39,142.33ZM237,62.18c6.11,5.42,11.25,10.21,16.67,14.68,2.41,2,3.88,3.57,2.56,7a113.67,113.67,0,0,0-3.77,13.31c-1.23,5-2.25,10-3.57,15.83,9.5-6.1,17.78-11.35,26-16.73,2.43-1.6,4.21-1.37,6.65.32,7.46,5.16,15.17,10,22.82,14.82a17.23,17.23,0,0,0,3.47,1.12,30.24,30.24,0,0,0-.68-3.52c-2.73-8.11-5.33-16.27-8.32-24.29-1.44-3.85-1.24-6.13,2.78-8.42,5.66-3.24,10.77-7.44,16.74-11.69-1.58-.79-2.71-1.78-3.92-1.9a122.51,122.51,0,0,0-13.92-.85c-11.42.18-11.42.3-15.51-10.8-.4-1.08-.66-2.21-1.08-3.29-2.09-5.31-4.21-10.62-6.32-15.93A197.86,197.86,0,0,0,267,56.1c-1.1,2.93-2.12,4.83-6.2,4.72C253.45,60.61,246,61.59,237,62.18ZM164.81,77.7c-.64,7.31-.9,13.67-1.91,19.91a8,8,0,0,1-4.1,5.35c-5,1.92-10.28,3-15.46,4.36,6.31-8,17.1-12.41,17.41-25.53C150.5,88.21,143.43,96,140,107.31c6.43,3.07,12.91,6,19.17,9.31a5.77,5.77,0,0,1,2.39,4.36c0,6.09-.48,12.18-.56,18.27,0,1.7.73,3.42,1.47,6.59,4.21-6.61,7.46-11.78,10.8-16.89.67-1,1.68-2.68,2.48-2.65a43.07,43.07,0,0,1,9.18,1.31c4.34,1.11,8.58,2.62,13.89,4.28-3.71-6.68-6.51-12.51-10.06-17.84-2.37-3.55-1.86-5.61,1-8.48,3.78-3.81,6.95-8.23,10.89-13a19,19,0,0,0-3.56,0c-2.88.73-5.79,1.41-8.58,2.42-7.57,2.75-10.11,2-14.61-4.67C171.18,86.35,168.27,82.5,164.81,77.7ZM428.92,201c-34.16-28.35-96.71-61.57-166.53-57.22-47.92,3-90.71,20.41-129.28,48.59A104.14,104.14,0,0,0,149,185c32.36-18.54,66.52-31.7,103.9-35.6a215.62,215.62,0,0,1,68.81,3.83c29.59,6.46,56.6,19,82.64,34.07C412.45,192,420.72,196.4,428.92,201ZM412,117c-.12-.44-.24-.88-.35-1.32l-20.1-3.28c-1.06-8.28-2-15.91-3.17-24.76l-13.54,19-19.65-5.07L354,102.84c3.54,4.39,6.83,9,10.73,13.08,2.12,2.2,2.51,3.72,1.2,6.43-2.9,5.94-5.43,12.06-8.11,18.11,4.06-1.29,7-3.41,10.27-4.81,11-4.76,8.94-5.32,15.73,3.21q3.26,4.09,6.82,7.94a18.9,18.9,0,0,0,3.26,2.31l1.52-.75c-.86-5.29-1.25-10.72-2.71-15.84-1.12-3.9-.82-6.13,3.13-7.82C401.35,122.35,406.65,119.57,412,117ZM231.54,62.55c-7.29,14.68-2.4,43.77,13.94,51.4C246.3,94.84,238.41,78.86,231.54,62.55ZM440.37,213.39c11.22,2.42,22.95.75,34-3.13,25.9-9.09,45.53-24.47,49.23-54a39.84,39.84,0,0,0-4-23.22c-.38,8.48.52,18.25-1.47,27.4-5.47,25.17-22.87,39.71-46.56,46.94C461.37,210.49,450.54,211.49,440.37,213.39ZM324.18,63.85C316.41,72,308.72,105.57,313,112.61,326.29,106.05,330.44,76.38,324.18,63.85ZM283,31c2.27,12.78,29,31.7,39.67,28.35C313.45,44.42,300.5,35,283,31ZM233.17,58.12c7.93-.67,14.77-2.63,21.05-7.78,6.68-5.47,14.68-9.32,17.37-18.61C256.73,34.61,247,38.13,233.17,58.12ZM203.58,91c-4.87,13.77-4.28,27.51-1.85,41.72C212.45,126.31,213.29,100.64,203.58,91Zm193.18,60.76c11.89-3.83,22.26-23.6,18.63-34.16C403.13,125.54,400,138.17,396.76,151.77Zm-2.74-.28c-11.08-6.77-22.37-11.9-36.21-8C366.3,153.75,388.26,158.47,394,151.49ZM139.81,111.43c-2.45,12.55,6.16,28.35,18.47,30.91C154.88,130.23,151.85,118.44,139.81,111.43Zm24.58,34c9.89,6.44,32.45-1.67,33.88-12.34C186.07,134.74,174.78,137.69,164.39,145.46ZM47.66,198.41c-10.9-7-17.55-17.19-23.09-28.39-5.67-11.44-6.37-23.54-4.93-36C5.57,158.13,27,189.76,47.66,198.41ZM351.77,103c-7.13,12-5.14,31.49,3.81,37.91C357,127.94,358,115.52,351.77,103Zm-43.69,13.5c-4.62-.79-8-1.88-11.35-1.83-6.65.1-13.13,1.47-18.28,6.1-1.15,1-1.4,3.09-2.07,4.67,1.6.59,3.16,1.54,4.79,1.66a19.57,19.57,0,0,0,6.37-.63C294.39,124.6,301.64,123.5,308.08,116.5ZM48.86,155.41,35.64,166.49c.71.89,1.44,2.77,2.59,3.06,4.43,1.16,5.62,4.61,6.79,8.29.45,1.42,1.14,2.77,2.07,5,2.53-10.9,2.53-10.9,11.27-14.44l-8.1-5.71C49.83,160.43,49.37,158,48.86,155.41ZM171.11,79.57c8.07,9.94,23.25,13.55,29.62,7.25C192.5,79.63,176.8,75.63,171.11,79.57Zm101,48.16c2.7-7.39,1.72-9.93-4.15-11.58-7-2-14.19-4.54-21.29,2.61Zm223,49.92c2.47-6.08,5.2-11,13.41-12.25-6.66-2.93-12.82-4.24-11.88-12.33l-13.94,12.84C488.79,167,494.8,169.11,495.19,177.65ZM392.4,88.49c1.7,15.41,12.84,26.89,21.45,22.91C409,101.9,400.87,95.72,392.4,88.49Zm-7.76-1.81c-9.39,1-18.32,2.74-25.88,8.62a5.85,5.85,0,0,0-1.87,2.6c-.1.26,1.29,1.49,2.05,1.55C368,100.16,380,97.82,384.64,86.68ZM182.86,55.32l41-20C208.93,39.41,194.72,45,182.86,55.32Zm153-7.49L367.5,65.59C363.38,59.07,343.25,48,335.88,47.83ZM213.3,137.66l.33,2.3,25.77-5.55-.39-1.85Zm-183.61,4.4c3.34,8.42,9.24,11.64,15.19,8.4Zm172.7-89.19,1.15,1.9,16.15-7.1-.95-2.1Zm217.76,95.59c-.39.73-.78,1.46-1.16,2.19l18.63,10.23.6-1.11Zm-105.91-15-.6,1.86,19.8,4.42c.14-.62.29-1.24.44-1.86ZM445.15,154.2c.34-.62.68-1.24,1-1.86l-17.54-10.07-.93,1.65ZM316,125.6l-.35,1.69,19.85,4.38c.13-.65.27-1.29.41-1.94Zm110.86,41.13c.19-.47.39-.93.59-1.4l-18.81-10.5c-.24.45-.49.9-.74,1.35Zm-67.8-94.81,1.06-1.6Q352,65.54,344,60.74c-.32.53-.63,1.07-.94,1.6ZM106.71,140.43l.88,1.37,15.51-10.05c-.3-.46-.6-.92-.89-1.38Q114.46,135.39,106.71,140.43Zm109.1-83.85-.67-1.4-14.95,7.16.6,1.27Zm-85.88,82.63-.86-1.23-14.95,10.53.7,1Z"/><path d="M515.68,619.92c-1.19,13.33-5.66,25-11.52,35.86-4.56,8.44-5.47,14.49,2.47,21.74,7.52,6.87,13.25,15.7,20,24-6.28,2.24-12.59,4.92-19.14,6.74-24.37,6.78-48.62,14.19-73.3,19.61-23.09,5.07-46.58,8.58-70,11.57-22.7,2.89-45.56,5.2-68.41,6-27.58,1-55.28,1.29-82.82-.22-43.56-2.39-86.9-7.89-129.21-18.84-25.4-6.58-50.23-15.39-75.3-23.23A20.3,20.3,0,0,1,5.2,701.4c7.82-9.66,15.33-19.32,23.31-28.57,3.51-4.07,3.44-7.5,1.15-12C23.3,648.26,17.53,635.43,15.41,621c.71-.08,1.59-.47,2.21-.22C39.13,629.54,61.9,633.93,84.37,639c25.3,5.74,50.9,10.29,76.52,14.4,18,2.88,36.2,4.33,54.34,6.1,33.53,3.27,67.18,3,100.68.72,25.86-1.76,51.64-5.53,77.29-9.49,37-5.71,73.1-15.15,108.83-26.17C506.42,623.23,510.73,621.62,515.68,619.92ZM55.9,693.75c.08,0,1,.34,1.81.74,4.12,2,6.11,1.27,6.73-3.83s2.48-10.1,3.8-15.14l1.72.2c0,5.79-.06,11.58.05,17.37a10.45,10.45,0,0,0,1.08,3.07,15.2,15.2,0,0,0,3.44-1.39,7.45,7.45,0,0,0,1.56-2.48q4.13-7.24,8.23-14.49l.87.31c-1.62,7-3.23,14-5,21.55l8.55.9a147.12,147.12,0,0,1,7.31-36.12l-8.22-2.5L76.35,681.36c-.83-6.76-1.35-12.21-2.19-17.61-1-6.37-2.47-7.32-8.52-6.84C62.37,669.29,59.18,681.33,55.9,693.75ZM415.26,706.1c-1.91-12.59-3.78-24.9-5.74-37.85l-8.25,1.5c1.67,7,3.19,13.38,4.71,19.73-5.31-5.44-9.73-11.17-14.27-16.81a3.41,3.41,0,0,0-2.52-.95c-5.35.36-5.9,1.32-4.35,6.83A22.5,22.5,0,0,1,385,681c1.59,10.07,3.21,20.14,4.86,30.5,1.11-.29,2.19-.59,3.28-.85,5.73-1.36,5.58-1.72,3.47-7.14-1.79-4.62-2.56-9.63-3.78-14.47l1.18-.54c3.94,5,8,10,11.78,15.12C408.24,707,410.82,709,415.26,706.1ZM276.2,719.48c-2.35-4.83-4.87-9.56-6.89-14.49-.51-1.23.18-3.39,1-4.67,5.41-8.28,2.51-18.3-6.47-20.28-4-.89-8.43-.15-12.47-.15v40h8.9c-.59-5-1.13-9.58-1.67-14.13l1.58-.68c.91.87,2.15,1.59,2.65,2.66a50.86,50.86,0,0,1,2.76,7.39C267.2,720.58,271.08,722.08,276.2,719.48Zm155.1-55.41c-9.21,1.31-9.12,1.31-9.31,9.86-.13,5.64-.55,11.27-.9,16.9-.3,4.89-.67,9.77-1.06,15.42l9.66-2.21c-.69-3.64-1.21-6.41-1.61-8.57,9.84-6.15,8.6,3.59,11.81,7.19l8.78-2.48C442.62,687.62,436.93,675.78,431.3,664.07ZM216.82,718.24c8,2.9,9.16,2.35,9.87-5.86.38-4.32,3.09-3.84,6-3.8,4.29,0,4.62,3.63,3.91,5.89-1.66,5.24,1.11,5.24,4.7,5.09,1.76-.07,3.53,0,4.69,0-3.29-13.81-6.51-27.32-9.84-41.31-2.88,1.32-6.73-1.71-8.22,3.56C224.44,694,220.55,706.08,216.82,718.24ZM93.05,702l10,2.13v-8.73c1.39.07,2,.08,2.65.14,6.27.64,6.07.63,5.59,6.9-.1,1.26,1.77,3.37,3.17,3.89,1.85.68,4.13.17,5.73.17-.42-11.72-.85-23.12-1.23-34.53-.1-2.79-.31-4.92-4-5.64-3.47-.67-5,0-6.43,3.25C103.76,680.12,98.61,690.45,93.05,702Zm271.51,12.08c-.11-11.28.17-11.58,9.2-10.06.86,3.13,1.73,6.26,2.56,9.27,2.15-.29,4-.51,5.76-.79,2.52-.39,3.35-1.4,2.12-4.07-4.85-10.63-9.39-21.41-14.39-32-.56-1.18-3.36-2-5-1.78s-4.43,1.63-4.59,2.82c-1.65,12-2.87,24-4.15,36-.06.55.44,1.16.79,2ZM199.79,717c-1.8-11.22-3.54-22.44-5.44-33.64-1.25-7.33-1.35-7.31-8.68-6.5l-13.21,38.43h9.47c0-1.45,0-2.45,0-3.44.15-2.89.17-5.45,4.49-5.43,3.94,0,4.61,1.74,4.81,5.08C191.63,718.21,192.14,718.42,199.79,717Zm114.38-16.48h7.48c-.38-2.52-.72-4.72-1-6.84l-7.21-.32v-7.93l11.44.72c-.15-4-1.19-7.22-5.71-7.1-5,.14-10,.92-14.31,1.35,1,13.19,1.92,25.6,2.84,37.82,4.4,0,8.77.44,13-.1,7.07-.89,7.67-2.23,5.77-8.54l-12.27,1.26Zm32.52-15.41c1.48-5.11.26-7.76-3.71-8.48-4.89-.88-11,1.94-12.77,5.88a11.08,11.08,0,0,0,3.55,13.12c2.71,2.15,6,3.73,8.31,6.22,1.33,1.43,2.4,4.94,1.57,6.16-1.8,2.66-4.74,2.22-7.24-.07a33.14,33.14,0,0,0-4.21-2.86l-1.32,1c.43,2.66-.07,6.24,1.47,7.81,3.68,3.75,8.74,3.31,13.5,1.76,4.43-1.44,5.87-5.05,6.12-9.29.4-6.8-4-10.46-9.06-13.67-3-1.87-7.72-3.6-5.64-7.8S343.51,683.61,346.69,685.11Zm-195,15.17c-1,5.12-3.93,8.91,1.5,11.68s11.62,2.23,14.66-1.45a12.44,12.44,0,0,0,.13-16.4c-2-2.45-4.3-4.66-6.1-7.24-.86-1.21-1.59-4.06-1.13-4.38A8.3,8.3,0,0,1,166,681c1.54.17,2.93,1.66,4.45,2.6,2.16-6,1.38-7.67-4.16-9.54a9.77,9.77,0,0,0-10.49,2.77c-3.18,3.27-4.34,7.76-1.86,11.92,2.1,3.51,5.48,6.25,7.57,9.76,1,1.7,1.26,4.94.28,6.5-1.77,2.83-4.39.92-6.37-.56C154.32,703.63,153.53,702.38,151.7,700.28ZM127.82,696l-1.59.33c0,3.42-.84,7.14.23,10.18s11.1,4.51,14.8,2.76c4-1.88,6.75-7.83,4.9-12.32-1.53-3.71-4.12-7-6.44-10.36-1.8-2.6-5.75-5-2.23-8.2,1.11-1,5.15,1.26,8.55,2.23,3.42-3,3.2-6.06-1.61-8.5s-9.69-1.55-13,2.39a11.4,11.4,0,0,0-.2,13.87,83,83,0,0,0,5.91,6.68c2.24,2.3,2.73,5.22.45,7-2.59,2-5.22.39-6.95-2.33C129.78,698.39,128.76,697.2,127.82,696Zm331-3.25c-1.55-12.13-2.91-22.82-4.32-33.87l-9.68,2.31c2.86,13.23,5.57,25.76,8.41,38.87,4.09-.75,8.62-1.53,13.14-2.42,7.21-1.42,9.27-7.45,4.91-13.32Zm-164.3,26.55c-1-11-1.94-21.69-2.95-33a52.66,52.66,0,0,0,5.94.81c1,0,2.49-.24,2.95-.93a3.24,3.24,0,0,0-.15-3.08c-1.2-1.4-2.82-3.27-4.37-3.37a78.62,78.62,0,0,0-15.87.36c-1.5.21-3.51,3.34-3.66,5.27-.25,3.18,2.48,2.61,4.67,2.16a36.13,36.13,0,0,1,4.14-.34v32.08Zm-110.45,12.9-.27,1.86,13.6,1.87.26-2.09ZM53.69,647.37c-.79-4.1-6.06-5.58-9.42-2.89Z"/><path d="M117,385.39c9.77-5.17,11.37-12.53,11.14-21.56-.74-29.08-.72-58.18-1.23-87.26-.1-5.69-1.8-11-7-14.59-1-.72-1.53-2.25-2.67-4,2.61-.49,4.36-1.08,6.12-1.1,17.1-.16,34.22-.78,51.29-.09,8.94.36,18,1.88,25.83,7.56,17.14,12.51,15.25,40.54-3.54,50.22-.87.45-1.73.94-2.41,1.31,4.46,2.39,9.38,4.28,13.42,7.33,7.55,5.72,10.33,14.17,10.47,23.27C218.59,358,217,369,207.31,377.15c-7.36,6.27-16.29,8.77-25.23,9.12-20.27.81-40.59.3-60.89.28C120.29,386.55,119.4,386.07,117,385.39Zm38.79-60.14c0,5.8,0,10.59,0,15.39s.16,9.65.11,14.47c-.16,14.74,0,14.91,14.77,13.4,2.14-.21,4.59-.27,6.26-1.37,2.93-1.93,6.86-4.17,7.7-7.07a49.55,49.55,0,0,0,2.1-18.43c-.95-9.37-5.63-13.55-15-15.18C166.65,325.6,161.49,325.66,155.76,325.25Zm-.88-34.19H155c0,4.48-.21,9,.1,13.43.12,1.7,1,4.38,2.21,4.83,10.82,4.05,23.55-3.55,25.55-14.93,1.41-8-4-18.47-10.64-19.68a71.29,71.29,0,0,0-13.85-1c-1.18,0-3.22,2.11-3.33,3.38C154.64,281.75,154.88,286.41,154.88,291.06Z"/><path d="M225.82,318.75c1.39-11.83,1.8-23.87,4.38-35.43,4-17.77,19.12-28.53,37.5-28.83,10.61-.17,21,.82,30.36,6,12.5,6.9,18.74,18.51,19.69,32.15,1.22,17.68,1.36,35.49,1,53.22-.21,9.7-2.25,19.43-8.24,27.66-7.07,9.73-17.42,13.75-28.72,14.8-12.66,1.18-25.3.61-36.34-7.23-7.3-5.19-12.5-12.12-14.29-20.76-2-9.85-2.95-19.94-4.08-30-.42-3.78-.07-7.65-.07-11.49Zm62.91,8.86-1.74-.07c0-10.47.23-21-.11-31.41a69.85,69.85,0,0,0-2.24-15.2c-1.34-5.15-6.17-10.09-12.89-9.59-5.48.42-9.62,3.85-11.8,11-4.95,16.36-4.36,33.17-3.54,49.94.43,8.76,1.44,17.51,2.64,26.21a14.15,14.15,0,0,0,8,10.82c8.18,4.1,16.93-.91,18.71-11.55C287.45,347.83,287.8,337.67,288.73,327.61Z"/><path d="M350,257.29h47.64c-8.12,9-2.07,17.42-.11,25.35,6.4,25.75,13.48,51.34,20.9,76.81,2.75,9.42,6,19,13.72,26.66a253.4,253.4,0,0,1-47,.5c.73-1.89.84-3.15,1.52-3.81,4.59-4.47,4.77-9.81,3.79-15.69-1.62-9.66-1.47-9.68-11.26-9.67-6,0-12-.14-18,0a6.36,6.36,0,0,0-4.27,1.72c-4.95,6-3.62,17.09,2.29,22.17,1.13,1,1.75,2.53,2.61,3.81-1.45.52-2.9,1.47-4.35,1.48q-17.67.11-35.34-.17c-1.06,0-2.78-1-3-1.8-.34-1.24-.1-3.56.72-4.05,7.23-4.3,8.88-12,10.71-18.93q11.64-44.07,22-88.47C353.62,268.71,351.05,263.36,350,257.29Zm9,81.12c9.07.78,17,2.37,24.89.09-3.63-15.48-7.08-30.17-10.52-44.87l-2.25-.16C367,308.3,363,323.12,358.91,338.41Z"/><path d="M439,537.57c6.78-.74,13.19-1.19,19.5-2.26,2.06-.35,3.88-2.28,5.77-3.55,2.39-1.62,4.51-2.14,4.71,1.69q.66,12.69.89,25.39a3.72,3.72,0,0,1-2.25,2.68c-1,.3-2.43-.33-3.51-.86-2.52-1.24-4.84-3.54-7.43-3.84-5.24-.62-10.6-.19-16.73-.19,0,4.12,0,8,0,11.92,0,6,.08,12,.06,18,0,3.15,1.27,5.22,4.6,5.24,5.48,0,11.13.64,16.38-.49,3.63-.78,6.79-4,10-6.3,1-.73,1.33-2.45,2.36-3.14,1.95-1.29,4.14-2.8,6.31-2.92.95,0,2.85,3,3,4.77a217.08,217.08,0,0,1,.79,22.37c-.09,3.56-1.9,6.29-6.59,6.27-23-.08-45.92.15-68.88.15-1.47,0-2.93-1.06-4.4-1.62.62-1.42,1.29-2.81,1.86-4.25,1.55-3.87,4.34-7.76,4.36-11.65.15-29.8-.28-59.6-.41-89.4,0-5.35-1-10.11-4.87-14.14a5.86,5.86,0,0,1-1.41-4.59c.18-.79,2.65-1.51,4.1-1.54q28.44-.41,56.88-.56c4,0,7.95.19,11.93.24,3.23,0,4.92,1.6,4.94,4.82.05,7.15.22,14.31,0,21.45-.06,1.43-1.68,3.88-2.78,4a12.25,12.25,0,0,1-6.68-1.53c-1.24-.67-1.39-3.18-2.6-4.09-2.49-1.87-5.27-4.28-8.11-4.55-5.57-.53-11.26.43-16.9.43-3.5,0-5.08.85-4.95,4.81C439.17,519.25,439,528.2,439,537.57Z"/><path d="M140.48,610.61c11.43-10.39,7.78-24.13,8.25-36.65.8-21.63.3-43.3.54-65,.07-6.05-1.24-11.27-5.26-16s-3-7.48,3.23-7.6c18.13-.35,36.27-.32,54.41-.36a127.28,127.28,0,0,1,13.95.54c1.21.13,3.17,2,3.19,3.11.18,6.65.07,13.32-.37,20-.11,1.6-1.8,4.36-2.8,4.38-2,0-5.09-1-5.81-2.44-2.54-5.28-6.57-6.35-11.8-6.07s-10.34-.11-15.49.2c-1.36.08-3.74,1.63-3.77,2.57-.28,9.57-.17,19.15-.17,29.24,9.23-.34,17.89,1.72,25.11-5.23,1.81-1.74,5.17-1.65,5.25,2.28.18,9,.06,18,.06,28.63-9.4-6.42-19-7.77-30-6.11V569.6c0,5.67-.33,11.36.19,17,.18,1.88,2.51,5,3.91,5.06a93,93,0,0,0,19.74-1.3c2.67-.53,5.53-3.65,6.93-6.31,2.66-5.06,2.25-5.28,8.51-5.34,3.3,6.17,2.53,13,2.63,19.66.19,14-.09,14.21-14,14.21q-29.73,0-59.48,0a62.14,62.14,0,0,1-6.21-.61Z"/><path d="M84.56,565c0,10-.49,20,.25,29.82.29,3.79,3.41,7.36,5.18,11.07.65,1.37,1.14,2.83,1.7,4.25-1.5.5-3,1.45-4.49,1.41-9.58-.22-19.14-.69-28.72-1-2.89-.09-5.8,0-9.73,0,1.56-2.63,2.69-4,3.28-5.63C53.48,601,55.76,597,55.79,593c.21-29.29,0-58.59-.21-87.89,0-5.29-.74-10.36-4.3-14.87-2.9-3.66-1.64-5.74,3.15-5.67,16.29.22,32.62.07,48.86,1.14,11.42.75,22.56,4,28.55,15.15a50,50,0,0,1,5.54,16.78c1.7,13.19,1.76,26.36-8.79,36.75-6.08,6-13.82,8.28-22,9.13C99.35,564.29,92.06,564.55,84.56,565Zm-.65-60.41V547.5c9.46.08,18.77.93,23.93-7.81,5.38-9.12,4.19-19.09-1.09-27.85C101.56,503.23,92.4,504.55,83.91,504.63Z"/><path d="M286.44,521.56c-1.67-6.77-4.17-12.53-10.13-16.26s-12.18-3.65-16.52.45-5.4,11.76-1.54,17a68.2,68.2,0,0,0,11.57,11.46c8.31,6.85,17.42,12.79,25.27,20.1,11.06,10.29,14.11,23.45,9.22,37.72-4.28,12.46-14.1,18.36-26.81,20.75a40.07,40.07,0,0,1-28.64-5c-3.21-1.87-5.3-1-8,1-2.25,1.73-5.57,3.91-7.83,3.39-3.62-.85-4.2-4.77-4.12-8.53.2-9,0-18,.13-27,.06-3-.32-6.58,4.26-7.13,8.41-1,9.41.07,11.89,5.07,3,6,6.54,12,11.24,16.6,6.29,6.14,18.85,1.84,21-6.69a13.61,13.61,0,0,0-4.68-14.4c-7.53-5.92-15.59-11.18-23.56-16.52-10.41-7-18.71-15.54-20.73-28.44C224,496.66,243,480.63,268,483.93c5.37.71,10.59,2.46,15.95,3.2,2.27.31,4.82-.48,7.08-1.24,4.79-1.61,6.9-.32,6.92,4.62q0,12,0,24c0,7,0,7-7.19,7Z"/><path d="M329.7,610.84c10.54-7.64,8.73-17.7,8.47-28-.58-23.45-.09-46.94-.15-70.41a79.1,79.1,0,0,0-1.09-9.27c-5.28,1.9-10.71,3.48-15.75,5.88-1.8.85-2.38,4-4.06,5.5s-4,2.82-5.82,2.63c-1.23-.13-3-3.06-3.09-4.8-.36-8-.14-16-.26-24-.06-3.63,2.55-3.45,4.8-3.49q16-.27,31.93-.31c14.81-.05,29.62,0,44.43,0,7.44,0,7.83.32,7.86,7.68,0,6.16.07,12.32,0,18.48,0,2.82.26,6-3.55,6.7-3.33.61-6.18.5-8.34-3.26-3.71-6.46-8-11.18-19.49-8,0,7.6,0,15.5,0,23.4.1,19.65.46,39.3.22,58.95-.09,7.32,1.34,13.71,6,19.4,2.19,2.68,1.12,4.52-2.06,4.56-12.16.14-24.32.07-36.48,0C332.57,612.49,331.86,611.86,329.7,610.84Z"/><path d="M216,395.27c4.54,0,9.24-.14,13.94,0,6,.22,12,.15,17.81,1.19,11.4,2,18.91,10.55,20.2,22.13,1.15,10.27,1.16,20.42-1.79,30.56-2.85,9.82-10.48,17.24-20.79,17.75-8.76.42-17.58-.06-26.37-.23-.87,0-1.73-.59-3.13-1.1,5-4.88,5.09-10.77,5-16.71-.25-14.09-.27-28.19-.95-42.25C219.69,403,217.44,399.38,216,395.27Zm22.38,12.62c-.12,2.07-.31,3.87-.31,5.67,0,11.82-.07,23.64.07,35.45,0,2.33.86,4.66,1.32,7,3.32-1.14,6.84-1.9,9.86-3.58,1.42-.8,2.12-3.29,2.69-5.15,3.11-10.12,2.76-20.31.12-30.45C250.27,409.78,246.35,407.2,238.35,407.89Z"/><path d="M35.5,434c-.15-.46-.48-.94-.42-1.38.23-1.75.57-3.48.87-5.22-2,.2-4.16-.12-5.8.7-6.32,3.13-12.46,6.63-18.66,10-.44-.52-.88-1.05-1.33-1.57,5.11-5.3,10.21-10.61,16.16-16.8l-26.27-4,0-1.42c8.07-4.91,18.15-2.7,27.23-6.64L6.57,388.92c11.31-1.24,18.36,7.12,27.93,10.37,2.15-11.85,1.78-24.06,8-35.08,1.49,6.12,2.92,12.26,4.5,18.36,1,4,2.24,8,3.51,11.89,1.11,3.49,3.13,3.28,5.58,1.2C63,389.78,69.92,384,76.84,378.1l1.73,1.49L59.75,406.33c8.54,5.36,18.68,2.81,27.9,6.55L55.54,420c6.34,9.73,12.52,19.19,18.7,28.66L73,449.94l-24-20.2c-3.22,7.16-6,13.24-8.87,19.72-.78-3.95-1.4-7.78-2.36-11.52-.37-1.43-1.55-2.64-2.37-4Zm6.93-30.64c-2.45,3.41-4.54,6.33-6.61,9.23,1.1,2.79,2.51,6.33,3.83,9.67,8.3.34,8.4-6.66,9.21-9.56Z"/><path d="M305.26,467.55V451c-4.85,0-8.83-.12-12.8,0-5.78.21-8.85,5.54-6.46,11.08.63,1.44,1.43,2.8,2.72,5.3-7.68,0-14.38.07-21.07-.15-.52,0-1.69-2.83-1.36-3.17,8.45-8.73,7.87-20.8,11.47-31.25,3.49-10.12,5.67-20.69,8.25-31.11.94-3.78,2.72-5.34,6.89-5.27,11.78.21,11.77,0,15.38,11.29,4.62,14.46,9.09,29,14,43.33,1.47,4.29,4.16,8.18,6.42,12.19,1.06,1.87,2.46,4.06-1,4.2C320.1,467.76,312.49,467.55,305.26,467.55Zm-9.6-53.49-.8,0c-1.77,8.6-3.53,17.21-5.38,26.2h12.65C299.91,431.25,297.78,422.65,295.66,414.06Z"/><path d="M543.57,414.47l-28.05,4.73,15.81,17.2-.84,1.25c-5.5-3-11-6-16.5-8.91-1.59-.85-3.2-1.93-4.91-2.21a3.73,3.73,0,0,0-3.13,1.8c-1.72,5.7-3.1,11.5-4.93,18.6l-8.61-20.42-23.22,16.35-1.42-1.44c5.78-7.65,11.57-15.29,17.8-23.52l-28-4.95-.11-1.76,26.69-4.52-21.29-29.73c5.07.64,17.21,10.24,28.44,22.11l11.41-36.61,2.52.25c.8,12.18,1.61,24.36,2.46,37.33,10-4.48,17.07-13.67,28.78-13.62L515,406.75l28.9,5.25Zm-41.09,9.61c6.4-6.59,6.26-12.91-1.14-19.23l-8.82,9.53Z"/><path d="M362,242.35H345.84c-.41-5.16.77-11.23-1.43-12.92-2.9-2.23-8.58-1.79-12.79-1-2.57.47-1.81,7.92,1.76,13.16l-17.49-1.17c5.25-16.87,10.55-33.64,15.63-50.47.86-2.87,2.19-3.54,5-3.26,10.22,1,10.05,1,12.49,11,2.93,12,6.13,24,9.39,35.91C359.15,236.36,360.6,239,362,242.35Zm-22.74-42.86-.78-.06c-1.69,6.5-3.38,13-5.18,19.9l10.76,1.08C342.35,213,340.8,206.23,339.26,199.49Z"/><path d="M178.9,188.78a13.62,13.62,0,0,1,3-1.19c5.41-.73,10.83-1.42,16.27-2,6.19-.62,11.9.91,15.18,6.41,3.82,6.4,4.51,13.62,1.25,20.49-3.4,7.17-8.91,10.11-20.43,11.49l5,16.55L182.93,243c0-9.7.32-18.51-.09-27.28s-1.54-17.49-2.36-26.23Zm15.57,7.08c0,5.3-.22,10.1.07,14.86.21,3.64,3.27,5.09,6.29,3.37s4.88-9.89,3.32-14.63C202.37,194.07,198.45,195.09,194.47,195.86Z"/><path d="M172.49,635.74c61.41-7.72,122.83-4.52,184.26-1C295.34,641.74,233.91,639.8,172.49,635.74Z"/><path d="M292.88,230.35c7.45.51,14.23,1.59,19-5.65l.75,1.19c-.25,3.87-.29,7.78-.87,11.61a4.15,4.15,0,0,1-3,2.7,234.49,234.49,0,0,1-28.91-.87c4.91-16.41,14.32-29.93,22-44.5-5.91-1.88-11.18-2-15.64,2.91a3.44,3.44,0,0,1-2.95,1c-.72-.24-1.27-1.65-1.49-2.63a32.06,32.06,0,0,1-.64-5.44c-.14-3.42,1.36-5.19,5-5.16,9.61.11,19.21,0,30.35,0-1.66,4.6-2.34,7.77-3.86,10.46-5.71,10.08-11.7,20-17.56,30C294.33,227.23,293.76,228.57,292.88,230.35Z"/><path d="M276.86,186.35c-1.61,4.64-2.79,9.52-4.94,13.94-4.12,8.47-8.81,16.68-13.2,25a52.69,52.69,0,0,0-2,4.94c7.91,2.34,13.53-1.38,18.65-6.76l1.31,1.33c-.33,3.86-.36,7.78-1.18,11.53-.26,1.19-2.62,2.69-4.05,2.73-8.93.25-17.87.12-27.92.12.7-3.37.73-5.7,1.65-7.6,5.42-11.15,11.06-22.19,16.6-33.28.78-1.57,1.38-3.23,2.31-5.41-6,.52-11.45.23-15.67,4.66-2,2.08-3.31,2-3.75-1.26-1.66-12.35-1-11.08,9-10.81,7.15.2,14.31.13,21.46.19A12.62,12.62,0,0,1,276.86,186.35Z"/><path d="M76.8,256.52C59.39,284.92,50.16,314.94,57,348.65c-5.49-2.22-12.69-23.67-13-35.88C43.37,287.33,56.37,269.85,76.8,256.52Z"/><path d="M221.38,185.94h16.69c-3.31,17.23-1.65,34.61.27,52.65H221.85C225,221.23,223.53,204,221.38,185.94Z"/><path d="M361.76,441.34c-3.37-6.59-10.38-6.77-17.43-8.09l17.37-8.42c4.44.89,8.95,2.33,13.53,2.61,20,1.24,40.08,2.14,60.12,3.21.71,0,1.4.61,2.15,2.09-5.09.61-10.17,1.46-15.27,1.79-17.57,1.12-35.15,1.94-52.7,3.18C367.14,437.88,364.88,439.83,361.76,441.34Z"/><path d="M102.51,432.24c1.78-.51,3.54-1.36,5.34-1.49Q131.42,429,155,427.58c4.85-.3,9.71-.29,12.46-3.94l18.7,8.73c-6.09,2-13.4.85-16.21,8.66-8.09-5.57-16.84-4.07-25.35-4.51-14-.74-28-1.75-41.93-2.65Z"/><path d="M507.8,435.16c23.77,20.36,29.75,48.85,14,68.66C523,478.92,515,457.12,507.8,435.16Z"/><path d="M35.46,434A199,199,0,0,0,20,477.66C18.4,485,17,492.37,15.11,501.19c-2-4.6-4.48-8-4.94-11.66-2.88-22.9,5.62-41.21,23.48-55.42.39-.31,1.22-.07,1.85-.08Z"/><path d="M451.56,250.19c17.33,8.47,43.53,73.69,35.5,98.39C482.36,313.46,471.37,280.6,451.56,250.19Z"/><path d="M462.92,241.87c23.92,4.68,42.44,41.15,35.95,71.45-.91-4.22-1.94-8.42-2.72-12.66-3.84-20.85-12.73-39.15-27.36-54.55C467.26,244.51,465.15,243.45,462.92,241.87Z"/><path d="M32.32,222.83C9,212.59-2.39,191.24,2.07,169.43c.7,2.09,1.26,3.47,1.62,4.91,3,12.34,10.06,22.22,18.8,31.14A36.38,36.38,0,0,1,32.32,222.83Z"/><path d="M168.7,219.79c-4.89,4.21-7.43,8.05-4.58,13.53-4.61-2.39-8.51-3-12.18,1.08v-6.11H128.18l-.34-1.71a51.2,51.2,0,0,1,5.36-1.92c3.22-.77,6.49-1.34,9.75-1.92,8.26-1.49,8.32-1.51,13.05-9.4C157.53,219.22,162.09,219.64,168.7,219.79Z"/><path d="M372.9,220.43l13.39-7.17c.82,2.38,1.83,5.37,3.07,9l17.89,3.34c0,.66-.07,1.32-.1,2-4.06,0-8.14.23-12.18-.06-5-.37-9.13.62-11.42,7.05Z"/><path d="M91.15,263.09c-12.38,17.91-17.6,38.5-23.11,59C64.55,307.23,77.73,272.15,91.15,263.09Z"/><path d="M519.81,519.26c4.81,6.65,3.82,15.35-2.54,21.76C516.3,533.55,513.91,526,519.81,519.26Z"/><path d="M295.67,70.35c-2.55,2.3-4,3.59-5.4,4.89-5.63,5.1-5.6,5.08-2.12,12,1.09,2.17,2,4.44,3.17,7.1-5-2.81-9.44-7.1-13.94-7.22-4.26-.12-8.64,4.15-14,6.57,7.23-10.15,5.11-17.59-5.34-23.07a75.88,75.88,0,0,1,8.4.06c4.11.47,6.47-1,7.58-5,.89-3.17,2.17-6.23,3.62-10.35,1.65,5.28,2.66,9.37,4.29,13.2.53,1.25,2.65,2.39,4.14,2.52C288.8,71.25,291.59,70.69,295.67,70.35Z"/><path d="M181.09,111l-6,10.13L163.92,113l8.45-11.21C174.89,104.45,178,107.77,181.09,111Z"/><path d="M382.58,128.32l-10.44-12.46c6.32.8,8-3.38,9.81-8.76,2,5.44,2.37,11.09,7.79,11.34Z"/><path d="M265.76,692.4c-.9,1.64-1.55,3.5-2.78,4.84a4.11,4.11,0,0,1-3.57,1c-.71-.24-1-2.1-1.25-3.28a9,9,0,0,1-.09-3c.24-2-1.42-5.22,2.43-5.3C263.84,686.61,265.79,688.41,265.76,692.4Z"/><path d="M433.88,686.24l-4.76.69v-8l1.07-.38Z"/><path d="M234.71,702.32h-5c.74-3.78,1.43-7.32,2.13-10.87l.68.08C233.21,694.94,233.9,698.36,234.71,702.32Z"/><path d="M111.81,689.64l-5.16-1.15c1.59-3.92,3.06-7.56,4.53-11.2l.63.17Z"/><path d="M364.72,697.58c.57-3.42,1-6.15,1.47-8.88l1-.35c1,2.8,2.1,5.6,3.34,8.89Z"/><path d="M188.6,690l1.59,9.34-5.52.26,3.14-9.75Z"/></g></g></svg>